<?xml version="1.0" encoding="UTF-8"?>
<svg width="24px" height="24px" viewBox="0 0 24 24" version="1.1" xmlns="http://www.w3.org/2000/svg" xmlns:xlink="http://www.w3.org/1999/xlink">
    <!-- Generator: Sketch 58 (84663) - https://sketch.com -->
    <title>Instagram</title>
    <desc>Created with Sketch.</desc>
    <g id="Symbols" stroke="none" stroke-width="1" fill="none" fill-rule="evenodd">
        <g id="Social-Stack-/-Dark-/-Desktop" transform="translate(0.000000, -56.000000)" fill="#181820">
            <g id="Social-/-Instagram-/-Dark">
                <g transform="translate(0.000000, 56.000000)">
                    <path d="M13.1604201,0.000809680479 C15.3834677,0.00447633281 15.8383141,0.0216004652 16.9475847,0.0722132578 C18.2248447,0.130469732 19.0971676,0.333343257 19.860456,0.630008276 C20.6495621,0.936628817 21.3187732,1.34694874 21.985936,2.01406396 C22.6530513,2.68122682 23.0633712,3.35043794 23.3700394,4.13954402 C23.6666567,4.90283244 23.8695303,5.77515526 23.9277867,7.05241535 C23.9861861,8.33234294 24,8.74099567 24,12.0000238 C24,15.2590043 23.9861861,15.6676571 23.9277867,16.9475847 C23.8695303,18.2248447 23.6666567,19.0971676 23.3700394,19.860456 C23.0633712,20.6495621 22.6530513,21.3187732 21.985936,21.985936 C21.3187732,22.6530513 20.6495621,23.0633712 19.860456,23.3700394 C19.0971676,23.6666567 18.2248447,23.8695303 16.9475847,23.9277867 C15.6676571,23.9861861 15.2590043,24 12.0000238,24 C8.74099567,24 8.33234294,23.9861861 7.05241535,23.9277867 C5.77515526,23.8695303 4.90283244,23.6666567 4.13954402,23.3700394 C3.35043794,23.0633712 2.68122682,22.6530513 2.01406396,21.985936 C1.34694874,21.3187732 0.936628817,20.6495621 0.630008276,19.860456 C0.333343257,19.0971676 0.130469732,18.2248447 0.0722132578,16.9475847 C0.0216004652,15.8383141 0.00447633281,15.3834677 0.000809680479,13.1604201 L0.000809680479,10.8396109 C0.00447633281,8.61653228 0.0216004652,8.16168593 0.0722132578,7.05241535 C0.130469732,5.77515526 0.333343257,4.90283244 0.630008276,4.13954402 C0.936628817,3.35043794 1.34694874,2.68122682 2.01406396,2.01406396 C2.68122682,1.34694874 3.35043794,0.936628817 4.13954402,0.630008276 C4.90283244,0.333343257 5.77515526,0.130469732 7.05241535,0.0722132578 C8.11126454,0.0239010467 8.57383049,0.00610226357 10.5471964,0.00139497387 L10.8396109,0.000809680479 L13.1604201,0.000809680479 Z M13.1398181,2.16289002 L10.8602129,2.16289002 C8.67890963,2.16623154 8.24760827,2.18209792 7.15097025,2.23213276 C5.9809821,2.28548292 5.34559117,2.48097316 4.92274348,2.64531072 C4.3626144,2.86299845 3.96286924,3.12303286 3.54297487,3.54297487 C3.12303286,3.96286924 2.86299845,4.3626144 2.64531072,4.92274348 C2.48097316,5.34559117 2.28548292,5.9809821 2.23213276,7.15097025 C2.18209792,8.24760827 2.16623154,8.67890963 2.16289002,10.8602129 L2.16289002,13.1398181 C2.16623154,15.3210904 2.18209792,15.7523917 2.23213276,16.8490298 C2.28548292,18.0190179 2.48097316,18.6544088 2.64531072,19.0772565 C2.86299845,19.6373856 3.1230805,20.0371308 3.54297487,20.4570251 C3.96286924,20.8769671 4.3626144,21.1370016 4.92274348,21.3546893 C5.34559117,21.5190268 5.9809821,21.7145171 7.15097025,21.7678672 C8.24748442,21.8179021 8.67869771,21.8337685 10.8601348,21.83711 L13.1398985,21.83711 C15.3213133,21.8337685 15.7525569,21.8179021 16.8490298,21.7678672 C18.0190179,21.7145171 18.6544088,21.5190268 19.0772565,21.3546893 C19.6373856,21.1370016 20.0371308,20.8769671 20.4570251,20.4570251 C20.8769671,20.0371308 21.1370016,19.6373856 21.3546893,19.0772565 C21.5190268,18.6544088 21.7145171,18.0190179 21.7678672,16.8490298 C21.8179021,15.7523917 21.8337685,15.3210904 21.83711,13.1398181 L21.83711,10.8602129 C21.8337685,8.67890963 21.8179021,8.24760827 21.7678672,7.15097025 C21.7145171,5.9809821 21.5190268,5.34559117 21.3546893,4.92274348 C21.1370016,4.3626144 20.8769671,3.96286924 20.4570251,3.54297487 C20.0371308,3.12303286 19.6373856,2.86299845 19.0772565,2.64531072 C18.6544088,2.48097316 18.0190179,2.28548292 16.8490298,2.23213276 C15.7523917,2.18209792 15.3210904,2.16623154 13.1398181,2.16289002 Z M12.0000238,5.8378417 C15.4032879,5.8378417 18.1621583,8.59671206 18.1621583,12.0000238 C18.1621583,15.4032879 15.4032879,18.1621583 12.0000238,18.1621583 C8.59671206,18.1621583 5.8378417,15.4032879 5.8378417,12.0000238 C5.8378417,8.59671206 8.59671206,5.8378417 12.0000238,5.8378417 Z M12.0000238,8 C9.79085069,8 8,9.79085069 8,12.0000238 C8,14.2091493 9.79085069,16 12.0000238,16 C14.2091493,16 16,14.2091493 16,12.0000238 C16,9.79085069 14.2091493,8 12.0000238,8 Z M18.4056161,4.15435822 C19.2009146,4.15435822 19.8456418,4.79908543 19.8456418,5.59438394 C19.8456418,6.38968246 19.2009146,7.03436203 18.4056161,7.03436203 C17.6103652,7.03436203 16.965638,6.38968246 16.965638,5.59438394 C16.965638,4.79908543 17.6103652,4.15435822 18.4056161,4.15435822 Z" id="Instagram"></path>
                </g>
            </g>
        </g>
    </g>
</svg>