<?xml version="1.0" standalone="no"?>
<!DOCTYPE svg PUBLIC "-//W3C//DTD SVG 20010904//EN"
 "http://www.w3.org/TR/2001/REC-SVG-20010904/DTD/svg10.dtd">
<svg version="1.0" xmlns="http://www.w3.org/2000/svg"
 width="512.000000pt" height="512.000000pt" viewBox="0 0 512.000000 512.000000"
 preserveAspectRatio="xMidYMid meet">
<metadata>
Created by potrace 1.11, written by Peter Selinger 2001-2013
</metadata>
<g transform="translate(0.000000,512.000000) scale(0.100000,-0.100000)"
fill="#000000" stroke="none">
<path d="M0 2560 l0 -2560 2560 0 2560 0 0 2560 0 2560 -2560 0 -2560 0 0
-2560z m1701 759 c463 -308 847 -563 854 -565 7 -3 395 249 862 560 l848 566
62 0 c52 0 66 -4 93 -26 64 -55 60 36 60 -1299 0 -1335 4 -1244 -60 -1299 -27
-22 -41 -26 -93 -26 l-61 0 -708 472 c-390 259 -708 474 -708 477 1 9 264 181
278 181 7 0 242 -153 522 -340 280 -187 512 -340 515 -340 3 0 5 394 5 875 0
481 -2 875 -5 875 -3 0 -747 -495 -1655 -1100 l-1650 -1100 -56 0 c-66 0 -108
20 -134 63 -19 31 -20 60 -20 1260 0 1356 -4 1266 63 1307 22 14 50 20 89 20
l58 0 841 -561z"/>
<path d="M960 2555 l0 -877 29 19 c16 10 312 207 659 438 l630 420 -632 421
c-347 231 -643 429 -658 438 l-28 18 0 -877z"/>
</g>
</svg>
