<svg id="Layer_1" data-name="Layer 1" xmlns="http://www.w3.org/2000/svg" viewBox="0 0 533.42 309.67"><defs><style>.cls-1{fill:#fff;}</style></defs><path class="cls-1" d="M514.81,11.72v-10H511V0h9.58V1.74h-3.83v10Zm7.09,0V0h2.87l3,9.36L530.6,0h2.82V11.72h-1.79V1.88l-3,9.84h-1.77l-3.15-10v10Z"/><path class="cls-1" d="M460.15,134.31c-15.85-13.21-40.51-21.14-75.74-21.14H354l18.93-52H483.49l.23-.54L505,0H316.16L263.31,150.6h57.25c54.6,0,77.07,25.1,77.07,52.41,0,31.26-25.55,65.61-60.77,70a51.19,51.19,0,0,0,3.52-18.49c0-28.19-25.54-51.52-57.25-51.52a61,61,0,0,0-22.74,4.38A74.59,74.59,0,0,0,262,190.67c0-20.69-8.8-40.51-28.18-56.36-15.85-13.21-40.51-21.14-75.74-21.14H127.7l18.94-52H257.17l.14-.33L278.67,0H89.83L37,150.6H94.23c54.61,0,77.07,25.1,77.07,52.41,0,31.26-25.54,65.61-60.77,70a51.19,51.19,0,0,0,3.52-18.49c0-28.19-25.54-51.52-57.25-51.52C25.54,203,0,226.34,0,254.53c0,27.3,22.9,48,52,52.4,75.19,10.56,138.55-10.52,175.08-44.52C231,285.75,252.1,303,278.28,306.93c78.39,11,144-12.33,179.67-48.88,19.82-20.26,30.83-44,30.39-67.38C488.34,170,479.53,150.16,460.15,134.31Z"/></svg>