<svg xmlns="http://www.w3.org/2000/svg" viewBox="0 0 150 189.75">
  <g>
    <path fill="#ffffff" d="M125.45 59.27c-2.71-2.48-7.33-2.27-9.81.46a6.931 6.931 0 0 0-1.81 5c.09 1.85.89 3.56 2.27 4.81 17.14 15.62 23.95 39.18 17.75 61.51-4.35 15.72-14.56 28.81-28.76 36.85-14.04 7.96-30.83 10.03-46.4 5.73-32.46-8.99-51.56-42.72-42.58-75.17 3.05-10.98 9.05-20.83 17.33-28.51 1.36-1.26 2.15-2.97 2.22-4.82s-.58-3.62-1.84-4.98c-2.5-2.7-7.1-2.89-9.81-.39C13.83 69.18 6.46 81.28 2.72 94.75c-11.02 39.84 12.42 81.23 52.26 92.27a75.15 75.15 0 0 0 20.12 2.75c12.81 0 25.55-3.38 36.83-9.77 17.43-9.87 29.96-25.93 35.31-45.23 7.59-27.39-.77-56.32-21.8-75.48"/>
    <path fill="#ffffff" d="M16.91 43.84h42.78v45.97c0 3.69 3 6.69 6.69 6.69s6.7-3 6.7-6.69V30.5l-5.97-.02c-.13-.02-.27-.04-.41-.04H16.91c-3.52 0-6.37 3-6.37 6.7s2.86 6.69 6.37 6.69M82.95 30.5h-5.94v59.31a6.696 6.696 0 0 0 13.39 0V43.84h42.78c3.52 0 6.38-3 6.38-6.69s-2.86-6.69-6.38-6.69H83.39c-.14 0-.27.02-.45.05M74.99 21.29c5.87 0 10.65-4.77 10.65-10.64S80.86 0 74.99 0 64.35 4.78 64.35 10.65s4.77 10.64 10.64 10.64" />
  </g>
</svg>