<svg xmlns="http://www.w3.org/2000/svg" viewBox="0 0 66.1 65.81">
  <path fill="#e8171f" d="M12.37 29.46a35.08 35.08 0 0 1 16-15.82c.79-.38 1.6-.73 2.41-1a.07.07 0 0 0 0-.13c-24.14 4.02-34.49 34-18.38 46.83a.06.06 0 0 0 .09-.09C10.15 56 4.64 45 12.37 29.46Z"/>
  <path fill="#e8171f" d="M17.9 49.45a37.44 37.44 0 0 1 0-11.86A36.59 36.59 0 0 1 28.33 17.4a34.63 34.63 0 0 1 3.18-2.75.07.07 0 0 0-.07-.11c-12.61 5.63-19.88 19.7-19 32.51.52 5.85 2.82 16.63 14 18.76a.07.07 0 0 0 0-.12c-4.44-3.17-7.72-10.6-8.54-16.24ZM2.32 20.57C8 12.61 19.53 7.23 30.83 8.63a.07.07 0 0 0 0-.13c-8.6-2.5-17.57-.83-23.05 3.6-2.36 1.9-4.18 5.18-5.57 8.4-.03.07.07.13.11.07Z"/>
  <path fill="#e8171f" d="M66 30.5A33.23 33.23 0 0 0 11.72 7.6c-.06.05 0 .14.08.1 4.32-2.47 10.26-2.41 13.77-2A31.44 31.44 0 0 1 31 6.85 30.91 30.91 0 0 1 36.13 9c.85.45 1.67.94 2.47 1.46a35.17 35.17 0 0 1 9.29-2.65.48.48 0 0 1 .53.3.48.48 0 0 1-.34.63 35 35 0 0 0-5 1.46.07.07 0 0 0 0 .13 33.84 33.84 0 0 1 6.83.73.49.49 0 0 1 .39.4.48.48 0 0 1-.54.53 31.81 31.81 0 0 0-5.93-.35.07.07 0 0 0 0 .13c.93.29 1.84.61 2.74 1a33.39 33.39 0 0 1 4.84 2.47.44.44 0 0 1 .22.43.46.46 0 0 1-.63.33 33.75 33.75 0 0 0-4.79-2.16c-.69-.24-1.4-.46-2.11-.66a.07.07 0 0 0 0 .13 29.16 29.16 0 0 1 3.31 2.41 32.39 32.39 0 0 1 3.85 3.83.45.45 0 0 1 .08.47.47.47 0 0 1-.78.14 31.74 31.74 0 0 0-3.85-3.57c-.82-.63-1.68-1.22-2.56-1.77a.07.07 0 0 0-.08.11c.25.26.5.53.74.8A31.5 31.5 0 0 1 48 20.15a30.29 30.29 0 0 1 2.35 4.91.47.47 0 0 1-.09.48.48.48 0 0 1-.79-.15A29 29 0 0 0 40 13.05c-.4-.29-1-.7-1.24-.86-27.45 15.28-17.94 55.41 1.83 53.32A33.21 33.21 0 0 0 66 30.5Z"/>
  <path fill="#e8171f" d="M6.48 25.5c6.32-10 17.33-14.33 24.08-15a.07.07 0 0 0 0-.13 28.48 28.48 0 0 0-8.75.65 30.34 30.34 0 0 0-9.65 4 29.67 29.67 0 0 0-7.66 7.17l-.07.08A22.82 22.82 0 0 0 .67 41.34c.19.76.7 2.32 1 3.32a.07.07 0 0 0 .13 0A29 29 0 0 1 6.48 25.5Z"/>
</svg>