<svg xmlns="http://www.w3.org/2000/svg" viewBox="0 0 118.97 90">
  <path fill="#e00" fill-rule="evenodd" d="M79.36 51.87c7.82 0 19.13-1.61 19.13-10.91a8.54 8.54 0 00-.2-2.14l-4.65-20.23c-1.08-4.45-2-6.47-9.83-10.37C77.74 5.12 64.54 0 60.63 0c-3.64 0-4.69 4.69-9 4.69-4.17 0-7.27-3.5-11.18-3.5-3.75 0-6.19 2.55-8.08 7.81 0 0-5.26 14.83-5.93 17a3.79 3.79 0 00-.14 1.21C26.27 33 49 51.84 79.36 51.84" />
  <path fill="#e00" fill-rule="evenodd" d="M99.69 44.73c1.08 5.12 1.08 5.66 1.08 6.33 0 8.75-9.84 13.61-22.77 13.61-29.23 0-54.82-17.11-54.82-28.43a11.31 11.31 0 01.94-4.58C13.61 32.19 0 34.06 0 46.08 0 65.75 46.62 90 83.53 90 111.83 90 119 77.2 119 67.09c0-8-6.88-17-19.27-22.36" />
  <path fill-rule="evenodd" d="M99.69 44.73c1.08 5.12 1.08 5.66 1.08 6.33 0 8.75-9.84 13.61-22.77 13.61-29.22 0-54.82-17.11-54.82-28.43a11.31 11.31 0 01.94-4.58L26.41 26a4 4 0 00-.14 1.19C26.27 33 49 51.84 79.36 51.84c7.82 0 19.13-1.61 19.13-10.91a8.54 8.54 0 00-.2-2.14l1.4 5.94z" />
</svg>
