<svg xmlns="http://www.w3.org/2000/svg" fill="none" viewBox="0 0 181 92">
  <g>
    <path fill="#ffffff" d="M14.76 86.77a4.7 4.7 0 1 1 9.39-.27v.1a4.7 4.7 0 0 1-4.61 4.78h-.08a4.7 4.7 0 0 1-4.7-4.62v.01Z"/>
    <path fill="#ffffff" d="M94.25 1.82A1.81 1.81 0 0 1 96.05 0h20.44a1.82 1.82 0 0 1 1.81 1.81v29.93a1.807 1.807 0 0 0 1.8 1.81 1.773 1.773 0 0 0 1.39-.64L148.4.66a1.8 1.8 0 0 1 1.38-.66h26.4A1.822 1.822 0 0 1 178 1.83c.001.443-.163.871-.46 1.2l-29.63 33.06a1.81 1.81 0 0 0-.17 2.2l32.77 50.53a1.81 1.81 0 0 1-1.52 2.8h-28.14a1.799 1.799 0 0 1-1.52-.84l-19.58-30.87a1.819 1.819 0 0 0-2.49-.57c-.14.094-.268.204-.38.33l-8.11 9a1.8 1.8 0 0 0-.47 1.21v20a1.79 1.79 0 0 1-1.8 1.81H96.06a1.82 1.82 0 0 1-1.81-1.82V1.82Z"/>
    <path fill="#ffffff" d="M61.13 57.17a14.2 14.2 0 1 1 15.44-12.84 14.18 14.18 0 0 1-14.1 12.88 12.35 12.35 0 0 1-1.35-.07l.01.03Z"/>
    <path fill="#ffffff" d="M63.07 80.94a10.85 10.85 0 0 1 10.65-11 10.85 10.85 0 0 1 11 10.67 10.85 10.85 0 0 1-10.61 11.01h-.2a10.86 10.86 0 0 1-10.84-10.68ZM64.57 11.63A9.59 9.59 0 0 1 71.87.22 9.585 9.585 0 1 1 76 18.94a9.55 9.55 0 0 1-11.37-7.28l-.06-.03Z"/>
    <path fill="#ffffff" d="M35.35 21.12a6.93 6.93 0 1 1 7.81 5.93 6.02 6.02 0 0 1-.95.07 7 7 0 0 1-6.86-6Z"/>
    <path fill="#ffffff" d="M25.3 67.1a11.762 11.762 0 0 1 10.61-12.81 11.749 11.749 0 0 1 12.78 10.63 11.77 11.77 0 0 1-10.62 12.8c-.37 0-.73.05-1.09.05A11.76 11.76 0 0 1 25.29 67.1h.01Z"/>
    <path fill="#ffffff" d="M17.92 40.29a7.8 7.8 0 0 1 13.21-5.765A7.81 7.81 0 0 1 33.52 40a7.81 7.81 0 0 1-7.67 8h-.14a7.8 7.8 0 0 1-7.79-7.69v-.02Z"/>
    <path fill="#ffffff" d="M5.85 12.2a7.1 7.1 0 0 1 7-7.23 7.101 7.101 0 1 1 .25 14.2h-.13a7.09 7.09 0 0 1-7.07-7l-.05.03Z"/>
    <path fill="#ffffff" d="M.05 55.3a5.69 5.69 0 0 1 4.86-6.4 5.669 5.669 0 0 1 6.39 4.85 5.679 5.679 0 0 1-4.85 6.41c-.26.015-.52.015-.78 0A5.67 5.67 0 0 1 .05 55.3Z"/>
  </g>
</svg>