<svg id="Layer_1" data-name="Layer 1" xmlns="http://www.w3.org/2000/svg" xmlns:xlink="http://www.w3.org/1999/xlink" viewBox="0 0 128.12 128.12"><defs><style>.cls-1{fill:none;}.cls-2{fill:#fff;}.cls-3{clip-path:url(#clip-path);}.cls-4{fill:#0a2940;}.cls-5{fill:#cf1f42;}.cls-6{fill:#ffc107;}</style><clipPath id="clip-path"><circle class="cls-1" cx="64.06" cy="64.06" r="56.31"/></clipPath></defs><circle class="cls-2" cx="64.06" cy="64.06" r="64.06"/><g class="cls-3"><rect class="cls-4" x="7.75" y="7.75" width="56.31" height="112.62"/><rect class="cls-5" x="64.06" y="7.75" width="56.31" height="56.31"/><rect class="cls-2" x="64.06" y="64.06" width="56.31" height="56.31"/><path class="cls-6" d="M34.06,29.24l4.47,7.18,3,4.86c.34.54.85,1.84,1.4,2.15V30.2c0-.17-.09-.68,0-.83s0-.07.38-.13a10.82,10.82,0,0,1,1.8,0,7.18,7.18,0,0,1,1.91,0c.4.13.27.21.27.75V48.54c0,.38.19,1.42,0,1.75s-1.64.1-2,.1h-2c-.17,0-.49.06-.63,0-.37-.21-.74-1.18-1-1.54l-4.78-7.68-2.15-3.47c-.25-.39-.58-1.22-1-1.45V48.36a6.83,6.83,0,0,1,0,1.75c-.12.37.05.28-.51.28h-3c-.31,0-.74.1-.88-.1s0-.88,0-1.1v-19c0-.13-.09-.81,0-.91s1.7,0,2,0Z"/><path class="cls-6" d="M43,82.9a5.19,5.19,0,0,0-7.63-1c-2.27,2-2.57,5.71-1.94,8.45A5.58,5.58,0,0,0,39.56,95a4.23,4.23,0,0,0,3.12-1.81,6,6,0,0,0,.79-1.67c.1-.33.12-1.09.35-1.23s.72,0,.93,0h3.47c-.37,4.17-3,7.67-7.26,8.44a10.35,10.35,0,0,1-10.53-4.08,12.84,12.84,0,0,1-1-11.71,10,10,0,0,1,9.27-6.16c4.64-.06,8.77,2.83,9.31,7.61H45.3a5.72,5.72,0,0,1-1.49,0c-.07,0-.21,0-.27,0s-.36-1.19-.53-1.46C42.73,82.45,43.29,83.34,43,82.9Z"/><path class="cls-2" d="M49,61.57H42.32c-.17,0-.78.1-.94,0s-.16-.44-.2-.57L40,57.33l-1-3L37,60.66c-.06.17-.15.78-.29.89s-.47,0-.6,0H29l5.39,3.92c.65.47.83.39.59,1.13L33.82,70.3l-1,3,5.39-3.91c.65-.47.63-.67,1.26-.22l3.13,2.28,2.56,1.85L43.12,67c-.06-.16-.35-.71-.29-.89s.36-.29.47-.37l3.13-2.27Z"/></g></svg>