<svg id="Layer_1" data-name="Layer 1" xmlns="http://www.w3.org/2000/svg" viewBox="0 0 641.79 162.48">
  <defs>
    <style>
      .cls-1 {
        fill: #b20000;
      }
    </style>
  </defs>
  <title>hwy55-horizontal-red</title>
  <g>
    <path class="cls-1" d="M631.71,6.35V.94h-2.05V0h5.18V.94h-2.07V6.35Zm3.84,0V0h1.56l1.6,5.07L640.26,0h1.53V6.35h-1V1l-1.63,5.33h-1L636.52.94V6.35Z"/>
    <path class="cls-1" d="M603,61.76C595.72,55.69,584.38,52,568.18,52h-14l8.71-23.89h50.83l.11-.25L623.63,0H536.79l-24.3,69.26h26.32c25.11,0,35.44,11.54,35.44,24.09,0,14.38-11.74,30.18-27.94,32.2a23.58,23.58,0,0,0,1.62-8.5c0-13-11.75-23.7-26.33-23.7a28,28,0,0,0-10.46,2,34,34,0,0,0,.75-7.69c0-9.51-4.05-18.63-13-25.92C491.64,55.69,480.3,52,464.1,52h-14l8.7-23.89h50.83l.07-.15,9.82-28H432.71l-24.3,69.26h26.33c25.11,0,35.44,11.54,35.44,24.09,0,14.38-11.75,30.18-27.95,32.2a23.58,23.58,0,0,0,1.62-8.5c0-13-11.75-23.7-26.33-23.7a27.53,27.53,0,0,0-17.19,6v-.07A24,24,0,0,0,392.55,110H379.26l14.49-40.91H365.41L350.92,110H335l14.66-40.91h-28.5l-13.69,37.85c-3.06,8.37,2.73,15.62,11.27,15.62h6c-6,4.18-9.83,12.88-9.83,21.25,0,9.67,5.8,18.68,19.81,18.68,23,0,33.17-19.8,40.58-39.93h16.85a22.53,22.53,0,0,0,4.71,8.84l0,0c.48.55,1,1.09,1.51,1.6v0c.64.62,1.29,1.22,2,1.78v0a31.58,31.58,0,0,0,15,6.35c34.57,4.86,63.71-4.83,80.51-20.47,1.81,10.73,11.52,18.65,23.56,20.47,36,5.07,66.22-5.67,82.62-22.47,9.12-9.32,14.18-20.25,14-31C616,78.17,611.92,69.05,603,61.76ZM336.42,150.57a10.36,10.36,0,0,1-4.51-8.38c0-7.4,6.93-17.55,14-17.55ZM263.14,110H249.78l14.33-40.91H235.93L221.27,110H207.59l14.65-40.91H160.87l19.53-55H152.06l-19.37,55h-27L130.28,0H102.1L77.78,69.08H66.35c-21.9,0-47,5.16-59.91,24.64C2.58,99.52,0,106,0,113.05c0,17.71,16.43,23.51,31.4,23.51,36.23-.16,57.49-23.35,70.37-54.92h26.57l-14.65,40.91H142l14.5-40.91h32.81L179.41,110c-2.9,8.37,2.25,12.56,10.78,12.56h14c4,0,11.91-1.29,16.58-6.93.81,4.67,5.31,6.93,11.6,6.93h39.77A21.07,21.07,0,0,0,291.81,110L306,69.08H277.8ZM38,123.51c-6.11,0-9-4.35-9-10.14,0-21.1,23.83-31.73,42-31.73h2.25C68.92,95,55.07,123.51,38,123.51Z"/>
  </g>
</svg>
