<svg width="87" height="64" viewBox="0 0 87 64" fill="none" xmlns="http://www.w3.org/2000/svg">
<g clip-path="url(#clip0_319_717)">
<path d="M86.3128 61.9751C86.3128 62.9077 85.628 63.5337 84.8173 63.5337V63.528C83.9836 63.5337 83.3114 62.9077 83.3114 61.9754C83.3114 61.0433 83.9836 60.4191 84.8173 60.4191C85.6282 60.4188 86.3128 61.043 86.3128 61.9751ZM86.9194 61.9751C86.9194 60.6953 85.9252 59.9524 84.8173 59.9524C83.7017 59.9524 82.7075 60.6953 82.7075 61.9751C82.7075 63.2542 83.7019 64.0001 84.8173 64.0001C85.9255 64.0001 86.9194 63.2542 86.9194 61.9751ZM84.4686 62.1463H84.6936L85.2152 63.0621H85.788L85.2103 62.1077C85.5088 62.0864 85.7543 61.9442 85.7543 61.5423C85.7543 61.043 85.4101 60.8825 84.8269 60.8825H83.9834V63.0621H84.4683V62.1463M84.4686 61.7773V61.2525H84.8059C84.9894 61.2525 85.2394 61.2673 85.2394 61.4912C85.2394 61.7348 85.1101 61.7773 84.8937 61.7773H84.4686Z" fill="#1b1b1b"/>
<path d="M72.7629 50.8259L75.3839 57.9962H70.0608L72.7629 50.8259ZM69.956 48.034L63.9159 63.3376H68.181L69.1364 60.6335H76.2844L77.1885 63.3376H81.8187L75.7336 48.0321L69.956 48.034ZM57.8296 63.3432H62.1568V48.0293L57.8289 48.0283L57.8296 63.3432ZM27.7897 48.0283L24.1795 60.1658L20.7211 48.0293L16.0521 48.0283L20.9914 63.3432H27.2253L32.2044 48.0283H27.7897ZM45.2806 51.3631H47.1404C49.8386 51.3631 51.5836 52.5744 51.5836 55.7179C51.5836 58.8622 49.8386 60.0738 47.1404 60.0738H45.2806V51.3631ZM40.9898 48.0283V63.3432H48.005C51.7426 63.3432 52.9631 62.722 54.2827 61.3282C55.2148 60.3496 55.8178 58.2019 55.8178 55.8542C55.8178 53.7009 55.3076 51.7815 54.418 50.5855C52.8152 48.4465 50.5063 48.0283 47.0605 48.0283H40.9898ZM0 48.0071V63.3432H4.36378V51.6984L7.74499 51.6994C8.86456 51.6994 9.66263 51.9784 10.2018 52.5544C10.8856 53.2827 11.1648 54.4584 11.1648 56.609V63.3432H15.3933V54.8699C15.3933 48.8225 11.5387 48.0071 7.76725 48.0071H0ZM34.0256 48.0283L34.0273 63.3432H38.3525V48.0283H34.0256Z" fill="#1b1b1b"/>
<path d="M11.6292 17.5347C11.6292 17.5347 17.1947 9.32332 28.3071 8.47381V5.49472C15.9987 6.48322 5.34016 16.9078 5.34016 16.9078C5.34016 16.9078 11.377 34.3592 28.3071 35.9571V32.7905C15.883 31.2275 11.6292 17.5347 11.6292 17.5347ZM28.3071 26.493V29.393C18.9172 27.719 16.3108 17.9581 16.3108 17.9581C16.3108 17.9581 20.8193 12.9637 28.3071 12.1538V15.3359C28.3014 15.3359 28.2974 15.3342 28.2927 15.3342C24.3627 14.8626 21.2926 18.5339 21.2926 18.5339C21.2926 18.5339 23.0134 24.7144 28.3071 26.493ZM28.3071 0V5.49472C28.6684 5.46702 29.0297 5.44353 29.393 5.43117C43.3863 4.95955 52.5038 16.9078 52.5038 16.9078C52.5038 16.9078 42.032 29.6413 31.1222 29.6413C30.1223 29.6413 29.1862 29.5485 28.3071 29.3927V32.7905C29.0589 32.886 29.8384 32.9421 30.6518 32.9421C40.8041 32.9421 48.146 27.7573 55.2551 21.6208C56.4338 22.5648 61.2593 24.8613 62.2513 25.8666C55.4918 31.5258 39.7384 36.0877 30.8074 36.0877C29.9465 36.0877 29.1197 36.0355 28.3071 35.9571V40.7316H66.8953V0H28.3071ZM28.3071 12.1538V8.47381C28.6647 8.44884 29.025 8.42979 29.393 8.41817C39.4555 8.10211 46.0572 17.0653 46.0572 17.0653C46.0572 17.0653 38.9268 26.9684 31.2814 26.9684C30.1812 26.9684 29.1949 26.7915 28.3071 26.493V15.3359C32.2244 15.8093 33.0126 17.5397 35.3677 21.4657L40.6058 17.049C40.6058 17.049 36.7821 12.0343 30.3365 12.0343C29.6358 12.0341 28.9654 12.0833 28.3071 12.1538Z" fill="#1b1b1b"/>
</g>
<defs>
<clipPath id="clip0_319_717">
<rect width="86.9194" height="64" fill="#1b1b1b"/>
</clipPath>
</defs>
</svg>
