<svg width="41" height="64" viewBox="0 0 41 64" fill="none" xmlns="http://www.w3.org/2000/svg">
<g clip-path="url(#clip0_319_710)">
<path d="M20.3483 63.7946C20.0352 63.5679 19.7729 63.2781 19.5784 62.944L19.5344 62.878H19.4537C6.1595 59.7616 -1.24655 39.3326 0.425314 22.988C0.603189 21.1942 0.919438 19.4168 1.37124 17.6718C1.78899 16.0587 2.36114 14.4896 3.07976 12.9862C3.79168 11.4798 4.71787 10.0843 5.82953 8.84319C6.81167 7.695 8.02423 6.76612 9.38854 6.11682C10.7528 5.46751 12.2384 5.11228 13.7489 5.07417C13.8072 5.07484 13.8638 5.05444 13.9082 5.01672C13.9527 4.97899 13.982 4.92649 13.9909 4.86885C14.2957 4.36143 14.7088 3.92749 15.2005 3.59796C15.6923 3.26842 16.2507 3.0514 16.8359 2.96234H16.9753V2.82302C17.1603 2.07045 17.5941 1.40243 18.2063 0.927281C18.8186 0.45213 19.5734 0.197699 20.3483 0.205241C21.1131 0.211836 21.8545 0.469421 22.4586 0.938399C23.0627 1.40738 23.4961 2.06179 23.692 2.80102V2.94035H23.8314C24.4234 3.02878 24.9884 3.24767 25.4856 3.58119C25.9827 3.91471 26.3995 4.35454 26.7058 4.86885C26.7165 4.93009 26.7511 4.98456 26.802 5.02031C26.8529 5.05606 26.9158 5.07015 26.9771 5.0595C28.4833 5.09975 29.9642 5.45531 31.3245 6.10323C32.6848 6.75116 33.8941 7.67706 34.8744 8.82119C36.1767 10.2773 37.2274 11.9402 37.9835 13.7414L38.1522 14.1447C39.2824 16.9593 39.9963 19.9235 40.2713 22.944C41.9432 39.3326 34.5371 59.7616 21.2502 62.856H21.1696L21.1256 62.922C20.9315 63.2648 20.6665 63.5623 20.3483 63.7946Z" fill="black"/>
<path d="M40.462 22.9662C40.3276 21.6111 40.1171 20.2646 39.8314 18.9332C39.5696 17.7075 39.2291 16.5 38.8121 15.3182C38.3725 14.0682 37.8253 12.8587 37.1769 11.7031C36.5588 10.6216 35.8209 9.6131 34.9771 8.69671C33.9808 7.53268 32.7515 6.59059 31.3684 5.93127C29.9854 5.27195 28.4794 4.91008 26.9478 4.86903H26.9038C26.5917 4.30431 26.1546 3.81844 25.6259 3.4486C25.0972 3.07876 24.4909 2.83474 23.8534 2.73521C23.6564 1.95493 23.2046 1.2627 22.5697 0.768178C21.9348 0.273658 21.1531 0.00512695 20.3483 0.00512695C19.5436 0.00512695 18.7618 0.273658 18.1269 0.768178C17.492 1.2627 17.0403 1.95493 16.8433 2.73521C16.2058 2.83474 15.5995 3.07876 15.0708 3.4486C14.5421 3.81844 14.105 4.30431 13.7929 4.86903H13.7489C12.2105 4.9059 10.6971 5.26646 9.30731 5.92723C7.91755 6.588 6.68259 7.53415 5.68288 8.70404C4.83909 9.62043 4.10116 10.6289 3.48306 11.7105C2.83463 12.866 2.28752 14.0755 1.84786 15.3255C1.43086 16.5074 1.09041 17.7149 0.828616 18.9405C0.54291 20.272 0.332372 21.6184 0.198002 22.9735C-1.45186 39.5528 6.00552 59.9378 19.4171 63.0615C19.6301 63.4579 19.9536 63.784 20.3483 64.0001C20.7431 63.784 21.0666 63.4579 21.2796 63.0615C34.6911 59.9378 42.1485 39.5528 40.462 22.9662ZM20.3483 0.638047C20.9865 0.605963 21.6171 0.788565 22.1394 1.15672C22.6618 1.52487 23.0457 2.05735 23.2301 2.66921C22.6457 2.71505 22.0817 2.90432 21.588 3.22025C21.0943 3.53618 20.6861 3.96901 20.3997 4.48039C20.3906 4.50764 20.3725 4.53095 20.3483 4.54639C20.3232 4.532 20.3048 4.50829 20.297 4.48039C20.0105 3.96901 19.6024 3.53618 19.1087 3.22025C18.6149 2.90432 18.0509 2.71505 17.4666 2.66921C17.6509 2.05735 18.0349 1.52487 18.5572 1.15672C19.0795 0.788565 19.7101 0.605963 20.3483 0.638047ZM18.9844 3.78378C19.5597 4.12799 19.978 4.68309 20.1503 5.33099C20.1568 5.38957 20.1784 5.44544 20.2132 5.49304C20.2479 5.54064 20.2945 5.57831 20.3483 5.6023C20.4075 5.57547 20.4576 5.53214 20.4927 5.47751C20.5279 5.42288 20.5465 5.35927 20.5463 5.29433C20.7186 4.64643 21.1369 4.09133 21.7122 3.74712C22.0715 3.51369 22.4756 3.35799 22.8986 3.29001C23.3216 3.22203 23.7542 3.24327 24.1685 3.35238C24.5828 3.46148 24.9698 3.65603 25.3044 3.92354C25.6391 4.19105 25.9141 4.52559 26.1118 4.90569C25.6975 4.98195 25.2884 5.08482 24.8873 5.21367C24.2446 5.41156 23.6503 5.74121 23.1421 6.18158C21.8765 7.34594 21.0919 8.94134 20.9423 10.6545C20.451 16.0148 26.6031 15.1715 26.9111 15.1495C27.703 15.1495 28.3043 13.8956 28.3043 12.2164C28.3043 10.5372 27.6884 9.28333 26.9111 9.28333C26.4345 9.28333 25.6132 9.66463 25.5326 11.1532C25.4812 12.2751 25.9945 13.6683 26.6545 13.749C26.9991 13.793 27.3071 13.1917 27.3877 12.5757C27.4684 11.9598 27.4317 11.2045 26.9551 11.1092C26.9195 11.1004 26.8825 11.0988 26.8462 11.1044C26.8099 11.11 26.7751 11.1227 26.7438 11.1418C26.7125 11.1608 26.6852 11.1859 26.6636 11.2156C26.642 11.2452 26.6264 11.2788 26.6178 11.3145C26.7853 11.612 26.8971 11.9375 26.9478 12.2751C26.9478 13.1917 26.0092 12.737 26.1265 11.2778C26.2145 10.0019 26.8671 10.0679 26.8964 10.0679C27.2631 10.0679 27.8204 10.8012 27.8204 12.2677C27.8204 13.551 27.2044 14.9295 26.0165 14.2109C25.0193 13.4776 24.6306 11.8058 24.9019 10.5446C25.0266 9.9506 25.5399 8.34474 27.1971 8.34474C29.5876 8.34474 31.8167 9.59863 33.5912 11.9378C33.3932 12.5611 32.1613 14.9442 28.253 17.2247L28.0403 17.3347C26.9082 16.8143 25.6708 16.5633 24.4253 16.6014C23.2776 16.6833 22.1392 16.8649 21.0229 17.144C20.803 17.2063 20.5766 17.2432 20.3483 17.254C20.12 17.2432 19.8937 17.2063 19.6737 17.144C18.5575 16.8649 17.419 16.6833 16.2713 16.6014C15.0259 16.5633 13.7885 16.8143 12.6563 17.3347L12.4436 17.2247C8.52797 14.9442 7.31074 12.5611 7.10543 11.9378C8.87994 9.59863 11.1091 8.34474 13.4996 8.34474C15.1568 8.34474 15.6994 9.96527 15.7947 10.5446C16.0733 11.8424 15.6774 13.5143 14.6801 14.2109C13.4996 14.9442 12.8763 13.551 12.8763 12.2677C12.8763 10.8012 13.4336 10.0679 13.8002 10.0679C13.8002 10.0679 14.4895 9.98727 14.5995 11.2778C14.7241 12.7444 13.8002 13.1917 13.7782 12.2751C13.8125 11.9328 13.9095 11.5997 14.0642 11.2925C14.0468 11.2251 14.0048 11.1666 13.9464 11.1286C13.8881 11.0906 13.8176 11.0758 13.7489 11.0872C13.2722 11.2045 13.2282 12.0404 13.3162 12.5537C13.4042 13.067 13.7269 13.771 14.0495 13.727C14.7095 13.639 15.2227 12.2604 15.1641 11.2045C15.0908 9.73796 14.2622 9.33466 13.7855 9.33466C13.0083 9.33466 12.3923 10.5886 12.3923 12.2677C12.3923 13.9469 12.9936 15.2008 13.7855 15.2008C14.0935 15.2008 20.2457 16.0661 19.7544 10.7059C19.6048 8.99267 18.8201 7.39727 17.5546 6.23291C17.0464 5.79254 16.452 5.46289 15.8094 5.26499C15.399 5.12996 14.9801 5.02218 14.5555 4.94235C14.7528 4.55804 15.029 4.21967 15.3659 3.94932C15.7029 3.67898 16.0931 3.48273 16.5111 3.3734C16.929 3.26407 17.3653 3.24411 17.7915 3.31482C18.2177 3.38554 18.6242 3.54533 18.9844 3.78378ZM7.35474 26.2659C7.24496 27.0709 7.17643 27.881 7.14942 28.693C6.98432 32.4774 7.4806 36.2616 8.61597 39.8754C9.38745 42.2517 10.4023 44.5418 11.6444 46.7095C10.5519 47.5827 9.25905 48.1699 7.88269 48.4181C4.4022 41.1504 2.77243 33.1351 3.13842 25.0853C4.45814 25.7378 5.88807 26.1382 7.35474 26.2659ZM3.16042 24.6674C3.48306 19.3072 4.83961 15.0982 6.82678 12.2971C7.17875 13.2063 8.71129 15.4868 12.2457 17.562C9.23925 19.3732 7.84603 23.1055 7.42073 25.8919C5.93508 25.7616 4.48854 25.3458 3.16042 24.6674ZM11.8497 47.0542C14.1082 50.9405 16.3373 53.2577 18.0458 54.4822C17.455 55.7401 16.5635 56.8331 15.4501 57.6646C12.517 55.6848 10.0238 52.5317 8.06601 48.77C9.44778 48.5136 10.7464 47.9247 11.8497 47.0542ZM18.3905 54.7315C18.9959 55.1687 19.6536 55.5284 20.3483 55.8021C21.0431 55.5284 21.7008 55.1687 22.3062 54.7315C22.9062 55.9815 23.7931 57.0719 24.8946 57.9139C24.0688 58.4416 23.1887 58.8792 22.2695 59.2192C22.2695 59.2192 22.2695 59.1532 22.2695 59.1238C22.0788 58.1559 20.803 57.9579 20.3557 57.9579C19.9084 57.9579 18.6325 58.1559 18.4418 59.1238C18.4418 59.1238 18.4418 59.1898 18.4418 59.2192C17.5226 58.8792 16.6426 58.4416 15.8167 57.9139C16.9128 57.0702 17.7946 55.9799 18.3905 54.7315ZM22.6508 54.4969C24.3593 53.2723 26.5885 50.9552 28.8469 47.0689C29.9488 47.9446 31.2475 48.5386 32.6306 48.7994C30.6728 52.5317 28.187 55.6995 25.2466 57.6646C24.1331 56.8331 23.2416 55.7401 22.6508 54.4822V54.4969ZM29.0449 46.7169C30.2904 44.5448 31.3078 42.2497 32.0807 39.8681C32.6382 38.1168 33.0454 36.3211 33.2979 34.5006C33.5542 32.576 33.6377 30.6324 33.5472 28.693C33.5105 27.8805 33.4322 27.0704 33.3126 26.2659C34.7792 26.1382 36.2092 25.7378 37.5289 25.0853C37.904 33.1326 36.2843 41.1479 32.8139 48.4181C31.4343 48.1689 30.1388 47.5791 29.0449 46.7022V46.7169ZM33.2832 25.8919C32.8286 23.1055 31.4501 19.4391 28.4583 17.562C31.9927 15.4868 33.5326 13.2063 33.8772 12.2971C35.8497 15.0982 37.2136 19.3072 37.5436 24.6674C36.2144 25.3407 34.7679 25.7515 33.2832 25.8773V25.8919ZM18.1485 61.8883C16.6195 61.3788 15.1704 60.6555 13.8442 59.7398C13.0023 59.1607 12.2056 58.5185 11.4611 57.8186C10.854 57.2469 10.2787 56.6422 9.73787 56.0074C9.36635 55.5773 9.00949 55.1348 8.6673 54.6802C7.02836 52.4811 5.65496 50.0961 4.57564 47.5748C3.53439 45.1467 2.70038 42.6348 2.08251 40.0661C1.4399 37.4619 1.00105 34.8117 0.769954 32.1394C0.530073 29.496 0.512903 26.8371 0.718625 24.1908C0.843281 22.7829 1.01193 21.3677 1.28324 19.9671C1.52472 18.5775 1.86783 17.2075 2.30983 15.8681C2.72055 14.6385 3.23572 13.4462 3.8497 12.3044C4.47461 11.1232 5.25111 10.0287 6.1595 9.04868C7.012 8.1419 8.00179 7.37482 9.09259 6.77554C9.54747 6.5273 10.0206 6.31403 10.5078 6.13759C10.7571 6.0496 11.0015 5.97138 11.2411 5.90294C11.4816 5.82512 11.7264 5.76146 11.9744 5.71229C12.594 5.60355 13.2224 5.552 13.8515 5.5583C14.8485 5.54311 15.8312 5.79639 16.6966 6.29158C17.4059 6.79711 17.9936 7.45424 18.4173 8.21525C18.8409 8.97625 19.0897 9.82204 19.1458 10.6912C19.4317 14.0056 16.0587 14.5262 15.3987 14.5189C15.2961 14.5189 15.2447 14.4236 15.5747 14.0863C15.9464 13.5463 16.2033 12.9358 16.3294 12.2925C16.4556 11.6492 16.4483 10.9869 16.308 10.3466C15.9854 8.8287 14.9148 7.6408 13.3749 7.6408C12.2388 7.67664 11.1225 7.94879 10.0974 8.4399C9.07225 8.93101 8.16066 9.63031 7.42073 10.4932C5.97342 12.1997 4.88372 14.1796 4.21633 16.3154C3.2911 19.0116 2.73849 21.8216 2.5738 24.6674C2.4107 27.2659 2.46957 29.8736 2.74979 32.4621C3.02014 35.0837 3.49578 37.6802 4.17234 40.2274C4.82607 42.7049 5.69209 45.1214 6.76079 47.4501C7.82696 49.8051 9.17637 52.0213 10.7791 54.0496C12.3914 56.1395 14.4218 57.8702 16.7406 59.1312C17.2638 59.4115 17.8052 59.6564 18.3612 59.8644C18.3616 60.6282 18.5399 61.3813 18.8818 62.0643C18.6332 62.0247 18.388 61.9658 18.1485 61.8883ZM20.561 63.0249C20.5036 63.0991 20.4239 63.1531 20.3337 63.1788C20.2434 63.1531 20.1637 63.0991 20.1063 63.0249C19.6612 62.509 19.3319 61.9037 19.1409 61.2496C18.9499 60.5956 18.9015 59.9082 18.9991 59.2338C19.0871 58.7645 19.879 58.5519 20.3337 58.5446C20.7883 58.5372 21.5802 58.7645 21.6682 59.2338C21.7667 59.906 21.7201 60.5914 21.5317 61.244C21.3432 61.8966 21.0172 62.5014 20.5756 63.0175L20.561 63.0249ZM39.9267 32.1394C39.6956 34.8117 39.2567 37.4619 38.6141 40.0661C37.9899 42.6253 37.151 45.1273 36.1063 47.5455C35.027 50.0668 33.6536 52.4518 32.0147 54.6509C31.6725 55.1055 31.3156 55.5479 30.9441 55.9781C30.4033 56.6129 29.828 57.2175 29.2209 57.7893C28.4764 58.4891 27.6797 59.1314 26.8378 59.7105C25.5178 60.6352 24.0736 61.3684 22.5481 61.8883C22.3086 61.9658 22.0635 62.0247 21.8149 62.0643C22.1579 61.3567 22.3264 60.5772 22.3062 59.7911C22.8621 59.5831 23.4035 59.3381 23.9267 59.0578C26.2413 57.8097 28.2714 56.0942 29.8882 54.0203C31.4909 51.992 32.8403 49.7758 33.9065 47.4208C34.9752 45.0921 35.8412 42.6755 36.495 40.1981C37.1799 37.6612 37.6654 35.0747 37.9469 32.4621C38.2271 29.8736 38.2859 27.2659 38.1228 24.6674C37.9582 21.8216 37.4055 19.0116 36.4803 16.3154C35.7847 14.1919 34.6701 12.2296 33.2026 10.5446C32.4627 9.68164 31.5511 8.98234 30.5259 8.49123C29.5008 8.00012 28.3846 7.72797 27.2484 7.69213C25.6939 7.69213 24.6233 8.88003 24.3153 10.3979C24.1751 11.0382 24.1678 11.7006 24.2939 12.3438C24.42 12.9871 24.6769 13.5976 25.0486 14.1376C25.3786 14.4749 25.3272 14.5702 25.2246 14.5702C24.5646 14.5702 21.1843 14.0496 21.4776 10.7425C21.5336 9.87337 21.7824 9.02758 22.2061 8.26657C22.6297 7.50557 23.2174 6.84844 23.9267 6.34291C24.7921 5.84771 25.7748 5.59444 26.7718 5.60963C27.4009 5.60333 28.0293 5.65488 28.649 5.76362C28.8969 5.8127 29.1418 5.87636 29.3822 5.95427C29.6364 6.02271 29.8809 6.10093 30.1155 6.18892C30.6027 6.36536 31.0758 6.57863 31.5307 6.82686C32.6215 7.42615 33.6113 8.19323 34.4638 9.10001C35.3722 10.0801 36.1487 11.1746 36.7736 12.3557C37.4101 13.4786 37.9498 14.6536 38.3868 15.8681C38.8288 17.2075 39.1719 18.5775 39.4134 19.9671C39.67 21.3677 39.8387 22.7829 39.956 24.1981C40.1686 26.8413 40.1588 29.4978 39.9267 32.1394Z" fill="white"/>
<path d="M32.814 28.7956C32.7333 26.8231 32.154 20.8029 28.0624 18.1925C27.0864 17.6536 25.9945 17.3592 24.88 17.3345C22.8708 17.2026 21.3822 17.9725 20.3777 18.0018H20.3483C19.3437 18.0018 17.8405 17.2026 15.8314 17.3345C14.7066 17.3629 13.6061 17.6676 12.627 18.2218C8.50598 20.8029 7.93403 26.8231 7.8827 28.7956C7.69279 33.5755 8.57993 38.337 10.4785 42.7278C13.2796 48.9532 16.682 53.3675 20.077 54.8708L20.3483 54.9881L20.6196 54.8708C24 53.4042 27.4171 48.9606 30.2548 42.7204C32.1395 38.3289 33.0141 33.5702 32.814 28.7956Z" fill="white"/>
<path d="M26.4344 24.0661V25.4006H26.7057H26.8377C27.0571 25.3896 27.2723 25.4631 27.439 25.606C27.5258 25.7206 27.5848 25.8537 27.6115 25.9949C27.6382 26.1361 27.6319 26.2815 27.593 26.4199C27.593 26.4199 24.8506 38.2916 24.3299 40.5501C23.7287 37.6903 20.4729 22.0863 20.4729 22.0863V22.0203H19.813V22.0936L16.9752 40.3007L13.7488 26.4052C13.7453 26.3368 13.7453 26.2683 13.7488 26.1999C13.7324 26.0686 13.7442 25.9352 13.7834 25.8088C13.8226 25.6823 13.8883 25.5657 13.9761 25.4666C14.1238 25.3645 14.3039 25.3202 14.4821 25.342H14.7534V24.0221H10.1778V25.3127H10.3831C10.5456 25.3361 10.6978 25.406 10.8214 25.514C10.945 25.622 11.0347 25.7634 11.0797 25.9213L16.6819 49.9506V50.0166H17.4885V49.9433L20.099 32.858L23.4207 49.9506V50.0166H24.154L29.4702 25.9799C29.5118 25.8186 29.607 25.6762 29.7403 25.5763C29.8736 25.4763 30.0369 25.4247 30.2035 25.43H30.2548H30.5188V24.0661H26.4344Z" fill="black"/>
</g>
<defs>
<clipPath id="clip0_319_710">
<rect width="40.6966" height="64" fill="white"/>
</clipPath>
</defs>
</svg>
