<svg xmlns="http://www.w3.org/2000/svg" viewBox="0 0 500 175">
  <path fill="#1b1b1b" d="M71.4.1c-.9-.2-1.8.3-2 1.2v.2L67 17.7c-7.4-1.8-14.9-2.9-22.6-3.1-.8 0-1.5.6-1.6 1.4l-2.9 19.1c-7.4-.8-14.8-1-22.3-.7-.8 0-1.4.6-1.5 1.4L0 142.5c-.1.9.5 1.7 1.4 1.9h.3c11.6-.3 72-.3 89.5 28.9.8 1.3 2.3 1.9 3.8 1.5l3.5-1 4.1-1.2c1.3-.3 2.2-1.4 2.4-2.6l.1-.3v.2s7-46.2 15.4-102.5c.1-1 .2-1.9.3-2.9C126 16.5 81 2.5 71.4.1zM138.5 147.2l15.1-100.3c.2-1.6 1.4-3 3-3.4l30.1-8.7c1.5-.4 3.1.4 3.5 1.9.1.4.1.8.1 1.2l-15.1 100.6c-.6 4.9 1.4 6.8 6 6.8 1.5 0 3.1-.2 4.6-.4 1.6-.3 3.2.8 3.5 2.5.1.3.1.6 0 1l-3.1 20.7c-.3 2-1.8 3.7-3.8 4.1-5.1 1.3-10.4 1.9-15.7 1.9-21-.1-31-9.8-28.2-27.9zm184.5 0l15-100.3c.2-1.6 1.4-3 3-3.4l30.1-8.7c1.5-.4 3.1.4 3.5 1.9.1.4.1.8.1 1.2l-15.1 100.6c-.6 4.9 1.4 6.8 6 6.8 1.5 0 3.1-.2 4.6-.4 1.6-.3 3.2.8 3.5 2.5.1.3.1.6 0 1l-3.1 20.7c-.3 2-1.8 3.7-3.8 4.1-5.1 1.3-10.4 1.9-15.7 1.9-20.9-.1-30.9-9.8-28.1-27.9zm-7.7 1l-3 21c-.3 1.9-1.7 3.4-3.5 3.8-5.2 1.3-10.6 2-15.9 2-13.6 0-22.2-4.5-25.6-12-8.2 7.2-20.4 12-33.8 12-25.3 0-39.3-16.9-35.6-41.8l8.2-55.3c.2-1.5 1.5-2.6 3-2.6h29.2c1.7 0 3 1.4 3 3v.4l-7.1 47.8c-1.7 11.3 3.1 18.3 13.6 18.3 10.7 0 18.3-6.6 19.8-17.7l7.4-49.3c.2-1.5 1.5-2.6 3-2.6h29.3c1.7 0 3 1.4 3 3v.4l-8.8 59.7c-.8 4.7 1.2 6.8 6 6.8 1.5 0 2.9-.2 4.4-.4 1.6-.3 3.2.8 3.5 2.4-.1.5-.1.8-.1 1.1zm184.7 0l-3.2 22c-.2 1.2-1.1 2.2-2.3 2.5-5.6 1.4-11.3 2.2-17 2.2-13.6 0-22.2-4.5-25.6-12-8.2 7.2-20.4 12-33.8 12-25.3 0-39.3-16.9-35.6-41.8l8.2-55.3c.2-1.5 1.5-2.6 3-2.6h29.2c1.7 0 3 1.4 3 3v.4l-7.1 47.8c-1.7 11.3 3.1 18.3 13.6 18.3 10.7 0 18.3-6.6 19.8-17.7l7.4-49.3c.2-1.5 1.5-2.6 3-2.6h29.3c1.7 0 3 1.4 3 3v.4l-8.8 59.7c-.8 4.7 1.2 6.8 6 6.8 1.5 0 2.9-.2 4.4-.4 1.6-.3 3.2.8 3.5 2.4v1.2z"/>
  <path fill="#646569" d="M98.5 173.8C83.8 137 37.1 126.6 28 124.9c-.9-.2-1.5-1-1.3-1.9l13.2-87.9c-7.4-.8-14.8-1-22.3-.7-.8 0-1.4.6-1.5 1.4L0 142.5c-.1.9.5 1.7 1.4 1.9h.3c11.6-.3 72-.3 89.5 28.9.8 1.3 2.3 1.9 3.8 1.5l3.5-1z"/>
  <path fill="#1b1b1b" d="M120.8 64.5C126 16.5 81 2.5 71.4.1c-.9-.2-1.8.3-2 1.2v.2L67 17.7l-3.1 20.8-5 33.1c-.2 1-.3 2.1-.3 3.1 0 12.1 10.6 14.4 15.9 14.8.9.1 1.6.9 1.5 1.8 0 .3-.1.5-.2.7-3.4 5.6-10.3 19.5-2 29.5 0 0 27.6 24.9 31.3 48.4 0 0 7-46.2 15.4-102.5.1-1 .2-1.9.3-2.9z"/>
  <g fill="#343436">
    <path d="M73.7 121.6c-8.2-10-1.3-24 2-29.5.5-.8.2-1.8-.5-2.3-.2-.1-.5-.2-.7-.2-5.2-.4-15.9-2.7-15.9-14.8 0-1 .1-2.1.3-3.1l5-33.1v-.1l.2-1.5L67 17.7c-7.4-1.8-14.9-2.9-22.6-3.1-.8 0-1.5.6-1.6 1.4l-2.9 19.1-.4 2.4L26.7 123c-.1.9.5 1.7 1.3 1.9 9.2 1.7 55.8 12.2 70.5 48.9l4.1-1.2c1.3-.3 2.2-1.4 2.4-2.6-3.7-23.5-31.3-48.4-31.3-48.4zM105 170l.6-3.7c-.4 2.4-.6 3.7-.6 3.7z"/>
  </g>
</svg>
