<svg xmlns="http://www.w3.org/2000/svg" id="Layer_2" viewBox="0 0 294.76 65.81">
  <defs>
    <style>
      .cls-1{fill:#e8171f}
    </style>
  </defs>
  <g id="Logo">
    <path d="M92.09 16.89h-4.01v31.52h19.99v-3.92H92.09v-27.6zM261 28.2l-2.67-2.32-7.67 8.82-7.6-8.75-.07-.07-2.67 2.32 7.99 9.2-7.93 9.12-.06.08 2.67 2.32 7.67-8.82 7.6 8.75.07.07L261 46.6l-7.99-9.2 7.93-9.12.06-.08zM208.6 39.55l-21.5-22.66h-.79v31.52h4.01V25.75l21.5 22.66h.79V16.89h-4.01v22.66zM265.02 26.38h3.79v22.03h-3.79zM264.84 16.89h4.15v3.55h-4.15zM228.38 26.03c-6.17 0-11.06 4.98-11.06 11.37s4.8 11.37 11.32 11.37c3.83 0 6.96-1.59 8.86-3.57l-.02-.02-2.7-2.34a9.144 9.144 0 0 1-6.14 2.36c-4.01 0-7.05-2.95-7.4-6.87h17.89c-.09-7.84-4.58-12.29-10.75-12.29Zm-6.96 8.99c.79-3.35 3.52-5.51 6.74-5.51 3.35-.04 6.17 1.89 6.7 5.51h-13.44ZM282.75 35.86l-1.88-.66c-2.66-.92-3.34-1.98-3.34-3.35 0-1.54 1.51-2.42 3.25-2.42 1.61 0 2.74.66 3.71 1.72l2.57-2.23c-1.61-1.93-3.75-2.88-6.28-2.88-4.17 0-7.15 2.55-7.15 5.86 0 2.64 1.42 5.07 5.45 6.52l1.79.66c2.7.93 3.89 1.85 3.89 3.52s-1.83 2.78-4.08 2.78c-2.42 0-3.97-1.12-5.4-2.78l-2.71 2.35c1.98 2.4 4.79 3.82 8.02 3.82 4.99 0 8.11-2.78 8.11-6.3 0-3.26-2.06-5.24-5.95-6.61ZM153.31 28.2l-2.67-2.32-7.67 8.82-7.61-8.75-.07-.07-2.67 2.32 8 9.2-7.93 9.12-.07.08 2.67 2.32 7.68-8.82 7.6 8.75.07.07 2.67-2.32-8-9.2 7.93-9.12.07-.08zM157.32 26.38h3.79v22.03h-3.79zM157.14 16.89h4.15v3.55h-4.15zM120.68 26.03c-6.17 0-11.06 4.98-11.06 11.37s4.8 11.37 11.32 11.37c3.83 0 6.96-1.59 8.86-3.57l-.02-.02-2.7-2.34a9.144 9.144 0 0 1-6.14 2.36c-4.01 0-7.05-2.95-7.4-6.87h17.89c-.09-7.84-4.58-12.29-10.75-12.29Zm-6.96 8.99c.79-3.35 3.53-5.51 6.74-5.51 3.35-.04 6.17 1.89 6.7 5.51h-13.44ZM175.05 35.86l-1.88-.66c-2.66-.92-3.34-1.98-3.34-3.35 0-1.54 1.51-2.42 3.25-2.42 1.61 0 2.74.66 3.71 1.72l2.57-2.23c-1.6-1.93-3.75-2.88-6.28-2.88-4.17 0-7.15 2.55-7.15 5.86 0 2.64 1.42 5.07 5.45 6.52l1.79.66c2.7.93 3.89 1.85 3.89 3.52s-1.83 2.78-4.08 2.78c-2.42 0-3.97-1.12-5.4-2.78l-2.71 2.35c1.98 2.4 4.79 3.82 8.02 3.82 4.99 0 8.11-2.78 8.11-6.3 0-3.26-2.06-5.24-5.95-6.61ZM291.84 20.43c-1.62 0-2.93 1.32-2.93 2.94s1.29 2.95 2.93 2.95 2.92-1.29 2.92-2.95-1.28-2.94-2.92-2.94Zm0 5.42c-1.37 0-2.43-1.09-2.43-2.47s1.09-2.47 2.43-2.47 2.43 1.11 2.43 2.47-1.07 2.47-2.43 2.47Z"/>
    <path d="M293.07 22.62c0-.6-.43-.95-1.18-.95h-1.17v3.31h.55V23.6h.58l.76 1.38h.59l-.79-1.46c.45-.11.67-.42.67-.9Zm-1.21.51h-.6v-.96h.58c.47 0 .68.14.68.46 0 .35-.2.5-.67.5ZM69.03 11c-1.62 0-2.93 1.32-2.93 2.94s1.29 2.95 2.93 2.95 2.92-1.29 2.92-2.95S70.67 11 69.03 11Zm0 5.42c-1.36 0-2.43-1.09-2.43-2.47s1.09-2.47 2.43-2.47 2.43 1.11 2.43 2.47-1.07 2.47-2.43 2.47Z"/>
    <path d="M70.26 13.19c0-.6-.43-.95-1.18-.95h-1.17v3.31h.55v-1.38h.58l.76 1.38h.59l-.79-1.46c.45-.11.67-.42.67-.9Zm-1.21.51h-.6v-.96h.58c.47 0 .68.14.68.46 0 .35-.2.5-.67.5Z"/>
    <path d="M12.37 29.46c3.49-6.97 9.24-12.56 16.02-15.82.79-.38 1.6-.73 2.41-1.04.07-.03.04-.14-.04-.12C6.64 16.53-3.71 46.51 12.4 59.34c.06.05.14-.03.1-.09-2.34-3.21-7.86-14.27-.13-29.79Z" class="cls-1"/>
    <path d="M17.9 49.45c-.63-3.96-.62-7.98 0-11.86 1.26-7.77 5.02-14.9 10.42-20.18 1-.99 2.07-1.9 3.18-2.75.06-.05 0-.14-.07-.11-12.61 5.63-19.88 19.7-18.95 32.51.51 5.86 2.81 16.64 14.04 18.77.07.01.11-.08.05-.12-4.62-3.17-7.87-10.6-8.68-16.24ZM2.32 20.57C7.96 12.61 19.53 7.24 30.83 8.63c.08 0 .1-.1.03-.13-8.63-2.52-17.6-.83-23.08 3.6-2.35 1.9-4.18 5.18-5.57 8.4-.03.07.07.13.11.06Z" class="cls-1"/>
    <path d="M65.98 30.5C64.49 12.28 48.07-1.53 29.87.14 23.54.72 16.78 3.33 11.73 7.6c-.06.05 0 .15.08.11 4.32-2.47 10.26-2.41 13.77-2 1.85.22 3.67.6 5.44 1.15 1.77.55 3.48 1.26 5.12 2.12.85.45 1.67.93 2.47 1.46 2.98-1.32 6.12-2.2 9.28-2.65.23-.03.46.09.53.3.1.28-.08.57-.35.62-1.7.36-3.38.85-5 1.46-.07.03-.05.13.03.13 2.31 0 4.6.25 6.83.72h.01c.2.04.36.2.38.4.04.33-.24.57-.54.53-1.96-.29-3.95-.41-5.93-.35-.08 0-.09.11-.02.14.93.28 1.84.61 2.74.97 1.69.69 3.31 1.52 4.85 2.47h.02a.474.474 0 0 1-.48.82 31.74 31.74 0 0 0-4.79-2.16c-.7-.24-1.4-.46-2.11-.66-.08-.02-.12.08-.05.13 1.16.73 2.27 1.53 3.31 2.41a32.39 32.39 0 0 1 3.85 3.83h.01c.11.15.15.33.08.49-.16.34-.57.37-.78.14-1.18-1.3-2.47-2.49-3.85-3.57-.82-.64-1.67-1.23-2.55-1.77-.07-.04-.14.05-.09.11.25.26.5.53.74.81a29.8 29.8 0 0 1 5.57 9.31c.06.18.03.37-.09.49-.27.27-.67.16-.79-.14-.65-1.63-1.45-3.19-2.39-4.67a28.838 28.838 0 0 0-7.1-7.67c-.4-.3-1-.71-1.23-.86-27.4 15.28-17.89 55.4 1.88 53.32 15.71-3.73 26.74-18.46 25.39-35.01Z" class="cls-1"/>
    <path d="M6.48 25.5c6.32-10.02 17.33-14.33 24.08-14.98.08 0 .08-.12 0-.13-2.79-.24-5.37-.06-8.75.65-3.41.78-6.71 2.13-9.65 4.04a29.67 29.67 0 0 0-7.72 7.2C.36 27.73-.94 34.73.67 41.34c.18.76.7 2.32 1.05 3.32.03.07.14.05.13-.03-.84-7.83 1.43-14.07 4.63-19.13Z" class="cls-1"/>
  </g>
</svg>