<svg xmlns="http://www.w3.org/2000/svg" viewBox="0 0 212.7 172.7">
  <path fill="#1b1b1c" d="M212.4 50.5c-.2-4-.6-8.1-1.3-12.1-.8-6.5-4.4-22.8-19.6-29.2-.4-.2-.7-.3-1.1-.4-6.6-2.9-14-4.2-21.1-5.2-15.6-2.1-31.1-3-46.7-3.4h-4.1c-5.7-.2-10.1-.2-12.1-.2-2.1 0-6.4 0-12.1.1h-4.1C74.6.6 59.1 1.5 43.5 3.6c-7.1.9-14.5 2.2-21.1 5.2-.4.1-.7.3-1.1.4C6 15.6 2.5 31.9 1.6 38.4c-.7 4-1 8.1-1.3 12.1-.6 9.8-.4 19.6 0 29.4v1c.2 4.7.5 9.5.8 14.4C2.2 108.6 3.8 122 7 134.9c1 4.2 2.4 8.4 4.2 12.3 1.3 3.3 2.8 5.9 4.4 7.8 2.9 3.5 6.6 6.2 10.9 8.4.8.4 1.5.8 2.3 1.1 12.1 5.5 26 6 39.1 6.8 12.8.8 25.7 1.3 38.6 1.3 12.9-.1 25.8-.5 38.6-1.3 13.1-.8 27-1.3 39.1-6.8.8-.4 1.5-.7 2.3-1.1 4.3-2.2 8-4.9 10.9-8.4 1.6-1.9 3-4.6 4.4-7.8 1.8-3.9 3.1-8.1 4.2-12.3 3.2-12.8 4.8-26.1 5.7-39.3.4-5 .7-10 .9-14.8v-1.2c.2-9.7.3-19.4-.2-29.1zm-106 110.6H75.5c-.2-.1-.3-.3-.3-.6s.1-.6.1-.7c.2-.6.3-1.3.5-1.9 1.6-5.2 5.7-18.3 5.7-18.3.1-.2.1-.4.2-.6.5-1.5 1.1-3.2 1.9-5 1.5-3.6 4-6.3 6-7.6 1.1-.7 2.4-1.3 3.7-1.7.7-.2 1.4-.3 2.2-.5 1.3-.3 2.8-.5 4.2-.7 1.9-.1 4.1-.2 6.6-.2s4.7 0 6.6.2c1.5.2 2.9.4 4.2.7.8.2 1.5.3 2.2.5 1.4.4 2.6 1 3.7 1.7 2 1.3 4.6 4 6 7.6.7 1.8 1.3 3.4 1.9 4.9.1.2.1.4.2.6 0 0 4.1 13.3 5.7 18.5.2.6.3 1.2.5 1.8 0 .1.1.5.1.7 0 .3-.1.4-.3.6h-30.7zm39.8-150c1.9.3 3.4.4 4.4.5.6.1 1 .2 1.3.3h.1c.5.2.7.5.7.9-.4 1.6-1.1 4.3-1.9 7.6-3.8 14.3-7.9 31.2-11.8 45.2-2.6 9.1-6.1 20.1-10.2 26.5-3 4-6.9 7.1-12.2 8.4-2.8.4-6 .5-10.2.5-4.1 0-7.4-.1-10.2-.5-5.3-1.2-9.2-4.2-12.1-8.2l-.1-.1c-4.1-6.4-7.7-17.6-10.3-26.7-3.8-14-7.9-30.8-11.7-44.9-.9-3.4-1.6-6.1-2-7.7 0-.5.2-.8.7-.9h.1c.3-.1.7-.2 1.3-.3 1-.1 2.4-.2 4.3-.5.5-.1.9-.1 1.4-.2 1.8-.1 4-.3 6.7-.4 1.1 0 2.2-.1 3.4-.1 16.4-.5 27.8-.6 28.4-.7.6 0 12 .1 28.4.7 1.2 0 2.4.1 3.4.1 2.7.1 4.9.3 6.7.4.5 0 1 .1 1.4.1zm-118.1 139c-1.1-1.2-2.3-2.6-3.5-4.4-.7-1.1-1.3-2.2-1.8-3.4-3.5-7.5-4.7-16.7-5.7-24.7 0-.4-.1-.8-.1-1.1-.1-.7-.2-1.4-.3-2-2.3-16.5-3-33.3-2.8-49.9.1-12.1-.7-27.3 5.9-38.2.4-.7.9-1.4 1.4-2.1 0-.1.1-.1.1-.2.3-.3.5-.7.8-1l.1-.1.2-.2.2-.2.6-.6c.9-.9 1.9-1.6 2.9-2.3 1.9-1.3 4.1-2.2 6.3-3 2.4-.9 4.8-1.6 7.2-2.3.9 0 1.5.4 1.8 1 0 .9-.1 4.5 0 10.9v8.1c0 1.3.1 2.6.1 4v.3c0 .6 0 1.2.1 1.8v.4c0 .7.1 1.3.1 2v.2c0 .8.1 1.6.1 2.4v.2c0 .7.1 1.4.1 2.1v.6c0 .6.1 1.2.1 1.8v.7c0 .7.1 1.4.1 2.1v.8c0 .8.1 1.5.1 2.3 0 .3 0 .7.1 1.1 0 .6.1 1.1.1 1.7 0 .4 0 .8.1 1.2 0 .5.1 1.1.1 1.7 0 .4.1.8.1 1.2 0 .6.1 1.1.1 1.7 0 .4.1.9.1 1.3 0 .6.1 1.1.1 1.7 0 .4.1.9.1 1.3 0 .6.1 1.3.1 2 0 .4.1.8.1 1.1.1 1.1.2 2.1.2 3.2 0 .2 0 .5.1.7.2 2.4.4 4.9.6 7.5 0 .6.1 1.1.1 1.7.1.9.2 1.8.2 2.6.1.9.2 1.9.3 2.8.1.6.1 1.1.2 1.7.1 1.1.2 2.3.3 3.4 0 .2 0 .4.1.6.1.6.1 1.3.2 1.9 0 .4.1.7.1 1.1 1.4 17.8 3.1 35.6 5.3 53.3.2 1.8.3 3 .4 3.8 0 1.8-1 2.7-2.6 2.9-1.3-.1-3.5-.4-6.1-1.1-5.5-2-12.1-6.1-14.6-8.1zm135.7 9.1c-1.6-.2-2.6-1.1-2.6-2.9.1-.8.2-2 .4-3.9 2.2-17.7 3.9-35.4 5.3-53.1 0-.4.1-.9.1-1.4.1-.6.1-1.1.2-1.7 0-.2 0-.4.1-.6l.3-3.3c.1-.6.1-1.2.2-1.8.1-.8.1-1.6.2-2.4.1-1.1.2-2.1.3-3.1 0-.5.1-.9.1-1.4.2-2.6.4-5.1.6-7.5 0-.3 0-.6.1-.8.2-2.5.4-4.9.5-7.3v-.6c.1-1.5.2-2.9.3-4.3v-.4c.1-.8.1-1.5.1-2.3v-.1c.1-1.5.2-3 .3-4.4v-.3c0-.7.1-1.4.1-2.1v-.1-.3c0-.6.1-1.2.1-1.8v-.6c0-.5 0-1 .1-1.5v-.8c0-.4 0-.8.1-1.2v-1-1c0-.4 0-.8.1-1.2v-.7c0-.5 0-.9.1-1.4v-.4c0-.5 0-1 .1-1.5v-.2c0-.6 0-1.1.1-1.7.5-13.6.3-21.4.3-22.6.4-.6.9-1 1.8-1 2.4.7 4.8 1.4 7.2 2.3 2.2.8 4.4 1.8 6.3 3 1 .7 2 1.4 2.9 2.3l.6.6c0 .1.1.1.1.2l.2.2c.3.3.6.7.9 1.1 0 .1.1.1.1.2 8.1 11 7.2 27.4 7.3 40.3.2 16.6-.6 33.5-2.8 49.9-.1.6-.2 1.2-.2 1.9-.1.4-.1.9-.2 1.4-.3 1.5-.5 2.9-.8 4.1-.3 1.6-1.9 10.2-2.1 11.1-.8 3.4-2.3 8.1-2.8 9.4-.6 1.2-1.2 2.4-1.9 3.5-1.1 1.7-2.4 3.1-3.5 4.3-2.4 2-9.1 6.1-14.7 8.1-2.5.4-4.7.8-6 .8z" />
</svg>
