<svg xmlns="http://www.w3.org/2000/svg" xml:space="preserve" viewBox="0 0 220 40">
  <path d="M56.4 25.7V14.4h4.8c.7 0 1.3.1 1.8.3.5.2.9.5 1.2.8.3.3.5.7.7 1.1.1.4.2.9.2 1.3 0 .3 0 .5-.1.8-.1.3-.2.6-.3.8-.1.3-.3.5-.5.7-.2.2-.5.4-.7.6-.3.2-.6.3-1 .4-.4.1-.8.1-1.2.1h-2.7v4.1l-2.2.3zm4.9-6.2c.3 0 .5 0 .7-.1.2-.1.3-.2.5-.3.1-.1.2-.3.3-.5.1-.2.1-.4.1-.5 0-.2 0-.3-.1-.5 0-.2-.1-.3-.2-.5-.1-.1-.3-.3-.5-.4-.2-.1-.4-.1-.7-.1h-2.8v3l2.7-.1zM80.1 25.7l-.9-2.3h-4.4l-.8 2.3h-2.3L76 14.4h2.1l4.3 11.3h-2.3zm-2.7-7.3c-.1-.1-.1-.3-.2-.5s-.1-.4-.2-.5c0 .2-.1.3-.2.5s-.1.4-.2.5l-1.1 2.9h2.9l-1-2.9zM94.7 16.5v9.2h-2.2v-9.2h-3.2v-2.1h8.6v2.1h-3.2zM111.6 16.5v9.2h-2.2v-9.2h-3.2v-2.1h8.6v2.1h-3.2zM123.8 25.7V14.4h7.7v2.1H126v2.4h3.2V21H126v2.7h5.9v2.1l-8.1-.1zM141 25.7V14.4h5.2c.7 0 1.3.1 1.8.3.5.2.9.5 1.2.8.3.3.5.7.6 1.1.1.4.2.9.2 1.3 0 .3 0 .6-.1 1-.1.3-.2.6-.4.9-.2.3-.4.6-.7.8-.3.2-.6.4-1 .6l2.2 4.5h-2.4l-2.1-4.2h-2.3v4.2H141zm5.2-6.3c.3 0 .5 0 .7-.1.2-.1.3-.2.5-.3.1-.1.2-.3.2-.5.1-.2.1-.4.1-.6 0-.2 0-.4-.1-.5 0-.2-.1-.3-.2-.5-.1-.1-.3-.2-.5-.3s-.4-.1-.7-.1h-3.1v2.9h3.1zM166.3 25.7l-4.5-6.6c-.1-.1-.2-.2-.2-.4-.1-.2-.2-.3-.2-.4V25.7h-2.2V14.4h2l4.4 6.5c.1.1.1.2.2.4s.2.3.2.5v-7.4h2.2v11.3h-1.9zM178 25.7V14.4h7.6v2.1h-5.4v2.4h3.4V21h-3.4v4.8l-2.2-.1zM194.4 25.7V14.4h2.2v9.2h5.4v2.1h-7.6zM212.4 25.7v-4.4l-4.2-6.9h2.5l2.8 4.6 2.8-4.6h2.5l-4.2 6.9v4.4h-2.2z"/>
  <linearGradient id="a" x1="20.971" x2="20.971" y1="40.607" y2="3.941" gradientTransform="matrix(1 0 0 -1 0 42)" gradientUnits="userSpaceOnUse">
    <stop offset="0" stop-color="#60efff"/>
    <stop offset="1" stop-color="#1f89c7"/>
  </linearGradient>
  <path fill="url(#a)" d="M41.9 20.7 21 .2 0 20.7l8.4 11.8 6.4-1.5 6.3 8.8 6.3-8.8 6.3 1.4 8.2-11.7zM20.1 4l-2.7 25.1-5.2-7.1 7.9-18zm-8.5 17.2-3.2-4.4L19.5 3.3l-7.9 17.9zm4.9 8.1.3.4-1.7.4-4-5.6.7-1.6 4.7 6.4zM21 3.7l2.7 26.6L21 34l-2.7-3.7L21 3.7zm4.4 25.6 4.8-6.5.7 1.7-4 5.6-1.8-.4.3-.4zm-.8-.2L21.9 4l7.9 18-5.2 7.1zM22.5 3.3l11 13.5-3.2 4.3-7.8-17.8zM8.7 31.6 1.1 20.8 16 6.2 7.3 16.8l3.9 5.3-1.1 2.5 4.1 5.7-5.5 1.3zM21 38.5l-5.4-7.6 1.7-.4 3.6 5 3.6-5 1.8.4-5.3 7.6zm6.8-8.1 4.1-5.7-1.1-2.6 3.8-5.2-8.7-10.7 14.9 14.6-7.6 10.8-5.4-1.2z"/>
</svg>