<svg width="81" height="32" viewBox="0 0 81 32" fill="none" xmlns="http://www.w3.org/2000/svg">
<path d="M43.8857 31.0857H45.7143C51.2 30.8114 55.04 26.5143 55.04 21.3943C55.04 19.6572 54.6743 17.92 53.8514 16.5486H43.8857V31.0857Z" fill="#1b1b1b"/>
<path d="M42.9714 16.457H33.8286V31.0856H42.9714V16.457Z" fill="#1b1b1b"/>
<path d="M53.3029 15.5429C52.3886 14.2629 51.1086 13.2572 49.7371 12.5257C51.3829 11.3372 52.48 9.41716 52.48 7.31431C52.48 3.74859 49.6457 0.914307 46.08 0.914307H43.8857V15.5429H53.3029Z" fill="#1b1b1b"/>
<path d="M42.9714 0.914307H33.8286V15.5429H42.9714V0.914307Z" fill="#1b1b1b"/>
<path d="M68.5714 31.0857H70.4C75.8857 30.8114 79.7257 26.5143 79.7257 21.3943C79.7257 19.6572 79.36 17.92 78.5372 16.5486H68.5714V31.0857Z" fill="#1b1b1b"/>
<path d="M67.6571 16.457H58.5143V31.0856H67.6571V16.457Z" fill="#1b1b1b"/>
<path d="M77.9886 15.5429C77.0743 14.2629 75.7943 13.2572 74.4229 12.5257C76.0686 11.3372 77.1657 9.41716 77.1657 7.31431C77.1657 3.74859 74.3314 0.914307 70.7657 0.914307H68.5714V15.5429H77.9886Z" fill="#1b1b1b"/>
<path d="M67.6571 0.914307H58.5143V15.5429H67.6571V0.914307Z" fill="#1b1b1b"/>
<path d="M6.1257 16.457L0.914276 31.0856H8.50285L10.6971 24.6856H15.5428V16.457H6.1257Z" fill="#1b1b1b"/>
<path d="M15.5429 0.914307H11.6114L6.39999 15.5429H15.5429V0.914307Z" fill="#1b1b1b"/>
<path d="M16.4572 24.6856H21.3029L23.4972 31.0856H31.0857L25.8743 16.457H16.4572V24.6856Z" fill="#1b1b1b"/>
<path d="M25.6 15.5429L20.3886 0.914307H16.4572V15.5429H25.6Z" fill="#1b1b1b"/>
</svg>
