<svg version="1.1" xmlns="http://www.w3.org/2000/svg" x="0" y="0" viewBox="0 0 216 45.2" xml:space="preserve">
  <circle fill="#f7f7f7" cx="20.3" cy="22.3" r="11.9"/>
  <path fill="#f7f7f7" d="M63.1 7.1c-5.1 0-12.9-2.4-12.9-2.4s-1.7 4.4-1.7 10.4 5 21.8 15.1 25.8c0 0 14.4-9.1 14.4-25 0-9.5-1.4-11.2-1.4-11.2s-8.4 2.4-13.5 2.4z"/>
  <path fill="#1b1b1b" d="M92.8 19.4V2.2h6.5c3.1-.2 6.2 1.1 6.2 4.5 0 1.9-1.3 3.2-3 3.8 2.2.5 3.8 2 3.8 4.5 0 3.4-4.3 4.7-6.9 4.5h-6.6v-.1zm6.6-10.3c1.6 0 2.4-.6 2.4-2s-.9-2-2.4-2h-2.9v4.1l2.9-.1c0 .1 0 0 0 0zm0 7.4c1.7 0 2.9-.3 2.9-2.3s-1.2-2.3-2.9-2.3h-2.9v4.6h2.9zm12.8-14.3v17.2h-3.6V2.2h3.6zm10.9 15.7c-.8 1.1-1.9 1.8-3.7 1.8-1.2 0-3.5-.9-3.9-2.6-.2-.7-.2-1.5-.2-1.9V7.4h3.6v7.2c0 1.3.4 2.8 2.1 2.8 1.1 0 2.1-1 2.1-2.8V7.4h3.6v9.8c0 .7.1 1.4.1 2.1h-3.6l-.1-1.4zm9.9-3.5c0 1.6.2 3 2.1 3 1.2 0 1.9-.5 2.2-1.6h3.2c-.3 3-2.6 3.9-5.4 3.9-4.1 0-5.8-2.3-5.8-6.3 0-3.6 2.1-6.4 5.8-6.4 2.2 0 4.1.8 5.1 2.9.3.7.5 1.4.6 2.1s.1 1.5.1 2.3H133v.1zm4.2-2.4c0-1.3-.4-2.5-2.1-2.5-1.6 0-2 1.2-2.1 2.5h4.2zM153 7.7c0-1.8-1.1-3.3-3.3-3.3-2.6 0-3.3 3.9-3.3 6.3s.7 6.3 3.3 6.3c2.2 0 3.3-1.5 3.3-3.3h3.9c-.2 4.3-3.3 5.9-7.2 5.9-5 0-7.2-3.9-7.2-9 0-5 2.2-9 7.2-9 4 0 7.1 1.6 7.2 5.9H153v.2zm9.1-.3l.1 2.2c.8-1.9 2.3-2.4 4.1-2.3v3.2h-1.6c-.6 0-1.4.4-1.7.9-.4.7-.5 1.3-.5 2.1v5.9h-3.6V9.8c0-.5-.1-1.5-.1-2.4h3.3zm12 12.4c-3.9 0-6.3-2.6-6.3-6.4s2.3-6.4 6.3-6.4c3.9 0 6.3 2.6 6.3 6.4s-2.4 6.4-6.3 6.4zm0-2.4c2.2 0 2.6-2.1 2.6-4s-.4-4-2.6-4-2.6 2.1-2.6 4c.1 1.9.4 4 2.6 4zm14.9-6.8c0-.8-.8-1.2-1.6-1.2-1 0-1.4.3-1.4 1.1 0 1.9 6.9.8 6.9 5.3 0 2.6-3.2 3.9-5.4 3.9-2.8 0-5.2-1.1-5.3-3.8h3.3c.1.9.9 1.5 2 1.5 1 0 1.7-.4 1.7-1.3 0-1-1.7-1.4-2.4-1.5-2.3-.5-4.4-1.1-4.4-3.8 0-2.5 3-3.6 5.1-3.6 2.5 0 4.7.9 4.8 3.6H189v-.2zm11.9 0c0-.8-.8-1.2-1.6-1.2-1 0-1.4.3-1.4 1.1 0 1.9 6.9.8 6.9 5.3 0 2.6-3.2 3.9-5.4 3.9-2.8 0-5.2-1.1-5.3-3.8h3.3c.1.9.9 1.5 2 1.5 1 0 1.7-.4 1.7-1.3 0-1-1.7-1.4-2.4-1.5-2.3-.5-4.4-1.1-4.4-3.8 0-2.5 3-3.6 5.1-3.6 2.5 0 4.7.9 4.8 3.6h-3.3v-.2zM92.8 42.8V25.6h6.5c3.1-.2 6.2 1.1 6.2 4.5 0 1.9-1.3 3.2-3 3.8 2.2.5 3.8 2 3.8 4.5 0 3.4-4.3 4.7-6.9 4.5h-6.6v-.1zm6.6-10.3c1.6 0 2.4-.6 2.4-2s-.9-2-2.4-2h-2.9v4.1l2.9-.1zm0 7.4c1.7 0 2.9-.3 2.9-2.3s-1.2-2.3-2.9-2.3h-2.9v4.6h2.9zm12.8-14.3v17.2h-3.6V25.6h3.6zm10.9 15.7c-.8 1.1-1.9 1.8-3.7 1.8-1.2 0-3.5-.9-3.9-2.7-.2-.7-.2-1.5-.2-1.9v-7.8h3.6V38c0 1.3.4 2.8 2.1 2.8 1.1 0 2.1-1 2.1-2.8v-7.2h3.6v9.8c0 .7.1 1.4.1 2.1h-3.6l-.1-1.4zm9.9-3.5c0 1.6.2 3 2.1 3 1.2 0 1.9-.5 2.2-1.6h3.2c-.3 3-2.6 3.9-5.4 3.9-4.1 0-5.8-2.3-5.8-6.3 0-3.6 2.1-6.4 5.8-6.4 2.2 0 4.1.8 5.1 2.9.3.7.5 1.4.6 2.1.1.7.1 1.5.1 2.3l-7.9.1zm4.2-2.4c0-1.3-.4-2.5-2.1-2.5-1.6 0-2 1.2-2.1 2.5h4.2zm15.3-4.9c-.1-1.7-1.1-2.6-2.9-2.6-1.4 0-2.7.7-2.7 2.2 0 1.9 1.7 2.1 3.2 2.4 2.6.7 6.5 1.4 6.5 4.9 0 4.3-3.7 5.8-7.4 5.8-3.9 0-6.7-1.5-6.6-5.9h3.8c-.1 1.9 1 3.2 2.9 3.2 1.5 0 3.4-.5 3.4-2.3 0-2-2.5-2.2-3.9-2.6-2.4-.6-5.7-1.7-5.7-4.8 0-3.9 3.6-5.7 7.2-5.7 3.3 0 5.9 1.8 5.9 5.3l-3.7.1zm6.6 12.3V25.6h3.6v6.7c.7-1.1 1.9-1.8 3.7-1.8 1.2 0 3.5.9 3.9 2.6.2.7.2 1.5.2 1.9v7.8H167v-7.2c0-1.3-.4-2.7-2.1-2.7-1.1 0-2.1 1-2.1 2.7v7.2h-3.7zm18.3-17.2v3.1h-3.8v-3.1h3.8zm-.2 5.2v12h-3.6v-12h3.6zm6.3 7c0 1.6.2 3 2.1 3 1.2 0 1.9-.5 2.2-1.6h3.2c-.3 3-2.6 3.9-5.4 3.9-4.1 0-5.8-2.3-5.8-6.3 0-3.6 2.1-6.4 5.8-6.4 2.2 0 4.1.8 5.1 2.9.3.7.5 1.4.6 2.1.1.7.1 1.5.1 2.3l-7.9.1zm4.1-2.4c0-1.3-.4-2.5-2.1-2.5-1.6 0-2 1.2-2.1 2.5h4.2zm9.5-9.8v17.2h-3.6V25.6h3.6zm11.4 0h3.6v14.9c0 .8.1 1.6.1 2.4h-3.6c0-.6-.1-1.1-.1-1.7-.8 1.4-2.1 2.1-3.7 2.1-3.5 0-5.2-3.3-5.2-6.4 0-3.2 1.9-6.4 5.6-6.4 1.2 0 2.5.7 3.2 1.7l.1-6.6zm-2.6 15.2c1.9 0 2.6-2.3 2.6-4 0-1.6-.6-4-2.6-4-2.3 0-2.6 2.1-2.6 4 0 1.8.3 4 2.6 4zm.6-21.4c-.6 0-1.1-.5-1.1-1.1s.5-1.1 1.1-1.1 1.1.5 1.1 1.1-.4 1.1-1.1 1.1m0-2.5c-.7 0-1.3.6-1.3 1.3 0 .7.6 1.3 1.3 1.3s1.3-.6 1.3-1.3-.6-1.3-1.3-1.3"/>
  <path fill="#1b1b1b" d="M206.5 18.2h-.3v-.5h.4c.2 0 .4 0 .4.2 0 .3-.3.3-.5.3m.7-.3c0-.3-.1-.4-.5-.4h-.7V19h.2v-.7h.3l.5.7h.2l-.4-.7c.2 0 .4-.1.4-.4m7 24.8c-.6 0-1.1-.5-1.1-1.1s.5-1.1 1.1-1.1 1.1.5 1.1 1.1-.5 1.1-1.1 1.1m0-2.5c-.7 0-1.3.6-1.3 1.3s.6 1.3 1.3 1.3 1.3-.6 1.3-1.3-.6-1.3-1.3-1.3"/>
  <path fill="#1b1b1b" d="M214.1 41.5h-.3V41h.4c.2 0 .4 0 .4.2 0 .3-.2.3-.5.3m.8-.3c0-.3-.1-.4-.5-.4h-.7v1.5h.2v-.7h.3l.4.7h.2l-.4-.7c.3 0 .5-.1.5-.4M38.4 38.4c-1.3 0-2.3 1-2.3 2.3s1 2.3 2.3 2.3c1.2 0 2.3-1 2.3-2.3s-1-2.3-2.3-2.3zm0 4.2c-1.1 0-1.9-.8-1.9-1.9 0-1.1.8-1.9 1.9-1.9 1.1 0 1.9.8 1.9 1.9 0 1.1-.7 1.9-1.9 1.9z"/>
  <path fill="#1b1b1b" d="M39.6 40.1c0-.5-.2-.7-.9-.7h-1.1V42h.3v-1.1h.6l.7 1.1h.4l-.8-1.1c.5-.1.8-.3.8-.8zm-1.2.4h-.5v-.8h.7c.3 0 .6 0 .6.4.1.5-.5.4-.8.4zm-18-15.1c-.1 0-.1 0-.2.1l-3.8 5.8c1.2.5 2.5.8 3.9.8s2.7-.3 3.9-.8l-3.8-5.8c.1-.1 0-.1 0-.1zm-3.7-4.8l-5.7-.5c-.2.7-.3 1.5-.3 2.3 0 2.4.9 4.6 2.3 6.3l4-7.6c.2-.2.1-.4-.3-.5z"/>
  <path fill="#1b1b1b" d="M29.4 13.3V2H11.3v11.3H0v18.1h11.3v11.3h18.1V31.4h11.3V13.3H29.4zm-9-2.1c4.5 0 8.4 2.6 10.1 6.5h-8c-1.1 0-1.6-.7-1.7-1.2 0-.6.1-.8.6-1.5.6-.8.2-2.2-1.1-2.3-1.3 0-1.7 1.5-1.1 2.3.5.7.6.9.6 1.5 0 .5-.5 1.2-1.7 1.2h-8c1.9-3.8 5.8-6.5 10.3-6.5zM9.2 22.4c0-1.4.3-2.7.7-3.9l7.5.7c1.4.2 1.6 1.6 1.2 2.4l-5.1 9.7c-2.6-2.1-4.3-5.3-4.3-8.9zm17.3 9.4c-1.8 1.2-3.9 1.8-6.2 1.8s-4.4-.7-6.2-1.8l5.5-8.1c.4-.6 1-.5 1.4 0l5.5 8.1zm.8-.6l-5.1-9.6c-.4-.8-.2-2.2 1.2-2.4l7.5-.7c.5 1.2.7 2.6.7 3.9 0 3.6-1.7 6.8-4.3 8.8z"/>
  <path fill="#1b1b1b" d="M27.7 16.1c-1.2-1.4-2.8-2.5-4.6-3 .6.9.1 2.2-.4 2.8-.1.1 0 .2 0 .2h5zm-3.6 4.5c-.4 0-.4.2-.3.4l4 7.6c1.4-1.7 2.3-3.9 2.3-6.3 0-.8-.1-1.6-.3-2.3l-5.7.6zm-6.4-7.4c-1.8.5-3.4 1.6-4.6 3h5c.1 0 .1-.1 0-.2-.5-.7-1-1.9-.4-2.8z"/>
  <g>
    <path fill="#1b1b1b" d="M77.1 2c-4.4 2.2-8.8 3.4-13.9 3.4S53.7 4.2 49.3 2c-2.9 5.7-3.3 14.9-.8 22.6C50.9 32 55.6 38.8 63.2 43c7.7-4.2 12.3-11 14.7-18.4C80.5 16.9 80 7.7 77.1 2zm-2 21.7c-2.2 6.3-5.5 11.9-11.8 15.8-6.3-3.9-9.7-9.5-11.8-15.8-1.9-5.6-2.4-12.2-.3-17.3 3.2 1.1 5 1.4 6.7 1.7 1.6.3 3 .4 5.4.4 2.3 0 3.8-.2 5.4-.4 1.7-.3 3.6-.6 6.7-1.7 2 5.1 1.6 11.7-.3 17.3z"/>
    <path fill="#1b1b1b" d="M68.7 9.5c-1.8.2-3.7.4-5.5.4-1.8 0-3.6-.2-5.5-.4-1.8-.3-3.6-.7-5.5-1.2-1.3 3.8-1.1 8.6 0 12.8 1.9 8 6.8 14.1 11 16.8 4.3-2.7 9.1-8.8 11-16.8 1-4.3 1.3-9 0-12.8-1.9.5-3.6 1-5.5 1.2zm-6.5 24.7c-.1.4.1.6.1.8-.1.3-.3.2-.4 0-.2-.3-.3-.5-.3-1-.1-.8.3-1.1.5-1.3s.4-.3.4-.3l.1 1.3c-.2 0-.4.1-.4.5zm1.7 1.3c0 .2-.1.4-.5.4-.3 0-.5-.1-.5-.5-.1-1.6-.1-4.5-.1-4.5s.4.1.7.3c.1 0 .3.2.5.4 0 .1.1.1.1.2-.1 1.1-.2 3.2-.2 3.7zm1.3-3c-.4.3-.8.4-.8.4v-1.2s.1-.1.1-.3c-.1-.2-.9-.8-1.3-1-.5-.2-1.1-.4-1.5-.5-1-.4-1.4-1.3-1-2.3.1-.4.6-.6.8-.7s.6-.2.6-.2l.1 1.4s-.1 0-.2.2.1.4.2.4c.7.3 1.6.7 2.3 1.1.9.5 1.2.9 1.2 1.6.1.5-.2.9-.5 1.1zM62.7 26c.7.1.9.1 1.5.2l-.1 2.8-.6-.3-.6-.3-.2-2.4zm4 .6c-.1.5-.4.9-.9 1.2-.5.3-1.1.3-1.1.3v-1.7s.1 0 .2-.1.1-.2.1-.3c0-.1-.1-.2-.2-.3-.2-.1-.4-.1-.5-.1l-2.4-.3c-1.4-.2-2.5-1.1-2.4-2.5.1-.9 1-1.2 1.7-1.5l.5 1c.1.4.2.6.2.6s-.3.1-.3.3c0 .2.3.3.4.3 1 .1 2.4.3 3.1.6.5.2.9.4 1.2.8.4.7.5 1.2.4 1.7zm-4.6-6.5s.3 0 1.2.1c.6 0 1.1.2 1.1.2l-.1 3c-.7-.1-1.1-.2-1.7-.3-.2-1.1-.5-1.5-.9-2.3-.1-.2 0-.3 0-.3.1-.1.5-.2.5-.2l-.1-.2zm2.7 3s.1-1.4.1-2.1c.4-.1.5-.5.3-.8-.1-.2-.4-.3-.5-.3-.8-.2-1.5-.2-2.3-.3-.7-.1-1.3-.2-1.9-.3-1.3-.3-2.5-1-3.1-2.2-.7-1.5-.1-3.4 1.4-4.1 1.1-.6 2.3-.5 3.4 0 .4.1.6.5.8.8.1.1.3.2.4.4.1.1-.1.1-.1.1-.2.1-1.1.1-1.3 0h-1.2c.3.2.7.4 1.1.6.2.1.4.1.6.2.1 0 .3.1.3.2s-.2.1-.4.2c-.3.1-.7.1-1.1 0-.6-.1-.9-.5-1.3-.3-.3.2-.3.5-.2.9.1.6.7.8 1.2 1 1.7.6 3.6.2 5.2 1.1.6.3 1.4 1 1.5 1.7.5 2.8-2.9 3.2-2.9 3.2zm3-9.3c-.1.3-.2.3-.4.5-.4.4-1 .8-1.6 1.3-.4.3-.7.5-1 1-.1.1-.2.3-.2.3-1-.2-1.9-.2-2.7-.4v-.8s.9 0 1-.6c0 0 0-.2-.1-.3s-.4-.2-.5-.2c.7.1 1.4.4 2.1.7 0-.1-.1-.4-.1-.4-.1-.1-.2-.2-.5-.3-.4-.1-1.5-.2-1.5-.2h.9c.2 0 .5-.1.5-.2.1-.1 0-.3-.2-.5l-.3-.3c-.1-.2-.3-.4-.4-.6-.2-.3-1-.6-1-.6s-.1-.5.1-.7c.1-.2.5-.2.6-.1.5.3 1.2.6 1.9.8.2.1.2.1.2.4.1.5-.1 1.2 0 1.5 0 .1.2.1.2.1.7-.4 1.1-1 1.8-1.3.5-.2 1.4.2 1.2.9zm9.5 24.7c-1.2 0-2.2 1-2.2 2.2s1 2.2 2.2 2.2 2.2-1 2.2-2.2-1-2.2-2.2-2.2zm0 4.1c-1.1 0-1.9-.8-1.9-1.9 0-1.1.8-1.9 1.9-1.9s1.9.8 1.9 1.9c0 1.1-.8 1.9-1.9 1.9z"/>
    <path fill="#1b1b1b" d="M78.5 40.1c0-.5-.2-.7-.9-.7h-1.1V42h.3v-1.1h.5L78 42h.4l-.8-1.1c.5-.1.9-.3.9-.8zm-1.2.5h-.5v-.8h.7c.3 0 .6 0 .6.4s-.5.4-.8.4zM61.1 13.1c.2.2.2.4.5.4.2 0 .3-.1.4-.2h.2c-.3-.3-1-.3-1.5-.4.2.2.3.1.4.2z"/>
  </g>
</svg>
