<svg xmlns="http://www.w3.org/2000/svg" id="Layer_2" viewBox="0 0 250 185.12">
  <defs>
    <style>
      .cls-1{fill:#00558c}.cls-2{fill:#82c341}
    </style>
  </defs>
  <g id="Layer_1-2">
    <path d="M6 136.5H0v-3.08h15.36v3.08h-6v15.85H6.01V136.5ZM34.92 133.42h8.44c2.38 0 4.25.7 5.46 1.89 1 1.03 1.57 2.43 1.57 4.08v.05c0 3.11-1.87 4.98-4.52 5.73l5.11 7.17h-3.92l-4.65-6.6h-4.16v6.6h-3.33v-18.93Zm8.19 9.38c2.38 0 3.89-1.24 3.89-3.16v-.06c0-2.03-1.46-3.14-3.92-3.14h-4.84v6.36h4.87ZM77.22 133.28h3.08l8.33 19.07h-3.52l-1.92-4.57h-8.95l-1.95 4.57h-3.41l8.33-19.07Zm4.76 11.55-3.27-7.57-3.24 7.57h6.52ZM108.11 133.42h3.33v18.93h-3.33v-18.93ZM132.53 133.42h3.08l10.14 13.09v-13.09h3.27v18.93h-2.79l-10.44-13.47v13.47h-3.27v-18.93ZM170.13 133.42h3.33v18.93h-3.33v-18.93ZM194.55 133.42h3.08l10.14 13.09v-13.09h3.27v18.93h-2.79l-10.44-13.47v13.47h-3.27v-18.93ZM231.12 142.94v-.05c0-5.3 4.06-9.79 9.76-9.79 3.3 0 5.33.92 7.28 2.57l-2.11 2.51c-1.46-1.24-2.89-2.03-5.3-2.03-3.49 0-6.14 3.06-6.14 6.68v.05c0 3.89 2.57 6.76 6.44 6.76 1.78 0 3.41-.57 4.57-1.43v-3.54h-4.84v-2.89h8.06v7.95c-1.87 1.6-4.54 2.95-7.9 2.95-5.92 0-9.82-4.22-9.82-9.74Z" class="cls-1"/>
    <path d="M1.79 165.89h2.14v18.93H1.79v-18.93ZM24.92 165.89h2l11.93 15.17v-15.17h2.08v18.93h-1.7L27.01 169.3v15.52h-2.08v-18.93ZM61.75 165.89h6.57c5.95 0 10.06 4.08 10.06 9.41v.05c0 5.33-4.11 9.47-10.06 9.47h-6.57v-18.93Zm6.57 16.96c4.79 0 7.84-3.25 7.84-7.44v-.05c0-4.19-3.06-7.49-7.84-7.49h-4.44v14.98h4.44ZM98.07 176.9v-11.01h2.14v10.87c0 4.08 2.16 6.38 5.79 6.38s5.71-2.11 5.71-6.25v-11.01h2.14v10.85c0 5.52-3.16 8.38-7.9 8.38s-7.87-2.87-7.87-8.22ZM133.11 182.06l1.32-1.57c1.97 1.78 3.87 2.68 6.49 2.68s4.22-1.35 4.22-3.22v-.05c0-1.76-.95-2.76-4.92-3.6-4.35-.95-6.36-2.35-6.36-5.46v-.05c0-2.98 2.62-5.17 6.22-5.17 2.76 0 4.73.78 6.65 2.33l-1.24 1.65c-1.76-1.43-3.52-2.05-5.46-2.05-2.46 0-4.03 1.35-4.03 3.06v.05c0 1.78.97 2.79 5.14 3.68 4.22.92 6.17 2.46 6.17 5.35v.05c0 3.25-2.7 5.36-6.46 5.36-3 0-5.46-1-7.74-3.03ZM171.72 167.86h-6.36v-1.97h14.87v1.97h-6.36v16.96h-2.16v-16.96ZM199.7 165.89h8.14c2.33 0 4.19.7 5.38 1.89.92.92 1.46 2.24 1.46 3.73v.05c0 3.14-2.16 4.98-5.14 5.52l5.81 7.74h-2.62l-5.49-7.36h-5.41v7.36h-2.14v-18.93Zm7.95 9.66c2.84 0 4.87-1.46 4.87-3.89v-.05c0-2.33-1.78-3.73-4.84-3.73h-5.84v7.68h5.81ZM239.97 177.33l-7.87-11.44h2.6l6.38 9.47 6.44-9.47h2.49l-7.87 11.41v7.52h-2.16v-7.49Z" class="cls-2"/>
    <path d="M155.77 35.72c-1.64-1.5-4.42-1.37-5.91.28a4.19 4.19 0 0 0-1.09 3.01c.05 1.11.54 2.14 1.37 2.9 10.33 9.41 14.43 23.61 10.7 37.07-2.62 9.48-8.77 17.36-17.33 22.2a36.876 36.876 0 0 1-27.96 3.45c-19.56-5.42-31.07-25.74-25.66-45.3a36.847 36.847 0 0 1 10.45-17.18c.82-.76 1.3-1.79 1.34-2.91s-.35-2.18-1.11-3c-1.5-1.63-4.28-1.74-5.91-.23-6.14 5.68-10.57 12.97-12.83 21.08-6.64 24.01 7.48 48.95 31.49 55.6 3.97 1.1 8.05 1.66 12.12 1.66 7.72 0 15.4-2.04 22.2-5.89 10.5-5.95 18.06-15.63 21.28-27.26 4.57-16.51-.46-33.94-13.14-45.49" class="cls-1"/>
    <path d="M90.36 26.42h25.78v27.7c0 2.22 1.81 4.03 4.03 4.03s4.04-1.81 4.04-4.03V18.38h-3.6c-.08-.02-.16-.03-.25-.03h-30c-2.12 0-3.84 1.81-3.84 4.04s1.72 4.03 3.84 4.03M130.16 18.38h-3.58v35.74c0 2.23 1.81 4.03 4.04 4.03s4.03-1.81 4.03-4.03v-27.7h25.78c2.12 0 3.84-1.81 3.84-4.03s-1.73-4.03-3.84-4.03h-30c-.08 0-.16 0-.27.03M125.36 12.83c3.54 0 6.42-2.88 6.42-6.41S128.9 0 125.36 0s-6.41 2.88-6.41 6.42 2.88 6.41 6.41 6.41" class="cls-2"/>
  </g>
</svg>