<svg xmlns="http://www.w3.org/2000/svg" fill="none" viewBox="0 0 567 119">
  <g clip-path="url(#a)">
    <path fill="#C7305B" d="M14.76 86.78a4.7 4.7 0 1 1 9.39-.27v.1a4.701 4.701 0 0 1-4.61 4.79h-.08a4.71 4.71 0 0 1-4.7-4.63v.01Z"/>
    <path fill="#EA434C" d="M533.98 91.6c6.324 0 11.45-5.135 11.45-11.47 0-6.335-5.126-11.47-11.45-11.47-6.323 0-11.45 5.135-11.45 11.47 0 6.335 5.127 11.47 11.45 11.47Z"/>
    <path fill="#323F5A" d="M94.25 1.83A1.8 1.8 0 0 1 96.05 0h20.44a1.81 1.81 0 0 1 1.81 1.81v29.94a1.804 1.804 0 0 0 1.185 1.708 1.8 1.8 0 0 0 2.005-.548L148.4.67a1.81 1.81 0 0 1 1.38-.67h26.4a1.814 1.814 0 0 1 1.687 1.129c.091.222.136.46.133.701-.009.434-.176.85-.47 1.17l-29.62 33.1a1.811 1.811 0 0 0-.17 2.2l32.77 50.52a1.814 1.814 0 0 1 .076 1.854 1.812 1.812 0 0 1-1.596.946h-28.14a1.763 1.763 0 0 1-1.52-.84l-19.58-30.86a1.799 1.799 0 0 0-2.49-.57c-.138.093-.265.2-.38.32l-8.11 9c-.302.334-.47.77-.47 1.22v20a1.79 1.79 0 0 1-1.8 1.81H96.06a1.81 1.81 0 0 1-1.81-1.81V1.83ZM187.48 0h22.73A1.82 1.82 0 0 1 212 1.81v88a1.807 1.807 0 0 1-1.8 1.81h-22.72a1.81 1.81 0 0 1-1.81-1.81v-88A1.821 1.821 0 0 1 187.48 0ZM282 30c-6.52-6.92-15.603-10.38-27.25-10.38a40.58 40.58 0 0 0-19.56 4.57 32.638 32.638 0 0 0-13.17 12.87 38.462 38.462 0 0 0-4.69 19.27 37.88 37.88 0 0 0 4.63 19A31.754 31.754 0 0 0 235.22 88c5.74 3.013 12.52 4.517 20.34 4.51a46.999 46.999 0 0 0 17.94-3.27A36.482 36.482 0 0 0 285.89 81a1.828 1.828 0 0 0-.05-2.57l-11.23-11a1.799 1.799 0 0 0-2.43-.07c-4.58 3.8-9.38 5.7-14.4 5.7a13.85 13.85 0 0 1-8.67-2.74A14.102 14.102 0 0 1 245 65.1a1.827 1.827 0 0 1 .293-2.023c.162-.179.358-.324.577-.427.24-.118.503-.183.77-.19h43.22a1.824 1.824 0 0 0 1.759-1.019c.106-.216.167-.451.181-.691v-2.34c.007-12.02-3.26-21.49-9.8-28.41Zm-18 19.52h-18.3a1.844 1.844 0 0 1-1.681-1.164 1.837 1.837 0 0 1-.129-.706c0-.18.031-.36.09-.53a15.92 15.92 0 0 1 3.46-6.35 9.822 9.822 0 0 1 7.56-3.26 9.934 9.934 0 0 1 7.82 3.4 11.336 11.336 0 0 1 2.79 6.56 1.848 1.848 0 0 1-.379 1.36 1.837 1.837 0 0 1-1.231.69ZM355.52 26.33c-5.6-4.567-13.403-6.854-23.41-6.86-10.273 0-21.1 2.216-32.48 6.65a1.85 1.85 0 0 0-1.05 2.35l5.25 14.09a1.78 1.78 0 0 0 2.3 1h.06a64.927 64.927 0 0 1 9.69-3.07 44.78 44.78 0 0 1 10-1.31c4 0 7 .83 9.13 2.48a8.348 8.348 0 0 1 3.12 6.93v.26h-17.36c-8.947.093-15.75 1.986-20.41 5.68-4.66 3.693-6.993 8.986-7 15.88 0 6.786 2.13 12.21 6.39 16.27 4.26 4.06 10.127 6.083 17.6 6.07a29.66 29.66 0 0 0 12.19-2.35 21.39 21.39 0 0 0 8.54-6.67v6a1.82 1.82 0 0 0 1.8 1.81h22.21a1.82 1.82 0 0 0 1.81-1.81V45.48c.02-8.187-2.773-14.57-8.38-19.15Zm-17.41 41.45c.008.283-.05.564-.17.82a11.189 11.189 0 0 1-4.52 5 13.78 13.78 0 0 1-7.3 2 8.55 8.55 0 0 1-5.87-1.83 6.542 6.542 0 0 1-2.08-5.22c0-4.44 2.65-6.664 7.95-6.67h10.19a1.811 1.811 0 0 1 1.81 1.81l-.01 4.09ZM406 22.67a25.09 25.09 0 0 1 11-3.14 1.81 1.81 0 0 1 1.88 1.74v20c0 1.38-1.23 1.82-2.31 1.77h-2.25c-5.48 0-9.813 1.306-13 3.92a13.146 13.146 0 0 0-4.76 10.71v32.12a1.812 1.812 0 0 1-1.81 1.81H372a1.812 1.812 0 0 1-1.81-1.81V22.33a1.812 1.812 0 0 1 1.81-1.81h22.72a1.811 1.811 0 0 1 1.81 1.81v4.16a1.797 1.797 0 0 0 1.131 1.666 1.803 1.803 0 0 0 1.969-.426 26.18 26.18 0 0 1 6.37-5.06ZM427 0h22.7a1.81 1.81 0 0 1 1.81 1.81v88a1.812 1.812 0 0 1-1.81 1.81H427a1.809 1.809 0 0 1-1.8-1.81v-88A1.821 1.821 0 0 1 427 0ZM495.06 113.09c-4.873 3.334-10.873 5-18 5a36.47 36.47 0 0 1-12-1.9 38.17 38.17 0 0 1-9.45-4.94 1.832 1.832 0 0 1-.48-2.45l9-14.45a1.801 1.801 0 0 1 2.47-.58l.13.09a14.818 14.818 0 0 0 3.18 1.88c1.535.62 3.176.933 4.83.92 3.647 0 6.21-1.526 7.69-4.58l1.31-2.48L455.45 23a1.824 1.824 0 0 1 .405-1.988 1.858 1.858 0 0 1 1.295-.532h23a1.808 1.808 0 0 1 1.7 1.2L495 58.87a1.802 1.802 0 0 0 3.43-.09l11.2-37a1.805 1.805 0 0 1 1.73-1.29h22.23a1.81 1.81 0 0 1 1.81 1.81 1.727 1.727 0 0 1-.13.65l-28.74 74.66c-2.78 6.967-6.603 12.127-11.47 15.48Z"/>
    <path fill="#E84A5D" d="M61.13 57.17a14.2 14.2 0 1 1 15.44-12.84 14.19 14.19 0 0 1-14.1 12.89c-.45 0-.89 0-1.35-.07l.01.02Z"/>
    <path fill="#FD405C" d="M63.07 81a10.86 10.86 0 0 1 10.65-11.11 10.86 10.86 0 0 1 11 10.67 10.84 10.84 0 0 1-10.61 11.06h-.2A10.85 10.85 0 0 1 63.07 81ZM64.57 11.63a9.58 9.58 0 0 1 7.3-11.4A9.61 9.61 0 0 1 76 19a9.55 9.55 0 0 1-11.37-7.28l-.06-.09Z"/>
    <path fill="#DD415D" d="M35.35 21.13a6.93 6.93 0 1 1 7.81 5.93c-.315.04-.632.06-.95.06a6.93 6.93 0 0 1-6.86-6v.01Z"/>
    <path fill="#D93E5C" d="M25.3 67.1a11.762 11.762 0 0 1 10.61-12.81 11.75 11.75 0 0 1 12.78 10.64 11.759 11.759 0 0 1-10.62 12.8A11.75 11.75 0 0 1 25.29 67.1h.01Z"/>
    <path fill="#D0375C" d="M17.92 40.3a7.8 7.8 0 1 1 15.6-.3 7.8 7.8 0 0 1-7.67 8h-.14a7.8 7.8 0 0 1-7.79-7.69v-.01Z"/>
    <path fill="#C62F5B" d="M5.85 12.2a7.09 7.09 0 0 1 7-7.22 7.1 7.1 0 0 1 .25 14.19h-.13a7.09 7.09 0 0 1-7.07-7l-.05.03Z"/>
    <path fill="#C52E5C" d="M.05 55.31a5.7 5.7 0 0 1 4.86-6.41 5.68 5.68 0 0 1 6.261 7.065 5.68 5.68 0 0 1-4.72 4.195c-.259.04-.52.06-.78.06a5.69 5.69 0 0 1-5.62-4.91Z"/>
    <path fill="#323F5A" d="M548.28 23h-2.85v-2.49h8.63V23h-2.85v7.34h-2.93V23Zm6.59-2.49h4.28l1.47 4.58 1.46-4.58h4.29v9.83h-2.93v-6.52l-1.51 4.7h-2.63l-1.5-4.7v6.52h-2.93v-9.83Z"/>
  </g>
  <defs>
    <clipPath id="a">
      <path fill="#fff" d="M0 0h566.37v118.12H0z"/>
    </clipPath>
  </defs>
</svg>