<svg width="158" height="40" viewBox="0 0 158 40" fill="none" xmlns="http://www.w3.org/2000/svg">
<g clip-path="url(#clip0_319_685)">
<path d="M155.517 1.56327V0.231413H155.012V0H156.288V0.231413H155.778V1.56327H155.517ZM156.462 1.56327V0H156.846L157.24 1.24815L157.622 0H157.999V1.56327H157.752V0.246184L157.351 1.55835H157.105L156.701 0.231413V1.56327H156.462Z" fill="#1b1b1b"/>
<path d="M148.449 15.2044C146.657 13.7101 143.865 12.8017 139.877 12.8017H136.43L138.575 6.92032H151.088L151.115 6.85877L153.528 8.17394e-05H132.149L126.167 17.0508H132.646C138.828 17.0508 141.371 19.8918 141.371 22.9814C141.371 26.5215 138.481 30.4112 134.493 30.9085C134.754 30.2416 134.889 29.5321 134.892 28.8159C134.892 25.6155 131.999 22.9814 128.41 22.9814C127.528 22.9792 126.654 23.1464 125.835 23.4737C125.968 22.8518 126.03 22.2166 126.019 21.5806C126.019 19.2394 125.022 16.9942 122.819 15.1995C121.034 13.7101 118.242 12.8017 114.254 12.8017H110.807L112.949 6.92032H125.463L125.48 6.88339L127.898 -0.00976562H106.526L100.544 17.0409H107.026C113.208 17.0409 115.751 19.8819 115.751 22.9715C115.751 26.5117 112.858 30.4014 108.87 30.8987C109.131 30.2317 109.266 29.5222 109.269 28.8061C109.269 25.6057 106.376 22.9715 102.787 22.9715C101.249 22.9697 99.7572 23.4905 98.5549 24.4486V24.4314C97.68 25.1167 97.0162 26.0348 96.6396 27.0803H93.3678L96.935 17.0089H89.9581L86.3909 27.0803H82.4717L86.0807 17.0089H79.0645L75.6942 26.327C74.9409 28.3876 76.3663 30.1724 78.4687 30.1724H79.9458C78.4687 31.2015 77.5258 33.3433 77.5258 35.4038C77.5258 37.7844 78.9537 40.0025 82.4028 40.0025C88.065 40.0025 90.5687 35.1281 92.3929 30.1724H96.5411C96.7594 30.9756 97.1557 31.7194 97.7006 32.3487C97.8188 32.4841 97.9468 32.617 98.0724 32.7426C98.2299 32.8952 98.39 33.0429 98.5647 33.1808C99.6378 34.0158 100.911 34.5548 102.258 34.744C110.768 35.9405 117.942 33.555 122.078 29.7047C122.523 32.3462 124.914 34.296 127.878 34.744C136.741 35.9922 144.18 33.3482 148.218 29.2123C150.463 26.9179 151.709 24.2271 151.664 21.5806C151.649 19.2443 150.645 16.9991 148.449 15.2044ZM82.8213 37.068C82.4848 36.8379 82.2084 36.5305 82.0152 36.1715C81.822 35.8126 81.7177 35.4126 81.711 35.005C81.711 33.1832 83.417 30.6845 85.1576 30.6845L82.8213 37.068ZM64.7809 27.0803H61.4919L65.0197 17.0089H58.0822L54.4732 27.0803H51.1054L54.712 17.0089H39.6036L44.4116 3.46882H37.4348L32.6662 17.0089H26.0192L32.0729 8.17394e-05H25.1354L19.1482 17.0065H16.3343C10.9429 17.0065 4.76366 18.2768 1.58543 23.0725C0.635155 24.5003 0 26.0956 0 27.8312C0 32.1911 4.04481 33.619 7.73018 33.619C16.6494 33.5796 21.8833 27.8706 25.0542 20.0986H31.5953L27.9887 30.1699H34.9581L38.5278 20.0986H46.6051L44.1679 27.0803C43.454 29.1409 44.7218 30.1724 46.8218 30.1724H50.2683C51.2531 30.1724 53.2004 29.8548 54.3501 28.4664C54.5495 29.616 55.6573 30.1724 57.2058 30.1724H66.9966C68.0186 30.1915 69.0234 29.9082 69.885 29.3581C70.7465 28.8079 71.4263 28.0155 71.839 27.0803L75.3323 17.0065H68.39L64.7809 27.0803ZM9.355 30.4063C7.85081 30.4063 7.13934 29.3354 7.13934 27.91C7.13934 22.7155 13.0059 20.0986 17.4791 20.0986H18.033C16.967 23.3876 13.5574 30.4063 9.355 30.4063Z" fill="#1b1b1b"/>
</g>
<defs>
<clipPath id="clip0_319_685">
<rect width="157.999" height="40" fill="#1b1b1b"/>
</clipPath>
</defs>
</svg>
