<?xml version="1.0" encoding="utf-8"?>
<!-- Generator: Adobe Illustrator 26.0.2, SVG Export Plug-In . SVG Version: 6.00 Build 0)  -->
<svg version="1.1" id="Layer_1" xmlns="http://www.w3.org/2000/svg" xmlns:xlink="http://www.w3.org/1999/xlink" x="0px" y="0px"
	 viewBox="0 0 943.5 943.5" style="enable-background:new 0 0 943.5 943.5;" xml:space="preserve">
<style type="text/css">
	.st0{fill:#FF007E;}
	.st1{fill:#1DCAFF;}
	.st2{fill:#F3F0EC;}
	.st3{fill:#5708D3;}
	.st4{fill:#FFF3E3;}
	.st5{fill:#F7C0A1;}
</style>
<g id="XMLID_3369_">
	<g id="XMLID_3374_">
		<g>
			<rect id="XMLID_00000045588623892929900200000008622577352468156546_" x="707.6" class="st0" width="235.9" height="235.9"/>
		</g>
	</g>
</g>
<rect id="XMLID_3364_" x="235.9" y="222" transform="matrix(-1 -1.224647e-16 1.224647e-16 -1 553.3599 457.8406)" class="st1" width="81.6" height="13.9"/>
<rect id="XMLID_3362_" x="317.5" y="208.1" transform="matrix(-1 -1.224647e-16 1.224647e-16 -1 716.6229 430.0927)" class="st2" width="81.6" height="13.9"/>
<rect id="XMLID_3360_" x="235.9" y="194.2" transform="matrix(-1 -1.224647e-16 1.224647e-16 -1 553.3599 402.3448)" class="st1" width="81.6" height="13.9"/>
<rect id="XMLID_3358_" x="317.5" y="180.4" transform="matrix(-1 -1.224647e-16 1.224647e-16 -1 716.6229 374.5968)" class="st2" width="81.6" height="13.9"/>
<rect id="XMLID_3356_" x="235.9" y="166.5" transform="matrix(-1 -1.224647e-16 1.224647e-16 -1 553.3599 346.8489)" class="st1" width="81.6" height="13.9"/>
<rect id="XMLID_3354_" x="317.5" y="152.6" transform="matrix(-1 -1.224647e-16 1.224647e-16 -1 716.6229 319.101)" class="st2" width="81.6" height="13.9"/>
<rect id="XMLID_3352_" x="235.9" y="138.7" transform="matrix(-1 -1.224647e-16 1.224647e-16 -1 553.3599 291.3531)" class="st1" width="81.6" height="13.9"/>
<rect id="XMLID_3350_" x="317.5" y="124.9" transform="matrix(-1 -1.224647e-16 1.224647e-16 -1 716.6229 263.6052)" class="st2" width="81.6" height="13.9"/>
<rect id="XMLID_3347_" x="235.9" y="111" transform="matrix(-1 -1.224647e-16 1.224647e-16 -1 553.3599 235.8573)" class="st1" width="81.6" height="13.9"/>
<rect id="XMLID_3345_" x="317.5" y="97.1" transform="matrix(-1 -1.224647e-16 1.224647e-16 -1 716.6229 208.1094)" class="st2" width="81.6" height="13.9"/>
<polygon id="XMLID_3340_" class="st1" points="471.7,0 589.6,0 589.6,117.9 "/>
<polygon id="XMLID_3337_" class="st0" points="589.6,117.9 589.6,0 707.6,0 "/>
<rect id="XMLID_3335_" x="625.9" y="138.7" class="st1" width="81.6" height="13.9"/>
<rect id="XMLID_3332_" x="544.3" y="152.6" class="st2" width="81.6" height="13.9"/>
<rect id="XMLID_3330_" x="625.9" y="166.5" class="st1" width="81.6" height="13.9"/>
<rect id="XMLID_3328_" x="544.3" y="180.4" class="st2" width="81.6" height="13.9"/>
<rect id="XMLID_3326_" x="625.9" y="194.2" class="st1" width="81.6" height="13.9"/>
<rect id="XMLID_3324_" x="625.9" y="222" class="st1" width="81.6" height="13.9"/>
<rect id="XMLID_3322_" x="544.3" y="208.1" class="st2" width="81.6" height="13.9"/>
<g id="XMLID_3299_">
	<g>
		<g id="XMLID_00000121973394444947310950000014343320358789390489_">
			
				<ellipse transform="matrix(0.7071 -0.7071 0.7071 0.7071 -48.8458 117.9331)" class="st0" cx="117.9" cy="117.9" rx="97.7" ry="97.7"/>
		</g>
	</g>
</g>
<g id="XMLID_3277_">
	<polygon id="XMLID_3298_" class="st3" points="471.7,707.8 471.7,707.7 707.6,707.7 707.6,943.5 707.5,943.5 	"/>
</g>
<g id="XMLID_3241_">
	<g id="XMLID_3262_">
		<polygon id="XMLID_3263_" class="st2" points="825.5,235.9 825.5,353.8 707.6,235.9 		"/>
	</g>
	<g id="XMLID_3257_">
		<polygon id="XMLID_3258_" class="st2" points="943.4,235.9 943.4,353.8 825.5,235.9 		"/>
	</g>
	<g id="XMLID_3250_">
		<polygon id="XMLID_3251_" class="st2" points="943.4,353.8 943.4,471.7 825.6,353.8 		"/>
	</g>
	<g id="XMLID_3242_">
		<g>
			<g id="XMLID_00000009581315098582595090000003594129448020031668_">
				<polygon class="st4" points="825.5,353.8 825.5,471.7 707.6,353.8 				"/>
			</g>
		</g>
	</g>
</g>
<g id="XMLID_3151_">
	<g>
		<g id="XMLID_00000031887878077080488370000016260177892492577943_">
			
				<rect id="XMLID_00000053503161319192367650000015478063196155494800_" x="635.9" y="389.4" transform="matrix(0.7071 -0.7071 0.7071 0.7071 -96.1787 580.9151)" class="st1" width="34.4" height="34.4"/>
			
				<rect id="XMLID_00000031888989788651828260000005581117705209431705_" x="572.5" y="389.4" transform="matrix(0.7071 -0.7071 0.7071 0.7071 -114.7746 536.0201)" class="st1" width="34.4" height="34.4"/>
			
				<rect id="XMLID_00000098188361867132110800000007789333608822419122_" x="509" y="389.4" transform="matrix(0.7071 -0.7071 0.7071 0.7071 -133.3698 491.1279)" class="st1" width="34.4" height="34.4"/>
		</g>
		<g id="XMLID_00000154418668846879835700000016960617642071873160_">
			
				<rect id="XMLID_00000036931213987178565020000016613850656603444666_" x="635.9" y="336.6" transform="matrix(0.7071 -0.7071 0.7071 0.7071 -58.8672 565.4618)" class="st1" width="34.4" height="34.4"/>
			
				<rect id="XMLID_00000083785823086059097330000012444873975594597520_" x="572.5" y="336.6" transform="matrix(0.7071 -0.7071 0.7071 0.7071 -77.4631 520.5667)" class="st1" width="34.4" height="34.4"/>
			
				<rect id="XMLID_00000175313285903839245710000002101852355572509112_" x="509" y="336.6" transform="matrix(0.7071 -0.7071 0.7071 0.7071 -96.0584 475.6744)" class="st1" width="34.4" height="34.4"/>
		</g>
		<g id="XMLID_00000029759239345918855370000000504605101870280606_">
			
				<rect id="XMLID_00000104681393401969727910000002916114586753797515_" x="635.9" y="283.8" transform="matrix(0.7071 -0.7071 0.7071 0.7071 -21.5564 550.0056)" class="st1" width="34.4" height="34.4"/>
			
				<rect id="XMLID_00000142141187163418780560000018070919382135002285_" x="572.5" y="283.8" transform="matrix(0.7071 -0.7071 0.7071 0.7071 -40.1524 505.1106)" class="st1" width="34.4" height="34.4"/>
			
				<rect id="XMLID_00000023256459596200109950000010040853647003136701_" x="509" y="283.8" transform="matrix(0.7071 -0.7071 0.7071 0.7071 -58.7475 460.2183)" class="st1" width="34.4" height="34.4"/>
		</g>
	</g>
</g>
<rect id="XMLID_3141_" x="335.1" y="353.8" transform="matrix(-1 -1.224647e-16 1.224647e-16 -1 688.9114 801.5047)" class="st2" width="18.7" height="93.9"/>
<rect id="XMLID_3134_" x="353.8" y="259.9" class="st2" width="18.7" height="93.9"/>
<rect id="XMLID_3127_" x="297.5" y="316.2" transform="matrix(6.123234e-17 -1 1 6.123234e-17 -56.2967 669.9528)" class="st1" width="18.7" height="93.9"/>
<rect id="XMLID_3122_" x="297.5" y="297.5" transform="matrix(6.123234e-17 -1 1 6.123234e-17 -37.6265 651.2825)" class="st2" width="18.7" height="93.9"/>
<rect id="XMLID_3110_" x="391.4" y="297.5" transform="matrix(-1.836970e-16 1 -1 -1.836970e-16 745.208 -56.299)" class="st1" width="18.7" height="93.9"/>
<rect id="XMLID_3096_" x="391.4" y="316.2" transform="matrix(-1.836970e-16 1 -1 -1.836970e-16 763.8782 -37.6288)" class="st2" width="18.7" height="93.9"/>
<rect id="XMLID_3095_" x="335.1" y="259.9" class="st3" width="18.7" height="93.9"/>
<rect id="XMLID_3094_" x="353.8" y="353.8" transform="matrix(-1 -1.224647e-16 1.224647e-16 -1 726.2518 801.5047)" class="st3" width="18.7" height="93.9"/>
<g id="XMLID_2652_">
	<g id="XMLID_3056_">
		<g>
			<rect id="XMLID_00000102532867346327535580000007659560225757072788_" x="0" y="235.9" class="st3" width="237" height="235.9"/>
		</g>
	</g>
</g>
<polygon id="XMLID_2642_" class="st0" points="884.3,707.8 943.2,649.2 825.4,649.2 "/>
<polygon id="XMLID_2641_" class="st3" points="884.4,648.7 943.3,590.1 825.5,590.1 "/>
<polygon id="XMLID_2639_" class="st0" points="884.5,589.6 943.4,531 825.6,531 "/>
<polygon id="XMLID_2638_" class="st3" points="884.5,530.6 943.4,472 825.6,472 "/>
<polygon id="XMLID_2637_" class="st3" points="766.4,707.6 825.3,649 707.5,649 "/>
<polygon id="XMLID_2634_" class="st0" points="766.5,648.5 825.4,589.9 707.6,589.9 "/>
<polygon id="XMLID_2633_" class="st3" points="766.5,589.4 825.4,530.8 707.6,530.8 "/>
<polygon id="XMLID_2629_" class="st0" points="766.6,530.3 825.5,471.7 707.7,471.7 "/>
<g id="XMLID_2618_">
	<g id="XMLID_2625_">
		<g id="XMLID_2626_">
			<path class="st2" d="M589.6,502.7c48.1,0,87.2,39.1,87.2,87.2c0,48.1-39.1,87.2-87.2,87.2c-48.1,0-87.2-39.1-87.2-87.2
				C502.4,541.8,541.6,502.7,589.6,502.7 M589.6,491.7c-54.2,0-98.2,44-98.2,98.2c0,54.2,44,98.2,98.2,98.2
				c54.2,0,98.2-44,98.2-98.2C687.9,535.6,643.9,491.7,589.6,491.7L589.6,491.7z"/>
		</g>
	</g>
	<g id="XMLID_2623_">
		<g id="XMLID_2624_">
			<path class="st2" d="M589.6,527.8c34.3,0,62.1,27.9,62.1,62.1c0,34.3-27.9,62.1-62.1,62.1c-34.3,0-62.1-27.9-62.1-62.1
				C527.5,555.6,555.4,527.8,589.6,527.8 M589.6,516.8c-40.4,0-73.1,32.7-73.1,73.1c0,40.4,32.7,73.1,73.1,73.1
				c40.4,0,73.1-32.7,73.1-73.1C662.8,549.5,630,516.8,589.6,516.8L589.6,516.8z"/>
		</g>
	</g>
	<g id="XMLID_2621_">
		<g id="XMLID_2622_">
			<path class="st2" d="M589.6,552.1c20.8,0,37.7,16.9,37.7,37.7c0,20.8-16.9,37.7-37.7,37.7c-20.8,0-37.7-16.9-37.7-37.7
				C551.9,569.1,568.8,552.1,589.6,552.1 M589.6,541.1c-26.9,0-48.7,21.8-48.7,48.7c0,26.9,21.8,48.7,48.7,48.7s48.7-21.8,48.7-48.7
				C638.4,563,616.6,541.1,589.6,541.1L589.6,541.1z"/>
		</g>
	</g>
	<g id="XMLID_2619_">
		<g id="XMLID_2620_">
			<path class="st2" d="M589.6,574c8.8,0,15.9,7.1,15.9,15.9s-7.1,15.9-15.9,15.9c-8.8,0-15.9-7.1-15.9-15.9S580.9,574,589.6,574
				 M589.6,563c-14.9,0-26.9,12.1-26.9,26.9c0,14.9,12.1,26.9,26.9,26.9c14.9,0,26.9-12.1,26.9-26.9C616.6,575,604.5,563,589.6,563
				L589.6,563z"/>
		</g>
	</g>
</g>
<g id="XMLID_1155_">
	<polygon id="XMLID_2617_" class="st3" points="440.5,664 420.4,684.1 396.3,684.6 396.4,660.1 416.5,639.9 416.1,664 	"/>
	<polygon id="XMLID_2616_" class="st3" points="396.3,660.4 376.2,680.6 352.1,681.1 352.1,656.5 372.3,636.4 371.9,660.5 	"/>
	<polygon id="XMLID_2615_" class="st3" points="352.1,656.9 332,677 307.9,677.5 307.9,653 328.1,632.8 327.6,656.9 	"/>
	<polygon id="XMLID_2614_" class="st3" points="307.9,653.3 287.8,673.5 263.7,674 263.7,649.4 283.9,629.3 283.4,653.4 	"/>
	<polygon id="XMLID_2613_" class="st3" points="441.7,619.2 421.5,639.4 397.4,639.9 397.5,615.4 417.6,595.2 417.2,619.3 	"/>
	<polygon id="XMLID_2612_" class="st3" points="397.4,615.7 377.3,635.9 353.2,636.4 353.2,611.8 373.4,591.7 373,615.8 	"/>
	<polygon id="XMLID_2611_" class="st3" points="353.2,612.1 333.1,632.3 309,632.8 309,608.3 329.2,588.1 328.8,612.2 	"/>
	<polygon id="XMLID_2610_" class="st3" points="309,608.6 288.9,628.8 264.8,629.3 264.8,604.7 285,584.6 284.5,608.7 	"/>
	<polygon id="XMLID_2609_" class="st3" points="442.8,574.5 422.6,594.7 398.6,595.2 398.6,570.7 418.7,550.5 418.3,574.6 	"/>
	<polygon id="XMLID_2607_" class="st3" points="398.6,571 378.4,591.1 354.3,591.7 354.4,567.1 374.5,546.9 374.1,571.1 	"/>
	<polygon id="XMLID_2606_" class="st3" points="354.3,567.4 334.2,587.6 310.1,588.1 310.1,563.6 330.3,543.4 329.9,567.5 	"/>
	<polygon id="XMLID_2396_" class="st3" points="310.1,563.9 290,584.1 265.9,584.6 265.9,560 286.1,539.9 285.6,564 	"/>
	<polygon id="XMLID_2388_" class="st3" points="443.9,529.8 423.7,550 399.7,550.5 399.7,525.9 419.8,505.8 419.4,529.9 	"/>
	<polygon id="XMLID_2380_" class="st3" points="399.7,526.3 379.5,546.4 355.4,546.9 355.5,522.4 375.6,502.2 375.2,526.4 	"/>
	<polygon id="XMLID_2372_" class="st3" points="355.4,522.7 335.3,542.9 311.2,543.4 311.3,518.8 331.4,498.7 331,522.8 	"/>
	<polygon id="XMLID_2364_" class="st3" points="311.2,519.2 291.1,539.3 267,539.9 267,515.3 287.2,495.1 286.8,519.3 	"/>
</g>
<g id="XMLID_887_">
	<g>
		<rect id="XMLID_00000150091615369699144910000000107429360415647107_" y="472" class="st5" width="235.9" height="65.9"/>
	</g>
</g>
<g id="XMLID_882_">
	<g>
		<rect id="XMLID_00000093860878841264881560000017807784319715089798_" x="0" y="537.8" class="st0" width="164.9" height="65.9"/>
	</g>
</g>
<g id="XMLID_878_">
	<g>
		<rect id="XMLID_00000056400085094980287220000010326467844920461498_" x="0" y="603.8" class="st3" width="103.6" height="65.9"/>
	</g>
</g>
<path id="XMLID_790_" class="st0" d="M114.3,707.6v0.2c0,63.1-51.2,114.3-114.3,114.3V707.6H114.3z"/>
<path id="XMLID_789_" class="st3" d="M235.9,829.1v114.3H121.6C121.6,880.3,172.7,829.1,235.9,829.1z"/>
<polygon id="XMLID_769_" class="st3" points="353.8,707.8 235.9,825.6 471.7,825.6 "/>
<polygon id="XMLID_767_" class="st0" points="353.8,825.6 235.9,943.4 471.7,943.4 "/>
<rect id="XMLID_765_" x="872.7" y="872.7" transform="matrix(-1.836970e-16 1 -1 -1.836970e-16 1816.1733 -47.1238)" class="st1" width="117.8" height="23.6"/>
<rect id="XMLID_763_" x="849.1" y="754.9" transform="matrix(-1.836970e-16 1 -1 -1.836970e-16 1674.7622 -141.3282)" class="st2" width="117.8" height="23.6"/>
<rect id="XMLID_760_" x="825.5" y="872.7" transform="matrix(-1.836970e-16 1 -1 -1.836970e-16 1768.9666 8.300000e-02)" class="st1" width="117.8" height="23.6"/>
<rect id="XMLID_756_" x="801.9" y="754.9" transform="matrix(-1.836970e-16 1 -1 -1.836970e-16 1627.5553 -94.1215)" class="st2" width="117.8" height="23.6"/>
<rect id="XMLID_754_" x="778.3" y="872.7" transform="matrix(-1.836970e-16 1 -1 -1.836970e-16 1721.7598 47.2898)" class="st1" width="117.8" height="23.6"/>
<rect id="XMLID_751_" x="754.7" y="754.9" transform="matrix(-1.836970e-16 1 -1 -1.836970e-16 1580.3485 -46.9146)" class="st2" width="117.8" height="23.6"/>
<rect id="XMLID_725_" x="731.1" y="872.7" transform="matrix(-1.836970e-16 1 -1 -1.836970e-16 1674.553 94.4966)" class="st1" width="117.8" height="23.6"/>
<rect id="XMLID_703_" x="707.5" y="754.9" transform="matrix(-1.836970e-16 1 -1 -1.836970e-16 1533.1418 0.2921)" class="st2" width="117.8" height="23.6"/>
<rect id="XMLID_700_" x="683.9" y="872.7" transform="matrix(-1.836970e-16 1 -1 -1.836970e-16 1627.3463 141.7033)" class="st1" width="117.8" height="23.6"/>
<rect id="XMLID_697_" x="660.3" y="754.9" transform="matrix(-1.836970e-16 1 -1 -1.836970e-16 1485.9351 47.4989)" class="st2" width="117.8" height="23.6"/>
</svg>
