<svg xmlns="http://www.w3.org/2000/svg" viewBox="0 0 512 512"><g id="circle"><path d="M340.59,184.12l45.34-45.34c-.68-.76-1.37-1.5-2.06-2.24l-45.29,45.29C339.26,182.59,339.93,183.35,340.59,184.12Zm-16.23-15.6,45.46-45.45c-.72-.62-1.44-1.23-2.17-1.83L322.1,166.79C322.86,167.36,323.61,167.94,324.36,168.52Zm-6.13-4.47L364,118.28l-2.2-1.69L315.89,162.5C316.68,163,317.46,163.52,318.23,164.05Zm11.89,9.32,45.29-45.29c-.7-.66-1.41-1.32-2.13-2l-45.34,45.34C328.67,172.09,329.4,172.72,330.12,173.37ZM353.56,203,400,156.54c-.62-.91-1.26-1.81-1.9-2.7L351.9,200C352.47,201,353,202,353.56,203Zm6.62,14.59,48-48c-.58-1-1.18-2-1.78-3L358.84,214.1C359.31,215.25,359.75,216.4,360.18,217.56Zm-3.09-7.51,47.12-47.12c-.6-1-1.22-1.92-1.84-2.86l-46.79,46.79C356.1,207.91,356.61,209,357.09,210.05Zm-7.47-13.75,45.92-45.91c-.65-.86-1.3-1.71-2-2.55L347.83,193.6C348.44,194.49,349,195.39,349.62,196.3ZM345.29,190l45.56-45.56c-.66-.8-1.33-1.59-2-2.38l-45.45,45.45C344,188.36,344.67,189.19,345.29,190ZM262.82,145.2l53.53-53.52c-.78-.29-1.56-.56-2.34-.83l-54.22,54.21C260.81,145.09,261.82,145.14,262.82,145.2Zm9.62,1L324,94.68c-.77-.33-1.54-.64-2.32-1L269.55,145.8C270.52,145.92,271.48,146.05,272.44,146.19Zm-20.08-1.14L308.43,89l-2.36-.71L249.14,145.2C250.21,145.14,251.29,145.09,252.36,145.05Zm-11.57,1,59.4-59.4c-.79-.21-1.59-.4-2.38-.59l-60.52,60.52C238.45,146.35,239.62,146.18,240.79,146Zm40.56,1.87L331.27,98c-.76-.37-1.53-.72-2.3-1.08l-50.39,50.39C279.51,147.47,280.43,147.67,281.35,147.89ZM297.48,153l47.62-47.62c-.75-.44-1.5-.89-2.26-1.32L294.9,152Zm14.24,7,46.21-46.21c-.73-.53-1.48-1-2.22-1.57l-46.4,46.41C310.12,159,310.92,159.48,311.72,160Zm-6.9-3.7,46.82-46.82L349.4,108l-47.08,47.08C303.16,155.44,304,155.84,304.82,156.25Zm-15.15-6.08,48.64-48.64c-.75-.4-1.51-.81-2.27-1.2l-49,49C287.9,149.62,288.79,149.89,289.67,150.17ZM177.5,334.48l-1-1.05-45.26,45.25c.7.71,1.39,1.41,2.1,2.1l45.25-45.25ZM239,81.81,81.81,239c-.08.86-.16,1.72-.23,2.59l160-160Zm-12.11,1.6L83.41,226.89c-.15.9-.3,1.79-.44,2.69L229.59,83C228.68,83.1,227.79,83.26,226.89,83.41Zm-13.25,2.75L86.16,213.63c-.23,1-.47,1.9-.69,2.85l131-131C215.53,85.68,214.58,85.92,213.64,86.16Zm36.58-5.07L81.09,250.22,81,252.74,252.74,81Q251.48,81,250.22,81.09Zm-94.49,31.46-43.18,43.18q-2,2.78-3.8,5.64l52.63-52.62Q158.51,110.6,155.73,112.55Zm105-31.5L81.06,260.76c0,.83.06,1.65.09,2.47L263.23,81.15Zm102,144.52,49.12-49.12c-.55-1.08-1.12-2.15-1.69-3.22L361.65,221.8C362.05,223.05,362.43,224.31,362.79,225.57ZM227.55,148.65l64-64-2.4-.47-65.63,65.64C224.88,149.37,226.21,149,227.55,148.65ZM180.91,97.88l-83,83c-.57,1.2-1.13,2.4-1.68,3.62L184.53,96.2C183.31,96.74,182.11,97.3,180.91,97.88Zm17.79-7.29L90.59,198.69c-.35,1-.69,2.06-1,3.09L201.78,89.56C200.75,89.89,199.72,90.24,198.7,90.59ZM366.27,243.3,418.53,191c-.48-1.21-1-2.42-1.49-3.62l-51.37,51.37C365.9,240.29,366.1,241.79,366.27,243.3Zm.43,20.79L424,206.81c-.39-1.36-.81-2.72-1.24-4.07L367,258.51C366.92,260.38,366.83,262.24,366.7,264.09Zm.26-10.87,54.45-54.45q-.66-1.94-1.38-3.84l-53.31,53.31C366.83,249.9,366.92,251.56,367,253.22Zm-2.11-19.1,50.51-50.52c-.52-1.14-1.05-2.28-1.59-3.41L363.94,230C364.27,231.37,364.57,232.74,364.85,234.12Zm.3,42.12,61.05-61c-.35-1.45-.71-2.9-1.09-4.33l-59,59Q365.74,273.07,365.15,276.24Zm-3.59,14.2L428.05,224c-.28-1.54-.59-3.08-.91-4.6l-63.38,63.37C363.12,285.32,362.39,287.9,361.56,290.44ZM270.71,81.61,81.61,270.71c.07.82.14,1.63.22,2.45L273.16,81.83Zm82.8,227.49,76-76c-.21-1.65-.46-3.28-.72-4.91l-70.12,70.13A110.69,110.69,0,0,1,353.51,309.1Zm-19-131.6,1,1.07,45.25-45.25c-.69-.71-1.39-1.41-2.09-2.1l-45.26,45.26ZM298.32,358.67,228.2,428.79c1.63.26,3.26.5,4.91.71l76-76A108.66,108.66,0,0,1,298.32,358.67ZM258.51,367l-55.77,55.77c1.35.43,2.71.85,4.07,1.24l57.27-57.27C262.23,366.83,260.38,366.92,258.51,367Zm11.32-.82-59,59c1.43.38,2.88.74,4.32,1.09l61.05-61.05C274.12,365.54,272,365.88,269.83,366.14Zm-63-10.56-46.79,46.79,2.86,1.84,47.12-47.12C209,356.61,207.91,356.1,206.86,355.58Zm41.38,11.14L194.93,420q1.9.72,3.84,1.38L253.22,367C251.55,366.92,249.9,366.84,248.24,366.72Zm-26.44-5.07-48.57,48.57c1.07.57,2.14,1.14,3.22,1.69l49.12-49.12C224.3,362.43,223.05,362.05,221.8,361.65Zm-7.7-2.81-47.57,47.57c1,.6,2,1.2,3,1.77l48-48C216.4,359.75,215.25,359.31,214.1,358.84Zm24.69,6.83L187.42,417c1.2.51,2.41,1,3.62,1.49l52.26-52.26C241.79,366.1,240.29,365.9,238.79,365.67ZM230,363.94l-49.82,49.83c1.13.54,2.27,1.07,3.41,1.59l50.51-50.51C232.74,364.58,231.37,364.27,230,363.94Zm52.7-.17-63.37,63.37c1.53.32,3.07.63,4.61.91l66.49-66.48C287.89,362.39,285.32,363.13,282.71,363.77Zm34,56.4L420.17,316.7q1.74-4.72,3.22-9.56L307.14,423.39Q312,421.92,316.69,420.17Zm18.9-8.29,76.29-76.29q3-5.88,5.57-12l-93.87,93.88C327.66,415.74,331.67,413.89,335.59,411.88ZM366,392.09,392.09,366a176.89,176.89,0,0,0,14.79-21.33l-62.23,62.23A174.28,174.28,0,0,0,366,392.09Zm-64.82,33L425.09,301.16q1.08-4.07,2-8.2L293,427.07C295.71,426.47,298.45,425.82,301.16,425.09ZM430.77,247.23,247.22,430.77c1.88.1,3.76.15,5.65.18L431,252.87C430.92,251,430.86,249.1,430.77,247.23ZM257.53,431c2,0,4.07-.07,6.08-.15l167.2-167.2q.13-3,.16-6.09ZM430,237.48,344.5,323a111.85,111.85,0,0,1-10,11.49,113.18,113.18,0,0,1-11.49,10L237.48,430c1.74.18,3.49.34,5.24.47L430.49,242.72C430.36,241,430.2,239.22,430,237.48ZM287.49,428.16,428.16,287.49c.43-2.41.82-4.84,1.15-7.29L280.2,429.32C282.64,429,285.08,428.6,287.49,428.16ZM275.09,430,430,275.09c.24-2.19.43-4.4.59-6.62L268.46,430.54Q271.79,430.31,275.09,430ZM152,294.9,104,342.84c.44.76.88,1.51,1.33,2.26L153,297.48C152.63,296.62,152.3,295.76,152,294.9Zm-6.17-25.35L93.73,321.63c.31.77.62,1.55,1,2.32l51.51-51.51C146.05,271.48,145.92,270.52,145.81,269.55Zm1.47,9L96.9,329c.35.77.71,1.53,1.07,2.3l49.92-49.92C147.68,280.43,147.47,279.51,147.28,278.58Zm-2.22-18.79L90.85,314c.27.78.54,1.57.83,2.34l53.52-53.52C145.14,261.81,145.09,260.8,145.06,259.79Zm66.19-105.45L282.6,83c-.81-.13-1.62-.23-2.43-.34L206,156.81C207.74,155.94,209.49,155.12,211.25,154.34ZM149.37,287l-49,49c.4.77.8,1.52,1.2,2.28l48.64-48.64C149.89,288.79,149.62,287.9,149.37,287Zm7.44-81L82.66,280.17c.11.81.22,1.62.34,2.42l71.34-71.34C155.12,209.49,155.94,207.74,156.81,206Zm-7,17.54L84.15,289.19c.15.8.3,1.6.47,2.39l64-64C149,226.21,149.38,224.88,149.78,223.56Zm-3.23,13.73L86,297.81c.2.79.39,1.58.59,2.37l59.4-59.4C146.18,239.61,146.36,238.45,146.55,237.29Zm-1.35,11.85L88.27,306.07c.24.79.47,1.58.72,2.36l56.06-56.07C145.09,251.28,145.14,250.21,145.2,249.14Zm26.26,78.8-45.34,45.34c.65.72,1.31,1.42,2,2.13l45.29-45.29C172.73,329.4,172.09,328.67,171.46,327.94Zm10.37,10.64-45.29,45.29,2.24,2.06,45.34-45.34C183.35,339.93,182.59,339.26,181.83,338.58ZM200,351.9l-46.19,46.19c.89.64,1.8,1.27,2.7,1.9L203,353.56C202,353,201,352.47,200,351.9Zm-12.49-8.52-45.46,45.46c.79.67,1.58,1.35,2.38,2L190,345.29C189.19,344.67,188.36,344,187.54,343.38Zm6.06,4.45-45.76,45.75c.84.66,1.7,1.31,2.55,2l45.92-45.92C195.39,349,194.49,348.44,193.6,347.83Zm-38.54-45.51L108,349.39c.47.75,1,1.5,1.44,2.24l46.82-46.82C155.84,304,155.45,303.15,155.06,302.32ZM166.8,322.1l-45.56,45.55q.92,1.1,1.83,2.16l45.46-45.45C167.94,323.61,167.36,322.86,166.8,322.1Zm-8.22-12.8-46.4,46.41q.76,1.11,1.56,2.22L160,311.72C159.48,310.92,159,310.11,158.58,309.3Zm3.92,6.59-45.9,45.9c.56.74,1.11,1.48,1.68,2.2l45.77-45.76C163.52,317.45,163,316.67,162.5,315.89Z"/></g></svg>