<svg xmlns="http://www.w3.org/2000/svg" viewBox="0 0 512 512"><g id="cross"><rect x="170.94" y="201.82" width="64" height="2.24" transform="translate(-84.06 202.94) rotate(-45)"/><rect x="176.22" y="207.06" width="64" height="2.32" transform="translate(-86.25 208.23) rotate(-45)"/><rect x="165.66" y="196.58" width="64" height="2.17" transform="translate(-81.87 197.67) rotate(-45)"/><rect x="149.83" y="180.85" width="64" height="1.95" transform="translate(-75.31 181.83) rotate(-45)"/><rect x="155.1" y="186.09" width="64" height="2.03" transform="translate(-77.5 187.12) rotate(-45)"/><rect x="160.38" y="191.33" width="64" height="2.1" transform="translate(-79.69 192.38) rotate(-45)"/><rect x="13.61" y="238.51" width="452.55" height="2.75" transform="translate(-99.36 239.89) rotate(-45)"/><rect x="144.55" y="175.61" width="64" height="1.88" transform="translate(-73.13 176.56) rotate(-45)"/><rect x="8.33" y="233.27" width="452.55" height="2.68" transform="translate(-97.18 234.6) rotate(-45)"/><rect x="18.89" y="243.76" width="452.55" height="2.82" transform="translate(-101.55 245.16) rotate(-45)"/><rect x="192.05" y="222.79" width="64" height="2.53" transform="translate(-92.81 224.05) rotate(-45)"/><rect x="197.33" y="228.03" width="64" height="2.6" transform="translate(-94.99 229.33) rotate(-45)"/><rect x="186.77" y="217.54" width="64" height="2.46" transform="translate(-90.62 218.78) rotate(-45)"/><rect x="181.5" y="212.3" width="64" height="2.39" transform="translate(-88.43 213.5) rotate(-45)"/><rect x="81.21" y="112.7" width="64" height="1.02" transform="translate(-46.89 113.21) rotate(-45)"/><rect x="86.49" y="117.94" width="64" height="1.09" transform="translate(-49.08 118.49) rotate(-45)"/><rect x="91.76" y="123.18" width="64" height="1.16" transform="translate(-51.26 123.76) rotate(-45)"/><rect x="24.17" y="249" width="452.55" height="2.89" transform="translate(-103.74 250.45) rotate(-45)"/><rect x="70.65" y="102.21" width="64" height="0.87" transform="translate(-42.52 102.65) rotate(-45)"/><rect x="65.37" y="96.97" width="64" height="0.8" transform="translate(-40.33 97.37) rotate(-45)"/><rect x="75.93" y="107.46" width="64" height="0.94" transform="translate(-44.71 107.93) rotate(-45)"/><rect x="97.04" y="128.43" width="64" height="1.23" transform="translate(-53.45 129.06) rotate(-45)"/><rect x="123.43" y="154.64" width="64" height="1.59" transform="translate(-64.38 155.44) rotate(-45)"/><rect x="102.32" y="133.67" width="64" height="1.3" transform="translate(-55.64 134.33) rotate(-45)"/><rect x="128.71" y="159.88" width="64" height="1.67" transform="translate(-66.57 160.71) rotate(-45)"/><rect x="133.99" y="165.12" width="64" height="1.74" transform="translate(-68.76 166) rotate(-45)"/><rect x="139.27" y="170.36" width="64" height="1.81" transform="translate(-70.94 171.27) rotate(-45)"/><rect x="118.16" y="149.39" width="64" height="1.52" transform="translate(-62.2 150.16) rotate(-45)"/><rect x="107.6" y="138.91" width="64" height="1.38" transform="translate(-57.82 139.6) rotate(-45)"/><rect x="112.88" y="144.15" width="64" height="1.45" transform="translate(-60.01 144.89) rotate(-45)"/><rect x="276.51" y="306.66" width="64" height="3.69" transform="translate(-127.79 308.5) rotate(-45)"/><rect x="329.29" y="359.09" width="64" height="4.41" transform="translate(-149.65 361.28) rotate(-45)"/><rect x="334.57" y="364.33" width="64" height="4.48" transform="translate(-151.84 366.57) rotate(-45)"/><rect x="345.12" y="374.81" width="64" height="4.62" transform="translate(-156.21 377.12) rotate(-45)"/><rect x="339.85" y="369.57" width="64" height="4.55" transform="translate(-154.02 371.84) rotate(-45)"/><rect x="313.45" y="343.36" width="64" height="4.19" transform="translate(-143.09 345.45) rotate(-45)"/><rect x="318.73" y="348.6" width="64" height="4.26" transform="translate(-145.28 350.72) rotate(-45)"/><rect x="324.01" y="353.84" width="64" height="4.34" transform="translate(-147.46 356.01) rotate(-45)"/><rect x="376.79" y="406.27" width="64" height="5.06" transform="translate(-169.33 408.79) rotate(-45)"/><rect x="371.52" y="401.02" width="64" height="4.99" transform="translate(-167.14 403.52) rotate(-45)"/><rect x="308.18" y="338.12" width="64" height="4.12" transform="translate(-140.91 340.17) rotate(-45)"/><rect x="381.98" y="411.54" width="64" height="4.88" transform="translate(-171.48 413.98) rotate(-45)"/><rect x="360.96" y="390.54" width="64" height="4.84" transform="translate(-162.77 392.96) rotate(-45)"/><rect x="355.68" y="385.3" width="64" height="4.77" transform="translate(-160.58 387.68) rotate(-45)"/><rect x="350.4" y="380.05" width="64" height="4.7" transform="translate(-158.4 382.4) rotate(-45)"/><rect x="366.24" y="395.78" width="64" height="4.91" transform="translate(-164.96 398.23) rotate(-45)"/><rect x="281.78" y="311.91" width="64" height="3.76" transform="translate(-129.97 313.78) rotate(-45)"/><rect x="250.11" y="280.45" width="64" height="3.33" transform="translate(-116.86 282.11) rotate(-45)"/><rect x="255.39" y="285.69" width="64" height="3.4" transform="translate(-119.04 287.4) rotate(-45)"/><rect x="302.9" y="332.87" width="64" height="4.05" transform="translate(-138.72 334.9) rotate(-45)"/><rect x="260.67" y="290.94" width="64" height="3.47" transform="translate(-121.23 292.67) rotate(-45)"/><rect x="34.73" y="259.48" width="452.55" height="3.04" transform="translate(-108.11 261.01) rotate(-45)"/><rect x="40.01" y="264.73" width="452.55" height="3.11" transform="translate(-110.3 266.27) rotate(-45)"/><rect x="45.28" y="269.97" width="452.55" height="3.18" transform="translate(-112.48 271.56) rotate(-45)"/><rect x="50.56" y="275.21" width="452.55" height="3.25" transform="translate(-114.67 276.83) rotate(-45)"/><rect x="265.95" y="296.18" width="64" height="3.54" transform="translate(-123.41 297.94) rotate(-45)"/><rect x="292.34" y="322.39" width="64" height="3.9" transform="translate(-134.35 324.34) rotate(-45)"/><rect x="297.62" y="327.63" width="64" height="3.97" transform="translate(-136.53 329.61) rotate(-45)"/><rect x="287.06" y="317.15" width="64" height="3.83" transform="translate(-132.16 319.05) rotate(-45)"/><rect x="29.45" y="254.24" width="452.55" height="2.97" transform="translate(-105.92 255.72) rotate(-45)"/><rect x="271.23" y="301.42" width="64" height="3.61" transform="translate(-125.6 303.23) rotate(-45)"/></g></svg>