<svg xmlns="http://www.w3.org/2000/svg" viewBox="0 0 512 512">
  <path d="M178.31 493c.23-.78.93-1.17 1.45-1.69q9.77-9.79 19.55-19.56c-.36-.61-1.19.1-1.61-.7a30 30 0 013.92-4.15c1.41-1.49 2.88-2.91 4.33-4.36s2.75-2.74 4.21-4.21c-1.77-1.24-4-.8-5.73-2 6.76-6.76 13.3-13.74 20.33-20.2s13.68-13.47 20.54-20.18 13.53-13.5 20.33-20.29h2.87L293.11 371h3.68L326 341.86h2.41l32.26-32.25h2.47c.17.09.16.19 0 .34-5.74 5.73-11.55 11.38-17.19 17.21-20.11 20.74-40.63 41.07-61 61.51-6.15 7.29-13.28 13.62-19.93 20.42s-13.47 13.33-20.07 20.13c-20 20.67-40.5 41-60.86 61.32a7.07 7.07 0 00-1.62 2.41zM352.5 19.05a5.56 5.56 0 01-1.64 1.87c-11.39 11.42-23 22.63-34.15 34.3-8.51 8.94-17.33 17.55-26 26.33s-17.6 17.45-26.16 26.34c-3.32 3.48-6.72 6.9-10.11 10.55-1.17 0-2.44.09-3.7 0s-2.09 1.25-3.44.14c6-6.89 13.18-12.64 19.54-19.18S280 86.19 286.56 79.61L306.13 60h1.49l15.83-15.8 1.68-.09q11.58-11.58 23.17-23.18c.58-.59 1.33-1.05 1.64-1.88zM262.16 462.13h-13.84l3.53-3.52c5-5 9.89-10.16 15-15 16.4-15.4 31.74-31.88 48-47.41 7.69-7.34 15.12-14.92 22.7-22.36s14.94-15.25 22.69-22.58c17-16.05 32.94-33.1 49.81-49.23 7.68-7.35 15.12-14.92 22.7-22.36s15.11-15.08 22.67-22.61c.51-.51.87-1.28 2-1.36.09 1.51 0 3 0 4.22l5.53-5.53.35.35h1.51l14.29-14.31a3.85 3.85 0 011.84.1c0 .21.09.53 0 .66-.44.52-.95 1-1.43 1.46-3.2 3.2-6.47 6.34-9.59 9.61-19.61 20.53-40.14 40.13-59.89 60.52-9.17 9.48-18.55 18.74-27.79 28.14s-18.8 18.39-27.81 28c-8.64 9.17-17.7 17.91-26.53 26.88s-17.94 17.56-26.53 26.71c-6.4 6.81-13.11 13.31-19.65 20s-13.05 13.11-19.56 19.62zM365 363.32h2.08l33.75-33.75h2.05l7.56-7.56 7.6-7.61 7.61-7.6 7.61-7.61 7.6-7.61 7.61-7.6 7.44-7.45c.81.6.36 1.21.76 1.81 3.7-3.62 6.88-7.63 10.59-11.14s7.26-7.22 10.93-10.9h1.91c7.87-7.12 14.53-15.33 22.2-22.51h2.51l-1.81 1.88c-1.63 1.63-3.29 3.23-4.88 4.9-19.11 19.93-39 39.09-58.25 58.9-9.25 9.52-18.67 18.86-28 28.31s-19.05 18.64-28.18 28.33C375 365.28 366 374 357.15 383s-18 17.55-26.54 26.7c-8.21 8.76-16.86 17.06-25.26 25.61S288.46 452.22 280 460.7c-2.41-.34-4.74.88-7.18.49-2.35 1-4.8.27-7.16.53-.38-.52.16-.58.3-.79a4.9 4.9 0 01.71-.73c16.93-16 32.91-32.89 49.67-49 7.78-7.49 15.36-15.17 23.06-22.73s15.25-15.18 22.82-22.82c.78-.85 1.93-1.27 2.78-2.33zM300 456.93c-5.14.81-10.18 2.47-15.43 2.77-.34-.58.2-.62.34-.84a4.89 4.89 0 01.71-.73c7.73-7.73 15.25-15.67 23.24-23.12 8.15-7.6 15.86-15.63 23.8-23.44s15.49-15.9 23.61-23.46c8.47-7.89 16.46-16.24 24.7-24.34s16.23-16.63 24.71-24.55c8.08-7.55 15.73-15.51 23.61-23.26s15.71-15.68 23.57-23.52c.33-.33.56-.88 1.37-.83.77 1.49-.77 2.92-.3 4.4-1 1.23.06 2.91-1.08 4l14.62-14.62c1.14.16 1.74-.11 2.34.29 0 .22 0 .51-.12.66-.51.57-1.07 1.1-1.62 1.64-10.62 10.63-21.46 21-31.8 31.93-9.32 9.82-19 19.24-28.51 28.87s-19.28 18.89-28.53 28.69c-6.77 7.18-13.84 14-20.73 21.08s-13.85 13.92-20.82 20.84c-11.84 11.75-23.13 24-35.12 35.64-.76.74-1.39 1.66-2.56 1.9zM39.27 486.32c-.86-.11-1.63.15-2.41-.24l19.51-19.51c0-1-.72-.58-.95-1l17.4-17.4c-.47-.64-1.12 0-1.55-.56 7.55-7.91 15.64-15.3 23-23.4v-.24c-.55-.54-1.32.06-1.76-.26l18.22-18.21c-.37-1.16-1.37-1.4-1.64-2.44 15.44-15.33 30.68-31 46.68-45.93.7.05.89.95 1.34 1.07l28.17-28.17h2.49l2.31-2.31q22.27-22.27 44.56-44.54c.62-.62 1.07-1.62 2.18-1.36q15.69-15.71 31.24-31.24h1.72l39.88-39.88a2.74 2.74 0 011.9.15c0 1-.91 1.4-1.48 2-9.7 9.74-19.64 19.24-29.08 29.23-9.11 9.66-18.65 18.88-28 28.33s-18.93 18.51-28 28.14c-8.78 9.37-18 18.27-27 27.45s-18.27 18-27.11 27.22c-18.77 19.67-38.53 38.35-57.37 57.94-9.55 9.94-19.39 19.59-29.06 29.41S64.69 459.93 55.18 470c-5.18 5.44-10.67 10.66-15.91 16.32zM449.77 312.71a110.44 110.44 0 01-4.88 15.36c-7.34 7.34-15.28 14.85-22.72 22.83-9.17 9.84-18.89 19.11-28.32 28.69s-19.13 18.77-28.33 28.5c-6.18 6.55-12.62 12.83-18.91 19.26s-12.78 12.81-19.18 19.2c-3.1 3.11-3.11 3.22-7.15 4.35-1.76.5-3.33 1.44-5.23 1.67s-3.4 1.22-5.14 1.74a17.65 17.65 0 00-4.29 1.4c-.33-.74.23-.87.45-1.09 14.11-14.14 28.05-28.44 42.42-42.3 7.9-7.61 15.6-15.4 23.42-23.08s15.25-15.66 23.25-23.1c8.35-7.76 16.2-16 24.33-24S435.62 326 443.81 318c1.87-1.85 3.91-3.55 5.96-5.29zM47.79 259.3v-9.06l2.7-2.7C58 240.05 65.31 232.41 73 225.12c16.73-15.92 32.6-32.69 49.26-48.67 8-7.71 15.84-15.65 23.78-23.45s15.62-16 23.8-23.63c8.41-7.83 16.23-16.24 24.73-24.24h2l32.3-32.31h1.45C239.58 63.57 249 54.48 258 45c4.51-4.71 9.11-9.35 13.64-14a5.55 5.55 0 012.15-1.61c.45-.15 1-.34 1.35.14.16.56-.25.79-.54 1.08-7.38 7-14.09 14.73-21.34 21.9-13.54 13.38-27.15 26.7-40.33 40.42-9.38 9.76-19 19.23-28.52 28.86s-19.28 18.87-28.52 28.69c-8.46 9-17.34 17.53-26 26.32s-17.71 17.31-26.18 26.33c-8.68 9.25-17.8 18-26.69 27.06S59.17 248.08 50.24 257c-.45.45-1 .81-1.14 1.58a1.06 1.06 0 01-1.31.72zM70 438.59h-2.57L94 412.06c-.56-.91-1.42-.17-1.8-1.07a38.34 38.34 0 013.75-3.93c1.36-1.42 2.77-2.79 4.16-4.17s2.68-2.62 4.08-4c-.58-1.23-1.7-1.92-2.53-2.83a1.7 1.7 0 01-.62-1.76c4.94-5.18 10.62-9.89 15.73-15.19s10.48-10.52 15.73-15.77h2.5l23-23h3.46L205 296.79l1.76-.1 60.87-60.87h3.08L269 237.5c-9.6 9.6-19.42 19-28.73 28.86-8.87 9.41-18.17 18.39-27.24 27.6s-18.57 18.15-27.45 27.61c-8.74 9.3-17.94 18.14-26.88 27.23s-18.2 17.8-26.91 27.06c-8.92 9.49-18.29 18.51-27.42 27.79S86 421.93 77 431.24c-2.39 2.41-4.63 4.93-7 7.35zM358.16 329.55h2.28c.31.16.27.23.09.41-22.69 22.5-44.81 45.57-67.53 68.04-19.41 19.21-38.63 38.62-58 57.89-1.68 1.67-3 3.64-4.75 5.31l-12.13-1.71a5.31 5.31 0 012.51-2.85 9.74 9.74 0 001.89-1.57c14.14-14.11 28.14-28.35 42.43-42.3 7-6.89 14.11-13.76 21.19-20.77a4.11 4.11 0 001.16 0c2.2-.65 4.37-1.42 6.59-2a3.37 3.37 0 001.56-1.18q11.07-11 22.1-22.08a5.91 5.91 0 012.32-1.84h2.91zM122.46 415.85c-1.59-1.79-3.79-2.73-5.06-4.67 6-6.05 12.22-12.08 18.22-18.27 4.67-4.81 9.83-9.1 14.5-13.91s9.4-9.43 14.09-14.13c.87-.15 1 .81 1.65 1a.69.69 0 00.25 0 1.41 1.41 0 00.41-.25l25.88-25.89h3.08l34.28-34.28h1.86l48.14-48.13a4.33 4.33 0 012 .08c0 .22.1.54 0 .67-.45.52-1 1-1.44 1.47-2.17 2.17-4.38 4.3-6.51 6.52-21.49 22.39-43.87 43.9-65.5 66.15-9.73 10-19.64 19.82-29.43 29.76S159 381.5 149.41 391.6c-6.08 6.41-12.38 12.6-18.56 18.91s-12.54 12.57-18.85 18.86h-2.18c-.49-.68.07-1 .4-1.29zM234.56 473.44h-3l10.58-10.57-.3-.51c-1.43 0-2.69-.79-4.17-.68s-3 0-4.46 0c-.17-1 .46-1.26.85-1.66 10.19-10.2 20.18-20.61 30.65-30.52 7.29-6.89 14.27-14.07 21.43-21.08s14.27-14.21 21.36-21.35a35.21 35.21 0 019.57-6.57 114.72 114.72 0 0011.72-7c2.56-1.67 4.92-3.62 7.57-5.16 1.18-.68 2.07-1.88 3.25-2.68a32.31 32.31 0 005.23-4.69c.26-.28.54-.34 1.08 0l-1.52 1.52c-8.81 8.81-17.85 17.4-26.37 26.49-9.08 9.68-18.65 18.86-27.95 28.31s-18.93 18.49-28 28.14-18.55 18.49-27.52 28.01zM330.57 446.71c0-.47.43-.63.69-.89 4.87-4.9 9.58-10 14.7-14.63 8.39-7.6 16.11-15.86 24.17-23.78s15.75-16.15 24-23.83c7.78-7.25 15.14-14.91 22.72-22.35s15-15 22.48-22.43c.44-.44.73-1.2 1.68-1.06a49.07 49.07 0 01-3.64 8.05c-.68 1.27-1 2.66-1.72 3.91-1.88 3.13-3.53 6.38-5.24 9.6a7.35 7.35 0 01-1.51 1.68c-9.23 9.24-18.69 18.27-27.63 27.78-7.17 7.62-14.69 14.88-22 22.34s-14.72 14.74-22.08 22.12a16.33 16.33 0 01-3.55 2.55c-4.81 2.77-9.76 5.23-14.79 7.57-2.57 1.2-5.18 2.34-7.77 3.49-.14.05-.33-.07-.51-.12zM224.4 357.7h2.6l29.15-29.15h2.32L303 284h2.57c-3.2 3-5.67 6.25-8.59 9.15-14.25 14.12-28.59 28.15-42.51 42.59-8.14 8.44-16.48 16.69-24.71 25.05S213 377.13 205 385.68c-8.13 8.7-16.73 16.93-25.07 25.42s-16.76 16.79-25.14 25.19a7.28 7.28 0 00-.79 1.1c-2.65-2-5.62-3-8.05-5.14 16.43-16.09 32.23-32.74 49-48.37.6.73 1.7.36 2.24 1zM232.56 53.42H235a.54.54 0 01.17.74c-.5.58-1.07 1.1-1.61 1.64-15.7 15.7-31.61 31.2-47 47.17-9.64 10-19.53 19.7-29.26 29.59s-19.95 19.44-29.5 29.6c-9 9.53-18.43 18.63-27.62 28s-18.67 18.29-27.62 27.8c-7.29 7.74-15 15.07-22.35 22.73-.58.6-1.14 1.23-1.74 1.89-1-1.9.51-3.51.22-5.23s.39-3.26.65-5c11.35-11.35 22.65-23 34.37-34.22 6.14-5.87 12.11-11.9 18.18-17.84s12.09-12.06 18.2-18.17h1.12l33.32-33.32h1.61l33.31-33.31 1.16-.05zM182.24 475.44h-3.49l20.13-20.13c-2.44-1.05-5.09-1.12-7.35-2.48 19.07-19 37.82-38.09 57.44-56.66h6.14l17.4-17.4h2.55l26.6-26.6h2.73c-.08.35-.06.64-.2.79-.51.57-1.07 1.1-1.62 1.64l-60.12 60.12c-9.52 10.69-20 20.38-30.08 30.56s-20.14 20.18-30.13 30.16zM54.2 309.4c4.07-4.06 7.93-8.29 12.19-12 2.6-2.3 5-4.72 7.5-7.15q18.87-18.78 37.68-37.63c.56-.55.92-1.47 1.9-1.45.57.39 0 1 .28 1.28L135 231.21h2.27l22.58-22.59h2.3l29.67-29.68a4 4 0 011.85.1c0 .21.1.53 0 .66-.51.58-1.07 1.1-1.62 1.65-10.8 10.8-21.81 21.4-32.33 32.46-8.68 9.13-17.68 17.91-26.51 26.87s-18 17.54-26.53 26.69c-7.86 8.37-16.13 16.32-24.16 24.51S66.18 308.18 58 316.33c-.34.35-.7.69-1.24 1.23-1.14-2.8-1.56-5.56-2.56-8.16zM184.92 83.68c.8-.15 1.23.07 1.58-.32s.84-.85 1.26-1.28Q200 69.86 212.21 57.63c1.08-1.08 2.19-2 4.13-1.56l-1.6 1.6-1.45 1.45C200.58 71.46 188.6 84.51 176 97s-25.22 24.77-37.43 37.54c-8.7 9.11-17.7 17.89-26.53 26.87S94 179.06 85.33 188.24c-5.6 5.94-11.41 11.63-17.11 17.46S56.77 217.18 50.93 223c-.71-1.8.37-3.41.42-5.07s1-3.21.92-5c20.82-21.11 42.47-41.4 63.11-62.74h2.18c3.83-3.83 7.71-7.45 11.29-11.35 6.26-6.83 12.9-13.28 19.43-19.9h1.32zM456.22 239.89a1.69 1.69 0 01.81 1.65v7.29l-2.45 2.45c-8 8-16.28 15.85-24 24.13-9.48 10.13-19.49 19.73-29.22 29.6s-19.72 19.4-29.25 29.42c-4.79 5-9.77 9.88-14.56 14.92-.38.41-.78.79-1.19 1.2-.32-.43-.34-.74 0-1a33.08 33.08 0 004.15-4.7c1.83-2.2 3.6-4.45 5.25-6.79 2.07-2.95 4.11-5.95 6-9.05s3.31-6.13 4.92-9.22a9.49 9.49 0 011.62-2.42c10.46-10.42 20.69-21.08 31.4-31.24 8-7.54 15.61-15.4 23.43-23.08s15.36-15.42 23.09-23.16zM143.54 431.15c-2.51-2.12-5.45-3.38-7.77-5.55 2-2 3.81-4 5.86-5.83 7.39-6.42 14-13.65 21-20.5s13.78-13.75 20.66-20.63c.17-.17.37-.32.69-.6a10.29 10.29 0 003.52 2.13L216.58 351h2.95l33.7-33.7h3.1c-8.23 8.22-16.53 16.09-24.32 24.43-8.72 9.34-17.94 18.16-26.89 27.25S186.83 387 178 396.27c-5.59 5.93-11.41 11.63-17.11 17.46s-11.41 11.48-17.35 17.42zM1.86 406.32c-.62 0-1.28.25-1.84-.22v-.3c6.26-6.74 13-13 19.39-19.63l-.36-.55 17.58-17.57c-.81-1-1.71-.28-2.21-.79L64 337.63a12.65 12.65 0 01-1.6-3.68 89.66 89.66 0 016.67-6.55 55.23 55.23 0 004.43-4.06q16.6-16.53 33.15-33.11c2.86-2.86 5.55-5.9 9-8.34l1.28 5.82 7.79-7.79h2.41c-.26.3-.4.47-.56.64-18.42 19.28-37.68 37.72-56.22 56.88-11.25 11.62-22.76 23-34.12 34.46s-22.89 22.94-34.37 34.42zM55.88 201.16c-.08-2.38.92-4.06 1.51-5.86s1.12-3.64 1.72-5.56c3-3 6-6.11 9.14-9.14 20.77-20.08 41.08-40.61 61.52-61 9.25-8 17.36-17.27 26.34-25.72h1.95c9.7-9.71 19.44-19.4 29.11-29.16a9.82 9.82 0 015.37-3.13c.68-.12 1.22-1 2.18-.28l-1.34 1.35C183.24 72.78 172.87 82.7 163 93.12c-9.18 9.7-18.77 19-28.14 28.49s-19 18.63-28.16 28.33c-8.2 8.73-16.83 17.06-25.23 25.59s-16.88 16.92-25.59 25.63zM171.34 312.64h2.93l36.34-36.33h3.24c-.75.74-1.33 1.3-1.88 1.88-19.24 20.15-39.39 39.41-58.77 59.42-9 9.29-18.2 18.39-27.2 27.59s-18.2 18.23-27.27 27.3c-2.18-1.66-3.38-4.18-5.42-5.84v-1.17c16-14.79 31.1-30.7 46.84-46.14 1.14.42 1.22 2 2.07 2.46zM156.64 438c8.94-8.93 17.52-18 26.61-26.47 8-7.49 15.48-15.52 23.44-23 1.87.54 3.62 1.65 5.72 1.36L233.32 369h2.05l31.27-31.26c.39.7 1.14.32 1.68.56.18.14.11.22-.06.39-6.52 6.51-13.2 12.87-19.52 19.57C233 375 216.3 390.63 200.45 407.17c-5.76 6-11.66 11.86-17.47 17.8s-11.81 11.84-17.72 17.76c-3.62-1.4-7.39-3.42-8.62-4.73zM451.84 211.46c.86.63.3 1.27.61 1.56l14.08-14.08h2l16.9-16.94h2c7.59-7.2 14.25-15.29 22.13-22.47H512c-3.58 3.58-7.15 6.85-10.38 10.44-8.78 9.73-18.38 18.65-27.56 28s-18.68 18.26-27.61 27.77c-8.45 9-17.33 17.53-26 26.32S403 269.54 394.26 278.3c-1.42 1.42-2.41 3.22-4 4.49-.32.25-.5.71-1 .61-.24-.08-.33-.25-.37-.54-.12-.86.77-1.43.56-2.36a2 2 0 01.48-2.08c-.26-2 .92-3.91.48-5.87 20.07-20.79 41.17-40.46 61.43-61.09zM154.89 280.31h2.18l29.09-29.09h2.6l-1.93 1.89c-6.58 6.58-13.3 13-19.71 19.76-18.2 19.14-37.24 37.45-55.79 56.25-4.85 5.93-10.61 11-15.94 16.43s-10.73 10.76-16.1 16.13l-2 2a31.91 31.91 0 01-4.18-7.6c5-5 9.77-10.2 15-14.86 6.33-5.67 12.1-11.9 18.19-17.81 5-4.82 9.78-9.77 14.69-14.64.46-.46.79-1.11 1.7-1.31l.93 1.91 6.43-6.43h2.26zM328.15 312.54h-3c7.8-7.73 14.82-15.89 22.81-23.2l-1.13-.53a3 3 0 010-.3v-.24L373 262.18c-.34-.66-1.16.06-1.51-.54l18.92-18.92v-3.08c6.8-6.8 13.32-13.69 20.24-20.16 11.58-10.81 22.45-22.33 33.91-33.41l1.41 3.58h.38c.08 0 .19 0 .24-.05l11.6-11.6h2.56c-6 6-12.05 11.64-17.63 17.72-8.34 9.1-17.32 17.56-26 26.36s-17.59 17.19-26 26.15c-9.91 10.56-20.35 20.57-30.51 30.87s-20.51 20.54-30.77 30.81c-.73.74-1.64 1.38-1.69 2.63zM41.84 282.31h-2.13l8.34-8.31a16.23 16.23 0 00-.55-7.07l2.24-2.22c8.87-8.87 17.54-18 26.67-26.55 8-7.52 15.62-15.38 23.43-23.07s15.38-15.77 23.44-23.26c5.59-5.2 10.77-10.79 16.4-15.94.36.38.23.69-.11 1a51.05 51.05 0 00-5.27 7.55c-2.1 3.27-3.86 6.75-5.65 10.2a7.77 7.77 0 01-1.58 1.9c-11.58 11.6-23.38 23-34.68 34.84-8.27 8.68-16.86 17-25.26 25.59s-16.88 16.93-25.29 25.34zM35.73 389.41H32.6L60 362.05c-.58-.57-1.35 0-1.79-.28l11.49-11.53c-.63-2-1.93-3.29-2.11-5 9.8-8.81 18.72-18.41 28.06-27.58 4.45-4.37 8.8-8.83 13.23-13.21 3.19-3.14 6.13-6.54 9.78-9.17.93.9.36 2.5 1.28 3.39l7-7h2.87l23.5-23.52h1.72c.2.19.13.28 0 .44-1.7 1.68-3.44 3.32-5.07 5.07-15.46 16.57-32.1 32-47.74 48.37-8.81 9.23-17.93 18.13-26.87 27.22s-18.15 17.8-26.9 27.02c-4.2 4.42-8.58 8.66-12.72 13.14zM115.61 232.72c.88 1.34-1 2.61-.25 3.83L129.93 222h2.14c9.9-9.9 19.67-19.66 29.17-29.17h2.21c0 .33 0 .63-.12.77-.51.58-1.08 1.1-1.62 1.64-12.91 12.92-26 25.63-38.69 38.79-18.66 19.41-38 38.13-56.89 57.31-3.44 4.44-7.73 8.05-11.6 12.08-.38.41-.65 1-1.55 1-.57-2.76-1.16-5.56-1.75-8.43 6.6-6.61 13-13.46 19.92-19.81 6.07-5.57 11.75-11.53 17.64-17.28s11.6-11.57 17.39-17.36l8.15-8.14c.34-.34.6-.86 1.28-.68zM355.55 164.27c-.86-.86-1.64-1.65-2.46-2.46 15.13-15.88 31.3-30.73 46.69-46.35.61-.18 1.21-.1 1.78-.68 4.72-4.82 9.75-9.36 14.21-14.4s9.36-9.35 13.75-14.22h1.62L459.26 58h1.24l36.88-36.88a4.61 4.61 0 012.1.08c0 .22.1.53 0 .67-.51.57-1.07 1.1-1.62 1.64-14.67 14.67-29.52 29.16-44 44.05-20.53 21.18-41.6 41.82-62.35 62.78-7.78 8.91-16.55 16.88-24.83 25.31s-16.77 16.79-25.17 25.2c-.62 0-1.28.25-1.85-.21v-.3c5.09-5.51 10.63-10.57 15.89-16.07zM114 267.29c.54 1.33 0 2.54.29 3.4 3.29-3.29 6.67-6.68 9.78-9.78h3.2c7.94-7.64 15-16.12 23.13-23.5h2.44c-5 5-10.09 9.72-14.74 14.81-9.18 10.06-19.12 19.37-28.66 29.07s-19.41 19-28.72 28.87C70.62 320.88 60 331 49.7 341.58c-.6.61-1.17 1.23-1.57 1.67h-2.5L60 328.91c0-2.56-1.49-4.57-1.85-7 1.7-1.7 3.48-3.68 5.46-5.43 8.24-7.26 15.67-15.34 23.48-23s15.58-15.57 23.39-23.33a41.05 41.05 0 013.52-2.86zM219.12 392.46a78.05 78.05 0 017.68 1.47l14.64-14.64h3.14c-.74.74-1.33 1.3-1.88 1.88-18.89 20-38.84 39-58.06 58.67-2.58 2.65-5.06 5.4-7.6 8-3.36-.92-6.28-2.72-9.72-3.92 8.23-9 17.36-17 25.9-25.59s17.14-17.11 25.9-25.87zM121.62 210.25c-1 4.38-2.55 8-3.42 12.1-12.44 12.44-25.27 24.86-37.6 37.74-8.11 8.48-16.49 16.68-24.71 25.05S39.37 301.7 31.06 310H29c-.29-.16-.23-.24-.05-.41 7-6.93 13.89-13.87 20.69-20.68.65-2.59-.83-4.9-.3-7.38 6.11-6.11 12.07-12.48 18.47-18.37 8-7.38 15.51-15.26 23.27-22.89s15.25-15.4 23.06-22.92c2.28-2.25 4.71-4.43 7.48-7.1zM233.25 395.19c2-.49 3.73.74 5.59.43s3.53.88 6 .32l-1.71 1.71c-10.44 10.43-21.08 20.67-31.23 31.37-7.37 7.77-15.12 15.15-22.4 22.84a5.07 5.07 0 01-3.88-.61 31.88 31.88 0 00-5.13-1.8c-.73-.18-.8-.73-1.49-1 2.73-2.42 4.7-5.19 7.57-7a8.82 8.82 0 001.27-1.25Q208 420 228.16 399.75c1.61-1.62 3.6-2.75 5.09-4.56zM454.83 225.54q.6 3.6 1.22 7.35c-1 1-2.07 2-3.07 3.07-19.67 20.78-40.4 40.52-60.38 61-3 3.08-5.94 6.22-8.93 9.32-.32.33-.56.92-1.34.59.81-2.46 1.86-4.88 2.6-7.41.6-2 1.14-4.12 1.81-6.15a4.38 4.38 0 011-1.88c7.66-7.66 15.12-15.54 23-22.91 6.1-5.67 11.86-11.66 17.81-17.46s11.83-11.81 17.74-17.72c2.36-2.35 4.7-4.71 7.07-7.05.42-.29.64-.88 1.47-.75zM381.89 207.14c-.8-2.1-1.6-4.16-2.45-6.4a5.78 5.78 0 002.58-1.93q20.28-20.26 40.55-40.56c1.9-1.9 4.31-3.23 5.86-5.48l.66.42L442.23 140l2.27-.12c4.29-4.29 8.69-8.46 12.81-12.9 2.35-2.53 4.69-5.06 7.1-7.53 1-1 2.14-1.8 3.51-1.56 12.31-11.64 23.39-24.25 35.53-35.86.52.07 1.13-.2 1.72.21 0 .21 0 .52-.12.65-1 1-2.05 2-3.06 3.1-22.91 23.6-46.28 46.74-69.52 70-7.89 9-16.78 17.11-25.18 25.66s-16.88 16.97-25.4 25.49zM349.18 156.86h-1l-3.28-3.4 2-2 33.5-33.5c1.75-1.75 3.53-3.47 5.24-5.26a62.11 62.11 0 015.47-4.81c3.67-3 6.82-6.56 10.21-9.86 4.35-4.22 8.59-8.55 12.91-12.88h1.55c7-7.13 14.35-13.93 20.84-21.51h2.08c12.21-11.53 23.3-24.12 35.48-35.82h2.12c.22.11.19.2 0 .36-15.09 15-29.69 30.52-44.9 45.42-6.16 6-12.32 12.07-18.27 18.3-19.32 20.21-39.42 39.62-59 59.56-1.67 1.72-3.22 3.62-4.95 5.4zM173.53 372c2.21.84 3.59 2.77 5.57 3.17l15.9-15.88h2.61c.27.14.22.21.05.39-16.88 17.94-34.71 34.94-52 52.48-3.16 4.12-7.13 7.46-10.69 11.2l-1.09 1.1c-2.53-1.95-5.32-3.35-7.51-5.82.88-.88 1.63-1.66 2.42-2.41 15.14-14.45 29.81-29.42 44.74-44.23zM86 376.48c3.53-3.54 6.85-7.11 10.43-10.39 12.81-11.73 24.56-24.52 37.09-36.52 1.32 1.08 1.85 2.82 3 4.05h.55l14.75-14.75h2.92c-2.81 3.16-5.51 6.23-8.43 9.13-11 10.88-22.06 21.62-32.7 32.81-7.26 7.64-14.88 14.91-22.1 22.55-1.35-.74-3.96-3.99-5.51-6.88zM448.6 198.31c.62 1.56 1.35 2.91 1.3 4.16l8.55-8.54.35.42h1.78c0 .31 0 .62-.08.76-.51.57-1.07 1.1-1.62 1.64-11.58 11.59-23.37 23-34.7 34.81-15.14 15.8-30.89 31-46.2 46.67h-2.2c-.28-.14-.23-.21 0-.39 5.2-5.18 10.39-10.37 15.64-15.63v-7c18.58-19.39 38.22-37.68 57.18-56.9zM358.1 264.85h-2c0-.2-.06-.32 0-.36 5.66-6.37 12-12 17.89-18.26l-1-.46a2.79 2.79 0 010-.29v-.24L388.22 230c.75-1.5-.77-2.84-.32-4.3 9.5-9.49 19-18.92 28.43-28.48 3.87-3.93 8.12-7.43 12-11.37s7.7-7.74 11.61-11.65l1.43 3.61 8.84-9 .36.33h1.64c.27.17.17.23.05.42a43 43 0 01-5.64 6.11c-15.39 15.41-31 30.57-46.11 46.26-13.98 14.57-28.51 28.47-42.41 42.92zM475 127.19h2.33c.09.1.2.17.19.22s-.11.12-.17.18c-20.81 21.83-42.49 42.8-63.71 64.23-5.21 6.28-11.33 11.69-17 17.51s-11.45 11.47-17.1 17.12h-2.24l8.51-8.5c-.61-1.81-1.13-3.37-1.63-4.88 16.82-16.61 33.09-33.54 50.32-49.59.89.13.47 1.41 1.34 1.54l10.69-10.69h2.06c8.85-8.96 17.97-17.74 26.41-27.14zM172.46 143.1a11.09 11.09 0 001.38-1c13.59-13.56 27-27.32 40.8-40.64 7.46-7.19 14.75-14.54 22.14-21.8s14.68-14.77 22.15-22c1.66-1.62 3.49-3.12 5.19-4.77h2.4c2.08-1.31 3-4.16 5.94-4.07a.82.82 0 01-.2 1.05c-7 6.59-13.26 13.86-20.07 20.62-15.2 15.08-30.43 30.14-45.38 45.47-5.32 5.46-10.69 10.88-16 16.38a14.54 14.54 0 01-3.94 2.87 96.86 96.86 0 00-13.25 8.17 1 1 0 01-.69.17c-.05-.02-.11-.12-.47-.45zM473.87 94.92h2.39c.25.18.19.26 0 .43-9.37 9.35-18.95 18.5-28 28.12S430 142 420.83 151.26s-18.63 18.32-27.62 27.8c-4.79 5-9.76 9.9-14.56 14.93-.46.48-.94.94-1.57 1.57l-3.24-5.56c16.53-15.35 32-31.69 48.17-47.51l1.29 1.72 22.15-22.15h1.28zM79.25 366.84c7.34-7.34 14.27-14.65 21.62-21.52 9.19-8.6 17.87-17.7 27-26.53 1.07 2.51 2.6 4.77 3.82 7l-47.77 47.78c-1.2-.58-1.49-2.16-2.35-3.26s-1.51-2.25-2.32-3.47zM238.55 167.58h-2.1c-.3-.17-.24-.24-.06-.41L257 146.54l1.71-1.71c-.47-.55-1.11 0-1.5-.48 7.39-7.74 15.31-15 22.5-22.88v-.25c-.36-.51-1 0-1.46-.42 17.27-17.94 35.66-34.74 53-52.7l2.53 1.29c5.88-7 12.57-13.09 18.86-19.53h2.58l-1.89 1.88c-2.23 2.23-4.5 4.42-6.69 6.7-20.64 21.61-42.09 42.46-63.15 63.69-6.94 8.06-14.85 15.18-22.28 22.76s-15.07 15.11-22.66 22.69zM359.57 179.84h-2.22l6.2-6.2c-1.43-.84-1.78-2.19-2.82-3.2 15.36-15.72 31.62-30.56 46.71-46.34 1-.12 1.14.61 1.52.87l20.85-20.84h1.62l27.67-27.68a4.23 4.23 0 012 .15c0 .21.07.52-.05.66-.5.57-1.07 1.1-1.61 1.64-10.32 10.32-20.87 20.44-30.9 31-9 9.52-18.42 18.63-27.61 28s-18.75 18.44-27.79 28c-4.53 4.71-9.26 9.2-13.57 13.94zM333.87 155.37l-2.08-.13c.81-1.63 2.11-2.49 3.13-3.57s2.17-2.16 3.27-3.25c-.91-.75-1.44-1.85-2.89-2.08 3.78-4.55 8.36-7.81 12.19-11.84s7.83-7.87 11.75-11.79l12-11.95h2.43c11.05-10.39 21.1-21.63 31.84-32.25h2.11c12.05-13.23 25.2-25.51 37.69-38.35h2.63c-6.35 6.36-12.64 12.49-18.75 18.84-21 21.65-42.45 42.89-63.77 64.25-9.98 11.14-21.15 21.16-31.55 32.12zM64.86 175.63a35.17 35.17 0 011.26-3.56c1.75-3.55 3.6-7 5.33-10.6a6.51 6.51 0 011.29-1.76c3.38-3.38 6.57-7 10.18-10.09 5.93-5.11 11-11 16.85-16.33h2.48c10-10.15 20.35-20 29.91-30.66h2.26l30.77-30.77c1.14.13 2.06-.8 3.32-1.23-.09.81-.57 1-.87 1.34-14.72 14.73-29.64 29.24-44.11 44.22C105 135.39 85.9 154 67.16 172.91c-.71.72-.98 1.8-2.3 2.72zM293.21 56.44c.82.78 1.77.43 2.62.52q10.23-10.24 20.41-20.44h2.64l-1.68 1.69c-10.63 10.62-21.47 21-31.8 31.94-8 8.39-16.25 16.44-24.35 24.68s-16.39 16.43-24.52 24.56a47.29 47.29 0 01-7.71 1.14c21.29-21.87 43.42-42.4 64.39-64.09zM389.72 29.34c.49 0 1.15-.26 1.69.19.16.59-.25.82-.55 1.1-8.36 8-16 16.65-24.23 24.79-14.3 14.17-28.69 28.27-42.63 42.76-8.92 9.24-18.12 18.19-27 27.41-2.12.17-3.73-1-5.65-1.59 2.9-2.9 5.5-5.74 8.35-8.31 10.42-9.41 19.9-19.78 30.09-29.52h1.93l26.09-26.1h1.53c10.36-9.96 19.78-20.84 30.38-30.73zM216.27 123.32c-3.42 1.06-6.46 2.17-10.2 3 3.45-3.45 6.36-6.65 9.59-9.46 1.51-1.31 3-2.65 4.42-4.06 14.32-14.28 28.5-28.7 43-42.82q7.9-7.72 15.87-15.45c1.56-.43 3 .22 4.49.62-.18 1-1 1.47-1.57 2-12.71 12.74-25.65 25.28-38.11 38.26-9.16 9.51-18.62 18.68-27.49 27.91zM286.41 167.82a.78.78 0 01.22-.69c.32-.27.6-.61.91-.89 4.87-4.47 9-9.69 13.79-14.29l-1.14-.41c2.31-2.31 4.55-4.59 6.83-6.82 3.32-3.25 6-7.08 9.62-10-.28-.59-1-.77-1.05-1.61l.78-.79c1.57-1.57 3.16-3.12 4.71-4.71 13.83-14.23 28.43-27.68 42.32-41.82 1.07-.51 1.46.61 2.16.82s1.15.94 1.82 1.37c-6.89 6.88-14 13.54-20.57 20.66-8.56 9.25-17.68 17.92-26.51 26.89s-17.77 17.72-26.56 26.68c-1.39 1.42-2.65 3-4 4.47a9.84 9.84 0 01-2 1.39.89.89 0 01-1.33-.25zM373.35 92.21c1 .51 1.87.75 2.47 1.82 6.29-7.28 13.17-13.79 19.85-20.57h2.52l-.59.65c-21.07 21.81-42.64 43.12-64.07 64.58-6.22 7.33-13.48 13.65-20 20.62h-2.82l17.77-17.77c-.37-1.26-1.75-1.2-2.8-1.95 7.57-8.35 16-15.66 23.91-23.58s15.77-15.81 23.76-23.8zM296.48 143h-2.13c-.29-.15-.26-.23-.09-.4 1.33-1.32 2.62-2.68 4-4 2.95-2.76 5.19-6.16 8.52-9-1.11-.65-2.23-.59-2.93-1.32a.72.72 0 01.42-.84 11.88 11.88 0 003.21-2.73q20.2-20.18 40.36-40.38c1.72-1.73 4-2.84 5.2-4.77 1.19-.54 1.84.78 2.81.37L366 69.82h2.13c.28.14.24.21 0 .39-6.08 5.8-11.56 12.18-17.54 18.09-13.05 12.89-26.11 25.79-38.88 39-4.99 5.19-10.15 10.35-15.23 15.7zM319.55 63.75c1 .77 2.59.51 3.76 1.65L322 66.72c-5.8 5.8-11.74 11.45-17.36 17.41-15.32 16.24-31.48 31.63-47 47.57-.69 0-1.36.26-1.92-.21v-.3c3.53-4 7.57-7.58 11.31-11.58-1-.35-2.23.21-2.94-1.11 18.26-18.21 36.52-36.84 55.46-54.75zM370.89 184.84c-1-1.93-2.33-3.27-3.08-5.11 4.61-4.61 9-9.49 13.94-13.82s9.23-9.24 14.13-13.65h2.45l17.39-17.39c.59 0 1.24-.29 1.52.52l14.31-14.32h2.6l-1.88 1.93c-6 6-12.24 11.92-18.08 18.14-13.41 14.3-27.61 27.8-41.33 41.78zM367.49 426.74c-.2-.32.15-.4.28-.53 9.16-9.18 18.1-18.58 27.56-27.43 8.56-8 16.55-16.61 25.11-24.63.33.3.23.6-.06 1-2.33 3.22-4.78 6.35-7.13 9.55-1 1.38-2.26 2.68-3.32 4-1.57 2-3.65 3.62-4.95 5.86a6.12 6.12 0 01-1.07 1.09c-4.28 4.28-8.52 8.61-12.87 12.83-1.67 1.62-3.45 3.17-5.23 4.67-2.57 2.16-5.17 4.32-7.84 6.36-3.28 2.51-6.67 4.88-10 7.3-.1.1-.32-.03-.48-.07zM126.66 96l-36 36a.77.77 0 01.11-.5c.9-1 1.69-2 2.56-3 3-3.37 5.88-6.85 8.92-10.18 2.85-3.13 5.92-6 8.75-9.14 1.14-1.24 2.67-2 3.82-3.21a18.71 18.71 0 013.51-3.17c1.5-1 2.69-2.46 4.14-3.6 1.29-1 2.8-1.83 3.82-3.2.04-.13.4 0 .37 0z"/>
</svg>
