<svg xmlns="http://www.w3.org/2000/svg" viewBox="0 0 512 512"><g id="triangle"><path d="M296.42,301.43l46.89-46.89-1.82-3.19-46.9,46.89ZM226.6,282.19,101.2,407.59h4.2L221,292Zm62.09,5.75,46.89-46.89L333.83,238l-46.89,46.9Zm-3.86-6.74,46.89-46.9-1.71-3-46.9,46.9ZM308,321.66l46.89-46.89L353,271.39l-46.9,46.89Zm-3.86-6.74L351,268l-1.9-3.31L302.25,311.6Zm-3.87-6.75,46.9-46.89L345.31,258l-46.89,46.89Zm-7.73-13.49,46.9-46.89-1.79-3.12-46.89,46.9ZM257.78,234l46.89-46.89-1.45-2.54-46.89,46.89Zm-17.08,23.6-150,150h4.09L235.21,267.17ZM281,274.45l46.9-46.89-1.68-2.93-46.89,46.9Zm-19.32-33.72,46.9-46.89-1.49-2.6-46.9,46.89Zm3.87,6.75,46.89-46.9-1.53-2.66L264,244.81Zm11.59,20.23L324,220.82,322.35,218l-46.89,46.89ZM273.24,261l46.89-46.9-1.6-2.79-46.9,46.89Zm38.63,67.43,46.9-46.89-2-3.44L309.9,325ZM268.78,124.45l-59.86,59.86-4.11,7.18L269.9,126.4Zm7.65,13.36L180.74,233.5l-4.4,7.67L277.63,139.89Zm-3.82-6.68-77.78,77.78-4.26,7.42,83.19-83.19ZM265,117.77,223,159.71l-4,6.95,47-47Zm50.79,217.38,46.89-46.89-2-3.51-46.89,46.89ZM261.13,111.09l-24,24-3.84,6.71,28.9-28.91Zm-3.83-6.68-6.1,6.1L247.5,117l10.81-10.81ZM254.79,233,82.08,405.7,81,407.59h3.18L249.44,242.33Zm44.6-55.11L96.18,381.1,91,390.2,300.81,180.35Zm20.21,164L366.49,295l-2-3.57-46.9,46.89Zm-24-170.69L110.27,356.5l-5.08,8.86L297,173.61Zm-11.48-20L152.55,282.7l-4.67,8.15L285.35,153.38Zm-3.83-6.68L166.64,258.1,162.11,266,281.49,146.63Zm11.48,20L124.36,331.9l-4.94,8.62L293.08,166.86Zm-3.83-6.68L138.46,307.3l-4.81,8.39L289.22,160.12Zm-18.54,96.38,46.89-46.89-1.56-2.73-46.89,46.89Zm121.86,84-69.41,69.41h6.34l65.38-65.38Zm3.83,6.68-62.73,62.73h6.44L397.4,349Zm3.83,6.68-56.06,56h6.54l51.9-51.9Zm-11.48-20-76.09,76.09h6.23l72.13-72.13Zm-7.66-13.36-89.44,89.45h6L382,322Zm3.83,6.68-82.77,82.77h6.13l78.87-78.87Zm-171.07-18-100.8,100.8H116l90.74-90.75Zm197.86,64.78-36,36h6.85l31.66-31.66Zm15.3,26.72-9.3,9.3h7.26l4.69-4.69Zm-19.13-33.4-42.69,42.7h6.74L409,369.18Zm15.31,26.72-16,16H413l11.43-11.43ZM429.5,405l-2.62,2.62H431Zm-11.48-20-22.66,22.66h7.05l18.18-18.18Zm-42.09-73.47L279.8,407.59h5.93l92.36-92.36Zm38.26,66.79-29.33,29.34h6.95l24.91-24.92Zm-11.48-20-49.37,49.37H360l45.15-45.15ZM228.24,343.59l-64,64H169l64-64Zm-10.51,0-64,64h4.71l64-64Zm21,0-64,64h4.91l64-64ZM372.1,304.78,269.3,407.59h5.82l99.1-99.1ZM198.42,331.39l-76.2,76.2h4.39l65.91-65.91Zm50.83,12.2-64,64h5l64-64Zm-42,0-64,64h4.6l64-64Zm-10.51,0-64,64h4.5l64-64Zm105.06,0-64,64h5.52l64-64Zm10.5,0-64,64h5.63l64-64Zm56-45.49L258.79,407.59h5.72L370.36,301.74Zm-87.5,45.49-64,64h5.31l64-64Zm-10.51,0-64,64h5.21l64-64Zm-10.5,0-64,64h5.11l64-64Zm31.51,0-64,64h5.42l64-64Z"/></g></svg>