<?xml version="1.0" encoding="utf-8"?>
<!-- Generator: Adobe Illustrator 25.4.1, SVG Export Plug-In . SVG Version: 6.00 Build 0)  -->
<svg version="1.1" id="Layer_1" xmlns="http://www.w3.org/2000/svg" xmlns:xlink="http://www.w3.org/1999/xlink" x="0px" y="0px"
	 viewBox="0 0 320 426.7" style="enable-background:new 0 0 320 426.7;" xml:space="preserve">
<style type="text/css">
	.st0{fill:#B11F24;}
	.st1{fill:#FFFFFF;}
</style>
<rect class="st0" width="320" height="426.7"/>
<g>
	<g>
		<path class="st1" d="M243.7,165v-3.4h-1.3v-0.6h3.2v0.6h-1.3v3.4H243.7z M246.1,165v-4h1l1,3.2l1-3.2h1v4h-0.6v-3.3l-1,3.3h-0.6
			l-1.1-3.4v3.4H246.1z"/>
	</g>
	<path class="st1" d="M225.3,206.4c-5.3-4.5-13.7-7.1-25.6-7.1h-10.3l6.4-17.5h37.3l0.1-0.2l7.2-20.5h-63.7l-17.8,50.8h19.3
		c18.4,0,26,8.5,26,17.7c0,10.6-8.6,22.1-20.5,23.6c0.7-1.9,1.2-4,1.2-6.2c0-9.5-8.6-17.4-19.3-17.4c-2.7,0-5.3,0.5-7.7,1.5
		c0.4-1.9,0.6-3.8,0.5-5.6c0-7-3-13.7-9.5-19c-5.3-4.5-13.7-7.1-25.6-7.1h-10.3l6.4-17.5h37.3l0-0.1l7.2-20.5h-63.7l-17.8,50.8h19.3
		c18.4,0,26,8.5,26,17.7c0,10.6-8.6,22.1-20.5,23.6c0.7-1.9,1.2-4,1.2-6.2c0-9.5-8.6-17.4-19.3-17.4c-10.5,0-19.2,7.9-19.2,17.4
		c0,9.2,7.7,16.2,17.5,17.7c25.4,3.6,46.8-3.6,59.1-15c1.3,7.9,8.5,13.7,17.3,15c26.5,3.7,48.6-4.2,60.6-16.5
		c6.7-6.8,10.4-14.9,10.3-22.7C234.8,218.4,231.8,211.8,225.3,206.4z"/>
</g>
</svg>
