<svg xmlns="http://www.w3.org/2000/svg" xmlns:xlink="http://www.w3.org/1999/xlink" width="768" height="432" viewBox="0 0 768 432"><defs><linearGradient id="a" y1="0.5" x2="1" y2="0.5" gradientUnits="objectBoundingBox"><stop offset="0" stop-color="#1b1b1c"/><stop offset="0.452" stop-color="#1b1b1c"/><stop offset="0.557" stop-color="#ff007e"/><stop offset="1" stop-color="#5708d3"/></linearGradient><clipPath id="c"><path d="M98.774-399.885a11.9,11.9,0,0,1,8.762,2.54c.874.637,1.731,1.3,2.6,1.949l3.155,3.266c6.346,8.057,11.21,16.965,13.479,27.3.912,4.155,1.576,8.374,2.352,12.563a1.006,1.006,0,0,0,.323,1.086c3.5,11.027,4,22.432,4.311,33.858l.057,2.143q.009.357.019.714l.038,1.428q.039,1.428.083,2.856c.055,1.753.049,3.512,0,5.266a36.309,36.309,0,0,0,1.8,12.281c2.613,8.236,2.683,16.843,2.625,25.43l-.017,2.341h0l0,.585c-.023,3.505-.171,7.011-.261,10.516a6.119,6.119,0,0,0,.014,1.174c.777.146,1.109-.455,1.378-1.1l1.863-1.639c1.011,0,2.022,0,1.8-1.588h0l.114-.964c.475-4.017.953-8.032,2.5-11.8.2-.484.295-1.115.81-1.194.577-.088.76.55.975,1.017q.8,1.754,1.6,3.514a8.954,8.954,0,0,0,1.036,3.137c1.272,5.239,2.707,10.436,3.559,15.783a4.514,4.514,0,0,0,.749,3.044h0v-3.053c.23-4.688.091-9.371-.087-14.053l-.1-2.554c-.164-4.256-.311-8.513-.192-12.773q.016-.583.031-1.167l.043-1.751c.122-4.866.31-9.734,1.6-14.44a32.366,32.366,0,0,1,3.167-7.5c.432-.754.923-.9,1.588-.38.843.322.9-.112.916-.578l.005-.127a1.2,1.2,0,0,1,.094-.5c1.307-1.807,1.471-4.22,3.1-5.941,3.208-3.4,3.84-3.582,7.51-.806a3.44,3.44,0,0,0,1.171,1.7c4.063,8.23,5.1,17.134,5.037,26.257-.059,7.983-.287,15.964-.352,23.947-.064,7.806-.057,15.616,1.345,23.329-.04.508-.213,1.065.433,1.315,1,.074,1.17-.554,1.252-1.2l.02-.169a4.629,4.629,0,0,1,.094-.63c1.174-4.505,1.342-9.228,2.258-13.749a199.481,199.481,0,0,0,3.065-24.465c.706-9.228,3.235-17.948,5.014-26.878a7.387,7.387,0,0,1,.245-1.7c.532-1.112,1.139-2.868,2.106-2.784,1.146.1.717,1.871.742,2.936.225,9.479.3,18.961-.073,28.435-.675,17.353-2.069,34.655-3.469,51.952-.991,12.231-1.718,24.469-1.986,36.742a222.888,222.888,0,0,0,.627,25h0v3.3a3.512,3.512,0,0,0,.958-2.777c1.562-7.082,2.5-14.281,3.373-21.482.591-4.9.635-9.875,1.245-14.77.852-6.843.347-13.752.986-20.553.552-5.877,1.063-11.8,1.96-17.644.667-4.343.624-8.739,1.339-13.1,1.852-11.279,2.3-22.736,2.91-34.146.332-6.265,1.475-12.434,1.549-18.707.094-7.853,1.872-15.529,2.137-23.362,0-.068,0-.136,0-.2v-.133c0-.395.054-.732.653-.735.959-.005.981.788,1.07,1.449q1.058,7.893,2.064,15.792c.208,1.645.314,3.3.518,5.522a18.928,18.928,0,0,0,1.569-4.857l.363-1.1a88.091,88.091,0,0,1,6.019-14.054c2.313-4.092,4.953-7.831,9.74-8.84l2.5.1c6.014,2.382,8.082,8.041,9.751,13.83,2.623,9.1,3.476,18.6,5.068,27.927.008.32-.112.795.461.44,1.929-.137,1.106,1.975,1.952,2.724q.107.562.213,1.124a91.845,91.845,0,0,1,1.756,22.672,21.59,21.59,0,0,0,1.908,9.455,12.855,12.855,0,0,0,1.667-6.461,17.482,17.482,0,0,1,.809-4.571l.228-.807a20.592,20.592,0,0,0,.847-4.1c.032-.436.259-.923.718-.915.574.011.714.63.955,1.079,2.686,5,3.794,10.547,4.76,16.112.642,3.7.965,7.461,1.431,11.2h0v3.425a7.439,7.439,0,0,0,.965-4.221c1.013-4.1,2.1-8.157,4.98-11.313l.96.044c2.616,8.141,3.7,16.585,4.528,25.1a123.663,123.663,0,0,1,1.026,13.221c-.109,8.269.754,16.541.021,24.8-.135,1.521-.183,2.965,1.375,3.855a4.092,4.092,0,0,0,4.652-.062,14.736,14.736,0,0,0,5.266-6.735,2.683,2.683,0,0,0,.96-1.742c2.816-4.934,4.9-9.861,4.273-16.086a56.389,56.389,0,0,1,.347-11.456l.134-1.278c.225-2.13.45-4.261.563-6.388.376-7.073,2.292-13.868,3.008-20.849a67.278,67.278,0,0,1,2.524-11.68l.388-1.345c.649-2.241,1.3-4.479,1.852-6.745a27.067,27.067,0,0,1,5.736-11.381c1.729-1.964,3.667-3.215,6.287-2.85l1.39.737c4.308,3.812,6.336,8.959,8.017,14.27l.227.725c.376,1.21.738,2.426,1.11,3.633,3.17,10.3,4.673,21.1,8.009,31.353a17.54,17.54,0,0,0,1.38,3.283c1.1,1.927,2.536,2,3.562.065,1.176-2.219,2.1-4.593,3.086-6.924q.442-1.049.874-2.108l.29-.705h0l.292-.705c2.194-5.285,4.591-10.485,9.319-14l.975-.288c2.81-.162,4.626,1.472,5.922,3.882,2.258,4.2,3.095,8.858,3.935,13.559,1.774,9.918-1.566,18.481-5.223,26.974l-.319.738-.16.369-.32.738q-.4.923-.8,1.846c-1.352,3.148-2.823,6.238-4.239,9.355h0l-.565.012.029.13c-.155,1.954.126,3.972,1.77,4.89l.149.078c1.946.96,4,.434,5.724-1.152,3.275-3.021,5.46-6.9,7.532-10.829,1.1-2.073,2.322-4.049,3.561-6.014l1.063-1.684c.53-.843,1.056-1.689,1.569-2.544a27.727,27.727,0,0,1,5.384-6.612c3.2-2.833,5.222-2.224,6.592,1.874,1.475,4.407,2.722,8.926,4.557,13.16,1.136,2.621,2.7,5.494,6.307,5.062a.8.8,0,0,0,.99-.412c1.937-.809,3.142-2.453,4.306-4.13l.29-.419c2.362-3.409,4.692-6.84,7.857-9.512,2.623-2.214,4.73-2.324,7.551-.246,9.065,6.678,19.241,10.757,29.68,14.225a3.354,3.354,0,0,0,.729.078.9.9,0,0,0,1.016.286,10.78,10.78,0,0,0,4.418.773.859.859,0,0,0,1.025.159,24.5,24.5,0,0,0,8.365.063,2.421,2.421,0,0,0,2.009-.233,4.36,4.36,0,0,0,2.439-.288.937.937,0,0,0,1.022-.232h0l1.454-.234a.932.932,0,0,0,1.028-.257,1.79,1.79,0,0,0,1.441-.3.933.933,0,0,0,1.016-.27q1.415-.275,2.83-.555l4.243-.841c6.129-1.21,12.266-2.365,18.483-3.039,10.32-1.118,20.66-1.795,31.032-1.942,1.066-.015,2.13-.135,3.2-.206h0l.5.059a6.964,6.964,0,0,0,3.5-.21c5.592.168,11.179.049,16.761-.312a9.856,9.856,0,0,0,3.5-.042h0l1.443-.052a102.244,102.244,0,0,0,11.9-.15c6.747.059,13.493.165,20.234-.257l47.978.019h0l21.237.2a19.769,19.769,0,0,0,5.96.13,1.551,1.551,0,0,0,1.441.1l9.92.089,13.814.23a7.975,7.975,0,0,0,3.984.01,2.943,2.943,0,0,0,1.945,0,36.9,36.9,0,0,0,8.933.172c1.074,1.679.256,1.856-.778,1.862h-.153l-.388-.005c-5.5-.074-11-.154-16.5-.213-.816-.008-1.633.089-2.449.138a8.152,8.152,0,0,0-3.59-.32l-.556.038c-.278.018-.556.034-.833.042-4.649-.094-9.3-.227-13.946-.27-4.9-.046-9.794-.005-14.691,0-2.8-.649-5.623-.3-8.439-.206-.135-.012-.271-.027-.406-.042l-.812-.094a11.29,11.29,0,0,0-1.217-.08q-34.989-.017-69.977,0c-.53,0-1.061.041-1.591.092l-1.061.108h0l-.53.049a64.381,64.381,0,0,0-10.46.022l-20.685.435A12.158,12.158,0,0,0,530.4-207l-10.8.406c-.127-.006-.254-.016-.381-.026l-.381-.033a3.766,3.766,0,0,0-2.252.295,39.349,39.349,0,0,0-7.853.419,1.693,1.693,0,0,0-1.529.138,15.65,15.65,0,0,0-4.406.329,1.862,1.862,0,0,0-1.522.207,140.9,140.9,0,0,0-24.53,3.981c-4.882,1.317-9.979,1.744-14.979,2.57-.37-.091-.739-.171-1.046.172l-8.832.046a.806.806,0,0,0-1.032-.186h0l-2.43-.334a.922.922,0,0,0-1.027-.249,111.822,111.822,0,0,1-32.061-14.2c-1.1-.712-2.088-1.71-3.5-1.71a1.16,1.16,0,0,0-1.525-.056c-2.182.221-3.483,1.75-4.743,3.313l-.27.335c-.135.167-.27.334-.406.5-2.6,3.139-4.284,7.008-7.125,9.978-2.919,3.054-6.291,3.022-8.939-.287a25.53,25.53,0,0,1-4.18-8.624q-.114-.371-.225-.744l-.219-.747a24.5,24.5,0,0,0-2.572-6.471c-1.6-2.51-3.168-2.739-5.289-.77A23.986,23.986,0,0,0,371.2-211.5l-.65.984h0l-3.553,6.457-.775,1.417-2.436,4a3.987,3.987,0,0,0-1.246,1.819c-.285.33-.563.666-.839,1l-.552.677a19.824,19.824,0,0,1-3.006,3.132c-3.477,2.729-7.381,2.276-10.116-1.168h0l-.353-2.048c.709-.8.437-2.242,1.3-2.942a1.9,1.9,0,0,1,.5-.825l.132-.146a2.424,2.424,0,0,0,.494-.707c3.3-8.4,7.581-16.38,9.628-25.324a31.654,31.654,0,0,0,.48-11.708,1.075,1.075,0,0,0-.207-1.106,29.269,29.269,0,0,0-4.988-12.444c-1.924-2.8-3.787-2.854-6.131-.5a2.33,2.33,0,0,0-1.028,1.315c-4.019,6.136-6.376,13.146-9.2,19.912-.582,1.393-.853,3.185-2.856,3.038-1.92-.14-3.591-.59-4.465-2.842a86.392,86.392,0,0,1-2.974-10.522c-.436-1.752-.827-3.521-1.212-5.291l-.462-2.123c-.619-2.829-1.265-5.641-2.1-8.367-1.454-4.735-2.229-9.722-4.248-14.261a1,1,0,0,0-.4-1.061c-.6-3.318-2.52-5.987-4.057-8.785-1.938-3.527-4.767-3.781-7.552-.876-3.212,3.351-4.432,7.855-5.7,12.289a5.7,5.7,0,0,0-.907,2.646c-3.354,9.7-5.1,19.8-6.343,29.989h0L295.152-234a166.167,166.167,0,0,0-1.631,24.482h0l-.042.256a2.716,2.716,0,0,0,.177,1.867,3.447,3.447,0,0,0,.992-2.113c2.069-5.039,3.848-10.246,6.3-15.061,1.841-3.613,3.741-7.343,6.7-10.19,2.43-2.339,4.576-2.132,6.338.815,2.59,4.333,3.495,9.369,4.893,14.187,2.468,8.5,3.678,17.372,6.5,25.771,1.265,3.764.546,7.219-1.106,10.6h0l-1.071,1.732c-2.03,2.981-4.958,4.3-8.2,5.042a.909.909,0,0,0-1.023.241,23.3,23.3,0,0,1-7.136-.532l-1.324-.246c-.736-.135-1.472-.262-2.211-.362a5.012,5.012,0,0,1-2.209-1.415A23.774,23.774,0,0,1,294.294-190q-.132-.561-.264-1.122-.627-2.861-1.255-5.723c-.112-.688.381-1.637-.511-1.97-.334-.124-.514.528-.471.985-1.488,2.784-2.955,5.581-4.47,8.349a21.869,21.869,0,0,1-4.455,5.131l-.962.561c-.12.028-.24.059-.361.09l-.364.1c-1.216.325-2.463.657-3.608.008-2.342-1.328-2.265.251-2.453,1.95-.394,3.561-.917,7.107-1.387,10.659-.1.78-.143,1.695-.974,1.947-1.09.33-1.392-.844-1.712-1.5a66.215,66.215,0,0,1-2.741-6.382c-.217-.591-.452-1.182-.693-1.774l-.291-.71h0l-.293-.711a22.828,22.828,0,0,1-1.965-6.84c-.247-3.4-.571-6.816-1.012-10.178-1.366-10.393-.669-20.891-1.62-31.3-.958-10.473-.972-21.078-3.819-31.285-.443-1.587-1.038-3.125-1.562-4.684-.364-.728-.689-.775-.962.063l-.136.637-.272,1.274a66.344,66.344,0,0,1-3.159,11.24,1.609,1.609,0,0,0-.062.586v.147c0,.516-.052,1.023-.921.926-.768-.086-.887-.663-1.02-1.229l-.043-.178a2.659,2.659,0,0,0-.107-.34c-.128-.314-.244-.634-.366-.951-.108-.443,0-1.22-.49-1.19-.528.032-.5.745-.42,1.265h0l-2.99,17.285-.209,1.134c-2.145,8.648-4.379,17.269-7.059,25.749l-.557,1.551c-1.726,4.327-3.784,8.545-5.078,13.016-1.123,3.882-1.27,8.073-2.045,12.085-2.033,10.525-4.367,20.953-10.143,30.043a19.285,19.285,0,0,1-1.159,1.7c-.761.955-1.531,2.882-2.46,2.4-.887-.465-1.307-2.415-1.526-3.787-.325-2.03-.611-4.067-.888-6.106l-.551-4.079c-.185-1.359-.375-2.718-.577-4.074-.111-.746.866-1.41.046-2.121-.921-1.285-1.384.158-2.05.393a16.812,16.812,0,0,1-5.876,1.19h0l-2.926-1.132c-3.671-3.189-4.756-7.667-5.683-12.224l-.293-1.455h0l-.515-2.558a3.008,3.008,0,0,0-.286-1.938,2.424,2.424,0,0,0-.582,1.97l.007.243c0,.081,0,.162,0,.242-1.571,10.074-2.88,20.2-4.894,30.187-.1.513-.16,1.038-.294,1.541-.108.406-.22.917-.706.956-.582.046-.641-.356-.671-.765l-.01-.136c0-.067-.011-.133-.02-.2a115.571,115.571,0,0,1-.967-13.507c-.159-7.6-.224-15.2-.33-22.8.342-7.088.572-14.184,1.044-21.261,1.871-27.989,4.883-55.9,4.85-84.015,0-.562.021-1.126.046-1.692l.032-.68a16.588,16.588,0,0,0-.362-5.432,14,14,0,0,0-1.194,3.176c-3.121,11.878-4.051,24.134-5.447,36.307-1.158,10.1-2.588,20.143-5.479,29.88-.19.64-.166,1.6-.934,1.678-.692.07-.883-.407-1-.941l-.036-.17h0l-.034-.17c-.028-.141-.058-.279-.1-.4a64.25,64.25,0,0,1-2.427-13.924,187.239,187.239,0,0,1,.039-22.492l.089-2.043q.067-1.532.129-3.064c.327-8.185.3-16.32-1.7-24.286-1.061-4.212-2-8.545-4.721-12.007-1.605-2.041-2.855-1.926-4.378.16a21.275,21.275,0,0,0-2.944,6.618c-.093.311-.192.62-.291.928l-.117.37a6.575,6.575,0,0,0-.173,4.5c3.031,8.238,4.307,16.9,4.867,25.672.884,13.823,1.61,27.657,2.469,41.482a121.8,121.8,0,0,0,2.429,18.476c.6,2.761,1.439,3.059,3.319,1.129,1.248-1.281,1.944-.884,2.6.531.326.707.7,1.39,1.036,2.089,3.307,6.8,3.944,14.209,4.377,21.667a95.807,95.807,0,0,1-2.6,23.061c-1.832,7.515-3.89,15.083-7.7,21.871-.25.446-.43.937-.642,1.407a2.7,2.7,0,0,0-.932,1.592c-.218.26-.432.525-.644.793l-.634.8a20.2,20.2,0,0,1-2.015,2.276c-2.731,2.546-5.428,2.145-7.579-.989a19.779,19.779,0,0,1-3.206-7.907,185.406,185.406,0,0,1-2.675-19.18c-1.047-16.791-1.068-33.585-1-50.383l.03-6.3q.015-3.15.028-6.3a1.583,1.583,0,0,0-.042-.259l0-1.58c.618-6.95-.766-13.622-2.33-20.3a33.305,33.305,0,0,1-.6-3.828l-.145-1.291c-.123-1.076-.259-2.149-.473-3.2a53.768,53.768,0,0,0-3.334-10.892c-.107-.372-.21-1.064-.322-1.065-.533-.008-.6.376-.6.787V-266c0,.048,0,.1,0,.144-1.62,7.32-3.192,14.662-3.062,22.242.167,9.712.223,19.424-.045,29.131-.158,5.739-.615,11.467-.94,17.2-.029.511.074,1.23-.509,1.329-.924.158-.864-.818-1.113-1.409-.264-1.284-.2-2.671-1.386-3.785h0v3.761c-.77,8.273-1.6,16.541-2.3,24.822-1.033,12.2-2.124,24.391-4.489,36.405a65.885,65.885,0,0,1-3.578,11.905c-1.01,2.508-2.339,5.209-5.28,5.228s-4.536-2.438-5.82-5c-1.178-2.354-1.46-4.984-2.1-7.5-.053-.865-.106-1.729-.206-3.372l-2.517,3.812q-2.691,3.068-5.383,6.134c-1.11,1.259-1.892,1.073-2.5-.558-2.259-6.018-4.168-12.1-3.617-18.739a6.7,6.7,0,0,0-1.983-5.726c-2.8-2.929-3.8-7.12-5.23-10.99-1.558-4.214-2.029-8.594-2.469-12.988l-.11-1.1c-.074-.733-.149-1.465-.231-2.2-.154-1.38-.231-2.769-.409-4.968-.835,2.135-1.394,3.544-1.94,4.96-3.164,8.206-7.893,14.8-15.727,18.617-2.77,1.349-3.168,4.726-3.587,7.652-.531,3.7-.038,7.362.427,11.021l.12.954c.079.636.154,1.272.219,1.908q.148,1.43.3,2.858l.313,2.857a149.024,149.024,0,0,1,1.212,19.126,68.222,68.222,0,0,1-1.7,12.892c-.308,1.449-1.122,3.108-2.778,3.343-1.479.21-2.653-.564-3.791-1.808a54.846,54.846,0,0,1-6.517-9.52c-.482-1.905-1.4-2.085-2.7-.783-6.2,3.946-13.161,4.953-20.125,5.949a1.429,1.429,0,0,0-1.516.129l-3.914-.027a1.58,1.58,0,0,0-1.52-.135c-2.485-.548-4.982-1.045-7.454-1.657C13.668-105.555,9.39-113.3,9.145-120.862c-.2-6.092,1.461-11.562,3.52-17A61.809,61.809,0,0,1,19.2-150.1a27.066,27.066,0,0,0,1.315-2.492,4.647,4.647,0,0,0,1.326-2.121l1.751-3.1a193.581,193.581,0,0,0,10.88-21.2c-3.949,1.322-7.21.444-10.293-1.436-1.23-.75-1.567-.311-1.543,1.045.12,6.752-.258,13.447-2.16,19.951A1.449,1.449,0,0,0,20-158.433l-.042.314h0l-.016.1h0l-.949.623c-2.1-4.155-2.45-8.741-2.795-13.285l-.063-.826a113.877,113.877,0,0,1,.025-15.515,5.411,5.411,0,0,0-.658-3.251c-3.817-6.461-6.215-13.562-8.405-20.794a155.644,155.644,0,0,1-5.576-23.962h0l-.111-.8c-1.127-8.05-2.7-16.43.4-24.466,2.391-6.2.543-12.784,1.985-19.056a85.52,85.52,0,0,1,2.965-10.705c.18-.484.319-.985.478-1.478a4.209,4.209,0,0,0,.883-2.254l.666-1.53.69-1.4c4.172-8.436,9.063-16.271,16.3-22.123.878-.71,1.837-1.306,2.758-1.954,1.277-.462,2.541-.974,3.836-1.368.872-.265,1.625-.463.879-1.649a22.236,22.236,0,0,1-.436-9.3c.218-1.51,1.09-2.56,1.713-3.817,4.076-8.224,10.7-13.378,18.137-17.615a2.538,2.538,0,0,0,.378-.329.927.927,0,0,0,1-.46l5.895-2.769a.915.915,0,0,0,1-.442c3.13-.625,5.649-1.962,6.586-5.628a24.945,24.945,0,0,1,2.849-6.37,1.461,1.461,0,0,0,.584-1.168L77.264-382.7a1.856,1.856,0,0,0,.981-1.689c1.282-2.516,3.491-4.215,5.012-6.537C87.008-396.655,92.7-398.908,98.774-399.885ZM55.157-162.1c-.508-.59-.727-1.647-1.881-1.5,1.408,5.277,3.188,10.4,5,15.506l.906,2.552c1.207,3.4,2.4,6.807,3.485,10.254,2.746,8.747,2.786,16.867-3.787,23.873h0l-.131.141a1.651,1.651,0,0,0-.408,2.15h0l.413.752h0l.414.751A30.629,30.629,0,0,0,65.4-99.091c2.075,1.821,3.235,1.448,4.134-1.334a29.456,29.456,0,0,0,1.133-8.556A232.226,232.226,0,0,0,68.91-141.5a10.592,10.592,0,0,1-.058-1.266l0-.392c.014-1.922.032-3.892-2.547-4.609-.242-.067-.379-.549-.571-.833a29.087,29.087,0,0,1-2.9-5.772c-.706-1.8-1.621-3.558-3.439-4.263A11,11,0,0,1,55.157-162.1Zm-15.82-20.932A62.582,62.582,0,0,0,33.4-172.738a210.915,210.915,0,0,1-15.18,27.32,49.538,49.538,0,0,0-6.7,14.837C8.2-118.258,13.8-106.969,24.807-104.405c10.6,2.469,20.537.272,29.84-5.562a1.689,1.689,0,0,0,.726-2.54c-6.933-15.383-10.633-31.784-13.178-48.522C41.118-168.095,40.343-175.212,39.337-183.033Zm5.378-6.523c-3.157,2.96-4.191,5.39-3.843,8.768a279.406,279.406,0,0,0,8.748,47.943,184.293,184.293,0,0,0,6.425,19.024c.758,1.866,1.531,1.937,2.794.618a16.071,16.071,0,0,0,4.056-7.964c1.123-5.226-.138-10.154-1.874-14.9-4.363-11.92-8.647-23.862-11.881-36.2C47.639-177.983,46.205-183.723,44.715-189.555Zm91.491-54.251a8.439,8.439,0,0,0-1.791,5.467q-.026.75-.053,1.5l-.158,4.5c-.585,16.493-1.284,32.977-3.671,49.325-2.248,15.392-5.477,30.463-12.776,44.192-.054.1-.109.2-.165.3l-.168.307a4.06,4.06,0,0,0-.662,2.316c.439,4.546,1,9.1,3.326,13.066,1.634,2.783,4.08,2.823,6.077.295a17.021,17.021,0,0,0,2.733-6.132,161.5,161.5,0,0,0,4.53-22.595c2.025-15.468,3.2-31.03,4.446-46.584.349-4.363,1.274-8.725.756-13.1-.65-5.487-1.231-10.977-1.372-16.5-.138-5.412-.03-10.832-.03-16.248h0Zm-4.043-51.955a2.03,2.03,0,0,0-2.619.9l-.172.242-.346.483q-.433.6-.865,1.209l-.344.485c-3.026,4.292-5.721,8.76-5.072,14.694a329.755,329.755,0,0,1,1.92,38.875c-.075,8.428.019,16.868-2.157,25.072-1.438,5.421-2.787,6.259-7.565,5.1a1.657,1.657,0,0,0-.135.484,140.513,140.513,0,0,1-5.058,42.876c-.19.7-.37,1.4-.546,2.106l-.175.706c-1.165,4.713-2.3,9.482-5.666,13.2a2.5,2.5,0,0,0-.445,1.974h0l.069,1.3a78.485,78.485,0,0,0,1.489,13.581c.472,2.05.291,5.164,2.213,5.706,1.468.415,2.691-2.425,3.96-3.879,3.177-3.639,5.437-7.6,4.6-12.961a29.623,29.623,0,0,1,.112-6.3,354.219,354.219,0,0,1,17.506-90.342,8.923,8.923,0,0,0,.566-2.534c.15-6.311.235-12.624.34-18.936.9.3.878.948.777,1.581l-.029.172a3.684,3.684,0,0,0-.074.65c.075,4.408.036,8.818.036,13.975a11.061,11.061,0,0,0,2.276-6.886c-.055-5.777-.092-11.555-.157-17.331a115.764,115.764,0,0,0-1.208-17.264c-.029-.177-.053-.357-.074-.539l-.041-.363a4.91,4.91,0,0,0-.943-2.952h0v14.917h0v4.986c0,.6-.009.6-.633,1.294,0-1.651.024-3.3-.006-4.954q-.166-9.3-.361-18.6C133.309-294.123,133.155-295.224,132.163-295.761Zm29.425.183c-.286,1.134-.382,1.453-.446,1.779a249.712,249.712,0,0,0-3.784,29.433c-1.281,16.888-2.136,33.741-.008,50.671a193.168,193.168,0,0,1,1.272,28.634c-.013.547.334,1.431-.457,1.553-.944.146-.877-.858-.971-1.484-.148-.986-.269-1.977-.383-2.969l-.226-1.984q-.4-3.417-.783-6.835c-.44.288-.525.52-.52.751.33,14.38.495,28.77,2,43.087.578,5.514,1.6,10.925,4.034,15.9,1.755,3.593,4.1,4.032,6.917,1.335a23.941,23.941,0,0,0,5.15-7.648,98.9,98.9,0,0,0,8.705-44.6c-.227-5.994-.77-11.916-3.49-17.328-1.157-2.3-1.924-2.42-3.768-.729-2.233,2.047-2.249,2.051-3-1.173-2.617-11.305-3.307-22.864-3.866-34.43q-.163-3.358-.3-6.718l-.118-2.687c-.4-8.958-.87-17.909-2.093-26.8h0l-.16-1.155A79.793,79.793,0,0,0,161.588-295.578ZM132.7-234.268c-9.543,30.246-15.544,61.206-16.157,93.223,11.278-24.437,14.005-50.568,15.4-76.975l.1-1.909q.073-1.432.141-2.866l.09-1.911q.022-.478.044-.956l.086-1.912q.021-.478.043-.956l.084-1.912Q132.616-232.355,132.7-234.268ZM67.428-155.316c-.217-2.31-1.982-1.693-2.979-1.437-1.386.354-.245,1.5-.043,2.238a15.636,15.636,0,0,0,1.131,2.876c.063.126.122.266.183.409l.074.172c.264.6.6,1.177,1.419.886.912-.323.553-1.309.625-2.371C67.729-153.263,67.526-154.284,67.428-155.316Zm163.6-33.439c-.515.708-.734.949-.889,1.229-3.753,6.747-8.034,13.024-14.012,17.761-1,.792-.851,1.786-.708,2.833.641,4.678,1.3,9.352,1.924,14.032.019.138.032.283.045.431l.02.222c.065.7.174,1.4.841,1.6,1.139.338,1.4-.976,1.839-1.727,4.823-8.184,7.576-17.234,9.549-26.58C230.281-181.995,231.363-184.987,231.031-188.755ZM94-240.268c-.171,1.335-.3,2.361-.433,3.385a16.181,16.181,0,0,0-.1,5.466,135.29,135.29,0,0,1-.746,41.009,19.637,19.637,0,0,0-.2,4.966q.052.633.1,1.267l.2,2.536c.342,4.227.708,8.453,1.316,12.638.814,5.6,2.023,11.15,5.262,15.881.343.775.829,1.713,1.648,1.453.716-.227.516-1.245.359-1.982.555-19.777,2.181-39.46,4.608-59.072,1.279.647.735,1.821.616,2.774-2.083,16.7-2.991,33.493-3.69,50.3-.1,2.487-.014,4.983-.014,7.674,2.008-1.763,2.593-2.735,3.828-7.043,4.3-14.988,7.06-30.206,6.689-46.008-.1-4.248-1.064-7.522-4-10.414-1.323-1.3-1.936-1.425-2.872.076.009-.165.022-.329.037-.493l.031-.328a4.914,4.914,0,0,0-.613-3.683,138.183,138.183,0,0,1-10.219-17.177l-.07-.178-.138-.359A6.767,6.767,0,0,0,94-240.268ZM69.889-157.177a1.054,1.054,0,0,0-.842.117c-1.1.969-.214,1.984-.017,3.265C69.567-155.043,70.4-155.92,69.889-157.177Zm-9.1-11.958a39.376,39.376,0,0,0,1.773,9.208c.569,1.872,3.331,2.863,4.187,1.712.693-.932-.227-6.506-1.263-6.774C63.471-165.511,62.406-167.145,60.787-169.135Zm12.874-3.738a14.85,14.85,0,0,0-1.17,1.953l-.263.5a8.763,8.763,0,0,1-2.11,2.892c-2.318,1.87-2.575,4.322-1.963,7.07.158.711.03,1.779,1.052,1.78a1.886,1.886,0,0,0,1.916-1.391A69.372,69.372,0,0,0,73.661-172.872ZM52.516-210.659q-.389,1.042-.774,2.082l-.771,2.081c-1.672,4.512-3.367,9.054-5.37,13.865,3.016-1.589,3.408.057,3.62,2.184.218,2.177.579,4.343.965,6.495q.167.928.326,1.859l.24,1.4c1.017,5.895,2.1,11.771,5.173,16.995h0l.21.355a8.482,8.482,0,0,0,4.57,4.216C57.235-176.475,54.051-193.392,52.516-210.659Zm-34.887,24.1a90.792,90.792,0,0,0,1.361,26.208,2.7,2.7,0,0,0,.908-1.632l.041-.2h0l.021-.1c1.184-5.488,1.317-11.065,1.553-16.665C21.659-182.444,20.016-184.352,17.628-186.562Zm71.427-57.056Q81.04-202.153,73-160.554a2.912,2.912,0,0,0,.878-.151C84.539-167.49,90-177.975,90.74-190.751c.628-10.82-.063-21.738.366-32.61a11.8,11.8,0,0,0-.043-1.328l-.041-.535a6.664,6.664,0,0,1,.112-2.306c1.568-5.464-.215-10.42-1.883-15.491Zm-31.276,13.3-.08.366c-.616,2.682-1.745,5.145-1.728,7.876a333.363,333.363,0,0,0,3.12,44.826,15.218,15.218,0,0,0,4.536,9.389c.553.505,1.219,1.2,1.948.8.665-.366.3-1.266.221-1.921-2.487-20.477-4.662-41-8.016-61.338Zm151.56-60.085a250.3,250.3,0,0,0-5.849,27.923c-2.117,13.793-3.111,27.7-4.077,41.615l-.252,3.629c-.506,7.259-1.03,14.516-1.729,21.754a46.412,46.412,0,0,0,3.509,22.6,10.69,10.69,0,0,0,3.826,5.02c2.858,1.881,5.346.439,7.842-.993,1.508-.864,1.336-2.077,1.068-3.282l-.1-.437a7.361,7.361,0,0,1-.166-.962c-.634-7.422-1.444-14.827-2.022-22.253a707.521,707.521,0,0,1-1.559-78.6A92.009,92.009,0,0,0,209.339-290.408ZM66.212-272.91c-1.919,3.168-3.841,6.119-5.541,9.21-1.74,3.162-2.089,6.8-2.589,10.349s-.859,7.129-1.22,10.7a48.983,48.983,0,0,0-.315,10.378c.337-.277.363-.624.515-.888a2.373,2.373,0,0,0,.225-.8l.03-.2c.089-.589.2-1.133.836-1.067.8.083.855.808.857,1.532v.309a4.143,4.143,0,0,0,.031.572q4.654,31.557,8.138,63.288a3,3,0,0,1,.01.352v.149c0,.424.056.853.657,1.006,2.025-1.679,2.97-4.13,3.934-6.534,4.2-10.48,6.011-21.63,7.852-32.752,2.472-14.937,4.072-30,5.751-45.059a12.412,12.412,0,0,0-1.4-7.3,2.2,2.2,0,0,0-1.208,1.283l-.117.245c-.078.163-.157.323-.246.472a44.166,44.166,0,0,1-5.378,7.163c-1.523,1.665-2.167,1.21-2.758-.765q-2.7-9.01-6.1-17.748A10.264,10.264,0,0,0,66.212-272.91ZM236.5-322.677c-3.856-7.6-9.191-8.206-14.684-1.794a26.472,26.472,0,0,0-1.679,2.269,50.425,50.425,0,0,0-6.115,13.137c-.177.547-.363,1.094-.551,1.641l-.284.821h0l-.285.822a31.616,31.616,0,0,0-2.238,10.1c-.028,5.521-.032,11.044-.092,16.57-.363,32.842.3,65.648,3.422,98.351.054.561.1,1.124.15,1.687l.1,1.128a41.264,41.264,0,0,0,.99,6.712c.331-.07.525-.054.642-.147.394-.314.764-.663,1.136-1.007a61.2,61.2,0,0,0,12.69-17.311l.155-.3.311-.6h0l.309-.6a18.768,18.768,0,0,0,2.235-6.462c1.6-13.773,2.091-27.64,3.262-41.448,1.248-14.706,3.052-29.284,7.91-43.227a9.286,9.286,0,0,0,.363-4.631c-.67-4.326-1.123-8.692-1.828-13.012q-.133-.813-.263-1.627l-.263-1.628C240.8-309.931,239.581-316.6,236.5-322.677Zm27.84,107.265a171.9,171.9,0,0,0,1.41,21.978c.947,6.783,2.369,13.41,5.431,19.517.3.593.54,1.478,1.307,1.353.8-.13.757-1.091.816-1.735.239-2.614.338-5.242.592-7.854.21-2.162.076-4.012-1.574-5.712a16.054,16.054,0,0,1-2.8-5.2C266.6-200.2,265.6-207.822,264.338-215.412ZM46.769-189.97a56.454,56.454,0,0,0,2.758,12.061C49.783-182.241,49.243-186.362,46.769-189.97ZM313.016-232.88c-1.24-2.182-2.681-2.413-4.438-.731a13.186,13.186,0,0,0-1.993,2.65c-5.168,8.4-8.251,17.9-12.238,26.918a5.568,5.568,0,0,0-.375,2.825c.569,4.251,1.176,8.514,2.866,12.465,2.824,6.6,7.33,10.674,15.4,10.774a16.392,16.392,0,0,0,9.847-4.4,7.574,7.574,0,0,0,2.309-7.345c-2.511-11.517-4.791-23.1-8.067-34.407A39.961,39.961,0,0,0,313.016-232.88Zm-285.6,2.368c-.664.016-1.029.566-1.255,1.125-1.788,4.4-3.925,8.691-3.883,13.7.039,4.735.008,9.472.008,14.207h.222c0,4.562-.026,9.124.007,13.685.032,4.5,1.573,6.56,5.686,7.74,5.184,1.487,11.447-3.772,10.933-9.287q-.05-.539-.1-1.079l-.1-1.078a53.582,53.582,0,0,0-2.113-12.269c-2.788-8.417-5.08-17.021-8.185-25.325-.02-.054-.039-.109-.059-.165l-.057-.17C28.346-229.974,28.134-230.529,27.418-230.513ZM21.05-211.572a114.149,114.149,0,0,0-2.993,19.083c-.27,3.142.333,4.343,2.993,6.318h0Zm19.068.155c-.856,7.62.4,15.149.442,22.8.178-.173.365-.341.554-.507l.228-.2.115-.1.229-.2c1.3-1.107,2.513-2.222,2.129-4.227C42.692-199.723,41.364-205.561,40.118-211.417Zm228.755-38.132c-.682.02-.946.874-1.187,1.534a44.351,44.351,0,0,0-2.469,11.751c-1.083,13.408,1.029,26.356,5.071,39a25.993,25.993,0,0,0,3.89,8.3,297.917,297.917,0,0,0-1.336-41.184q-.036-.333-.072-.667l-.142-1.334-.071-.667-.143-1.334a76.077,76.077,0,0,0-2.471-13.826C269.755-248.593,269.646-249.57,268.873-249.548ZM7.266-264.563c-1.067-.241-1.794,1.015-2.42,1.926a3.28,3.28,0,0,0-.46,2.728c.318,1.341.585,2.7.874,4.046-1.312-.328-.46-2.405-1.856-2.734C-.819-241.734,9.268-201.5,16.7-192.8c.508-4.112.905-8.116,1.519-12.082.628-4.062,1.459-8.088,2.219-12.125a38.264,38.264,0,0,0-.035-12.2c-1.389,2.51-2.5,4.64-3.722,6.692-1.44,2.413-1.932,2.382-3.336-.115-2.3-4.095-3.165-8.631-3.926-13.224l-.226-1.379q-.075-.46-.152-.92a35.751,35.751,0,0,1-.37-4.609l-.02-.582h0l-.021-.582c-.126-3.4-.4-6.763-2.6-9.693,0-.006.111-.114.17-.175.752.2.773,1.587,1.7,1.364,0-3.2.055-6.323-.034-9.44a4.82,4.82,0,0,1,.089-.843l.031-.2C8.093-263.649,8.125-264.369,7.266-264.563Zm49.848,7.335c-2.058,1.672-3.2,3.986-5.568,4.66-2.631.747-4.256-.936-6.047-2.96-1.061,6.55-2.706,12.583-2.325,19a47.622,47.622,0,0,1-2.2,17.358,4.553,4.553,0,0,0-.421,2.017c1.41,7.175,2.9,14.333,4.509,22.206a49.406,49.406,0,0,0,4.152-9.647c.217-.665.449-1.327.685-1.989l.285-.793.143-.4.286-.794a28.639,28.639,0,0,0,2.161-9.873,155.746,155.746,0,0,1,1.605-23.576C55.11-246.991,56.149-251.916,57.115-257.228Zm35.464,32.293c-.652,9.162-1.2,18.272-.374,27.4A95.059,95.059,0,0,0,92.579-224.934Zm152.459-55.013a111.249,111.249,0,0,0-5.44,23.925c-1.742,13.014-2.712,26.121-3.991,39.191-.434,4.428-.6,8.892-1.46,13.272-.114.577-.427,1.576.3,1.858.638.246.842-.246,1.011-.756l.053-.161a3.528,3.528,0,0,1,.14-.375c.145-.313.247-.648.37-.972a158.228,158.228,0,0,0,8.592-30.357c.227-1.347.474-2.694.726-4.04l.19-1.01h0l.191-1.01q.1-.505.191-1.01l.189-1.011c1.5-8.087,2.738-16.216.811-24.621C245.948-271.243,245.644-275.635,245.038-279.947ZM142.03-228.87l-.037.484c-.674,8.256-2.728,16.445-.816,24.81a211.166,211.166,0,0,0,.854-25.3Zm-106.637,12.9,2.371,8.937.614-.142c0-1.744-.032-3.489.007-5.231C38.451-215.394,38.469-215.394,35.393-215.965Zm85.819-62.255c-.127.3-.275.6-.38.91a264.568,264.568,0,0,0-9.114,34.9c-.388,2.048-1.332,4.115-.858,6.2a188.22,188.22,0,0,1,3.733,23.042A2.862,2.862,0,0,0,119.5-211.4a6.619,6.619,0,0,0,1.692-3.149c1.419-5,1.747-10.163,2.008-15.331A284.518,284.518,0,0,0,121.212-278.221Zm-11.27,47.327c-2.894,8.185-2.075,12.863,2.857,16.4A86.292,86.292,0,0,0,109.942-230.893ZM32.4-258.031a46.429,46.429,0,0,1-4.066,4.06,7.549,7.549,0,0,0-2.8,5.847,22,22,0,0,0,.617,6.5c1.766,7.715,5.4,14.63,8.224,21.889.589,1.515,1.939,2.928,3.383,2.466,1.482-.474.9-2.381.658-3.714-1.448-7.991-3.019-15.958-4.375-23.966C33.317-249.209,32.947-253.541,32.4-258.031Zm66.7-5.53a162.521,162.521,0,0,0-4.368,18.075,4.406,4.406,0,0,0,.231,2.563c3.057,7.611,7.283,14.466,12.256,21.763.63-4.224,1.067-7.769,1.722-11.269a10.85,10.85,0,0,0-.225-4.9,182.523,182.523,0,0,0-8.267-24.164C100.134-262.236,100.056-263.21,99.1-263.561Zm42.29,10.716c-1.766,1.838-3.459,3.584-3.446,6.489.037,8.047.446,16.076.914,24.1.027.453-.144,1.134,1.055,1.067.125-3.843.5-7.676.874-11.517l.149-1.537A94.515,94.515,0,0,0,141.387-252.845Zm-130.515,4.3c-1.038-.421-1.346-.058-1.283.99.46,7.629,1.487,15.144,4.083,22.323.244.673.454,1.653,1.358,1.635.86-.017,1.151-.942,1.462-1.613q.333-.718.672-1.435l.269-.573c2.1-4.488,4.054-8.943,3.167-13.561,0-2.6-.048-4.35.015-6.1.052-1.424-.159-2.129-1.769-1.6A11.327,11.327,0,0,1,10.872-248.546Zm76.248-2.327c-1.206,9.219-2.337,17.864-3.467,26.509,1.716-7.3,3.105-14.663,4.474-22.029A6.311,6.311,0,0,0,87.12-250.873ZM24.166-240.789c-2.051,4.167-2.842,11.135-1.737,16.182.973-2.12,1.792-4.065,2.74-5.936C27.151-234.451,26.921-237.1,24.166-240.789Zm14.917-26.649c-3.1,3.8-5.335,7.245-4.509,12.581.92,5.941,1.674,11.936,2.532,17.9.455,3.165,1.023,6.311,1.54,9.465C42.4-240.74,41.535-253.924,39.084-267.437Zm51.211,17.82-.033.355c-.28,3.542,1.084,6.712,1.945,10.388,1.505-3.635.133-6.244-1.087-8.834l-.162-.345c-.24-.518-.469-1.037-.662-1.565Zm28.057-48.5c-.577-2.183-1.583-2.179-2.942-.814a15.878,15.878,0,0,0-1.3,1.568c-4.217,5.5-6.91,11.869-9.608,18.26l-.506,1.2q-.507,1.2-1.022,2.393c-2.511,5.81-3.385,11.213.345,16.7a1.517,1.517,0,0,1,.089.244,176.237,176.237,0,0,1,6.6,18.846c.3-1.213.526-1.933.663-2.671a299.193,299.193,0,0,1,8.974-36.3c.523-1.637,1.646-3.172,1.369-4.988A137.365,137.365,0,0,0,118.352-298.115ZM21.966-246.528v5.683c.985-2.252,1.582-3.825,0-5.683ZM94.374-275.08c-1.086,6.663-2.113,12.481-2.954,18.33-.458,3.185.758,6.031,2.213,9.478,1.24-6.57,2.99-12.281,4.5-18.063a2.754,2.754,0,0,0-.2-2C96.849-269.676,95.777-272.024,94.374-275.08ZM10-264.312c-.932-.117-.781.7-.779,1.254.018,3.681.065,7.362.113,11.043a1.883,1.883,0,0,0,1.319,1.959,13.073,13.073,0,0,0,8.713.194c1.007-.32,1.315-.83.76-1.916a43.429,43.429,0,0,0-5-8.511c-.71,1.637-1.238,3-1.887,4.3-.355.706-.488,1.984-1.531,1.707-.623-.166-.635-.855-.619-1.506l.005-.2c0-.134,0-.264,0-.384-.095-2.187-.112-4.379-.187-6.567C10.883-263.584,10.707-264.224,10-264.312Zm32.821-9.039a7.218,7.218,0,0,0-2.29,6.914c.915,5.551,1.423,11.178,2.1,16.774q.145-.422.3-.847l.2-.567c.874-2.462,1.734-4.96,1.4-7.264C43.839-263.161,43.108-267.97,42.823-273.351Zm45.551,11.384c-1.327,5.247-1.179,7.581.689,10.535C89.9-255.136,88.479-258.5,88.374-261.967ZM71.714-283.44c-1.395,2.685-2.548,5-3.8,7.263a2.745,2.745,0,0,0-.137,2.683,189.1,189.1,0,0,1,7.156,19.825c.589,1.989,1.409,1.84,2.461.386a65.713,65.713,0,0,0,4.8-8.238,2.232,2.232,0,0,0,.023-2.226C78.89-270.247,75.707-276.841,71.714-283.44Zm-46.657-5.442c-2.795,12.122-2.586,24.07-.688,36.343C28.644-257.812,29.121-283.928,25.056-288.882Zm33.405,2.136a5.072,5.072,0,0,0-7.968,3.517c-.927,5.331-1.819,10.669-2.759,16-.424,2.406-1.008,4.782-1.367,7.2a5.479,5.479,0,0,0,2.228,5.468c1.436,1.057,2.65.217,3.789-.627l.227-.168.225-.165a14.049,14.049,0,0,0,4.569-5.731c1.547-3.422,2.072-7.169,3.035-10.777.717-2.686,1.415-5.378,1.989-7.564A9.156,9.156,0,0,0,58.461-286.746ZM35.874-319.268a2.661,2.661,0,0,0-3.565-1.217,20.614,20.614,0,0,0-8.264,5.524,72.136,72.136,0,0,0-19.97,47.272,6.145,6.145,0,0,1-.1.776l-.042.231c-.137.771-.235,1.539.4,1.923.921.557,1.94-.586,2.91-.949.823-.308.889-1.1.9-1.891l0-.34c0-.188.006-.372.021-.546.418-4.577,1.148-9.049,3.909-12.8.933-1.266,2.055-2.5,3.733-1.885,1.568.576,1.733,2.234,1.788,3.73.163,4.477.19,8.947-1.139,13.29-.634,2.072-.787,4.2.521,6.04A34.3,34.3,0,0,1,20.5-254.3l.019-.214.035-.383c.076-.829.121-1.223.134-1.618.261-7.8.235-15.607,1.2-23.367.844-6.8,2.1-13.46,4.932-19.7.95-2.1,1.781-2.119,3.2-.505a30.81,30.81,0,0,1,4.878,8.155,98.615,98.615,0,0,1,3.13,9.635,10.138,10.138,0,0,0,5.606-9.177c.194-4.733,1.058-9.516,3.475-13.556,1.386-2.316.9-3.248-.929-4.55C42.339-312.308,38.592-315.215,35.874-319.268Zm-5.91,21.54c-1.175-1.568-2.18-1.515-2.786.411-.069.219-.141.439-.215.658l-.111.33h0l-.224.66h0l-.11.33c-.8,2.422-1.337,4.857.765,7.281a5.939,5.939,0,0,1,.843,2.166c1.665,5.631,1.656,11.4,1.032,17.171-.476,4.4-1.179,8.774-1.837,13.559,3.105-2.733,5.519-5.314,5.358-9.75-.145-3.967.236-8.106,2.246-11.427,2-3.3,1.355-6.181.39-9.372C34.024-289.975,32.632-294.167,29.964-297.728ZM12.68-262.617c-.729-.12-.623.632-.662,1.079-.111,1.264-.156,2.535-.227,3.8h0l.577.084c.374-1.2.777-2.4,1.112-3.617A1,1,0,0,0,12.68-262.617Zm73.851-2.591c-2.128,2.648-2.221,3.6-.52,5.249C86.184-261.705,86.353-263.409,86.531-265.208ZM91.4-280.881a40.831,40.831,0,0,0-.731,18.611,27.073,27.073,0,0,1,.877-5.215l.193-.78C92.769-272.424,93.842-276.581,91.4-280.881ZM49-282.654c-1.961,2.58-4.307,4.26-4.42,7.081a48.338,48.338,0,0,0,.955,12.638A177.252,177.252,0,0,0,49-282.654Zm-34.043,1.108c-.985-.282-1.575.83-2.081,1.55-1.92,2.733-2.665,5.971-3.132,9.267-.591,4.169-.488,4.08,2.973,6.128,1.435.849,1.631.225,1.861-1.017a87.312,87.312,0,0,0,1.4-10.93c0-1.106.017-1.718,0-2.33,0-.071,0-.143,0-.217v-.222h0v-.225C15.957-280.405,15.884-281.28,14.952-281.546Zm66.664-22.6c-3.53,3.207-5.2,7.491-6.679,11.892l-.233.7-.116.348-.231.7c-.461,1.394-.926,2.788-1.447,4.15a2.1,2.1,0,0,0,.209,1.763c3.445,6.619,6.883,13.241,10.571,20.34C90.187-278.261,88.688-291.36,81.616-304.146ZM37.01-277.3a27.208,27.208,0,0,0-2.522,12.965C38.661-267.96,39.395-271.823,37.01-277.3Zm122.757-21.6c-.711-.327-.995.49-1.2,1a19.557,19.557,0,0,0-.934,2.977c-1.852,8.28-1.73,16.708-1.549,25.16l.044,2.056q.015.686.028,1.371v0l.527-5.99h0l.53-5.992a132.234,132.234,0,0,1,2.751-18.957C160.1-297.834,160.442-298.595,159.767-298.9Zm-31.105-48.409c-.062.586-.119,1.173-.187,1.759-1.067,9.154-5.4,15.535-15.526,13.087-1.456-.352-2.083.536-2.643,1.716-3.261,6.872-6.511,13.751-9.822,20.6a36.748,36.748,0,0,0-3.722,14.544,104.6,104.6,0,0,1-1.594,14.093c-.68,3.691.827,6.381,2.313,9.265l.228.445a26.946,26.946,0,0,1,1.261,2.791c1.606-4.66,2.878-8.832,4.469-12.861,2.653-6.722,5.579-13.3,10.97-18.16,3.783-3.409,4-3.271,5.373,1.723,1.075,3.92,1.309,8.025,2.434,12.361.627-1.214,1.036-2.053,1.485-2.868,2.084-3.781,4.064-7.717,7.709-10.056A3,3,0,0,0,132.99-302c-.409-9.724-.631-19.458-1.179-29.172C131.5-336.636,130.981-342.129,128.661-347.314Zm118.1,63.276-.794.109q.855,6.638,1.71,13.275h0l.645-.081c-.134-1.183-.2-2.374-.249-3.567l-.037-.895A29.463,29.463,0,0,0,246.762-284.038Zm-39.3-31.63c-1.7,7.766-4.457,39.949-3.775,43.554,1.285-5.984,2.18-12.068,3.947-17.848a41.254,41.254,0,0,0,1.2-17.6C208.507-310.15,208.509-312.825,207.464-315.668ZM42.579-284.188c-5.049,4.693-4.458,3.056-2.591,11.885C43.488-275.767,43.166-279.795,42.579-284.188ZM70.05-286c-2.581,3.829-3.955,7.181-3.583,9.253C69.941-282.009,70.811-284.3,70.05-286Zm-20.592-3.327c-4.577,1.741-5.693,3.694-4.878,9.073C46.824-283.126,50.35-284.788,49.459-289.326Zm18.693.624-3.415,8.048h0l.687.329c1.01-2.763,2.923-5.074,3.542-8.031l-.814-.346Zm20.891,2.278v5.59c.953-2.045,1.376-3.5,0-5.59Zm5.611-7.988c-.837,4.3-4.153,8.345-1.043,13.007.113-.866.249-1.73.389-2.593l.14-.862A30.674,30.674,0,0,0,94.653-294.411ZM52.464-307.5c-.45-.093-1.024-.269-1.3.324-.208.447.127.824.374,1.17,1.836,2.572,2.591,5.609,3.345,8.664.476,1.929.142,3.4-1.529,4.485a4.639,4.639,0,0,0-2.152,5.084c6.322-2.453,6.322-2.453,12.4,4.255.933-2.366,1.78-4.541,2.65-6.7a2.507,2.507,0,0,0-.039-2.47c-2.682-4.3-5.366-8.608-9.083-12.005A10.164,10.164,0,0,0,52.464-307.5Zm43.882-15.566c-4.194,4.7-7.586,9.39-11.147,13.929-.5.636-.26,1.094.075,1.622,2.21,3.49,2.616,7.479,2.885,11.535a17.385,17.385,0,0,0,2.927,8.918C93.2-299.165,97.35-310.388,96.346-323.069ZM73.078-291.175c-.828,1-2.086,1.788-1.583,3.668A6.6,6.6,0,0,0,73.078-291.175Zm-23.83-14.752c-.922-.234-1.129.839-1.421,1.484-2.33,5.144-2.972,10.668-3.276,16.629,1.337-.9,2.339-1.492,3.091-1.953l.218-.134c2.425-1.5,1.981-1.572,2.188-6.864.1-2.44-.1-4.9-.221-7.342C49.8-304.754,50-305.736,49.248-305.927Zm26.226,4.635a48.18,48.18,0,0,0-5.847,9.578,1.107,1.107,0,0,0,.22,1.416c.346.323.662.035.8-.247a24.377,24.377,0,0,1,1.47-2.539l.291-.449C73.913-295.853,75.456-298.159,75.474-301.292Zm-24.086-1.245v9.456c2.818-3.206,2.624-7.3,0-9.456Zm13.363-55.221c-.132-.308-.375-.225-.6-.085a62.741,62.741,0,0,0-19,9.719,28.482,28.482,0,0,0-9.51,11.818c-1.552,3.791-2.28,7.679-1.071,11.763.279.942.542,1.855,1.72,1.9,7.5.276,11.608,4.851,13.547,12.19.168.633.275,1.548,1.176,1.4,3.426-.566,5.469,1.748,7.549,3.916l.284.294h0l.142.146A87.727,87.727,0,0,1,67.7-293.729,45.327,45.327,0,0,1,75.874-305.9a3.353,3.353,0,0,0,.795-2.416,85.128,85.128,0,0,0-.242-9.2,62.868,62.868,0,0,0-9.663-27.278A15.748,15.748,0,0,1,64.612-357.3C64.664-357.458,64.8-357.652,64.751-357.758Zm18.677,50.907a1.963,1.963,0,0,0,.036,1.879q1.381,3.573,2.771,7.144C86.153-301.169,86.053-304.418,83.428-306.851Zm-3.058.045a3.991,3.991,0,0,0-2.6,4.417C78.556-303.813,79.953-304.836,80.37-306.806Zm29.316-25.4c-.643.034-.994-.051-1.249.081-.417.216-.838.427-1.259.639l-.541.273c-4.08,2.069-7.967,4.327-7.736,10.513a7.368,7.368,0,0,1-.3,1.542,41.032,41.032,0,0,0-.339,12.013ZM78.1-314.783v6.634c2.521-.743,2.539-2.266,0-6.634Zm-.875-45.9c-1.013-.221-1.825.392-1.918,2.115-.1,1.838-.32,3.669-.444,5.505-.981,14.551,2.087,28.4,6.433,42.02.538,1.685,1.107,1.93,2.2.4a106.424,106.424,0,0,1,12-14.282,2.206,2.206,0,0,0,.841-1.813l-.042-.477-.085-.955c-.747-8.271-1.745-16.483-5.942-23.789C87.4-356.944,83.322-360.044,77.226-360.681ZM37.731-321a1.193,1.193,0,0,0-.9.242c-.35.4-.045.8.233,1.121,3.149,3.66,6.948,6.41,10.918,9.25C48.18-314.95,42.094-320.67,37.731-321Zm61.241-72.141c-2.248-3.58-5.3-4.041-8.313-1.246a19.1,19.1,0,0,0-1.6,1.633c-7.042,8.318-10.678,18.355-12.9,29.115-.333,1.616.545,1.713,1.625,1.816,5.57.532,9.655,3.687,12.709,8.475a41.833,41.833,0,0,1,5.027,11.935,68.6,68.6,0,0,1,2.158,14.221,2.174,2.174,0,0,0,1.2-2.015l.013-.179c.008-.118.017-.235.032-.349h0l.726-5.735c.361-2.868.715-5.736,1.042-8.609,1.477-13,2.384-26.024,1.135-39.112C101.49-386.694,100.862-390.134,98.972-393.143Zm7.995-3.065c-3.232-2.224-6.652-3.245-10.752-1.775,4.706,3.936,6.433,7.487,7.2,14.468,1.378,12.563-.051,25.025-1.25,37.489-.524,5.447-1.2,10.878-1.858,16.813,3.027-1.991,5.544-4.043,8.595-4.812a3.872,3.872,0,0,0,2.8-2.576q1.515-3.591,3.21-7.1a33.835,33.835,0,0,1,6.446-9.544c1.116-1.108,2.425-2.106,3.97-1.626,2.153.669,1.97-.461,1.751-1.77l-.043-.258h0l-.014-.087a72.813,72.813,0,0,0-10.216-27.634C114.066-389,111.215-393.284,106.967-396.208Zm19.11,43.6c-1.675-.848-2.97.31-4.137,1.456a17.25,17.25,0,0,0-1.666,1.925c-3.107,4.122-5.089,8.956-7.477,13.532h0l-.062.118c-.25.475-.486.972.286,1.371,2.888,1.488,7.994.577,10.282-1.968,3.077-3.424,3.884-7.76,4.2-12.272q0-.073,0-.146l.007-.293C127.545-350.36,127.541-351.871,126.078-352.612ZM73.57-360.575c-4.87-.824-8.7,2.878-8.417,8.174a10.864,10.864,0,0,0,.949,3.784,58.161,58.161,0,0,0,4.468,7.982l.758,1.187c1.011,1.583,2.018,3.173,2.943,4.824-.181-2.267-.392-4.533-.539-6.8a98.608,98.608,0,0,1,.5-17.326c.01-.086.027-.176.046-.269l.031-.141C74.443-359.757,74.586-360.4,73.57-360.575Zm11.592-30.819c-8.08,8.55-12.724,19.309-17.659,30.414a50,50,0,0,1,5.107-.732c1.62-.06,2.227-.853,2.531-2.479a71.328,71.328,0,0,1,9.878-25.495C85.288-390.106,85.968-390.542,85.162-391.394Z" transform="translate(0 400)" fill="url(#a)" clip-rule="evenodd"/></clipPath><clipPath id="d"><path d="M-391,2194.08H794.684V-2448H-391Z" transform="translate(391 2448)" fill="url(#a)"/></clipPath><clipPath id="g"><rect width="768" height="432"/></clipPath></defs><g id="f" clip-path="url(#g)"><rect width="768" height="432" fill="#fff"/><g transform="translate(64 64)" clip-path="url(#c)"><g transform="translate(-241.46 -1556.48)" clip-path="url(#d)"><path d="M-1-401H704.235V-95.48H-1Z" transform="translate(241.842 1956.72)" fill="url(#a)"/></g></g></g></svg>