<svg xmlns="http://www.w3.org/2000/svg" xmlns:xlink="http://www.w3.org/1999/xlink" width="768" height="432" viewBox="0 0 768 432"><defs><linearGradient id="a" x1="-0.316" y1="0.516" x2="1.538" y2="0.516" gradientUnits="objectBoundingBox"><stop offset="0" stop-color="#6c1c7a"/><stop offset="1" stop-color="#ca0092"/></linearGradient><linearGradient id="b" x1="-0.301" y1="0.513" x2="1.462" y2="0.513" xlink:href="#a"/><linearGradient id="c" x1="-0.232" y1="0.504" x2="1.449" y2="0.504" xlink:href="#a"/><linearGradient id="d" x1="-0.215" y1="0.502" x2="1.389" y2="0.502" xlink:href="#a"/><linearGradient id="e" x1="-0.194" y1="0.502" x2="1.339" y2="0.502" xlink:href="#a"/><linearGradient id="f" x1="-0.155" y1="0.497" x2="1.312" y2="0.497" xlink:href="#a"/><linearGradient id="g" x1="-0.131" y1="0.526" x2="1.274" y2="0.526" xlink:href="#a"/><linearGradient id="h" x1="-0.11" y1="0.537" x2="1.236" y2="0.537" xlink:href="#a"/><linearGradient id="i" x1="-0.097" y1="0.509" x2="1.194" y2="0.509" xlink:href="#a"/><linearGradient id="j" x1="-0.07" y1="0.523" x2="1.169" y2="0.523" xlink:href="#a"/><linearGradient id="k" x1="-0.06" y1="0.517" x2="1.129" y2="0.517" xlink:href="#a"/><linearGradient id="l" x1="-0.052" y1="0.505" x2="1.094" y2="0.505" xlink:href="#a"/><linearGradient id="m" x1="-0.033" y1="0.485" x2="1.075" y2="0.485" xlink:href="#a"/><linearGradient id="n" x1="-0.019" y1="0.495" x2="1.057" y2="0.495" xlink:href="#a"/><linearGradient id="o" x1="-0.018" y1="0.477" x2="1.031" y2="0.477" xlink:href="#a"/><linearGradient id="p" x1="-0.004" y1="0.485" x2="1.024" y2="0.485" xlink:href="#a"/><linearGradient id="q" x1="-0.004" y1="0.483" x2="1.009" y2="0.483" xlink:href="#a"/><linearGradient id="r" x1="0" y1="0.5" x2="1" y2="0.5" xlink:href="#a"/><linearGradient id="s" x1="-0.323" y1="0.492" x2="1.472" y2="0.492" gradientUnits="objectBoundingBox"><stop offset="0" stop-color="#6c1c7a"/><stop offset="0.62" stop-color="#ca0092"/><stop offset="1" stop-color="#c72f34"/></linearGradient><linearGradient id="t" x1="-0.314" y1="0.502" x2="1.479" y2="0.502" xlink:href="#s"/><linearGradient id="u" x1="-0.324" y1="0.524" x2="1.474" y2="0.524" xlink:href="#s"/><linearGradient id="v" x1="-0.355" y1="0.512" x2="1.464" y2="0.512" xlink:href="#s"/><linearGradient id="w" x1="-0.368" y1="0.525" x2="1.472" y2="0.525" xlink:href="#s"/><linearGradient id="x" x1="-0.389" y1="0.536" x2="1.405" y2="0.536" xlink:href="#s"/><linearGradient id="y" x1="-0.375" y1="0.551" x2="1.39" y2="0.551" xlink:href="#s"/><linearGradient id="z" x1="-0.345" y1="0.552" x2="1.302" y2="0.552" xlink:href="#s"/><linearGradient id="aa" x1="-0.267" y1="0.552" x2="1.279" y2="0.552" xlink:href="#s"/><linearGradient id="ab" x1="-0.236" y1="0.546" x2="1.225" y2="0.546" xlink:href="#s"/><linearGradient id="ac" x1="-0.197" y1="0.553" x2="1.191" y2="0.553" xlink:href="#s"/><linearGradient id="ad" x1="-0.15" y1="0.556" x2="1.174" y2="0.556" xlink:href="#s"/><linearGradient id="ae" x1="-0.113" y1="0.541" x2="1.16" y2="0.541" xlink:href="#s"/><linearGradient id="af" x1="-0.079" y1="0.537" x2="1.151" y2="0.537" xlink:href="#s"/><linearGradient id="ag" x1="-0.063" y1="0.544" x2="1.13" y2="0.544" xlink:href="#s"/><linearGradient id="ah" x1="-0.029" y1="0.541" x2="1.127" y2="0.541" xlink:href="#s"/><linearGradient id="ai" x1="-0.012" y1="0.548" x2="1.071" y2="0.548" xlink:href="#s"/><linearGradient id="aj" x1="0.019" y1="0.544" x2="1.036" y2="0.544" xlink:href="#s"/><clipPath id="al"><rect width="768" height="432"/></clipPath></defs><g id="ak" clip-path="url(#al)"><rect width="768" height="432" fill="#fff"/><g transform="translate(64.001 114.672)"><path d="M133.552,378.855a117.417,117.417,0,0,1-24.415-2.721A99.84,99.84,0,0,1,61.55,350.085c-40.589-35.923-44.477-65-40.666-83.043a39.889,39.889,0,0,1,13.685-22.627,72.391,72.391,0,0,0,17.5-23.949c10.964-23.327,8.32-43.232,5.987-60.727s-4.51-34.213,7.776-50.619c5.832-7.776,16.484-14.152,37.712-26.67a310.322,310.322,0,0,1,47.975-22.7l13.607-5.521a368.332,368.332,0,0,0,57.773-28.77,41.91,41.91,0,0,1,22.16-8.553h3.577c46.654,0,81.1,58.784,94.474,94.4,1.555,3.966,36.234,98.361-7.076,141.05-13.841,13.607-28.614,15.007-44.243,16.407a87.475,87.475,0,0,0-54.429,19.672,103.1,103.1,0,0,0-29,40.278c-6.843,14.851-13.3,28.925-32.347,39.422A87.008,87.008,0,0,1,133.552,378.855ZM248.631,17.678h-3.5a39.889,39.889,0,0,0-21.227,8.709A370.429,370.429,0,0,1,165.9,55.311l-13.607,5.521a315.068,315.068,0,0,0-47.82,22.549c-21.15,12.519-31.725,18.739-37.4,26.437-11.9,16.018-9.875,31.647-7.776,49.764s4.976,37.712-6.065,61.35A75.89,75.89,0,0,1,35.424,245.27a38.256,38.256,0,0,0-13.685,22c-3.81,17.728,0,46.654,40.278,81.877a98.751,98.751,0,0,0,47.353,26.2A94.473,94.473,0,0,0,175.7,367.58c18.661-10.342,25.037-24.182,31.88-38.878A102.794,102.794,0,0,1,236.5,287.647a88.8,88.8,0,0,1,55.207-19.983c15.551-1.4,29.936-2.721,43.466-16.1,42.844-42.144,8.4-135.84,6.843-139.961C328.8,76.228,294.43,17.678,248.631,17.678Z" transform="translate(133.779 114.595)" fill="url(#a)"/><path d="M135.177,381.085a112.9,112.9,0,0,1-33.9-5.443h0a102.794,102.794,0,0,1-46.654-31.1c-38.256-40.9-39.578-71.3-33.979-89.575A40.2,40.2,0,0,1,36.66,232.882,77.056,77.056,0,0,0,56.8,209.555c13.374-23.327,12.441-43.932,11.663-62.2S66.985,111.582,80.981,95.8c6.687-7.776,18.195-13.141,41.133-24.182a314.76,314.76,0,0,1,51.164-18.973l14.385-4.588a377.656,377.656,0,0,0,62.2-24.493,43,43,0,0,1,22.238-6.842h1.089c49.686,1.244,81.1,67.57,91.83,106.6,1.166,4.2,28.07,104.971-20.217,145.093-15.551,12.83-30.636,12.83-46.654,12.908a88.642,88.642,0,0,0-57.617,15.551A105.36,105.36,0,0,0,207.49,336.3c-8.4,14.7-16.329,28.614-36.779,37.712A85.531,85.531,0,0,1,135.177,381.085Zm-33.591-6.609h0a96.184,96.184,0,0,0,68.581-1.788c20.061-8.942,27.914-22.7,36.157-37.245a107.458,107.458,0,0,1,33.435-39.811,91.208,91.208,0,0,1,58.317-15.551c15.551,0,31.1,0,46.032-12.6,47.742-39.656,20.994-139.961,19.828-143.849C353.283,84.912,322.259,18.9,273.194,17.964a40.744,40.744,0,0,0-22.86,6.687,374.315,374.315,0,0,1-62.2,24.493c-5.132,1.633-9.875,3.11-14.463,4.432a323.781,323.781,0,0,0-51.008,18.972C100.032,83.512,88.6,88.878,82.07,96.653c-13.607,15.551-12.908,31.8-12.13,50.7s1.633,39.5-11.819,62.982a77.755,77.755,0,0,1-20.45,23.327A38.878,38.878,0,0,0,22.12,255.2c-5.443,18.039-4.043,47.976,33.746,88.409a101.938,101.938,0,0,0,45.876,31.1Z" transform="translate(123.368 113.375)" fill="url(#b)"/><path d="M135.167,381.22a110.8,110.8,0,0,1-42.921-9.175h0a104.66,104.66,0,0,1-44.554-36.7c-35.457-45.8-34.057-77.29-26.67-95.718A42.066,42.066,0,0,1,39.45,218.321a79.389,79.389,0,0,0,22.783-22.083c15.551-22.7,16.718-44.321,17.651-63.293S81.594,95.855,97.3,80.77c7.776-7.231,19.828-11.9,44.243-21.15a320.97,320.97,0,0,1,54.429-14.929l15.162-3.266a374.471,374.471,0,0,0,65.548-19.595,44.01,44.01,0,0,1,24.726-4.9c50.775,5.909,76.9,77.756,84.288,118.656.778,4.51,19.206,111.036-33.979,147.737-16.951,11.819-32.58,10.419-49.064,9.02-18.039-1.633-36.7-3.266-60.417,10.5a109.792,109.792,0,0,0-37.478,37.712C194.729,355.4,185.4,368.7,163.626,376.477A86.54,86.54,0,0,1,135.167,381.22ZM92.713,370.956h0a98.517,98.517,0,0,0,70.447,4.432c21.383-7.776,30.636-20.916,40.433-35.146a111.113,111.113,0,0,1,37.789-38.1,92.762,92.762,0,0,1,61.194-10.653c16.329,1.477,31.724,2.8,48.286-8.786,52.563-36.623,34.213-142.449,33.435-146.959-7.309-40.9-33.124-111.813-83.2-117.567A41.833,41.833,0,0,0,276.995,23,384.429,384.429,0,0,1,211.213,42.67L196.05,45.858a331.325,331.325,0,0,0-53.885,14.929C117.828,69.962,105.62,74.627,98.233,81.7,82.682,96.4,82.06,113.35,81.2,133.022s-1.944,40.9-17.884,63.915a81.488,81.488,0,0,1-23.327,22.394,40.667,40.667,0,0,0-18.039,20.761c-7.231,18.117-8.553,49.22,26.515,94.474a104.5,104.5,0,0,0,44.321,36.39Z" transform="translate(113.658 113.474)" fill="url(#c)"/><path d="M134.452,379.493a109.869,109.869,0,0,1-93.774-55.907C8.565,273.045,12.841,240.543,22.094,222.5a43.854,43.854,0,0,1,20.839-20.372,80.166,80.166,0,0,0,25.348-21.15c18.273-22,21.227-44.243,23.871-63.838s5.132-38.178,22.627-52.252c8.4-6.843,21.383-10.5,47.276-17.806a330.075,330.075,0,0,1,56.917-10.419l15.551-2.022a386.217,386.217,0,0,0,68.97-14.152,44.71,44.71,0,0,1,25.971-2.8c51.475,10.886,71.691,87.165,75.5,130.552.389,4.743,9.564,116.634-48.364,149.992-18.428,10.653-34.29,7.776-51.086,4.821-18.273-3.344-37.245-6.765-62.827,5.287A112.98,112.98,0,0,0,200.856,343.8C189.425,357.877,178.54,371.1,155.6,376.85a84.289,84.289,0,0,1-21.15,2.644ZM321.067,18.239a60.416,60.416,0,0,0-17.184,3.577,383.96,383.96,0,0,1-69.125,14.307l-15.551,1.944A324.4,324.4,0,0,0,162.522,48.8c-25.815,7.231-38.878,10.886-46.654,17.5-17.106,13.841-19.439,31.1-22.238,51.475s-5.676,42.144-24.1,64.46A81.1,81.1,0,0,1,43.866,203.22a42.066,42.066,0,0,0-20.372,19.906C14.4,241.165,10.2,273.123,42,323.2a108.237,108.237,0,0,0,41.833,41.677h0a99.684,99.684,0,0,0,71.458,10.5c22.549-5.676,33.28-18.739,44.632-32.58a113.29,113.29,0,0,1,42.221-35.846,94.474,94.474,0,0,1,63.6-5.443c16.562,3.032,32.191,5.832,50.23-4.588,57.151-33.046,48.131-144.082,47.664-148.825-3.732-43-23.327-118.578-74.49-129.231a43.078,43.078,0,0,0-7.853-.622Z" transform="translate(104.265 114.578)" fill="url(#d)"/><path d="M132.639,375.439A108.314,108.314,0,0,1,73.155,356h0a113.136,113.136,0,0,1-39.5-47.353c-27.992-55.207-20.916-88.409-9.72-106.759a44.865,44.865,0,0,1,23.327-19.128A84.132,84.132,0,0,0,75.1,163.709c20.683-21.072,25.815-43.777,30.247-63.76s8.786-38.878,27.992-52.019c9.253-6.22,22.86-8.786,50.075-14a334.353,334.353,0,0,1,59.172-5.521,150.24,150.24,0,0,0,16.406-.622,391.9,391.9,0,0,0,71.847-8.32,45.721,45.721,0,0,1,26.593-.467c51.786,15.551,65.471,96.573,65.393,141.749,0,4.976-.855,121.377-63.138,150.614-19.906,9.331-35.923,4.9-52.8,0-18.428-5.132-37.556-10.419-64.849,0a116.634,116.634,0,0,0-46.032,32.813c-13.063,13.452-25.348,26.126-49.375,30.014A91.441,91.441,0,0,1,132.639,375.439Zm213.6-356.667a76.668,76.668,0,0,0-15.551,2.255,395.78,395.78,0,0,1-72.158,8.32c-5.754,0-11.2.467-16.329.622a331.167,331.167,0,0,0-58.939,5.521c-27.059,5.132-40.667,7.776-49.608,13.763-18.506,12.674-22.472,30.558-26.9,51.552s-9.875,42.688-31.1,64.071a84.677,84.677,0,0,1-28.225,19.284,43.621,43.621,0,0,0-22.627,18.661c-10.964,17.806-18.195,50.541,9.8,105.2a112.592,112.592,0,0,0,38.878,46.654h0a101.938,101.938,0,0,0,72.78,18.273c23.327-3.81,35.768-16.329,48.675-29.625A116.634,116.634,0,0,1,241.575,310.2a96.65,96.65,0,0,1,65.626,0c16.718,4.665,32.5,9.02,51.863,0,61.583-28.925,62.2-144.549,62.2-149.447,0-44.787-13.452-124.876-64.46-140.427A33.2,33.2,0,0,0,346.235,18.772Z" transform="translate(95.426 117)" fill="url(#e)"/><path d="M130.3,368.945a108.081,108.081,0,0,1-67.181-25.893h0a117.411,117.411,0,0,1-36.079-52.641c-23.871-59.717-13.3-93.307,0-110.958a46.654,46.654,0,0,1,25.5-17.651,85.532,85.532,0,0,0,30.247-17.184c23.327-19.828,30.4-42.844,36.779-63.06s12.6-39.5,33.435-51.163c10.031-5.6,24.182-7,52.563-9.875a349.282,349.282,0,0,1,61.116,0l16.8.933a407.519,407.519,0,0,0,74.179-2.41,45.643,45.643,0,0,1,27.215,2.022c51.552,21.15,58.239,105.826,54.04,152.48-.467,5.132-12.052,125.421-78.456,149.836-21.227,7.776-37.167,1.788-54.429-4.588-18.428-7-37.478-14.229-66.326-6.376a120.288,120.288,0,0,0-50.153,29.7c-14.54,12.674-28.3,24.727-53.341,26.437A28.674,28.674,0,0,1,130.3,368.945ZM63.976,341.73h0a104.892,104.892,0,0,0,72.469,25.349c24.493-1.788,38.1-13.607,52.563-26.126a120.755,120.755,0,0,1,50.619-29.936c29.314-7.776,49.453,0,67.259,6.376s32.346,12.286,53.03,4.665c65.7-24.182,77.134-143.615,77.756-148.67,4.2-46.654-2.333-130.319-53.107-151.158a44.554,44.554,0,0,0-26.592-1.866,405.026,405.026,0,0,1-74.646,1.944l-16.8-.933a339.87,339.87,0,0,0-60.883,0c-28.148,2.8-42.3,4.2-52.1,9.642C133.179,42.447,127.5,60.486,120.816,81.4s-13.841,43.621-37.245,63.76a85.92,85.92,0,0,1-30.558,17.651A44.554,44.554,0,0,0,28.131,180c-12.908,17.417-23.327,50.541.389,109.714a116.634,116.634,0,0,0,35.69,52.019Z" transform="translate(86.954 121.006)" fill="url(#f)"/><path d="M127.344,370.785h-1.555a108.158,108.158,0,0,1-72.624-33.357h0a121.767,121.767,0,0,1-32.113-57.773c-19.206-63.915-5.365-97.662,9.642-114.846a47.509,47.509,0,0,1,27.759-15.551,88.1,88.1,0,0,0,32.5-14.929c25.5-18.428,35.068-41.522,43.543-62.2S150.9,32.468,173.375,22.36c10.808-4.9,25.5-5.054,54.429-5.365a345.624,345.624,0,0,1,62.672,5.365l17.106,2.488a407.673,407.673,0,0,0,76.357,4.821A47.742,47.742,0,0,1,411.7,34.257c50.853,26.593,49.919,114.768,41.288,162.666-.933,5.21-23.327,128.531-94.007,147.737-22.394,6.065-38.256-1.633-54.973-9.8-18.195-8.942-37.012-18.117-67.337-12.674a122,122,0,0,0-54.429,26.048C167.077,359.9,152.148,370.785,127.344,370.785Zm-73.4-34.368h0a106.448,106.448,0,0,0,71.847,32.891h1.555c24.338,0,38.878-10.808,54.429-22.16A123.943,123.943,0,0,1,236.2,320.788c30.714-5.521,50.619,4.2,68.192,12.83s32.035,15.551,53.963,9.642c69.436-18.895,92.141-141.361,93.307-146.57C460.14,149.258,461.15,61.86,411,35.579a45.876,45.876,0,0,0-27.059-4.432,410.158,410.158,0,0,1-76.59-4.821l-17.106-2.488a342.124,342.124,0,0,0-62.2-5.287c-29.159,0-43.7.467-54.429,5.21-21.927,9.875-29.47,27.992-38.178,48.986s-18.117,43.777-43.932,62.2a89.264,89.264,0,0,1-32.969,15.162A45.72,45.72,0,0,0,31.47,165.665C16.7,182.46,3.012,215.74,21.829,279.033a120.989,120.989,0,0,0,31.8,57.151Z" transform="translate(79.027 115.2)" fill="url(#g)"/><path d="M123.448,374.4q-4.2,0-8.864-.467A111.114,111.114,0,0,1,43.048,332.8a127.675,127.675,0,0,1-27.6-62.671C1.837,202.325,19.1,169.046,36.05,152.406a48.831,48.831,0,0,1,29.858-13.841,89.809,89.809,0,0,0,34.679-12.441c27.759-16.64,39.656-39.656,50.153-59.872s20.528-39.5,44.4-47.9c11.43-4.043,26.515-2.8,56.451-.467a364.829,364.829,0,0,1,63.682,11.275c5.443,1.4,11.119,2.8,17.34,4.2a419.883,419.883,0,0,0,77.756,12.052,47.742,47.742,0,0,1,27.992,7.231c49.608,32.191,40.589,123.243,27.448,171.919-1.4,5.365-36.157,130.708-109.792,144-23.327,4.2-38.878-5.21-55.362-15.551-17.884-10.808-36.39-22.083-67.881-19.283a124.41,124.41,0,0,0-57.7,22C159.6,365.458,144.83,374.4,123.448,374.4ZM214.966,17.188a56.918,56.918,0,0,0-19.361,2.566c-23.327,8.164-32.735,26.282-43.543,47.12s-22.627,43.621-50.7,60.494a91.986,91.986,0,0,1-35.224,12.674,46.654,46.654,0,0,0-28.692,13.452C20.81,169.512,3.781,202.636,17.233,270.129a125.965,125.965,0,0,0,27.37,62.2h0A108.858,108.858,0,0,0,115.128,373c25.815,2.8,42.222-7.154,59.561-17.651a125.577,125.577,0,0,1,58.395-22.16c31.958-2.955,51.474,8.942,68.659,19.517s31.1,19.05,54.429,15.007c72.78-13.141,107.3-137.628,108.858-142.916C478.093,176.433,487.113,86.158,438.2,54.433a46.654,46.654,0,0,0-27.37-7.076,416.307,416.307,0,0,1-77.756-12.052l-17.262-4.121A349.9,349.9,0,0,0,252.445,19.91C235.727,17.888,224.064,17.188,214.966,17.188Z" transform="translate(71.415 106.609)" fill="url(#h)"/><path d="M344.642,392.439c-20.916,0-34.679-10.342-49.22-21.15-17.5-12.6-35.068-25.5-67.492-25.5h0a128.376,128.376,0,0,0-61.116,17.34c-18.973,9.486-36.856,18.351-63.6,12.985A114.3,114.3,0,0,1,33.7,326.968h0a133.818,133.818,0,0,1-22.549-67.337c-7.776-71.38,13.063-104.5,31.88-119.744a49.842,49.842,0,0,1,31.647-11.819,89.652,89.652,0,0,0,36.7-9.642c29.936-14.7,44.243-37.323,56.84-57.306s24.571-38.878,49.764-45.41c12.13-3.11,27.448-.467,58.006,4.743a367.168,367.168,0,0,1,64.149,17.417c5.443,1.866,11.119,3.888,17.262,5.909a427.659,427.659,0,0,0,78.534,19.595A49.453,49.453,0,0,1,463.92,73.484c47.9,37.867,30.325,131.1,12.441,180.239-1.944,5.365-48.909,132.185-125.654,138.717ZM228.008,343.608c32.891,0,51.786,14.074,68.425,26.515s30.325,22.7,54.429,20.528c75.734-6.92,122.388-132.185,124.41-137.706C493.079,204.192,510.5,111.74,463.3,74.106a47.2,47.2,0,0,0-27.292-9.8,424.083,424.083,0,0,1-78.767-19.672c-6.143-2.022-11.9-3.966-17.34-5.909a370.428,370.428,0,0,0-63.838-17.5c-30.325-5.132-45.565-7.776-57.384-4.743-24.649,6.376-35.846,24.182-48.909,44.788S142.321,104.742,112,119.671a92.452,92.452,0,0,1-37.167,9.8,47.509,47.509,0,0,0-31.1,11.2c-18.506,15.007-38.878,47.742-31.1,118.423A132.185,132.185,0,0,0,34.94,325.724h0a112.591,112.591,0,0,0,68.581,48.52c26.2,5.287,43.854-3.5,62.594-12.83a128.765,128.765,0,0,1,61.816-17.5Z" transform="translate(64.205 97.511)" fill="url(#i)"/><path d="M343.915,415.107c-25.193,0-39.5-12.908-54.429-26.593-16.562-14.929-33.591-30.4-66.948-33.357a130.786,130.786,0,0,0-64.149,12.363c-20.217,7.776-39.422,15.551-66.326,7.776a117.411,117.411,0,0,1-66.637-57.229h0A139.183,139.183,0,0,1,8.475,246.454C7.075,171.964,31.8,139.617,52.1,125.621a50.308,50.308,0,0,1,33.668-9.02,93.307,93.307,0,0,0,38.411-6.609c31.958-12.441,48.675-34.524,63.449-53.963s28.692-37.945,55.129-42.377c12.674-2.1,28.148,2.022,58.939,10.264a371.133,371.133,0,0,1,64.071,24.1L382.948,55.8A427.11,427.11,0,0,0,461.56,83.244a50.7,50.7,0,0,1,27.759,13.063c45.565,43.543,19.05,138.328-3.81,187.47-2.488,5.365-62.2,131.641-141.283,131.719ZM212.2,352.9q5.054,0,10.264.466c33.824,2.955,51.863,19.284,67.8,33.668s29,26.2,53.652,26.2h0c78.223,0,137.4-125.5,139.961-130.786C506.58,233.624,532.94,139.695,488,96.7a48.131,48.131,0,0,0-27.059-12.6,438.933,438.933,0,0,1-78.845-27.6L364.909,48.72a370.892,370.892,0,0,0-64.071-23.638C270.2,16.918,254.884,12.8,242.521,14.9c-25.815,4.277-38.878,21.616-54.429,41.755s-31.725,41.911-64.149,54.429a96.261,96.261,0,0,1-38.878,6.687,48.753,48.753,0,0,0-32.813,8.709C31.879,140.317,7.931,172.275,9.33,245.987a137.628,137.628,0,0,0,16.8,70.913h0c16.64,29.081,39.422,48.675,65.7,56.529s45.332.467,65.315-7.776A141.36,141.36,0,0,1,212.2,353.213Z" transform="translate(56.846 88.917)" fill="url(#j)"/><path d="M343.437,436.867a65.631,65.631,0,0,1-6.765,0c-25.893-2.255-39.422-16.951-53.652-32.58-15.551-16.951-31.647-34.446-65.471-40.589a132.184,132.184,0,0,0-66.87,6.842c-21.461,6.376-41.755,12.363-68.581,1.633s-48.364-33.357-62.982-65.315h0A146.181,146.181,0,0,1,8.231,231.2C13.6,154.146,41.51,122.888,63.982,110.369a51.319,51.319,0,0,1,35.3-6.22,93.929,93.929,0,0,0,39.889-3.343c33.9-9.875,53.03-31.1,69.98-49.919s32.891-36.545,60.339-38.878c13.3-.933,28.692,4.665,59.406,16.018a383.8,383.8,0,0,1,63.449,31.1l16.873,9.564a450.984,450.984,0,0,0,77.756,35.69A51.241,51.241,0,0,1,514.19,120.4c42.688,49.22,6.92,144.782-20.916,193.379C490.4,318.6,421.738,436.867,343.437,436.867Zm-145.948-76.9a113.991,113.991,0,0,1,20.372,1.866c34.29,6.22,51.319,24.727,66.326,41.133S311.557,432.512,336.75,435C416.917,442.154,489,317.9,492.263,312.613c27.6-48.287,63.216-142.994,21.15-191.591A49.531,49.531,0,0,0,486.82,105.47,443.208,443.208,0,0,1,408.6,69.7l-16.873-9.564a383.958,383.958,0,0,0-63.216-30.714c-30.558-11.2-45.876-16.951-58.706-15.94-26.826,2.1-41.833,18.817-59.25,38.178S174.24,92.1,139.872,102.049a94.318,94.318,0,0,1-40.511,3.343,50.231,50.231,0,0,0-34.368,5.987c-22.16,12.441-49.608,43.232-54.9,119.667a144.238,144.238,0,0,0,10.73,74.8h0c14.385,31.647,35.923,53.963,62.2,64.46s46.654,4.665,67.57-1.633A156.838,156.838,0,0,1,197.489,359.966Z" transform="translate(48.459 80.765)" fill="url(#k)"/><path d="M341.105,457.868a78.541,78.541,0,0,1-14.152-1.322c-26.282-4.743-38.878-21.15-51.941-38.878C260.628,398.7,245.7,378.79,211.642,369.614a134.984,134.984,0,0,0-69.047.855c-22.627,4.665-43.932,9.02-69.98-4.665s-46.654-38.878-58.55-73.246H13.6a152.091,152.091,0,0,1-4.2-79.233C21.917,134.169,53.33,104.466,77.435,93.5a52.874,52.874,0,0,1,36.779-3.11,95.562,95.562,0,0,0,41.133,0c35.69-7.076,57.151-27.37,76.2-45.176S268.17,10.77,295.929,10.77h.933c13.607,0,28.925,7.776,59.406,22.083a392.125,392.125,0,0,1,62.2,37.634c5.21,3.655,10.575,7.776,16.484,11.43a451.537,451.537,0,0,0,76.279,44.71,53.417,53.417,0,0,1,26.437,19.128c38.878,54.818-6.221,150.225-38.878,197.967C495.684,348.62,418.939,457.868,341.105,457.868ZM181.317,364.094a113.135,113.135,0,0,1,31.1,4.2c34.446,9.72,50,30.4,63.838,48.6,13.063,17.106,25.348,33.357,50.93,37.945,81.488,14.774,166.553-106.915,170.13-112.124,32.735-47.353,77.756-141.983,38.878-196.1A50.7,50.7,0,0,0,510.458,128.1a455.186,455.186,0,0,1-76.823-44.243l-16.484-11.43a387.931,387.931,0,0,0-62.2-37.556C324.7,20.412,309.536,13.18,296.318,12.947h-.933c-27.137,0-43.932,15.551-63.293,33.979S191.27,85.338,155.113,92.569a98.517,98.517,0,0,1-41.755,0A50.308,50.308,0,0,0,77.59,95.6c-23.171,10.264-54.04,39.811-66.481,118.345A150.381,150.381,0,0,0,15.23,292.48h0C27.126,326.46,47.032,351.5,73,364.871s46.654,9.02,69.281,4.432A192.525,192.525,0,0,1,181.317,364.094Z" transform="translate(40.838 73.06)" fill="url(#l)"/><path d="M337.177,476.3a83.353,83.353,0,0,1-22.316-2.955c-26.515-7.309-37.789-25.5-49.686-44.71-12.985-20.916-26.437-42.61-60.416-55.518-27.526-10.419-49.531-7.776-70.836-5.443-23.327,2.721-45.8,5.21-71.613-11.275S18.144,311.841,9.046,275.218a160.489,160.489,0,0,1,2.877-82.266C32.062,112.241,67.052,84.482,92.634,75.385a53.185,53.185,0,0,1,37.867,0,99.061,99.061,0,0,0,42.144,4.121c37.167-4.043,61.038-23.327,82.11-39.733s41.055-32.5,69.98-29.47c13.918,1.4,28.925,10.342,58.784,28.225A407.445,407.445,0,0,1,443.7,83.16c4.976,4.277,10.186,8.709,15.551,13.374a466.54,466.54,0,0,0,74.413,52.641,55.129,55.129,0,0,1,25.348,22.16c35.068,60.339-20.061,154.735-58.239,201.077C497.277,377.156,414.622,476.3,337.177,476.3ZM162.848,363.782a115.547,115.547,0,0,1,42.455,7.776c34.6,13.141,48.831,36,61.35,56.14,11.741,18.972,22.783,36.856,48.675,44.01,81.955,22.782,180.316-95.173,184.437-100.228,37.867-45.954,92.685-139.961,58.084-199.133-6.531-11.119-12.208-14.385-24.727-21.538a471.121,471.121,0,0,1-74.646-52.8c-5.676-4.665-10.808-9.1-15.551-13.374a402.931,402.931,0,0,0-59.95-44.476c-29.7-17.728-44.554-26.593-58.084-28.07-28.3-2.955-47.042,11.974-68.814,29.236s-45.332,35.923-82.966,39.967a99.606,99.606,0,0,1-42.844-4.121,51.785,51.785,0,0,0-36.856,0c-25.271,8.942-59.639,36.39-79.544,116.634a158.078,158.078,0,0,0-3.188,81.022h0C19.7,311.141,37.894,338.822,63.164,355s47.353,13.685,70.6,11.041a249.278,249.278,0,0,1,29.081-2.255Z" transform="translate(34.037 67.385)" fill="url(#m)"/><path d="M331.945,493.579a87.708,87.708,0,0,1-31.1-5.521c-26.437-10.031-36.312-29.781-46.654-50.775-11.43-22.86-23.327-46.654-56.84-62.9-27.215-13.374-50-12.83-72-12.208-24.338.622-47.431,1.166-72.391-18.273S11.668,293.824,5.6,255.023h0a167.176,167.176,0,0,1,10.575-84.676C44.092,88.781,82.348,63.277,109.485,56.2a54.9,54.9,0,0,1,38.878,3.655,99.994,99.994,0,0,0,40.2,8.164h2.566c38.334-.778,64.538-18.117,87.709-33.435s45.021-29.858,74.335-24.1c14.152,2.8,28.614,13.452,57.539,34.6a412.809,412.809,0,0,1,57.617,51.786c4.665,4.821,9.564,9.875,14.929,15.551a482.079,482.079,0,0,0,71.38,61.272,56.529,56.529,0,0,1,24.027,24.96c30.48,65.548-34.679,158.078-77.756,202.166C496.477,405.326,409.312,493.579,331.945,493.579ZM138.566,360.149a126.9,126.9,0,0,1,59.095,12.985c34.213,16.718,46.654,41.755,57.617,63.76,10.264,20.605,19.983,40.122,45.8,49.919,81.955,31.1,193.379-81.8,198.045-86.62,43-44.01,107.692-135.762,77.756-200.455-5.676-12.052-11.2-16.018-23.327-24.493a485.281,485.281,0,0,1-71.613-61.505c-5.365-5.365-10.264-10.419-15.007-15.551a416.228,416.228,0,0,0-57.073-51.63c-28.77-21.072-43.232-31.647-56.917-34.368-28.77-5.6-49.3,7.776-73.168,23.871s-49.686,32.969-88.642,33.824a102.483,102.483,0,0,1-43.466-8.242,52.952,52.952,0,0,0-37.712-3.577c-26.748,6.765-64.46,31.958-92.141,112.9A165.7,165.7,0,0,0,7.391,254.79h0c5.987,38.334,22,68.659,46.654,87.709s47.2,18.506,71.225,17.884Q131.684,360.149,138.566,360.149Z" transform="translate(27.838 62.386)" fill="url(#n)"/><path d="M325.719,509.2a93.308,93.308,0,0,1-41.366-8.942c-26.2-12.83-34.446-34.213-43.232-56.84-9.642-24.726-19.517-50.153-52.485-70.369-26.593-16.251-50-17.728-72.546-19.206-25.037-1.633-48.675-3.11-72.469-25.582S6.142,272.665,3.5,232h0A174.562,174.562,0,0,1,22,145.456C58.083,63.657,99.76,40.874,128.064,36.131a55.6,55.6,0,0,1,39.422,7.309A102.56,102.56,0,0,0,210.8,55.8c39.5,2.8,67.8-12.752,92.919-26.437s48.52-26.748,78.145-17.806c14.152,4.2,28.07,16.484,55.829,41.133a425.318,425.318,0,0,1,54.429,58.784l13.607,16.717a500.983,500.983,0,0,0,67.492,69.98c11.586,9.875,17.34,14.851,22.161,28.381,25.193,70.525-49.919,160.178-98.362,202.166C492.584,432.532,402.931,509.2,325.719,509.2ZM5.287,231.921h0c2.644,40.122,16.329,73.013,39.578,94.94s46.654,23.327,71.3,25.115c22.86,1.477,46.654,2.955,73.4,19.439,33.513,20.528,44.01,47.431,53.185,71.225,8.709,22.316,16.873,43.388,42.377,55.907,81.177,39.656,205.587-66.715,210.719-71.3,48.053-41.522,122.7-130.4,97.817-199.989-4.665-13.063-9.953-17.651-21.616-27.6a494.992,494.992,0,0,1-67.726-69.98c-4.976-6.065-9.564-11.741-13.918-17.184a432.091,432.091,0,0,0-54.118-58.706C408.763,29.366,395,17.159,381.16,13.038,352.312,4.562,330,16.77,304.1,30.921S250.3,60.391,210.8,57.592a103.8,103.8,0,0,1-43.777-12.519,53.419,53.419,0,0,0-38.334-7.154C100.693,42.585,59.794,65.134,24.1,146.156A173.707,173.707,0,0,0,5.675,231.688Z" transform="translate(22.478 58.507)" fill="url(#o)"/><path d="M318.725,523.189a99.917,99.917,0,0,1-52.952-13.607c-25.66-15.551-32.191-38.878-38.878-62.749-7.776-26.359-15.551-53.652-47.276-77.756-25.737-19.283-49.531-23.327-72.546-26.593-25.5-3.966-49.531-7.776-71.847-33.124S1.714,248.71,2.725,206.488h0A183.349,183.349,0,0,1,29.551,118.7C74.027,37.835,118.581,17.774,148.129,15.441a57.462,57.462,0,0,1,39.733,11.2,104.427,104.427,0,0,0,42.921,16.8c40.122,6.454,70.6-6.92,97.506-18.817S380.775,1.29,410.322,13.264c14.152,5.6,27.215,19.672,53.341,47.587a449.754,449.754,0,0,1,50.153,65.782c3.965,6.065,7.776,12.363,12.674,19.05a515.062,515.062,0,0,0,62.749,78.767c10.886,11.2,16.406,16.873,20.061,31.1,19.361,75.268-65.782,161.033-119.2,199.755C485.435,458.651,395.549,523.189,318.725,523.189ZM154.038,17.074h-5.754C119.2,19.329,75.271,38.924,31.65,119.323A181.094,181.094,0,0,0,4.591,206.488h0c-1.011,41.833,10.031,76.979,31.8,101.861s45.643,28.536,70.758,32.5c23.327,3.655,47.2,7.776,73.4,26.9,32.424,24.26,40.666,53.107,47.976,78.534,6.765,23.871,13.219,46.654,38.256,61.661,79.234,48.442,216.473-50,222.227-54.429,52.8-38.256,137.551-123.243,118.5-197.578-3.577-13.918-8.631-19.05-19.672-30.4a519.727,519.727,0,0,1-62.9-78.845c-4.588-6.765-8.709-13.063-12.674-19.05a438.779,438.779,0,0,0-49.919-65.471C436.371,34.336,423.463,20.418,409.623,14.9c-28.77-11.352-52.8-.389-80.555,11.43s-57.928,25.5-98.284,19.283a106.526,106.526,0,0,1-43.621-17.029A55.6,55.6,0,0,0,154.038,17.074Z" transform="translate(18.042 55.559)" fill="url(#p)"/><path d="M311.8,547.352a108.859,108.859,0,0,1-66.637-19.595c-24.8-18.584-29.47-42.766-34.29-68.425-5.365-27.992-10.886-56.917-41.366-84.521-24.649-22.316-48.675-28.3-71.847-34.213-25.737-6.454-50.075-12.519-70.6-40.822S-1.483,233.762,3.727,190.219a190.424,190.424,0,0,1,34.99-88.253c52.33-79,99.372-95.8,129.93-95.8h.933a58.473,58.473,0,0,1,39.656,15.551,106.681,106.681,0,0,0,42.455,21.305c40.433,10.419,72.935-.622,101.549-10.419s55.907-19.361,84.987-4.432c14,7.154,26.2,22.86,50.386,54.429a462.95,462.95,0,0,1,45.254,72.546c3.421,6.3,7.231,12.985,11.2,20.761a535.883,535.883,0,0,0,57.073,86.931c10.108,12.674,15.551,19.05,17.728,34.213,12.908,79.622-82.11,160.411-139.961,195.556C475.084,495.256,387.453,547.352,311.8,547.352ZM168.57,8.114c-30.014,0-76.357,16.64-128.22,94.862A190.58,190.58,0,0,0,5.126,190.452h0C.305,233.529,8.314,270.929,28.453,298.611s44.01,33.746,69.436,40.122c23.327,5.909,47.664,11.974,72.7,34.6,31.1,28.07,36.779,58.628,41.911,85.532,4.821,25.271,9.331,49.142,33.591,67.259,76.745,57.462,226.193-31.647,232.491-35.534C536.356,455.833,630.6,375.745,618,297.211c-2.41-14.774-7.076-20.605-17.34-33.357a542.807,542.807,0,0,1-57.228-87.242c-4.043-7.387-7.776-14.229-11.275-20.839a458.762,458.762,0,0,0-45.1-72.313c-24.027-31.1-36.079-46.654-49.686-53.652-28.459-14.463-53.963-5.754-83.51,4.354S292.2,55.156,251.224,44.581A108.858,108.858,0,0,1,208.07,22.965,56.14,56.14,0,0,0,169.58,8.114Z" transform="translate(14.785 41.893)" fill="url(#q)"/><path d="M306.006,576.871c-31.1,0-61.116-7.076-83.2-27.059-23.716-21.461-26.2-46.654-28.848-73.946-2.877-29.392-5.909-59.794-34.6-91.13-23.327-25.348-47.2-33.824-70.447-41.988-25.737-9.02-50.075-17.573-68.5-48.753S-2.919,223.158,6.179,178.6A198.666,198.666,0,0,1,50.5,90.584C112,12.828,162.08.543,193.26,3.731A59.483,59.483,0,0,1,232.138,23.17,110.569,110.569,0,0,0,273.66,49.062c41.211,14.229,75.19,6.454,105.437-1.322s58.939-14.54,87.476,3.5c13.607,8.631,24.649,26.048,46.654,60.65A480.3,480.3,0,0,1,552.96,191.2c3.032,7.076,6.143,14.54,9.642,22.471a558.745,558.745,0,0,0,50.464,95.174c9.253,14,13.841,20.994,15.007,36.934,5.6,83.354-98.828,158.078-161.655,189.1C461.6,537.6,379.875,576.871,306.006,576.871ZM184.629,5.286c-31.1,0-76.9,16.484-132.185,86.543A197.811,197.811,0,0,0,8.123,178.993h0c-8.864,44.088-4.277,83.51,14,113.99s42.066,38.878,67.415,47.9c23.327,8.242,47.82,16.8,71.3,42.455,29.159,31.88,32.347,63.993,35.146,92.374,2.644,26.515,5.054,51.63,28.225,72.624,73.169,66.326,234.512-11.9,241.044-15.551,62.2-31.1,166.32-104.815,160.411-187.237-1.088-15.551-5.365-21.849-14.7-36a562.168,562.168,0,0,1-50.619-95.484c-3.5-7.776-6.609-15.551-9.642-22.472a479.605,479.605,0,0,0-39.578-79c-21.772-34.368-32.658-51.63-45.954-60.028C437.414,34.989,410.744,41.6,379.641,49.3S314.87,65.624,273.5,50.929a111.736,111.736,0,0,1-42.222-26.515,57.54,57.54,0,0,0-38.1-18.973C190.461,5.441,187.661,5.286,184.629,5.286Z" transform="translate(11.711 22.327)" fill="url(#r)"/><path d="M207.626,379.907c-38.878,0-74.024-14.385-85.532-39.578-10.031-22.16,0-47.664,9.1-69.98s16.64-41.833,5.754-55.518c-9.642-12.208-27.6-10.886-46.654-9.486-21.927,1.633-44.476,3.344-59.406-13.918-13.53-15.551-17.34-43.621-9.1-66.559a67.1,67.1,0,0,1,12.674-20.839A115.312,115.312,0,0,0,52.736,74.17a109.792,109.792,0,0,0,7.776-23.327,28.77,28.77,0,0,1,6.92-15.551c15.94-18.195,51.63-23.327,73.4-11.352C159.806,34.747,163.15,55.586,166.1,74.092c2.566,15.94,4.743,29.7,16.251,33.513,14.851,4.9,33.046-10.419,52.252-26.593s41.055-34.368,59.172-28.3,22.627,32.658,23.327,35.612c2.8,20.294-7.776,35.923-16.329,49.842-7.776,11.819-15.007,23.327-12.6,35.068,3.032,15.551,19.517,19.983,36.934,24.726S360.65,207.6,367.8,223.773c5.287,11.974,3.888,29.159-3.81,48.442a184.749,184.749,0,0,1-94.94,95.64,161.108,161.108,0,0,1-61.427,12.052Zm-99.683-176.74c12.285,0,23.327,2.1,29.936,10.808,11.275,14.152,3.032,34.835-5.676,56.684s-18.895,47.509-9.02,69.2c17.106,37.634,87.787,50.775,145.326,26.9a183.272,183.272,0,0,0,94.318-95.018c7.776-18.972,8.942-35.846,3.81-47.509-6.92-15.551-24.726-20.528-41.911-25.193s-34.6-9.408-37.79-25.582c-2.488-12.441,4.9-23.871,12.752-36,8.864-13.607,18.973-29.159,16.173-48.986-.389-2.877-4.432-28.692-22.238-34.6S255.291,65.383,235.23,82.256s-37.867,31.958-53.263,26.826c-12.208-4.043-14.463-18.117-17.106-34.446-2.877-18.195-6.221-38.878-24.649-49.3-21.383-12.13-56.373-6.687-71.924,11.119A28.537,28.537,0,0,0,61.6,51.465a114.3,114.3,0,0,1-7.776,23.327,116.633,116.633,0,0,1-18.506,29.936A65.549,65.549,0,0,0,22.8,125.256h0c-7.776,22.161-4.2,50.308,8.864,65.393,14.54,16.8,36.856,15.551,58.395,13.53C96.357,203.634,102.345,203.167,107.943,203.167Z" transform="translate(118.333 118.441)" fill="url(#s)"/><path d="M206.1,400.458c-46.187,0-88.175-19.05-98.75-49.453-8.32-23.793,4.432-49.22,15.551-71.613s20.916-41.755,11.041-56.917c-8.786-13.452-27.215-13.763-46.654-14.074-22.549,0-45.8-.7-59.483-19.906-12.441-17.417-13.763-46.654-3.266-69.98h0A69.981,69.981,0,0,1,39.467,98.142a120.911,120.911,0,0,0,21.538-29,115.156,115.156,0,0,0,9.642-23.327A30.247,30.247,0,0,1,79.2,30.261c17.962-17.34,55.051-19.672,76.2-4.9,18.428,12.83,19.983,34.757,21.305,54.429,1.166,16.718,2.177,31.1,13.607,36.079,14.7,6.454,34.757-7.776,55.907-22.627s45.332-32.113,63.527-24.1,20.139,35.768,20.294,38.878c1.011,21.15-10.808,36.39-21.305,49.919-8.942,11.586-17.417,22.472-16.1,35.146,1.711,16.251,18.195,22.394,35.612,28.925s35.457,13.219,41.289,30.636c4.354,12.985,1.322,31.1-8.475,50.153a191.359,191.359,0,0,1-105.748,89.653A162.509,162.509,0,0,1,206.1,400.458ZM120.566,17.586A59.95,59.95,0,0,0,79.744,31.894,29.236,29.236,0,0,0,71.5,46.823,116.633,116.633,0,0,1,61.7,70.15,119.744,119.744,0,0,1,40.011,99.386,69.98,69.98,0,0,0,25.548,119.68c-10.186,22.238-8.864,51.63,3.11,68.425,13.374,18.739,36.312,19.05,58.55,19.439,19.906,0,38.878.544,47.82,14.618,10.264,15.551,0,36.312-10.964,58.084s-23.716,47.353-15.551,70.68c14.074,40.278,85.221,60.261,146.259,40.9A189.8,189.8,0,0,0,359.9,302.8c9.72-19.128,12.674-36.623,8.475-49.22-5.676-16.873-23.327-23.327-40.589-29.858s-34.6-12.985-36.39-30.014c-1.4-13.063,7.231-24.182,16.329-36,10.342-13.3,22.083-28.381,21.072-49.142,0-3.032-1.944-30.092-19.595-37.867s-40.355,8.4-62.2,24.027S205.32,124.19,190,117.5c-12.363-5.6-12.985-20.061-14.54-37.167-1.322-19.05-2.877-40.666-20.839-53.263A60.028,60.028,0,0,0,120.8,17.586Z" transform="translate(118.462 105.9)" fill="url(#t)"/><path d="M204.067,419.62c-53.341,0-103.027-25.115-111.969-60.961-6.3-25.348,9.1-50.464,22.316-72.546S139.608,244.9,130.9,228.34c-7.776-14.774-26.67-16.718-46.654-18.817-23.327-2.488-46.654-4.976-59.172-26.126-11.119-19.128-9.8-49.531,3.11-72.235h0A72.158,72.158,0,0,1,45.6,91.722,124.41,124.41,0,0,0,70.327,63.808,122.314,122.314,0,0,0,82.3,40.87,31.1,31.1,0,0,1,92.487,25.707c19.983-16.251,58.162-15.551,78.456,1.944,17.728,15.007,17.262,37.789,16.873,57.928,0,17.34-.622,32.347,10.653,38.878,14.463,7.776,36.234-4.743,59.25-18.273,24.338-14.229,49.453-29,67.337-19.05s17.34,38.878,17.184,42.144c-.855,21.927-14.385,36.623-26.359,49.608-10.264,11.119-19.906,21.694-19.672,34.835,0,17.029,16.562,24.882,33.824,33.28s35.068,16.951,39.5,35.457c3.266,13.918-1.555,32.191-13.685,51.552A196.567,196.567,0,0,1,239.68,416.432a162.74,162.74,0,0,1-35.612,3.188ZM129.966,14.9A58.239,58.239,0,0,0,93.5,26.252a30.247,30.247,0,0,0-10.186,14.7,128.063,128.063,0,0,1-12.13,23.327A125.032,125.032,0,0,1,46.3,92.422a69.981,69.981,0,0,0-16.873,19.439h0c-12.519,22-13.841,52.485-3.11,70.991,11.974,20.605,35.457,23.327,58.239,25.5,20.294,2.1,39.5,4.121,47.587,19.517,9.1,17.184-3.344,37.478-16.562,59.017s-28.614,46.654-22.394,71.691c10.73,43.155,81.722,70.447,146.1,56.14a195.712,195.712,0,0,0,115.546-81.955c11.9-19.05,16.718-37.09,13.452-50.7-4.277-17.884-21.849-26.359-38.878-34.6s-34.213-16.562-34.524-34.29c0-13.685,9.564-24.415,19.983-35.768,11.819-12.752,25.193-27.292,26.126-48.831,0-3.188.778-31.1-16.64-40.977s-42.066,4.976-66.093,19.05-45.332,26.593-60.494,18.273c-11.9-6.609-11.586-21.927-11.275-39.733,0-19.828.855-42.3-16.407-56.917A63.838,63.838,0,0,0,129.966,14.9Z" transform="translate(118.86 94.98)" fill="url(#u)"/><path d="M199.715,439.69c-60.572,0-118.034-32.58-124.41-74.024-4.2-26.826,13.841-51.319,29.781-72.935s29.547-40.278,22.16-58.239c-6.609-15.94-25.815-19.75-46.032-23.793-23.327-4.665-47.587-9.486-58.239-32.424-9.564-20.839-5.521-52.1,9.8-74.413l.544.389-.544-.389A73.09,73.09,0,0,1,52.134,85.122a131.1,131.1,0,0,0,27.837-26.67A129.7,129.7,0,0,0,94.356,35.825a32.424,32.424,0,0,1,11.741-14.7C128.024,6.2,166.9,10.71,186.341,30.382c16.718,17.106,14.229,40.666,11.974,61.427-1.944,17.884-3.655,33.357,7.309,40.9,14.152,9.642,37.556-1.633,62.36-13.685,26.126-12.519,53.263-25.426,70.6-13.53s14.229,41.833,13.841,45.176c-2.955,22.627-18.117,36.545-31.569,48.909-11.508,10.5-22.394,20.528-23.327,34.135-1.322,17.651,14.7,27.292,31.569,37.478s34.368,20.761,37.167,40.355c2.177,14.774-4.588,33.513-19.05,52.563A202.166,202.166,0,0,1,221.331,438.29a164.846,164.846,0,0,1-21.616,1.4ZM138.521,13.509A57.228,57.228,0,0,0,106.8,22.14,32.113,32.113,0,0,0,95.522,36.369,126.9,126.9,0,0,1,80.9,59.229a129.62,129.62,0,0,1-27.992,26.9,72.547,72.547,0,0,0-19.128,18.506h0c-14.774,21.538-18.895,52.952-9.642,73.091,10.575,22.394,33.9,26.826,57.229,31.724,20.605,4.043,40.044,7.776,46.654,24.571,7.776,18.584-6.843,38.411-22.316,59.483s-33.591,45.643-29.547,72c7.465,45.643,77.6,80.089,145.171,71.536A201.155,201.155,0,0,0,346.6,363.567c14.229-18.817,20.916-37.167,18.817-51.63-2.721-18.973-19.906-29.314-36.545-39.422S295.277,252.3,296.6,233.636c1.011-14.152,12.052-24.26,23.793-35.068,13.219-12.13,28.3-25.893,31.1-48.053,0-3.266,3.577-32.347-13.3-43.932s-43.543,1.244-69.358,13.607-48.986,23.327-63.682,13.3c-11.586-7.776-9.875-23.716-7.776-42.066,2.255-20.528,4.743-43.7-11.586-60.416a67.1,67.1,0,0,0-47.276-17.5Z" transform="translate(120.801 83.229)" fill="url(#v)"/><path d="M193.616,459.138c-67.881,0-132.807-41.755-135.84-88.642-1.788-28.148,18.895-51.863,37.167-72.7s34.057-38.878,28.07-58.162c-5.365-17.106-24.649-22.86-45.021-28.848-23.327-7-47.82-14.152-56.606-38.878-7.776-22.394-.855-54.429,16.8-75.968h0A76.123,76.123,0,0,1,59.72,78.289a135.608,135.608,0,0,0,31.1-24.96,135.219,135.219,0,0,0,16.8-22.083,34.834,34.834,0,0,1,13.374-14.152c23.949-13.374,63.449-5.132,81.333,17.029,15.551,19.206,10.808,43.31,6.609,64.538-3.577,18.35-6.765,34.213,3.81,43,13.607,11.2,38.878,1.788,65.082-7.776,27.992-10.5,56.917-21.305,73.635-7.776s10.73,44.476,10.031,47.9c-5.054,23.327-21.927,36.157-36.779,47.587-12.752,9.564-24.96,19.206-27.215,32.891-2.955,18.117,12.519,29.547,28.925,41.677s33.28,24.649,34.368,45.1c.855,15.551-7.776,34.524-24.8,53.107a207.453,207.453,0,0,1-135.373,64.615ZM39.193,96.717c-17.106,20.994-24.26,53.107-16.562,74.724,8.553,24.1,32.58,31.1,55.751,38.1,20.761,6.143,40.355,11.9,45.876,29.7,6.22,19.906-10.575,38.878-28.3,59.406S57.076,342.815,59.1,370.341c2.955,46.654,67.337,87.476,134.518,87.476h6.92a205.9,205.9,0,0,0,134.751-63.993c16.64-18.35,25.349-36.856,24.493-52.174-1.011-19.828-17.728-32.191-33.824-44.088s-32.813-24.1-29.547-43.077c2.333-14.54,14.54-23.949,27.526-33.979,14.7-11.352,31.1-24.182,36.312-46.654.778-3.344,6.687-33.046-9.564-46.654s-44.71-2.721-72.313,7.776-52.252,19.595-66.4,7.776c-11.119-9.253-7.776-25.5-4.2-44.243,4.121-20.994,8.786-44.71-6.376-63.527C183.586,13.44,144.863,5.12,121.536,18.261a33.28,33.28,0,0,0-12.985,13.685A129.931,129.931,0,0,1,91.6,54.185,133.9,133.9,0,0,1,60.5,79.378,75.268,75.268,0,0,0,39.27,96.717Z" transform="translate(123.479 72.178)" fill="url(#w)"/><path d="M185.508,477.848h-7.776C105.5,474.427,38.316,423.419,39.638,373.188c.7-29.236,24.027-51.863,44.632-71.769s38.411-37.012,34.057-57.539c-3.888-18.117-23.327-25.815-43.388-33.9C51.612,200.57,27.2,190.928,20.51,164.491c-6.143-23.871,4.043-56.218,24.1-76.979h0A79.622,79.622,0,0,1,67.941,71.261a134.907,134.907,0,0,0,33.979-22.938A140.662,140.662,0,0,0,121.9,26.941a34.99,34.99,0,0,1,14.774-13.374C162.337,1.9,202.07,14.111,218.4,38.6c14.152,21.383,7.076,45.8.855,67.337-5.365,18.661-10.031,34.757,0,44.788,12.83,12.908,39.345,5.443,67.337-2.333,29.7-7.931,60.183-16.873,76.356-.933s7,46.654,5.91,50.464c-7.309,23.327-25.737,35.3-42.066,45.8-13.918,9.02-27.137,17.573-31.1,31.8-4.588,18.506,10.186,31.724,25.815,45.8s31.88,28.536,31.1,49.764c-.544,16.484-11.508,35.3-31.1,53.107a214.918,214.918,0,0,1-136,53.652ZM45.547,88.368c-19.517,20.061-29.7,52.563-23.793,75.657,6.532,25.737,30.48,35.224,53.574,44.476,20.683,8.242,40.2,16.1,44.243,34.99,4.51,21.15-14.385,39.422-34.368,58.784s-43.621,42.066-44.321,70.758c-1.011,49.686,65.471,99.917,137.084,103.26,56.14,2.721,112.2-24.8,142.993-53.107,19.05-17.5,29.781-36.079,30.4-52.174.7-20.605-15.551-34.835-30.636-48.675s-31.1-27.837-26.282-47.12c3.732-14.774,17.106-23.327,31.1-32.58,16.1-10.419,34.29-22.161,41.444-45.1,1.089-3.421,9.875-33.591-5.521-49.142s-45.487-6.92-74.724,1.322-55.285,15.551-68.736,2.022c-10.575-10.653-5.832-27.059,0-46.187,6.143-21.227,13.141-45.332-.7-66.17-16.1-24.027-54.974-36-79.855-24.571a33.435,33.435,0,0,0-14.463,12.907,141.048,141.048,0,0,1-19.439,21.461,134.751,134.751,0,0,1-34.29,23.327A76.2,76.2,0,0,0,45.936,88.523Z" transform="translate(126.922 61.789)" fill="url(#x)"/><path d="M176.222,495.407a169.194,169.194,0,0,1-23.327-1.555C79.182,483.666,15.111,424.882,20.71,372.941c3.421-30.169,29.392-51.319,52.33-69.98s42.688-34.835,40.044-56.373c-2.333-19.128-21.227-28.847-41.366-38.878-23.327-11.819-47.042-24.1-51.552-52.019C16.122,130.5,29.5,97.918,51.89,78.4l.467.544L51.89,78.4A79.156,79.156,0,0,1,77.627,63.783a138.407,138.407,0,0,0,36.856-20.605,142.217,142.217,0,0,0,21.694-20.217A36.234,36.234,0,0,1,152.74,10.52c27.37-9.642,66.948,6.609,81.411,33.513,12.6,23.327,3.11,47.976-5.287,69.98-7.154,18.739-13.452,34.99-4.121,46.265,12.052,14.54,39.811,9.253,69.281,3.81,31.1-5.832,63.138-11.9,77.756,6.065s2.877,49.142,1.477,52.641c-9.642,23.327-29.625,34.135-47.276,43.543-15.085,7.776-29.392,15.551-34.368,30.014-6.454,18.661,7.776,33.746,22.238,49.686s30.014,32.424,27.292,54.429c-2.1,17.106-15.551,35.768-37.012,52.485a217.717,217.717,0,0,1-127.909,42.455ZM52.823,79.179C31.051,98.151,17.6,130.887,21.721,155.3c4.354,27.137,27.992,39.267,50.852,50.93,20.372,10.419,39.656,20.294,42.066,40.2,2.721,22.316-18.35,39.422-40.589,57.617S25.608,343.472,22.265,373.1c-6.3,51.241,57.54,109.247,130.475,119.356a212.274,212.274,0,0,0,150.925-41.211c21.461-16.484,34.446-34.835,36.545-51.63,2.566-21.227-12.441-37.478-26.981-53.185s-29.236-31.647-22.549-51.086c5.132-14.929,19.672-22.627,35.068-31.1,17.417-9.253,37.09-19.75,46.654-42.844,1.4-3.421,13.141-33.746-1.244-51.241s-45.954-11.352-76.59-5.6-58.006,10.886-70.525-4.2c-9.953-11.974-3.5-28.536,3.888-47.742,8.242-21.383,17.573-45.721,5.287-68.5-14.463-25.971-53.185-41.988-80.011-32.5a35.612,35.612,0,0,0-16.018,12.052,137.164,137.164,0,0,1-21.849,20.372A139.961,139.961,0,0,1,78.171,64.872,77.757,77.757,0,0,0,52.823,79.179Z" transform="translate(131.776 52.394)" fill="url(#y)"/><path d="M184.854,512.456a185.608,185.608,0,0,1-41.91-4.588C68.453,490.529,8.192,423.892,18.922,370.707c6.3-31.1,34.835-50.308,60.028-67.492s46.654-32.035,46.187-54.429c-.622-19.983-19.128-31.8-38.878-44.243-22.627-14.385-46.032-29.236-48.131-58.473C36.262,119.555,52.98,87.208,77.706,69.013h0A81.721,81.721,0,0,1,105.7,56.184,142.139,142.139,0,0,0,145.354,38.3,144.552,144.552,0,0,0,169.38,19.4,36.779,36.779,0,0,1,187.342,8.053C216.267.277,255.3,21.038,267.664,50.2c10.73,25.271-1.244,49.842-11.741,71.536-9.175,18.739-17.029,34.912-8.475,47.431,10.964,16.1,39.889,13.3,70.525,10.264,32.347-3.11,65.782-6.376,79.311,13.53s-1.633,51.086-3.421,54.429c-11.974,23.327-33.435,32.58-52.33,40.589-16.173,6.92-31.1,13.452-37.945,27.914-8.242,18.661,4.665,35.535,18.273,53.341s27.759,36.312,23.327,58.706c-3.81,17.728-19.206,35.923-43.388,51.241a222.3,222.3,0,0,1-116.945,33.28ZM200.405,7.975a49.841,49.841,0,0,0-12.363,1.477,35.612,35.612,0,0,0-17.806,11.041,147.193,147.193,0,0,1-24.26,18.972A144.937,144.937,0,0,1,105.7,57.661,78.223,78.223,0,0,0,78.406,70.18h0c-24.027,17.573-40.744,50.075-38.878,75.657,2.022,28.536,25.115,43.232,47.431,57.384,19.906,12.674,38.878,24.649,39.422,45.487.7,23.327-22.394,38.878-46.654,55.751s-53.185,36.312-59.561,66.559C9.514,423.5,69.231,489.285,143.1,506.469a216.94,216.94,0,0,0,157.378-28.3c23.871-15.551,38.878-33.046,42.688-50.386,4.665-21.694-9.253-39.889-22.7-57.462s-27.059-35.457-18.428-54.9c6.687-15.007,22.238-21.616,38.878-28.614,18.661-7.776,39.811-16.951,51.63-39.967,1.711-3.344,16.562-33.668,3.421-53.107s-46.032-15.94-77.756-12.83-60.416,5.909-71.847-10.886c-9.02-13.219-1.011-29.781,8.32-48.986,10.419-21.383,22.238-45.643,11.741-69.98A76.668,76.668,0,0,0,200.094,7.975Z" transform="translate(119.8 43.509)" fill="url(#z)"/><path d="M195.218,528.038a198.822,198.822,0,0,1-62.2-9.486c-74.724-24.8-130.4-99.295-114.457-153.257,9.253-31.1,40.278-48.753,67.57-64.227s51.008-28.77,52.33-52.174c1.166-20.605-16.718-34.6-35.69-49.3-21.849-16.951-44.4-34.446-43.854-64.849.544-27.6,20.528-59.483,47.587-75.968h0a83.9,83.9,0,0,1,29.47-10.653,145.092,145.092,0,0,0,42.222-14.774,149.367,149.367,0,0,0,26.359-17.34A37.945,37.945,0,0,1,224.143,5.984c30.325-5.054,68.425,19.672,78.378,50.93,8.709,27.137-5.754,51.4-18.584,72.857-11.041,18.584-20.605,34.524-12.985,48.287,9.8,17.651,39.656,17.417,71.3,17.184,33.357,0,67.959-.622,79.933,21.227s-6.3,52.641-8.4,56.062c-14.463,23.327-37.245,30.636-57.306,37.167-17.262,5.676-33.513,10.964-41.444,25.349-10.186,18.506,1.477,37.167,13.841,56.917S354,432.009,347.076,454.714c-5.521,18.117-23.327,35.612-49.686,49.3a226.736,226.736,0,0,1-102.171,24.027ZM107.276,60.024c-26.2,16.018-46.654,48.053-46.654,74.724C60,164.373,82.316,181.4,103.855,198.43c19.283,14.929,37.478,29.081,36.234,50.619-1.4,24.182-26.437,38.334-53.03,53.341s-57.851,32.658-66.87,63.371c-15.862,53.263,39.267,126.9,113.679,151.391a221.683,221.683,0,0,0,163.288-14.463c26.126-13.53,43.543-31.1,48.909-48.442,6.765-22-5.832-42.066-17.962-61.505s-24.493-38.878-13.918-58.395c7.776-14.929,24.726-20.372,42.3-26.048,19.828-6.532,42.3-13.841,56.451-36.545,2.1-3.344,20.061-33.28,8.4-54.429s-46.42-20.916-79.078-20.605-62.2.544-72.624-17.884c-7.776-14.54,1.711-31.1,13.063-49.842,12.6-21.15,26.9-45.1,18.428-71.613-9.8-30.636-46.654-54.429-76.745-49.919a36.779,36.779,0,0,0-18.895,9.72,154.659,154.659,0,0,1-26.593,17.5,147.115,147.115,0,0,1-42.61,14.774,83.588,83.588,0,0,0-29,10.419Z" transform="translate(107.181 36.17)" fill="url(#aa)"/><path d="M205.968,542.543a209.942,209.942,0,0,1-83.9-16.484C47.734,493.557-2.341,411.446,18.886,357.172c12.285-31.569,45.643-46.654,75.035-60.183,28.225-12.908,54.429-25.115,58.317-49.142,3.11-21.305-13.918-37.323-31.958-54.429C99.442,173.9,77.9,153.685,81.4,122.349c3.11-28.459,26.515-59.639,55.673-74.1h0A83.588,83.588,0,0,1,168.1,40.083a149.6,149.6,0,0,0,44.554-11.508,147.735,147.735,0,0,0,28.536-15.551,38.878,38.878,0,0,1,20.994-8.553,29.936,29.936,0,0,1,3.732,0c30.636,0,64.849,28.07,71.924,60.028,6.454,28.848-10.653,52.563-25.66,73.557-12.985,18.117-24.26,33.824-17.728,48.753,8.4,19.128,38.878,21.616,71.38,24.26,34.29,2.8,69.98,5.676,79.933,29.392s-11.2,53.807-13.685,57.151c-16.951,22.627-40.977,28.225-62.2,33.124-18.195,4.277-35.3,8.242-44.71,22.394-12.13,18.195-1.866,38.878,8.942,60.105s22.083,43.777,12.907,66.481c-7.776,18.351-27.292,34.913-55.984,46.654a227.436,227.436,0,0,1-85.065,16.173ZM137.62,49.725c-28.3,14.074-51.863,45.41-54.429,72.935-3.266,30.636,17.962,50.541,38.878,69.98,18.35,17.184,35.69,33.513,32.424,55.6-3.655,24.882-30.636,37.245-59.172,50.308s-62.2,28.381-74.335,59.328C-.63,411.291,49.134,492.468,123,524.659a226.115,226.115,0,0,0,167.875.389c28.3-11.586,47.82-27.837,55.051-45.8,8.942-22.16-2.1-44.088-12.83-65.237s-21.461-42.688-8.864-61.661c9.8-14.7,27.215-18.739,45.721-23.327,20.916-4.9,44.632-10.419,61.194-32.58,2.41-3.266,23.327-32.58,13.53-55.6s-44.865-25.659-78.611-28.459-64.226-4.9-73.013-24.571c-6.92-15.551,4.588-31.724,17.884-50.308,14.851-20.683,31.647-44.165,25.426-72.313-7-31.1-40.433-58.784-69.98-58.784a28.769,28.769,0,0,0-3.655,0,37.4,37.4,0,0,0-20.294,8.242,154.036,154.036,0,0,1-28.77,15.551,150.148,150.148,0,0,1-45.332,11.43,86.387,86.387,0,0,0-30.714,7.776Z" transform="translate(94.721 29.985)" fill="url(#ab)"/><path d="M216.568,555.585A222.77,222.77,0,0,1,110.2,529.77C37.107,489.337-6.436,399.84,19.923,345.644c15.551-31.1,51.086-44.088,82.421-55.285,30.014-10.73,58.395-20.839,64.227-45.332,5.132-21.772-10.886-39.889-27.837-59.095C119.218,163.85,99,140.989,105.3,108.876c5.754-29.081,32.58-59.172,63.76-71.536h0a89.186,89.186,0,0,1,32.735-5.6,151.625,151.625,0,0,0,46.654-7.776,150.847,150.847,0,0,0,30.636-13.3,40.2,40.2,0,0,1,21.772-6.92h.544c32.424,0,67.414,33.9,71.924,68.892,3.966,30.4-15.551,53.418-32.969,73.713-15.007,17.573-27.992,32.735-22.627,48.753,6.843,20.528,37.945,25.971,70.914,31.647,34.835,6.065,70.836,12.363,79.156,37.712s-16.407,54.429-19.284,57.851c-19.361,21.849-44.477,25.426-66.637,28.537-18.973,2.721-36.934,5.21-47.82,18.973-14.074,17.728-5.443,39.733,3.654,62.982s18.584,47.276,7.154,69.98c-9.331,18.35-31.1,33.668-62.2,43.155a226.425,226.425,0,0,1-66.093,9.642ZM169.915,38.9h0c-30.247,11.9-57.228,42.144-62.827,69.98-6.143,31.1,13.841,53.885,33.124,75.734C157.4,204.05,173.647,222.478,168.36,245.1c-5.987,25.348-34.757,35.612-65.237,46.654S36.8,315.085,21.634,346.188C-4.725,399.84,38.585,488.326,110.976,528.37a229.925,229.925,0,0,0,171.063,16.018c30.247-9.331,51.941-24.338,61.038-42.377,11.508-22.005,2.1-45.332-6.843-68.659s-18.117-46.032-3.421-64.538c11.275-14.229,29.547-16.8,48.831-19.517,21.927-3.11,46.654-6.687,65.626-27.992,2.877-3.188,27.215-31.491,19.05-56.3s-43.621-31.1-77.756-36.623-65-11.352-72.158-32.813c-5.6-16.873,7.776-32.347,22.938-50.308,17.106-19.983,36.468-42.688,32.658-72.391-4.665-34.368-38.878-67.181-70.6-67.181h-.544a38.412,38.412,0,0,0-20.994,6.687,155.512,155.512,0,0,1-31.1,13.452,152.324,152.324,0,0,1-47.12,7.776,85.531,85.531,0,0,0-32.113,5.6Z" transform="translate(82.487 25.496)" fill="url(#ac)"/><path d="M226.446,567.059A233.811,233.811,0,0,1,97.759,529.5C26.613,480.9-10.088,384.332,22.18,330.836c18.739-31.1,56.3-40.9,89.419-49.608,31.8-8.242,61.738-16.1,69.98-40.9,7.309-22.083-7.776-42.3-23.327-63.682C140.214,152,121.631,126.493,131.039,93.913c8.553-29.547,38.878-58.162,71.847-68.037v0a88.72,88.72,0,0,1,33.979-2.8,153.336,153.336,0,0,0,48.52-3.655A156.832,156.832,0,0,0,318.509,8.537a40.356,40.356,0,0,1,23.327-5.054c33.2,3.344,65.937,41.211,67.414,77.756,1.244,31.8-20.994,53.807-40.589,73.169-16.951,16.8-31.569,31.1-27.6,48.287,5.132,21.927,36.545,30.4,69.98,39.345,35.068,9.486,71.38,19.206,77.756,46.654s-22.549,54.663-25.582,57.7c-21.849,20.761-47.9,22.16-70.836,23.327-19.672,1.089-38.256,2.022-50.7,15.551-16.1,17.029-9.253,40.511-2.022,65.393s14.7,50.619.933,73.013c-11.275,18.195-35.379,32.036-67.881,38.878a222.917,222.917,0,0,1-46.265,4.51Zm-.778-542.582a74.49,74.49,0,0,0-22.083,3.188h0c-32.113,9.564-62.2,38.256-70.758,66.87-9.175,31.8,9.175,57,26.981,81.333,15.551,21.694,31.1,42.3,23.327,65.082-8.4,25.737-38.878,33.668-70.991,42.066s-69.98,18.35-88.409,48.831c-31.958,52.8,4.588,148.281,75.035,196.412A235.211,235.211,0,0,0,272.322,560.6c32.113-6.765,55.829-20.372,66.792-38.256,13.452-21.772,6.065-47.12-1.011-71.613s-14.385-49.3,2.333-67.026c12.908-13.685,31.8-14.7,51.863-15.551,22.7-1.166,48.364-2.566,69.981-22.86,3.188-3.033,30.636-30.169,24.571-56.451s-41.755-35.69-76.434-45.1-65.782-17.5-71.147-40.822c-4.2-17.962,10.808-32.735,28.07-49.842,19.361-19.128,41.288-40.822,40.044-71.924-1.4-35.612-33.435-72.624-65.548-75.968a38.878,38.878,0,0,0-22.627,4.976,166.321,166.321,0,0,1-32.891,11.041,156.368,156.368,0,0,1-48.986,3.655c-4.354-.233-7.931-.389-11.663-.389Z" transform="translate(70.277 22.653)" fill="url(#ad)"/><path d="M234.346,577.276A241.542,241.542,0,0,1,84.63,525.307c-68.312-56.89-97.082-159.916-59.137-212.4,22-30.4,61.35-37.09,96.107-43,33.2-5.676,64.693-10.964,75.268-35.846,9.486-22.16-3.732-44.4-17.806-67.959-16.173-27.137-32.891-55.207-20.217-88.02,11.43-29.547,44.943-56.373,79.778-63.527h0a89.575,89.575,0,0,1,35.068,0,158.856,158.856,0,0,0,50,.7,166.555,166.555,0,0,0,34.368-8.32,40.977,40.977,0,0,1,24.493-3.11c33.668,6.532,63.76,48.675,62.2,86.62-1.633,32.969-26.359,53.652-48.209,71.847-18.895,15.551-35.224,29.392-32.658,47.431,3.266,23.327,34.6,34.757,67.8,47.042,35.068,13.063,71.3,26.515,75.268,55.051s-27.37,54.429-31.1,57.617c-24.338,19.439-51.086,18.428-74.724,17.573-20.217-.7-39.345-1.4-53.263,11.041-18.039,16.173-13.141,41.055-7.776,67.492s10.419,53.574-5.832,75.5c-13.141,17.806-38.878,29.936-73.246,34.057a209.91,209.91,0,0,1-26.67,2.177Zm4.588-560.7C205.187,23.5,171.441,50.4,160.4,79.171c-12.285,31.569,4.2,59.406,20.139,86,14.307,24.182,27.759,46.654,17.651,69.98-11.041,25.815-42.921,31.1-76.668,36.934s-73.013,12.13-94.4,41.988C-10.353,365.78,18.262,467.8,85.987,524.013a240.189,240.189,0,0,0,174.407,49.608c33.591-4.043,59.172-15.551,72.158-33.357,15.551-21.305,10.5-48.209,5.443-74.179s-10.186-52.252,8.553-69.047c14.463-12.985,33.979-12.208,54.429-11.508,23.327.855,49.764,1.866,73.557-17.184,3.5-2.8,34.135-28.3,30.325-56.062s-39.578-40.822-74.179-53.652-65.471-24.338-68.892-48.442c-2.644-18.972,14-32.891,33.28-48.986,21.616-17.962,46.032-38.334,47.587-70.6,1.866-37.167-27.526-78.456-60.494-84.91A40.2,40.2,0,0,0,358.833,8.8a161.577,161.577,0,0,1-34.912,8.631,160.022,160.022,0,0,1-50.464-.622,88.254,88.254,0,0,0-34.524,0Z" transform="translate(58.412 21.533)" fill="url(#ae)"/><path d="M240.165,585.494A247.808,247.808,0,0,1,71.356,517.457C6.508,452.842-13.476,343.128,30.146,292.509c25.348-29.314,66.248-32.658,102.327-35.534,34.6-2.721,67.259-5.365,80.4-30.092,11.741-22,0-46.654-11.974-71.924-14.307-29.547-28.614-59.795-12.752-92.841,14.463-29.7,51.241-54.429,87.553-58.473h0a91.13,91.13,0,0,1,35.923,3.5,159.323,159.323,0,0,0,51.086,5.287,157.612,157.612,0,0,0,35.923-5.443,42.844,42.844,0,0,1,25.426-.933c33.9,9.953,60.883,56.218,55.44,95.329-4.665,33.9-31.88,52.952-55.907,69.98-20.761,14.54-38.878,27.137-37.789,45.954,1.166,24.182,32.269,38.878,65.082,54.9,34.757,16.718,70.68,33.979,72.08,63.838s-33.124,53.885-36.934,56.529c-26.67,17.884-53.963,14.385-77.756,11.352-20.683-2.721-40.2-5.132-55.673,6.454-19.906,15.007-17.184,41.211-14.307,68.97s5.754,56.451-12.83,77.756c-15.551,17.262-43,27.37-78.3,28.459Zm35.69-580.06c-34.835,4.2-72.158,28.692-86.076,57.462-15.551,31.958-1.166,62.2,12.674,91.363,12.441,26.048,24.1,50.619,11.974,73.4-13.607,25.659-46.654,28.3-81.8,31.1s-76.279,6.143-101.083,34.912c-43.077,50-23.327,158.156,41.133,222.538A246.332,246.332,0,0,0,246.93,583.627c34.757-1.089,62.2-11.041,76.979-27.914,18.039-20.528,15.551-48.831,12.363-76.123s-5.676-54.974,15.085-70.6c15.551-12.052,35.846-9.564,56.84-6.843,23.871,3.032,50.775,6.454,76.9-11.041,3.81-2.566,37.556-26.048,36.157-55.129s-36.779-45.8-70.991-62.2-64.926-31.1-66.17-56.451c-1.011-19.828,17.34-32.658,38.878-47.509,23.327-16.64,50.619-35.457,55.207-68.581,5.287-38.334-21.072-83.666-54.429-93.307a40.822,40.822,0,0,0-24.415,1.011,171.453,171.453,0,0,1-36.312,5.443A164.687,164.687,0,0,1,311,8.854a91.208,91.208,0,0,0-35.3-3.421Z" transform="translate(46.683 21.558)" fill="url(#af)"/><path d="M242.892,601.048H231.7A254.029,254.029,0,0,1,58.222,514.583c-60.65-73.4-71.147-188.247-21.849-236.534,28.614-27.837,70.836-27.837,108.081-27.292,35.612,0,69.358.622,85.065-23.793,14-21.616,4.432-47.742-5.754-75.346-11.663-31.88-23.793-64.771-4.51-97.2,17.806-29.7,57.462-51.4,94.94-52.33a93.307,93.307,0,0,1,36.468,7.076,164.687,164.687,0,0,0,51.863,10.264A163.987,163.987,0,0,0,439.848,17.1a43.077,43.077,0,0,1,26.126,1.4c33.824,13.374,57.151,63.682,48.053,103.571-7.776,34.679-37.478,51.863-63.6,67.026C427.8,202.237,408.2,213.59,407.5,233.184c-1.011,25.115,29.47,43.388,61.661,62.749,33.979,20.45,69.2,41.677,67.959,72.624s-38.878,52.874-43.077,55.207c-28.925,16.018-56.606,9.875-81.022,4.432-20.839-4.588-40.666-8.942-57.462,1.633-21.772,13.685-21.461,40.977-21.072,69.98s.778,58.784-20.217,78.922C299.265,593.195,273.917,601.048,242.892,601.048ZM132.012,252.468c-33.591,0-69.358,2.41-94.318,26.826C-11.059,327.036-.484,440.637,59.466,513.184a251.7,251.7,0,0,0,172.307,85.532c35.768,2.1,64.538-5.6,81.255-21.694,20.372-19.595,19.983-49.064,19.672-77.756s-.778-57.306,21.849-71.536c17.5-11.041,37.634-6.532,58.939-1.866,24.1,5.365,51.4,11.43,79.7-4.277,4.121-2.255,40.822-23.327,42.066-53.652s-33.435-50.775-67.026-70.991-63.6-38.178-62.594-64.382c.778-20.605,20.761-32.191,43.854-45.565,25.815-15.007,55.051-31.958,62.749-65.859,8.942-38.878-13.918-88.409-46.654-101.083a40.9,40.9,0,0,0-25.115-1.244,171.064,171.064,0,0,1-37.712,2.255,164.066,164.066,0,0,1-52.33-10.342,93.307,93.307,0,0,0-35.846-6.765h0c-36.39.933-76.512,23.327-93.307,51.475-18.817,31.647-6.843,64.149,4.665,95.64,10.342,28.07,20.061,54.429,5.6,76.979-16.329,25.193-50.464,24.882-86.62,24.571Z" transform="translate(35.092 14.245)" fill="url(#ag)"/><path d="M241.818,614.749a177.731,177.731,0,0,1-26.515-2.1A260.172,260.172,0,0,1,45.1,507.29c-55.285-81.177-55.518-200.844-.622-246.254,31.88-26.282,75.112-22,113.213-18.195,36.468,3.577,70.914,7,89.264-16.718,16.329-21.072,8.864-48.986,1.011-78.456-9.1-34.057-18.506-69.2,4.277-101.083C272.765,18.049,315.609-1.079,354.254,1.409a96.962,96.962,0,0,1,36.7,10.5,166.4,166.4,0,0,0,52.174,15.551,177.442,177.442,0,0,0,38.8.933,43.544,43.544,0,0,1,26.593,3.81c33.435,16.873,52.719,71.147,39.811,111.5-11.974,34.835-43.543,50.386-71.691,63.371-24.415,11.508-45.41,21.461-47.976,41.6-3.343,25.893,26.2,47.587,57.384,70.6,32.969,24.26,67.1,49.453,62.9,81.333s-44.477,51.008-49.064,53.03c-31.1,13.918-58.861,5.054-83.355-2.8-20.994-6.765-40.822-13.063-59.017-3.732-23.327,12.208-25.737,40.511-27.992,70.447s-4.588,60.883-27.914,79.7a94.006,94.006,0,0,1-59.794,17.5ZM113.987,241.52c-24.8,0-48.442,4.432-68.27,20.761C-8.556,307.3-7.934,425.8,46.5,506.28a258.305,258.305,0,0,0,169.12,104.5c36.157,5.365,66.326,0,84.832-14.929,22.7-18.35,24.96-48.909,27.215-78.456s4.51-59.328,28.925-71.924c18.895-9.8,38.878-3.266,60.494,3.577,24.182,7.776,51.63,16.484,82.033,2.877,4.432-1.944,43.932-20.45,47.975-51.63s-29.625-55.518-62.2-79.467-61.505-45.41-58.084-72.313c2.644-21.227,24.1-31.1,48.986-43.077,27.837-13.063,59.328-27.914,70.369-62.2,12.674-39.656-6.22-92.763-38.878-109.325a41.755,41.755,0,0,0-25.348-3.655,176.2,176.2,0,0,1-38.878-1.089,168.575,168.575,0,0,1-52.719-15.551A95.951,95.951,0,0,0,354.254,3.275h0c-37.4-2.41-80.478,16.8-100.383,44.554-22.16,31.1-12.908,65.782-3.966,99.295,7.776,30.014,15.551,58.317-1.322,80.167-19.128,24.571-54.352,21.227-91.13,17.417a432.564,432.564,0,0,0-43.466-2.955Z" transform="translate(23.491 8.164)" fill="url(#ah)"/><path d="M237.481,625.968a168.334,168.334,0,0,1-39.422-5.054A267.481,267.481,0,0,1,32.9,496.5c-49.3-89.342-38.645-213.052,21.772-254.884,34.99-24.26,78.845-15.551,117.489-8.475,37.012,7.154,72,13.841,93.307-8.942,18.661-20.372,13.53-49.842,7.776-81.1-6.143-35.923-12.6-73.168,13.607-103.882,23.327-27.759,69.358-43.543,108.858-37.4h0a95.718,95.718,0,0,1,36.468,14.229A171.528,171.528,0,0,0,484.2,36.732,178.062,178.062,0,0,0,523.079,41.4a44.243,44.243,0,0,1,26.826,6.376c32.735,20.605,47.587,78.378,30.636,118.967-14.385,35.224-48.131,47.587-78.456,58.939-26.048,9.642-48.442,17.962-52.952,38.878-5.754,26.437,22.472,51.63,52.33,78.3,31.569,28.148,64.226,57.229,57,89.808s-50.23,48.675-55.129,50.386c-33.046,11.43-60.728,0-85.065-10.652-20.916-9.253-40.666-17.651-60.105-9.253-25.271,10.341-30.014,39.422-35.068,69.98s-10.264,62.2-35.846,79.856A88.486,88.486,0,0,1,237.481,625.968ZM111.75,227.312a95.173,95.173,0,0,0-55.984,15.551c-59.872,41.444-70.058,164.143-20.994,252.4A265.382,265.382,0,0,0,198.059,619.048c36.39,8.709,67.57,5.987,87.864-7.776,24.882-16.873,30.014-48.209,34.99-78.534s10.031-60.961,36.234-71.691c20.294-8.32,40.355,0,61.66,9.253,24.027,10.186,51.241,21.772,83.666,10.575,4.743-1.633,46.654-17.106,53.885-48.909s-25.271-60.183-56.373-88.02-58.939-52.563-52.952-80.089c4.665-21.694,27.6-30.169,54.429-40.044,29.7-10.964,63.294-23.327,77.756-57.851,16.562-39.733,2.1-96.418-29.858-116.634a43.077,43.077,0,0,0-25.971-6.065,180.55,180.55,0,0,1-39.578-4.743A171.063,171.063,0,0,1,431.327,17.76,97.2,97.2,0,0,0,395.248,3.686c-37.945-5.909-83.9,9.953-106.837,36.856-25.582,29.936-19.283,66.715-13.141,102.249,5.443,31.725,10.575,61.661-8.709,82.732-21.694,23.327-57.151,16.8-94.707,9.564A322.379,322.379,0,0,0,111.75,227.312Z" transform="translate(11.889 3.477)" fill="url(#ai)"/><path d="M230.708,634.655a161.341,161.341,0,0,1-50.852-9.175A275.567,275.567,0,0,1,21.544,481.086c-42.222-96.5-19.983-223.471,45.721-261.1,38.1-21.849,82.188-9.1,121.144,2.1,37.245,10.808,72.469,20.994,95.951-.7,20.994-19.128,18.895-50.23,15.862-83.043C297.19,100.626,294,61.592,323.549,32.278,350.375,5.686,398.584-6.6,438.161,3.508a101.083,101.083,0,0,1,36.157,18.117,173.862,173.862,0,0,0,51.4,26.2A180.55,180.55,0,0,0,565.448,56.3a45.254,45.254,0,0,1,27.137,9.1c31.569,24.26,41.444,85.532,20.372,125.732-18.273,35.068-54.429,44.943-86.076,53.652-27.526,7.776-51.241,14.074-57.695,34.99-8.32,26.826,18.273,55.44,46.654,85.532,29.7,32.035,60.494,65.082,50.153,98.128s-55.907,45.643-61.116,46.654c-34.912,8.786-62.2-5.909-86.154-18.895-20.605-11.119-40.044-21.616-60.65-15.085-26.748,8.4-34.368,38.023-42.377,69.358s-16.173,63.6-44.01,79.234a82.81,82.81,0,0,1-40.977,9.953Zm-115.7-424.626A92.141,92.141,0,0,0,68.353,221.77c-65,37.167-86.776,162.821-45.021,258.539a273.935,273.935,0,0,0,157.223,143.3c36.156,12.13,68.114,12.13,89.964,0,26.981-15.551,35.146-46.654,43-77.756s15.551-62.2,43.7-70.758c21.538-6.765,41.288,3.966,62.2,15.551,23.327,12.83,50.542,27.292,84.676,18.739,5.054-1.322,49.608-13.374,59.639-45.643s-20.372-64.538-49.686-96.107-55.518-59.794-46.654-87.787c6.765-21.927,31.1-28.614,59.095-36.312,31.1-8.631,66.948-18.35,84.91-52.641,20.45-40.278,10.653-100.15-20.061-123.943a44.166,44.166,0,0,0-25.971-8.709,180.629,180.629,0,0,1-40.122-8.475,180.63,180.63,0,0,1-51.941-26.359A97.739,97.739,0,0,0,437.773,5.53c-38.334-9.642-86.853,2.333-112.746,28.148-28.925,28.614-25.815,67.492-22.783,104.5,2.644,33.28,5.21,64.771-16.484,84.676-24.415,22.471-60.105,12.13-97.895,1.166a270.669,270.669,0,0,0-72.857-14Z" transform="translate(0 0)" fill="url(#aj)"/></g></g></svg>