<svg xmlns="http://www.w3.org/2000/svg" width="611" height="612" viewBox="0 0 611 612">
    <path fill="#343436" fill-rule="evenodd" d="M142.251 410.587l-80.149 80.146c.976 1.285 1.949 2.574 2.946 3.843l79.906-79.905a191.866 191.866 0 0 1-2.703-4.084zm-6.844-11.499l-81.024 81.023c.901 1.299 1.807 2.596 2.73 3.88l80.682-80.683a186.497 186.497 0 0 1-2.388-4.22zm14.345 22.34l-79.538 79.537a313.85 313.85 0 0 0 3.192 3.773l79.365-79.364a191.74 191.74 0 0 1-3.019-3.946zm-20.488-34.539l-82.198 82.196c.829 1.311 1.67 2.614 2.519 3.91l81.748-81.746a187.333 187.333 0 0 1-2.069-4.36zm67.283 79.46l-79.889 79.888a290.725 290.725 0 0 0 4.442 3.413l80.172-80.172a193.852 193.852 0 0 1-4.725-3.13zm-10.588-7.756l-79.36 79.36c1.378 1.183 2.76 2.361 4.16 3.519l79.548-79.55a192.369 192.369 0 0 1-4.348-3.329zm21.82 14.867l-80.648 80.648a304.932 304.932 0 0 0 4.712 3.32l81.068-81.066a190.337 190.337 0 0 1-5.132-2.902zm-31.777-23.251l-79.074 79.072a303.91 303.91 0 0 0 3.9 3.599l79.174-79.172a193.65 193.65 0 0 1-4-3.499zm-18.105-18.583l-79.17 79.169a326.905 326.905 0 0 0 3.43 3.714l79.075-79.076a201.463 201.463 0 0 1-3.335-3.807zm-45.848-137.58l-99.4 99.4c.411 1.373.816 2.75 1.244 4.114l97.894-97.892c.06-1.879.148-3.752.262-5.622zm2.355-20.697L8.732 379.018c.34 1.385.677 2.77 1.035 4.149L113.48 279.455c.279-2.043.583-4.079.925-6.106zm5.63-23.974L5.445 363.965c.269 1.398.53 2.794.817 4.186L118.074 256.34c.615-2.335 1.26-4.66 1.96-6.965zm12.284-30.625L2.846 348.22c.196 1.412.379 2.827.592 4.234L128.002 227.89a190.324 190.324 0 0 1 4.316-9.14zm-13.002 141.4l-85.611 85.612a307.85 307.85 0 0 0 2.097 3.976l84.926-84.925c-.49-1.549-.962-3.101-1.412-4.662zm108.057-231.629L351.937 3.959c-1.406-.213-2.822-.397-4.234-.592l-129.47 129.47a190.423 190.423 0 0 1 9.14-4.316zM111.799 312.639l-94.655 94.654c.48 1.365.952 2.734 1.45 4.089l93.453-93.453a189.56 189.56 0 0 1-.248-5.29zm3.88 32.805L27.702 433.42c.618 1.344 1.24 2.685 1.877 4.019l87.16-87.158a195.295 195.295 0 0 1-1.06-4.837zm-2.58-15.764l-90.926 90.926c.55 1.356 1.09 2.713 1.658 4.06l89.943-89.942c-.248-1.676-.47-3.357-.674-5.044zm10.777 44.255l-83.712 83.71c.756 1.322 1.536 2.628 2.313 3.937l83.145-83.144c-.6-1.494-1.184-2.994-1.746-4.503zM338.83 609.74l270.384-270.384a303.22 303.22 0 0 0 1.037-11.565L327.264 610.775a307.16 307.16 0 0 0 11.566-1.035zm21.647-3.129l245.608-245.603c.766-4.215 1.433-8.46 2.024-12.732l-260.36 260.357c4.272-.59 8.516-1.257 12.728-2.022zm248.857-332.928L460.022 422.99a197.299 197.299 0 0 1-17.498 20.056 196.827 196.827 0 0 1-20.064 17.505L273.157 609.855c3.04.32 6.092.603 9.16.831l327.848-327.842c-.23-3.068-.513-6.12-.83-9.161zm-301.16 337.84c3.554-.032 7.097-.12 10.62-.273l291.934-291.927c.15-3.525.24-7.066.272-10.621l-302.827 302.82zm302.479-320.817l-320.474 320.47c3.272.162 6.56.254 9.858.312l310.928-310.924a312.585 312.585 0 0 0-.312-9.858zM384.35 601.258l216.383-216.379c1.261-4.733 2.41-9.51 3.447-14.33L370.02 604.704a299.847 299.847 0 0 0 14.33-3.447zm113.184-57.62l45.576-45.573a306.452 306.452 0 0 0 25.832-37.25L460.284 569.47a305.99 305.99 0 0 0 37.25-25.831zm-53.07 34.55l133.198-133.196a303.844 303.844 0 0 0 9.735-20.976l-163.91 163.908a304.234 304.234 0 0 0 20.976-9.736zm-32.997 14.474l180.67-180.664a303.76 303.76 0 0 0 5.621-16.685l-202.972 202.97a302.664 302.664 0 0 0 16.681-5.62zm-59.324-98.479L241.5 604.825c2.666.567 5.343 1.105 8.035 1.603l116.09-116.09a192.598 192.598 0 0 1-13.482 3.845zm-92.024.308l-86.988 86.988a313.84 313.84 0 0 0 5.963 2.783l88.193-88.191a190.43 190.43 0 0 1-7.168-1.58zm15.332 3.012l-89.694 89.693c2.093.894 4.2 1.758 6.318 2.607l91.249-91.248c-2.637-.298-5.26-.647-7.873-1.052zm-43.109-11.92l-83.061 83.058a297.088 297.088 0 0 0 5.297 3.094l83.814-83.81a190.644 190.644 0 0 1-6.05-2.342zm13.446 4.897l-84.804 84.801c1.863 1 3.73 1.992 5.614 2.956l85.767-85.766a194.064 194.064 0 0 1-6.577-1.99zm46.166 8.863l-93.081 93.082c2.219.826 4.452 1.626 6.697 2.4l95.076-95.072a196.6 196.6 0 0 1-8.692-.41zm-72.26-19.456L138 561.58c1.656 1.087 3.321 2.16 4.998 3.214l82.265-82.264c-1.869-.85-3.726-1.73-5.57-2.642zm109.96 18.441L226.701 601.282c2.505.667 5.021 1.303 7.551 1.907l106.59-106.587a195.493 195.493 0 0 1-11.188 1.726zm-19.773 1.432l-97.374 97.372c2.357.751 4.727 1.477 7.108 2.172l100-99.998c-3.23.23-6.476.38-9.734.454zm69.512-14.486L256.961 607.706c2.844.454 5.697.875 8.566 1.25L398.205 476.28a190.99 190.99 0 0 1-18.812 8.994zm63.132-316.318c.62.62 1.223 1.252 1.832 1.88l79.016-79.017a314.43 314.43 0 0 0-3.658-3.662l-79.018 79.015c.61.595 1.224 1.182 1.828 1.784zm33.227 229.778l132.683-132.681a307.341 307.341 0 0 0-1.25-8.566L484.748 379.924a191.557 191.557 0 0 1-8.996 18.81zM331.191 1.537L1.014 331.707c.12 1.426.241 2.85.381 4.27L335.46 1.917c-1.42-.14-2.844-.26-4.27-.379zm158.62 364.617L605.907 250.06a295.74 295.74 0 0 0-1.603-8.035L493.657 352.671a191.39 191.39 0 0 1-3.846 13.483zm6.263-24.785l106.594-106.59a292.978 292.978 0 0 0-1.907-7.554L497.802 330.183a193.726 193.726 0 0 1-1.728 11.186zm-.524-73.556l88.195-88.197a298.11 298.11 0 0 0-2.783-5.963l-86.994 86.992c.57 2.377 1.104 4.763 1.582 7.168zm3.679 33.358l95.08-95.076a293.36 293.36 0 0 0-2.403-6.699l-93.087 93.086c.197 2.886.34 5.78.41 8.69zm-.449 18.972L598.785 220.14c-.697-2.381-1.42-4.75-2.17-7.108l-97.38 97.376c-.072 3.26-.224 6.505-.455 9.735zm-.749-36.292l91.252-91.252a307.56 307.56 0 0 0-2.603-6.319l-89.7 89.697c.403 2.612.754 5.236 1.051 7.874zM205.448 17.221L16.698 205.968a308.547 308.547 0 0 0-1.801 5.381L210.831 15.418a308.785 308.785 0 0 0-5.383 1.803zm-31.06 12.716L29.417 174.908c-.997 2.096-1.973 4.201-2.925 6.324l154.22-154.217c-2.121.95-4.228 1.927-6.324 2.922zm81.433 88.656L367.635 6.782c-1.39-.286-2.79-.548-4.187-.817l-114.592 114.59a190.55 190.55 0 0 1 6.965-1.962zM491.95 252.89l85.77-85.769a311.796 311.796 0 0 0-2.955-5.613l-84.806 84.804a194.058 194.058 0 0 1 1.99 6.578zM313.818.568L.045 314.334c.039 1.44.105 2.873.165 4.306L318.124.73c-1.436-.057-2.867-.124-4.306-.162zm-183.39 54.988l-75.392 75.39a303.757 303.757 0 0 0-6.637 9.858l91.886-91.884a309.548 309.548 0 0 0-9.858 6.636zM295.407.633L.112 295.926A333.503 333.503 0 0 0 0 300.328L299.811.523c-1.471.026-2.938.062-4.403.11zM231.532 9.48L8.96 232.05c-.413 1.654-.828 3.306-1.212 4.968L236.499 8.27c-1.664.384-3.314.801-4.967 1.211zm23.145-4.801L4.157 255.194c-.262 1.566-.53 3.13-.768 4.704L259.379 3.912c-1.573.237-3.136.506-4.702.768zm21.134-2.792L1.367 276.328a296.62 296.62 0 0 0-.4 4.513L280.324 1.488c-1.508.122-3.012.255-4.513.4zM168.44 443.045c-.605-.604-1.192-1.22-1.787-1.831l-79.016 79.014c1.21 1.231 2.43 2.45 3.661 3.662l79.016-79.015c-.625-.61-1.255-1.212-1.874-1.83zm195.856-321.798l84.924-84.925c-1.32-.705-2.641-1.41-3.974-2.098l-85.61 85.61c1.56.451 3.113.923 4.66 1.413zm26.435 10.605l81.75-81.747a304.09 304.09 0 0 0-3.91-2.52l-82.2 82.197c1.463.672 2.916 1.362 4.36 2.07zm12.061 6.462l80.683-80.682a315.844 315.844 0 0 0-3.88-2.729l-81.023 81.023c1.414.778 2.822 1.573 4.22 2.388zm-24.87-12.173l83.147-83.144c-1.31-.777-2.616-1.557-3.94-2.313l-83.712 83.71c1.51.563 3.01 1.147 4.505 1.747zm-28.158-8.882l87.16-87.16a311.161 311.161 0 0 0-4.02-1.876l-87.977 87.975c1.619.333 3.23.688 4.837 1.061zM278.938 114L382.653 10.287c-1.38-.358-2.764-.693-4.149-1.032l-105.672 105.67c2.025-.343 4.063-.647 6.106-.924zm20.213-1.691l97.896-97.894c-1.369-.428-2.745-.833-4.119-1.243L293.53 112.57a193.56 193.56 0 0 1 5.622-.262zm35.055 1.985l89.944-89.941c-1.344-.568-2.704-1.11-4.057-1.659l-90.93 90.928c1.687.202 3.367.426 5.043.672zm-16.795-1.725l93.457-93.454c-1.358-.5-2.725-.97-4.09-1.45l-94.655 94.654c1.768.06 3.53.142 5.288.25zm143.994 78.26l79.552-79.549c-1.16-1.4-2.335-2.783-3.518-4.16l-79.362 79.362a197.56 197.56 0 0 1 3.328 4.347zm7.557 10.967l80.173-80.174a311.948 311.948 0 0 0-3.413-4.442l-79.89 79.89a190.687 190.687 0 0 1 3.13 4.726zm13.048 23.992l82.268-82.266a311.695 311.695 0 0 0-3.216-4.997l-81.694 81.693c.911 1.842 1.791 3.7 2.642 5.57zm5.395 13.128l83.814-83.815a301.405 301.405 0 0 0-3.094-5.295l-83.061 83.06a196.676 196.676 0 0 1 2.34 6.05zm-11.56-25.481l81.067-81.068a321.344 321.344 0 0 0-3.32-4.714l-80.651 80.65a190.391 190.391 0 0 1 2.904 5.132zm-40.927-51.683l79.075-79.074c-1.23-1.15-2.463-2.3-3.714-3.428l-79.169 79.167a201.567 201.567 0 0 1 3.808 3.335zm-20.762-16.278l79.905-79.905c-1.268-.997-2.556-1.968-3.841-2.946l-80.148 80.148c1.37.882 2.731 1.784 4.084 2.703zm10.701 7.817l79.366-79.364a275.595 275.595 0 0 0-3.774-3.19l-79.536 79.535c1.325.988 2.64 1.995 3.944 3.019zm28.335 27.232l79.173-79.172a330.304 330.304 0 0 0-3.597-3.902l-79.075 79.074a198.337 198.337 0 0 1 3.499 4z"/>
</svg>
