<svg xmlns="http://www.w3.org/2000/svg" xmlns:xlink="http://www.w3.org/1999/xlink" viewBox="0 0 1000 700"><defs><style>.cls-1{isolation:isolate;}.cls-2{fill:#fff;}.cls-3{fill:#fbd5e2;opacity:0.35;}.cls-4{fill:url(#_ÂÁ_Ï_ÌÌ_È_ËÂÌÚ_24);}.cls-5{fill:#ffcce0;}.cls-6{fill:url(#_ÂÁ_Ï_ÌÌ_È_ËÂÌÚ_23);}.cls-7,.cls-8{mix-blend-mode:multiply;}.cls-7{fill:url(#_ÂÁ_Ï_ÌÌ_È_ËÂÌÚ_23-2);}.cls-8{fill:url(#_ÂÁ_Ï_ÌÌ_È_ËÂÌÚ_23-3);}.cls-9{fill:#371a4f;}.cls-10{fill:#fb446c;}.cls-11{fill:#c5205c;}.cls-12{fill:#f68895;}.cls-13{fill:#f17785;}.cls-14{fill:#703cd5;}.cls-15{fill:#462261;}.cls-16{fill:#4625ac;}.cls-17{fill:#f7929e;}.cls-18{fill:#57beff;}.cls-19{fill:#462161;}.cls-20{fill:#e96077;}.cls-21{fill:#8a5aff;}.cls-22{fill:#0577e7;}.cls-23{fill:#2795f8;}.cls-24{fill:url(#_ÂÁ_Ï_ÌÌ_È_ËÂÌÚ_8);}</style><linearGradient id="_ÂÁ_Ï_ÌÌ_È_ËÂÌÚ_24" x1="211.54" y1="686.37" x2="332.45" y2="68.89" gradientUnits="userSpaceOnUse"><stop offset="0" stop-color="#fbbae2"/><stop offset="0.13" stop-color="#fbc6e5"/><stop offset="0.42" stop-color="#fcdaeb"/><stop offset="0.71" stop-color="#fde6ef"/><stop offset="1" stop-color="#fdeaf0"/></linearGradient><linearGradient id="_ÂÁ_Ï_ÌÌ_È_ËÂÌÚ_23" x1="248.22" y1="636.81" x2="770.69" y2="274.1" gradientUnits="userSpaceOnUse"><stop offset="0" stop-color="#e58def"/><stop offset="0.02" stop-color="#e391f0"/><stop offset="0.18" stop-color="#d7aff4"/><stop offset="0.35" stop-color="#cec6f7"/><stop offset="0.54" stop-color="#c7d7f9"/><stop offset="0.74" stop-color="#c3e1fb"/><stop offset="1" stop-color="#c2e4fb"/></linearGradient><linearGradient id="_ÂÁ_Ï_ÌÌ_È_ËÂÌÚ_23-2" x1="197.96" y1="426.49" x2="695.62" y2="207.34" xlink:href="#_ÂÁ_Ï_ÌÌ_È_ËÂÌÚ_23"/><linearGradient id="_ÂÁ_Ï_ÌÌ_È_ËÂÌÚ_23-3" x1="217.91" y1="490.22" x2="625.66" y2="253.16" xlink:href="#_ÂÁ_Ï_ÌÌ_È_ËÂÌÚ_23"/><linearGradient id="_ÂÁ_Ï_ÌÌ_È_ËÂÌÚ_8" x1="648.38" y1="594.24" x2="740.11" y2="620.35" gradientTransform="translate(36.55 -46.21) rotate(2.92)" gradientUnits="userSpaceOnUse"><stop offset="0.18" stop-color="#2795f8"/><stop offset="0.44" stop-color="#158df0"/><stop offset="0.74" stop-color="#0888eb"/><stop offset="1" stop-color="#0386e9"/></linearGradient></defs><g class="cls-1"><g id="Layer_1" data-name="Layer 1"><rect class="cls-2" width="1000" height="700"/><path class="cls-3" d="M853.23,641.9c28-40.9,42.31-90.56,42.27-140a247.52,247.52,0,0,0-11.45-74.76C876,401.79,860,381.57,866.14,353.69c4.3-19.42,13.89-37.87,14.16-57.76s-14.41-42.39-34.16-40.07c-22.89,2.69-34.69,35.47-57.72,34.74-21.12-.68-29.3-30.14-20.78-49.47s26.34-33,37-51.26c21.55-37,5.39-90.73-33-109.69C726.8,58,672.57,83,635,115.91c-17.26,15.13-41.55,33-60.28,19.76-17.59-12.45-11.2-39.63-17.36-60.28-9.76-32.72-53.64-44.8-85.12-31.53s-52.09,43.66-67.71,74c-31.35,60.89-47.12,129.7-49,199.77-2.75,103.26,24.68,209.28,77,296.88a489.59,489.59,0,0,0,29,43.22c121.07,0,242.16-.47,363.23.24,5.29,0,10.81,0,15.55-2.35s8-6.62,11-10.88C851.91,643.82,852.58,642.86,853.23,641.9Z"/><path class="cls-4" d="M311,657.76c-67.95-9.9-133-39.68-188.14-80.57-18.42-13.66-36.53-30-43.18-52s2.93-50.17,25-56.48c13.58-3.89,28.93,1,41.84-4.78,15.58-6.93,21.27-27.05,18-43.79s-13.14-31.26-21.18-46.3c-38.93-72.79-34.05-167,12.2-235.33,14.28-21.12,34.9-41.15,60.37-42.18s49.62,20.47,51.63,45.81c1,12.28-2.61,24.4-5.56,36.36s-5.3,24.64-1.9,36.48,14.21,22.42,26.5,21.54c15.94-1.15,24.4-18.63,32.24-32.56,16.5-29.3,45.36-52.86,78.72-57.14s69.94,14,81.53,45.6c10.63,28.95-.75,61.94-19.4,86.49s-43.89,43.13-66.1,64.52c-41.15,39.63-72.32,90-87,145.24S289.93,604.66,311,657.76Z"/><ellipse class="cls-5" cx="571.43" cy="658.2" rx="350.96" ry="3.24"/><path class="cls-6" d="M731.67,435.25c0,43.45-17.28,83.71-46.71,116.69a221.12,221.12,0,0,1-21.84,21.28,243.39,243.39,0,0,0,4.56,85,137.51,137.51,0,0,1-17.82-7.32,146,146,0,0,1-48.7-39c-37,16.47-79.65,25.86-125.09,25.86-74.69,0-141.9-25.37-188.64-65.84a222.45,222.45,0,0,1-16.27-15.57c-31.84-33.76-50.69-75.65-50.69-121,0-99.12,90-181.6,208.72-199q11.43-1.68,23.19-2.54t23.69-.86a322.59,322.59,0,0,1,49.43,3.78q12.88,2,25.29,5A295.87,295.87,0,0,1,590,254a274.64,274.64,0,0,1,37.18,18h0C690.52,308.78,731.67,368.21,731.67,435.25Z"/><path class="cls-7" d="M590,254a83.44,83.44,0,0,0-28.55,37.68c-6.94,18.08-7.24,38.14-3.44,57.12-5.18,1.84-11-1.76-13.63-6.6s-2.84-10.55-3.13-16a231.42,231.42,0,0,0-7-47.66C505.29,253,462,245,425.85,258.61a22.9,22.9,0,0,1,8.68-14.88c5.06-4.24,11.07-7.16,17.13-9.76l.72-.3q11.7-.85,23.69-.86a322.59,322.59,0,0,1,49.43,3.78q12.88,2,25.28,5A295.55,295.55,0,0,1,590,254Z"/><path class="cls-2" d="M610.26,262.85c-.06.13-1.89-.54-5.32-2-.85-.35-1.8-.77-2.86-1.18s-2.23-.87-3.49-1.37l-2-.77c-.68-.27-1.37-.55-2.11-.82L589.88,255c-6.6-2.39-14.71-5.19-24.3-7.86a316.62,316.62,0,0,0-33-7.39c-3.09-.49-6.25-1-9.5-1.46l-4.92-.67-5-.56-2.56-.29-2.58-.23-5.26-.45-5.36-.34-2.72-.17-2.74-.1A319.88,319.88,0,0,0,445.05,237c-8.22.82-16.6,2.09-25.1,3.67s-17.12,3.54-25.78,6a295.11,295.11,0,0,0-51.89,19.78l-3.19,1.6c-1.06.53-2.13,1.05-3.16,1.63L329.71,273c-1,.54-2,1.17-3,1.75l-3,1.78-3,1.78-2.94,1.87-2.93,1.86c-1,.63-1.95,1.23-2.89,1.9l-5.66,3.9c-.95.63-1.85,1.33-2.76,2l-2.72,2-2.72,2c-.89.68-1.75,1.4-2.63,2.11-1.73,1.41-3.48,2.8-5.19,4.22l-5,4.37c-1.68,1.43-3.23,3-4.81,4.47L278,311.35l-1.18,1.12-1.12,1.16-4.46,4.64c-.37.39-.75.76-1.1,1.16l-1.05,1.19L267,323c-2.85,3.11-5.37,6.43-8,9.63-.66.79-1.23,1.64-1.84,2.46s-1.21,1.65-1.8,2.47c-1.19,1.65-2.43,3.25-3.49,4.95l-3.28,5c-.27.41-.55.82-.81,1.24l-.76,1.26-1.51,2.51a179.28,179.28,0,0,0-10.16,20.27,174.27,174.27,0,0,0-11.39,39,162,162,0,0,0-2.15,33.53,149.87,149.87,0,0,0,3.2,25.22c.18.85.37,1.68.54,2.49s.39,1.58.58,2.33c.38,1.51.72,2.92,1.11,4.21s.68,2.5,1,3.58.65,2.07.93,2.95.54,1.66.76,2.32.4,1.23.54,1.68c.28.91.39,1.39.32,1.42s-.31-.39-.73-1.25l-.74-1.61c-.29-.65-.63-1.39-1-2.26s-.71-1.84-1.13-2.91-.79-2.27-1.24-3.55-.86-2.69-1.31-4.19c-.22-.76-.48-1.53-.67-2.34l-.65-2.49a140.55,140.55,0,0,1-4-25.47A158.59,158.59,0,0,1,221,411.34a174.31,174.31,0,0,1,11.1-39.92,181.63,181.63,0,0,1,10.18-20.78c.5-.86,1-1.72,1.52-2.58l.77-1.3c.26-.43.55-.85.82-1.27l3.3-5.12c1.08-1.75,2.32-3.39,3.52-5.08l1.82-2.53c.62-.85,1.2-1.72,1.87-2.53,2.62-3.27,5.18-6.68,8.07-9.86l2.12-2.44,1.07-1.23c.35-.41.74-.79,1.11-1.18l4.52-4.75,1.15-1.19,1.19-1.15,2.39-2.3c1.6-1.53,3.18-3.12,4.89-4.57s3.36-3,5.06-4.47,3.51-2.87,5.27-4.32c.89-.72,1.76-1.45,2.67-2.16s1.83-1.37,2.75-2.07l2.77-2.07c.93-.69,1.84-1.4,2.81-2.05l5.74-4c.95-.68,1.95-1.3,2.94-1.93l3-1.9,3-1.91,3.06-1.81,3.07-1.81c1-.59,2-1.23,3.09-1.78l6.32-3.43c1.05-.59,2.13-1.12,3.21-1.66l3.23-1.61a293.77,293.77,0,0,1,52.68-20c8.78-2.44,17.53-4.38,26.14-6s17.12-2.8,25.45-3.58a315.89,315.89,0,0,1,47.44-1.1l2.78.13,2.74.2,5.42.41,5.3.52,2.62.26,2.58.32,5.08.64,5,.74c3.28.46,6.45,1.07,9.57,1.61a303.47,303.47,0,0,1,33.11,8.07c9.6,2.92,17.69,6,24.23,8.61l4.6,1.91c.73.3,1.42.61,2.08.91l1.93.87,3.41,1.56c1,.47,2,1,2.8,1.37C608.61,261.78,610.32,262.72,610.26,262.85Z"/><path class="cls-8" d="M301.17,409.18c-1.76,2.8-1.61,6.47-.51,9.6s3,5.89,4.68,8.76l.06.09a37.42,37.42,0,0,1,5,17.63,194.7,194.7,0,0,1-.88,30.09c-2.36,19.29-9.28,37.67-14.75,56.31-3.83,13.08-7,26.66-7.32,40.19a222.45,222.45,0,0,1-16.27-15.57l1.95-100.17c.69-35.62,1.4-71.44,7.91-106.47,1.25-6.69,2.76-13.49,6.34-19.29A20.67,20.67,0,0,1,304.31,321c-4.9,2.54-4,10.14-.49,14.4s8.71,7,11.67,11.65c5.72,9,1,20.54-1.94,30.75a105.85,105.85,0,0,0-3.76,21.63,6.89,6.89,0,0,1-3.47,5.46A13.69,13.69,0,0,0,301.17,409.18Z"/><path class="cls-9" d="M273.62,627.87a16.82,16.82,0,0,1-.12,14c-1.21,2.46-3,4.45-4.17,6.95s-1.46,5.94.23,8a4.29,4.29,0,0,0,4.06,1.38,8.62,8.62,0,0,0,3.95-2.13,22.1,22.1,0,0,0,7.09-15.16,23.17,23.17,0,0,0-5.19-16.2C277.4,625.67,275.69,626.83,273.62,627.87Z"/><path class="cls-9" d="M272,627.87a16.82,16.82,0,0,0,.12,14c1.21,2.46,3,4.45,4.17,6.95s1.46,5.94-.23,8a4.29,4.29,0,0,1-4.06,1.38,8.62,8.62,0,0,1-4-2.13A22.1,22.1,0,0,1,261,640.83a23.21,23.21,0,0,1,5.18-16.2C268.26,625.67,270,626.83,272,627.87Z"/><path class="cls-10" d="M312.41,358.63c-2.12,5.89-6.74,10.37-11.6,14s-10.14,6.63-14.57,10.83a29.9,29.9,0,0,0-4.77,5.78,20.08,20.08,0,0,0-3.3,10.48c-2-2.9-5-3.82-8.34-4s-6.79.24-10.1-.48-6.63-3-7.29-6.55c-1.1-5.93,5.63-11.05,4.8-17-.43-3-2.74-5.36-5.24-6.83s-5.31-2.32-7.8-3.81a19.73,19.73,0,0,1-9.07-13.74,20.81,20.81,0,0,1,4.34-16.2c2.66-3.22,6.23-5.43,9.13-8.42s5.18-7.32,4.11-11.45c-.49-1.89-1.63-3.51-2.44-5.27a16.27,16.27,0,0,1,2.92-17.43c4.26-4.38,11.62-5.17,16.83-2.22.57-.61,1.16-1.24,1.76-1.84,2.23-2.27,4.67-4.32,7.63-5.08,3.75-.95,8.45,1.21,8.95,5.28s-3.09,7.44-3.2,11.48c-.1,3.87,3,7,6.37,8.56s7,2.14,10.24,3.95,6,5.52,5.11,9.29c-1.32,5.81-10,7.91-9.8,13.88.11,2.76,2.29,4.93,4.58,6.2s4.88,2,7,3.58C313.45,345.18,314.53,352.73,312.41,358.63Z"/><path class="cls-11" d="M312.41,358.63c-2.12,5.89-6.74,10.37-11.6,14s-10.14,6.63-14.57,10.83a29.9,29.9,0,0,0-4.77,5.78,28.27,28.27,0,0,1-12.25-9.84c-3.93-5.91-4.91-13.4-4.05-20.44s3.43-13.75,6.11-20.32c2.61-6.37,4.51-13.2,2.4-19.75,3.09-1.34,7-.89,9.28,1.59,1.76,1.92,2.72,5.48,5.11,6.52,2.69,1.17,5.77-.59,7.85-2.66,2.72-2.7,4.83-6.86,3.09-10.27-1.43-2.8-4.83-3.87-7.93-4.39s-6.46-.82-8.82-2.9a9.41,9.41,0,0,1-2.75-7.95,21,21,0,0,1,3-8.15c1.29-2.28,2.77-5,1.73-7.35-1-2.22-3.85-3.07-6.21-2.53s-4.34,2.12-6.21,3.65v0c2.23-2.27,4.67-4.32,7.63-5.08,3.75-.95,8.45,1.21,8.95,5.28s-3.09,7.44-3.2,11.48c-.1,3.87,3,7,6.37,8.56s7,2.14,10.24,3.95,6,5.52,5.11,9.29c-1.32,5.81-10,7.91-9.8,13.88.11,2.76,2.29,4.93,4.58,6.2s4.88,2,7,3.58C313.45,345.18,314.53,352.73,312.41,358.63Z"/><path class="cls-12" d="M280.64,341.47a14.21,14.21,0,0,1-16,1.74,31.42,31.42,0,0,0,2.54-13.78c0-.56-.05-1.11-.1-1.66a30.31,30.31,0,0,0-1.27-6.53c4.64.7,9.76.88,14.4,1.57a18.65,18.65,0,0,0-2.18,9.31,20.17,20.17,0,0,0,.14,2.06A18.09,18.09,0,0,0,280.64,341.47Z"/><path class="cls-13" d="M278,332.12a20.17,20.17,0,0,0,.14,2.06,14.78,14.78,0,0,0-11-4.75c0-.56-.05-1.11-.1-1.66a30.31,30.31,0,0,0-1.27-6.53c4.64.7,9.76.88,14.4,1.57A18.65,18.65,0,0,0,278,332.12Z"/><path class="cls-12" d="M282.76,320.27c-2,5-5.76,8.29-10.1,8.29-5,0-9.21-4.38-10.84-10.53a13,13,0,0,1,1.27-4.26c1.16-2.28,2.94-4.18,4.31-6.34s2.34-4.8,1.61-7.25c3.81-.71,8.14,2.24,9.28,5.95.72,2.32.33,4.85.71,7.26A11.76,11.76,0,0,0,282.76,320.27Z"/><path class="cls-14" d="M303.1,359.44c-.54,8.51-2.54,16.73-4.71,24.89-.72,2.71-1.45,5.41-2.15,8.12-.05.16-.09.32-.13.47-.21.81-.42,1.61-.61,2.42-.91,3.6-1.73,7.26-2.35,10.94-.17,1-.34,2-.47,3a66.52,66.52,0,0,0-.34,17.6,82,82,0,0,1-19.59,2.66h-.1a82.06,82.06,0,0,1-19.59-2.66,69,69,0,0,0-.71-20.07c-.19-1.17-.4-2.35-.63-3.52-.29-1.44-.6-2.88-.93-4.31-.26-1.15-.54-2.29-.82-3.43-.22-.89-.45-1.78-.67-2.66-2.86-11-6.26-22-7-33.48-.32-5.1.07-10.78,3.11-14.39,2.37-2.81,5.84-3.76,9.11-4.58l3.68-.93,12.19-3.06,2.26-.58h.1l14.57,3.67,3.57.9c3.27.82,6.73,1.77,9.1,4.58C303,348.66,303.43,354.34,303.1,359.44Z"/><path class="cls-15" d="M304.31,471.67c-2,15.51-6.71,30.44-11,45.48-1.25,4.41-2.46,8.82-3.55,13.26-6.48,26.3-8.81,70.89-6.88,98l-.08.07a15,15,0,0,1-10.24,3.84l-.7,0a15.09,15.09,0,0,1-9.18-3.82l-.08-.07c1.93-27.06-.4-71.65-6.87-98-4.83-19.6-11.95-38.68-14.54-58.74-2.43-18.88-.27-39.44,10.5-54.7.67-.94,1.37-1.87,2.1-2.77l1.54-.17a168.84,168.84,0,0,1,34.82,0l1.55.17C304.3,429.67,306.9,451.62,304.31,471.67Z"/><path class="cls-16" d="M295.5,395.34c-.91,3.6-1.73,7.26-2.35,10.94-.17,1-.34,2-.47,3a67,67,0,0,0-9-5.88c-5.37-2.83-11.45-4.62-17.49-4a19.62,19.62,0,0,0-13.8,7.43c-.19-1.17-.4-2.35-.63-3.52-.29-1.44-.6-2.88-.93-4.31.21-.26.43-.51.64-.75,4.23-4.82,8.69-9.82,14.67-12.12s12.67-1.58,18.4,1.05A35.58,35.58,0,0,1,295.5,395.34Z"/><path class="cls-12" d="M287.32,339.57c-2,9.62-7.77,16.57-14.56,16.57s-12.56-7-14.56-16.6l14.45-3.64h.1Z"/><path class="cls-17" d="M272.81,382.17a6.23,6.23,0,0,1-.58,1.05c-.25.37-.55.75-.9,1.18s-.74.87-1.18,1.32-.91,1-1.44,1.47L267,388.8c-.6.55-1.22,1.16-1.88,1.77-1.32,1.23-2.73,2.6-4.25,4.05-.38.37-.75.75-1.14,1.14s-.78.77-1.17,1.18l-1.19,1.22-1.2,1.29c-1.6,1.76-3.28,3.63-4.89,5.69s-3.22,4.25-4.76,6.61l-.08.12a4.3,4.3,0,0,1-7.86-1.76h0l-.57-2.57c-.2-.87-.36-1.75-.54-2.63-.66-3.32-1.19-6.6-1.57-9.78s-.64-6.26-.75-9.2c-.05-1.47-.08-2.9-.05-4.3s.06-2.74.14-4.05c0-.5.07-1,.11-1.47.17-2.05.43-4,.75-5.76a42.67,42.67,0,0,1,1.1-4.57q.19-.67.42-1.29a21.31,21.31,0,0,1,2-4.29,8.75,8.75,0,0,1,2.24-2.53,3.14,3.14,0,0,1,2.28-.65,3.25,3.25,0,0,1,2,1.26,9.24,9.24,0,0,1,1.49,3,25.23,25.23,0,0,1,.94,4.44c.12,1,.22,2.1.29,3.26.05.79.08,1.61.1,2.46,0,2.11,0,4.4-.07,6.85,0,1.23-.11,2.5-.17,3.81s-.15,2.65-.24,4c-.07,1-.14,1.93-.2,2.93-.11,1.59-.23,3.23-.34,4.9.32-.37.63-.74.95-1.1l1.37-1.48,1.39-1.38c.45-.46.92-.89,1.39-1.3l1.37-1.22a47.7,47.7,0,0,1,5.42-3.9c.87-.53,1.7-1,2.52-1.43s1.59-.79,2.35-1.09,1.45-.57,2.12-.77,1.29-.35,1.86-.46a8.31,8.31,0,0,1,1.56-.18,6,6,0,0,1,1.24.07,1.8,1.8,0,0,1,1.39.85A1.93,1.93,0,0,1,272.81,382.17Z"/><path class="cls-13" d="M248.92,378.26c0,1.23-.11,2.5-.17,3.81s-.15,2.65-.24,4c-.07,1-.14,1.93-.2,2.93a24.8,24.8,0,0,0-4.13-8,12.93,12.93,0,0,0-8.79-4.91c.17-2.05.43-4,.75-5.76a42.67,42.67,0,0,1,1.1-4.57,10.08,10.08,0,0,1,3.69.34,40.53,40.53,0,0,1,8,2.83c.05.79.08,1.61.1,2.46C249,373.52,249,375.81,248.92,378.26Z"/><path class="cls-14" d="M255.75,340.42c-4.08.4-8.44.92-11.56,3.58-2.65,2.26-4,5.7-5,9a107.62,107.62,0,0,0-4.32,21.39,32.06,32.06,0,0,0,18.76,3.4c-1.54-6.45-3.37-12.76-3.44-19.39S251.68,345.65,255.75,340.42Z"/><path class="cls-9" d="M304.31,471.67c-2,15.51-6.71,30.44-11,45.48.15-1.35.36-2.7.59-4,1.16-6.58,3.17-13,4.72-19.5,2.81-11.82,4.11-24.16,2.09-36.14s-7.55-23.61-16.74-31.56c-8.76-7.57-21-11.4-32.28-8.94.67-.94,1.37-1.87,2.1-2.77l1.54-.17a168.84,168.84,0,0,1,34.82,0l1.55.17C304.3,429.67,306.9,451.62,304.31,471.67Z"/><path class="cls-9" d="M276,542.68c0,6.92-.08,13.66-.2,20.18-.05,3.26-.13,6.46-.21,9.59s-.16,6.21-.26,9.2-.19,5.91-.31,8.74-.24,5.59-.35,8.25-.26,5.23-.39,7.7-.25,4.84-.39,7.1c-.27,4.52-.52,8.61-.79,12.19q-.26,3.69-.48,6.64l-.7,0q.15-3,.31-6.66c.18-3.6.35-7.69.53-12.21.11-2.26.19-4.63.28-7.1s.18-5,.28-7.69.16-5.41.24-8.24.14-5.75.22-8.74.13-6.06.18-9.19.12-6.33.14-9.59c.08-6.5.11-13.24.11-20.15,0-3.45,0-6.86,0-10.22s-.07-6.68-.1-9.93-.1-6.45-.15-9.58-.13-6.2-.19-9.19-.16-5.91-.23-8.74c0-1.42-.08-2.81-.12-4.19s-.09-2.72-.14-4.05c-.09-2.66-.17-5.22-.25-7.7s-.19-4.83-.28-7.09a79.65,79.65,0,0,0-1-12.08,24.56,24.56,0,0,0-1.37-4.7,18.62,18.62,0,0,0-2-3.59,14.34,14.34,0,0,0-4.08-3.93,17.27,17.27,0,0,1-1.74-1,4.86,4.86,0,0,1,2,.67,13.71,13.71,0,0,1,4.51,3.83,18.31,18.31,0,0,1,2.23,3.68,24.31,24.31,0,0,1,1.59,4.86,76,76,0,0,1,1.26,12.23q.19,3.39.39,7.1c.13,2.47.23,5,.36,7.7.05,1.33.11,2.68.18,4.06s.1,2.77.15,4.19c.09,2.83.21,5.75.29,8.74s.15,6.07.23,9.2.11,6.34.17,9.59.07,6.58.1,10S276,539.23,276,542.68Z"/><path class="cls-18" d="M265,360.06l2.19,10.65-8.59-7.62c-5.66,1.17-11.35,2.84-17.07,2s-11.28-3.72-14.6-8.45-4-11.43-1-16.34c2.07-3.32,5.52-5.51,9.05-7.18,6.14-2.89,13.06-4.52,19.76-3.4s13.07,5.29,15.75,11.52S270.63,356.33,265,360.06Z"/><path class="cls-2" d="M247.26,335.73a12,12,0,1,0,12,12A12,12,0,0,0,247.26,335.73Zm-6.51,12c-.15-.17.14-.74.86-1.42a8.86,8.86,0,0,1,2.33-1.53c-1.32-1.44-2.51-2.35-2.33-2.71.1-.2.71-.16,1.57.23a8.54,8.54,0,0,1,2.9,2.29l.8,1-1.2.42-.19.07C243,346.89,241.09,348.09,240.75,347.73Zm6.51,7.07a5.6,5.6,0,0,1-5.6-5.59h11.19A5.59,5.59,0,0,1,247.26,354.8Zm6.7-7.07c-.33.36-2.19-.84-4.72-1.69L249,346l-1.2-.42.8-1a8.38,8.38,0,0,1,2.91-2.29c.86-.39,1.46-.43,1.57-.23.17.36-1,1.27-2.34,2.71a8.86,8.86,0,0,1,2.33,1.53C253.83,347,254.12,347.56,254,347.73Z"/><path class="cls-2" d="M250.71,352.75a5.54,5.54,0,0,1-6.91,0,4.55,4.55,0,0,1,6.91,0Z"/><path class="cls-2" d="M268.15,337.36a16.38,16.38,0,0,1-1.87-1.5,25.13,25.13,0,0,0-5.52-3.33,26.93,26.93,0,0,0-9.25-2.2,34.23,34.23,0,0,0-11.58,1.37A27.42,27.42,0,0,0,229.61,337a15.4,15.4,0,0,0-5,7.82,12.81,12.81,0,0,0-.13,6.32c.37,1.48.8,2.23.71,2.28a5.42,5.42,0,0,1-1.13-2.16,12.38,12.38,0,0,1-.22-6.63,14.57,14.57,0,0,1,1.7-4.31,17.54,17.54,0,0,1,3.41-4.1,27.48,27.48,0,0,1,10.69-5.55,34.08,34.08,0,0,1,12-1.33,26.43,26.43,0,0,1,9.51,2.52,21.85,21.85,0,0,1,5.48,3.72A7.06,7.06,0,0,1,268.15,337.36Z"/><path class="cls-17" d="M309.3,385.93c-.12,2.94-.36,6-.75,9.2-.09.77-.19,1.54-.3,2.32-.35,2.44-.77,4.94-1.27,7.46-.18.88-.34,1.76-.54,2.63l-.57,2.57h0a4.32,4.32,0,0,1-6.48,3.12,4.38,4.38,0,0,1-1.39-1.36l-.08-.12c-1.53-2.36-3.14-4.56-4.76-6.61s-3.28-3.93-4.88-5.69l-1.2-1.29-1.19-1.22c-.39-.41-.78-.8-1.17-1.18l-1.14-1.14c-1.52-1.45-2.93-2.82-4.25-4.05-.66-.61-1.28-1.22-1.88-1.77l-1.67-1.61c-.53-.51-1-1-1.44-1.47s-.84-.9-1.19-1.32-.64-.81-.89-1.18a5.59,5.59,0,0,1-.58-1.05,1.9,1.9,0,0,1-.1-1.63,1.8,1.8,0,0,1,1.4-.85,5.87,5.87,0,0,1,1.23-.07,8.4,8.4,0,0,1,1.57.18c.57.11,1.19.27,1.86.46s1.36.48,2.12.77,1.53.68,2.34,1.09,1.66.9,2.53,1.43a47.63,47.63,0,0,1,5.41,3.9l1.38,1.22c.47.41.93.84,1.39,1.3l1.39,1.38,1.36,1.48c.33.36.64.73,1,1.1-.19-2.71-.37-5.33-.54-7.83-.1-1.38-.16-2.73-.24-4,0-.76-.08-1.49-.11-2.21,0-.4,0-.78-.05-1.17,0-.14,0-.29,0-.43-.08-2.45-.11-4.74-.06-6.85a55.56,55.56,0,0,1,.39-5.72,25.23,25.23,0,0,1,.94-4.44,9.24,9.24,0,0,1,1.49-3,3.22,3.22,0,0,1,2-1.26,3.11,3.11,0,0,1,2.27.65,8.92,8.92,0,0,1,2.25,2.53,21.88,21.88,0,0,1,2,4.29,39.8,39.8,0,0,1,1.51,5.86,61.49,61.49,0,0,1,.87,7.23c.08,1.31.13,2.66.14,4.05S309.34,384.46,309.3,385.93Z"/><path class="cls-13" d="M309.3,385.93c-.12,2.94-.36,6-.75,9.2-.09.77-.19,1.54-.3,2.32A52.76,52.76,0,0,0,305.51,386c-.72-2-1.65-4-3.4-5.24s-4.18-1.3-6.48-.92c0-.4,0-.78-.05-1.17,0-.14,0-.29,0-.43-.08-2.45-.11-4.74-.06-6.85a55.56,55.56,0,0,1,.39-5.72,25.23,25.23,0,0,1,.94-4.44,9.24,9.24,0,0,1,1.49-3,3.22,3.22,0,0,1,2-1.26,3.11,3.11,0,0,1,2.27.65,8.92,8.92,0,0,1,2.25,2.53,21.88,21.88,0,0,1,2,4.29,39.8,39.8,0,0,1,1.51,5.86,61.49,61.49,0,0,1,.87,7.23c.08,1.31.13,2.66.14,4.05S309.34,384.46,309.3,385.93Z"/><path class="cls-14" d="M288.57,340.05c4.07.41,8.43.92,11.55,3.58,2.66,2.26,4,5.7,5,9A107.38,107.38,0,0,1,309.43,374a32,32,0,0,1-18.76,3.4c1.54-6.44,3.37-12.76,3.44-19.39S292.63,345.29,288.57,340.05Z"/><path class="cls-17" d="M263.19,383.61a4.63,4.63,0,0,1,.56-4.17,7.69,7.69,0,0,1,3.38-2.68,22.4,22.4,0,0,1,4.19-1.23,12.87,12.87,0,0,1-.11,5.1,4.84,4.84,0,0,1-3.39,3.57A7.25,7.25,0,0,1,263.19,383.61Z"/><path class="cls-19" d="M279.44,372.72l-1.74,20.49a1.36,1.36,0,0,1-1.36,1.36H269a1.35,1.35,0,0,1-1.35-1.36l-1.2-20.31a1.36,1.36,0,0,1,1.35-1.35l10.29-.18A1.35,1.35,0,0,1,279.44,372.72Z"/><path class="cls-2" d="M277.72,371.42a16.37,16.37,0,0,1-3.78.23c-1.17,0-2.56,0-4.11,0a7.38,7.38,0,0,0-2.27.17,1.29,1.29,0,0,0-.76.57,2.12,2.12,0,0,0-.12,1.08c.24,3.55.42,6.78.51,9.11a17.78,17.78,0,0,1,0,3.79,16.69,16.69,0,0,1-.56-3.75c-.23-2.33-.5-5.54-.75-9.1a2.85,2.85,0,0,1,.22-1.51,2,2,0,0,1,1.23-1,8,8,0,0,1,2.53-.17l4.11.15A17.45,17.45,0,0,1,277.72,371.42Z"/><path class="cls-17" d="M280.11,381.91a2.38,2.38,0,0,0,.44-2.1,2.42,2.42,0,0,0-1.45-1.59c.08,1.39-1.34,2.43-2.69,2.75a8.53,8.53,0,0,1-4.12-.38,3,3,0,0,0-1.89-.11,2.89,2.89,0,0,0-1.4,2,33,33,0,0,0-1,4,4.33,4.33,0,0,0,.39,3.4,3.47,3.47,0,0,0,3.44,1c1.23-.25,2.37-.84,3.59-1.13a7.55,7.55,0,0,1,5.39.75C280.52,387.62,280.39,384.77,280.11,381.91Z"/><path class="cls-2" d="M264.6,380.8c.14.25-5,2.88-10.29,7.55s-8.6,9.39-8.84,9.22a12.75,12.75,0,0,1,2-3.21c.69-.94,1.58-2,2.62-3.17a48.77,48.77,0,0,1,3.61-3.52,47.28,47.28,0,0,1,4-3.11c1.28-.88,2.46-1.63,3.48-2.19A12.64,12.64,0,0,1,264.6,380.8Z"/><path class="cls-15" d="M544.51,322.94c-1.9,3-.66,7,1.67,9.83s5.58,4.84,8.34,7.29,5.16,5.71,4.91,9.21c-.25,3.71-3.6,6.81-7.47,7.81a18.33,18.33,0,0,1-11.79-1.44,24.94,24.94,0,0,1-14-15.67,22.24,22.24,0,0,1,4.13-19.72C535.4,321.05,539.44,322.13,544.51,322.94Z"/><path class="cls-15" d="M408.14,321.87c1.63,3.18,0,7.05-2.52,9.65s-6,4.33-8.95,6.54S391,343.29,391,346.8c-.07,3.72,3,7.1,6.77,8.43a18.35,18.35,0,0,0,11.86-.4,25,25,0,0,0,15.28-14.41,22.26,22.26,0,0,0-2.4-20C417.37,320.78,413.25,321.51,408.14,321.87Z"/><path class="cls-14" d="M564.28,257.17a23.74,23.74,0,0,1-.37,2.49c-.43,2.15-.93,4.55-1.47,7.14-3.92,18.68-10.47,47.06-16.25,58.63A53.19,53.19,0,0,1,525,324.27c0-15.67-.31-65.72-.45-65.81a84.7,84.7,0,0,0-96.94,0c-.14.09-.45,50.14-.45,65.81a53.18,53.18,0,0,1-21.21,1.16c-7.76-15.54-13.66-45.22-17.73-65.92a23.49,23.49,0,0,1,5.51-20.08A118.22,118.22,0,0,1,429,212.29l1.25-.63,1.7-.82a48.06,48.06,0,0,1,17.94-4.26c1.08-.07,2.18-.11,3.28-.13s2,0,3,0c6,.06,12.16.63,18.32,1.17l1.53.14,1.53-.14c6.16-.54,12.33-1.11,18.33-1.17,8.56-.09,16.79.86,24.24,4.41,1,.47,2,.95,3,1.45a118.24,118.24,0,0,1,35.32,27.16A23.59,23.59,0,0,1,564.28,257.17Z"/><path class="cls-16" d="M564.28,257.17a23.74,23.74,0,0,1-.37,2.49c-.43,2.15-.93,4.55-1.47,7.14a40.46,40.46,0,0,0-5.76-19.2c-8-12.53-23.78-17.86-38.62-18.63s-29.65,2.09-44.5,1.7a102.69,102.69,0,0,1-49.47-14.24,177.7,177.7,0,0,0,29.09-10c1,0,2,0,3,0,6,.06,12.16.63,18.32,1.17l1.53.14,1.53-.14c6.16-.54,12.33-1.11,18.33-1.17,8.56-.09,16.79.86,24.24,4.41,1,.47,2,.95,3,1.45a118.24,118.24,0,0,1,35.32,27.16A23.59,23.59,0,0,1,564.28,257.17Z"/><path class="cls-10" d="M539.05,205a52.78,52.78,0,0,1-6.38,10.67q-4.92,1.65-10.11,3c-.83.22-1.67.44-2.52.64-4.54,1.12-9.22,2.07-14,2.83l-2.14.32a185.74,185.74,0,0,1-27.15,2,177,177,0,0,1-56.08-8.81A52.11,52.11,0,0,1,414.31,205a59.48,59.48,0,0,1-3.49-38.55,60.13,60.13,0,0,1,6.61-16.27c9.86-16.7,28.23-29.22,48.89-33.32H487l.22,0A76.57,76.57,0,0,1,524.2,135.7l1.1,1a65.75,65.75,0,0,1,8,9.33c.94,1.34,1.83,2.7,2.65,4.09a60.12,60.12,0,0,1,8.15,26A59.11,59.11,0,0,1,539.05,205Z"/><path class="cls-11" d="M520,219.3c-4.54,1.12-9.22,2.07-14,2.83l-2.14.32a35.29,35.29,0,0,0-13.83-11.6,37.1,37.1,0,0,0-30.74,0,68.25,68.25,0,0,1,6.35-10.42,23.44,23.44,0,0,1,9.18-8.18,25.41,25.41,0,0,1,13.25-1.75,38.2,38.2,0,0,1,21,8.82A32,32,0,0,1,520,218.67C520,218.88,520,219.09,520,219.3Z"/><path class="cls-12" d="M474,197.37a149.94,149.94,0,0,1-35.77,27.4,8.19,8.19,0,0,1-8.57-.44A47.35,47.35,0,0,1,414.31,205a59.32,59.32,0,0,1-4.4-34.07c.25-1.5.55-3,.91-4.48a93.07,93.07,0,0,0,29.47,3.08,54.46,54.46,0,0,0-1.7,21.73A49.26,49.26,0,0,0,440.5,200a109.85,109.85,0,0,1,17.79-9.89,14.47,14.47,0,0,0,7.63-7.79,7.71,7.71,0,0,1,1-1.79,8.26,8.26,0,0,1,6.25-3.14C473.39,184.05,473.81,190.66,474,197.37Z"/><path class="cls-13" d="M438.59,191.24a30,30,0,0,0-8.76-12.3,35.78,35.78,0,0,0-19.92-8c.25-1.5.55-3,.91-4.48a93.07,93.07,0,0,0,29.47,3.08A54.46,54.46,0,0,0,438.59,191.24Z"/><path class="cls-19" d="M490.28,172.91l-2,27.2a2,2,0,0,1-2,2H475.58a2,2,0,0,1-2-2l-1.21-26.93a2,2,0,0,1,2-2l13.93-.27A2,2,0,0,1,490.28,172.91Z"/><path class="cls-12" d="M544.25,180.69a59,59,0,0,1-5.2,24.29c-.37.83-.77,1.66-1.19,2.48l-.32.62c-.76,1.42-1.57,2.82-2.46,4.19l-.52.78-.53.76c-.18.26-.36.51-.55.76l-.56.75-.49.63c-.71.89-1.45,1.76-2.23,2.6l-.31.35-.33.34-.33.34c-.33.33-.66.66-1,1l-.34.32c-.35.33-.7.64-1.06,1l-.39.34-.33.28-.84.68c-.34.27-.69.53-1,.79l-.38.28-.4.27-.39.28c-.13.09-.26.18-.4.26s-.8.48-1.55.9a4,4,0,0,1-4.18-.16l0,0a63.54,63.54,0,0,1-21.15-24.19,39.8,39.8,0,0,1-12.23,0,31.08,31.08,0,0,1-6.61-1.75,36.77,36.77,0,0,1,0-16.5,30.5,30.5,0,0,1,10.47-1.12c.67,0,1.49.16,2.16.25.06-2.47.5-5.2.56-7.67a10.58,10.58,0,0,1,2.74.27,4.6,4.6,0,0,1,2.78,1.41c1,1.2.81,2.83.59,4.3s-.37,3-.61,4.61a47.63,47.63,0,0,1,18.45,9.93,53.45,53.45,0,0,0-.29-23c-.22-1-.46-1.89-.72-2.83a93.07,93.07,0,0,0,29.47-3.08,59.77,59.77,0,0,1,1.54,9.75c0,.32,0,.64.07,1,0,.14,0,.28,0,.43s0,.55,0,.83v.09c0,.35,0,.7,0,1v0C544.25,180,544.25,180.32,544.25,180.69Z"/><path class="cls-13" d="M544.25,180.69a59,59,0,0,1-5.2,24.29c-.37.83-.77,1.66-1.19,2.48l-.32.62c-.76,1.42-1.57,2.82-2.46,4.19l-.52.78-.53.76c-.18.26-.36.51-.55.76l-.56.75-.49.63c-.71.89-1.45,1.76-2.23,2.6l-.31.35-.33.34-.33.34c-.33.33-.66.66-1,1l-.34.32c-.35.33-.7.64-1.06,1l-.39.34c7.91-8.85,12-20.41,11-31.71-.39-4.15-1.53-8.42-4.52-11.6a20.07,20.07,0,0,0-9.65-5.24,49.55,49.55,0,0,0-9.44-1.29c-.22-1-.46-1.89-.72-2.83a93.07,93.07,0,0,0,29.47-3.08,59.77,59.77,0,0,1,1.54,9.75c0,.32,0,.64.07,1,0,.14,0,.28,0,.43s0,.55,0,.83v.09c0,.35,0,.7,0,1v0C544.25,180,544.25,180.32,544.25,180.69Z"/><path class="cls-11" d="M511.09,164.39c.23-.07.61.27,1.09,1,.12.18.24.38.37.59s.25.47.38.73a15.76,15.76,0,0,1,.79,1.81c.13.34.26.7.4,1.08s.24.77.36,1.18c.25.82.45,1.71.66,2.64.1.47.18,1,.26,1.45,0,.24.09.49.13.74l.09.77c.06.51.14,1,.18,1.57l.12,1.62c0,.55,0,1.1,0,1.63s0,1.06,0,1.58c0,.25,0,.51,0,.76s0,.51,0,.75c0,.5,0,1-.09,1.46-.09.94-.17,1.84-.29,2.67-.06.42-.1.82-.17,1.21s-.13.75-.19,1.1c-.11.71-.25,1.34-.37,1.9-.06.27-.11.53-.16.77s-.11.45-.16.65a6,6,0,0,1-.35,1.19,6.27,6.27,0,0,1,.09-1.23c0-.2,0-.42.08-.65s0-.51.06-.79c0-.56.11-1.19.12-1.9,0-.35,0-.72,0-1.1s0-.79,0-1.2c0-.83,0-1.71,0-2.64,0-.46-.07-.94-.1-1.42,0-.24,0-.49,0-.74s-.05-.49-.07-.74c-.06-.5-.09-1-.17-1.53s-.14-1-.21-1.57-.17-1-.25-1.56-.19-1-.28-1.5c0-.25-.09-.5-.13-.74s-.11-.48-.16-.72c-.1-.47-.19-.93-.29-1.38-.22-.9-.4-1.76-.61-2.56-.1-.39-.18-.78-.28-1.15s-.18-.73-.27-1.07c-.15-.68-.32-1.3-.43-1.85-.06-.27-.1-.53-.15-.77s-.08-.45-.11-.65C510.81,165,510.87,164.47,511.09,164.39Z"/><path class="cls-11" d="M443.25,161.07c.19.06.15.65-.09,1.63l-.47,1.77c-.19.69-.44,1.45-.66,2.32l-.37,1.35c-.14.47-.24,1-.38,1.47-.27,1-.49,2.1-.76,3.24-.12.58-.22,1.17-.34,1.77-.06.3-.11.61-.17.92s-.1.62-.14.93l-.15,1c-.05.32-.1.64-.13,1-.08.65-.16,1.32-.24,2l-.15,2c0,.32-.05.65-.06,1l0,1c0,.32,0,.64,0,.95v.93c0,.61,0,1.22,0,1.81.05,1.17.08,2.29.19,3.33.05.52.08,1,.14,1.52l.18,1.39c.1.89.27,1.68.38,2.38.07.36.12.68.18,1s.12.57.17.82a6.73,6.73,0,0,1,.26,1.55,8.46,8.46,0,0,1-.55-1.49l-.27-.8c-.09-.3-.17-.62-.27-1-.18-.69-.42-1.48-.6-2.37-.1-.44-.21-.91-.31-1.39s-.19-1-.28-1.52c-.21-1-.34-2.17-.49-3.37-.07-.59-.1-1.2-.16-1.83,0-.31-.05-.63-.07-.95s0-.64,0-1l0-1c0-.34,0-.67,0-1,0-.67,0-1.36,0-2.05s.09-1.38.13-2c0-.34.06-.67.1-1s.07-.66.11-1l.12-1c.05-.31.1-.63.16-.94.11-.62.19-1.23.32-1.82.27-1.18.51-2.31.83-3.34.16-.52.29-1,.46-1.49s.33-.93.49-1.36a23.84,23.84,0,0,1,1-2.3c.16-.33.3-.64.45-.92s.3-.53.44-.76C442.67,161.46,443.06,161,443.25,161.07Z"/><path class="cls-2" d="M486,171.05a6.09,6.09,0,0,1-1.2.08c-.77,0-1.89,0-3.27,0s-3,0-4.85,0a10.31,10.31,0,0,0-1.36,0,3.91,3.91,0,0,0-1.32.35,2.5,2.5,0,0,0-1,.9,3.55,3.55,0,0,0-.47,1.36,14.42,14.42,0,0,0,0,3c.06,1,.11,1.94.16,2.86.1,1.82.18,3.46.24,4.84s.1,2.49.12,3.27a6.26,6.26,0,0,1,0,1.2,5,5,0,0,1-.18-1.19c-.08-.77-.18-1.88-.29-3.26s-.23-3-.35-4.83c-.06-.91-.13-1.87-.19-2.86a13.64,13.64,0,0,1,0-3.13,4.05,4.05,0,0,1,.55-1.56,3.08,3.08,0,0,1,1.23-1.09,4.49,4.49,0,0,1,1.49-.38,11.54,11.54,0,0,1,1.43,0l4.85.13,3.27.14A5,5,0,0,1,486,171.05Z"/><path class="cls-11" d="M533.28,146.07a52.22,52.22,0,0,0-10.41-8.53c-8.7-5.35-19.89-7.64-29.52-4.07-3.77,1.39-7.24,3.64-11.2,4.39a15.48,15.48,0,0,1-14.67-5.23c3.39-5.08,6.86-10.79,10.93-15.79H487l.22,0A76.57,76.57,0,0,1,524.2,135.7l1.1,1A65.75,65.75,0,0,1,533.28,146.07Z"/><path class="cls-14" d="M486.74,104.29c-.17,1.58-.34,3.15-.5,4.72l-.42,4a32.2,32.2,0,0,0-10.12-1.49,32.65,32.65,0,0,0-8.28,1c-.61.16-1.22.33-1.84.53-.3-2.89-.61-5.78-.91-8.68a16.21,16.21,0,0,1,.08-5.73,9.78,9.78,0,0,1,6.69-6.48q.42-.14.84-.24a14,14,0,0,1,5.11-.32,14.41,14.41,0,0,1,1.74.32l.08,0,.76.22a9.78,9.78,0,0,1,6.68,6.48A16,16,0,0,1,486.74,104.29Z"/><path class="cls-16" d="M486.74,104.29c-.17,1.58-.34,3.15-.5,4.72l-.42,4a32.2,32.2,0,0,0-10.12-1.49,32.65,32.65,0,0,0-8.28,1,17.82,17.82,0,0,1-1.55-1.33,7.3,7.3,0,0,1,4.16-4.45c2.05-.82,4.36-.66,6.48-1.29a8.17,8.17,0,0,0,5-4,6.94,6.94,0,0,0,0-6.32A7.66,7.66,0,0,0,478,91.79a6.46,6.46,0,0,0-.6-.27,14.41,14.41,0,0,1,1.74.32l.08,0,.76.22a9.78,9.78,0,0,1,6.68,6.48A16,16,0,0,1,486.74,104.29Z"/><path class="cls-20" d="M484.61,118.68a2,2,0,0,1,1.4-1,2,2,0,0,1,1.65.5,3.61,3.61,0,0,1,.81,2.72,6,6,0,0,1-.84,3.4,2.56,2.56,0,0,1-3.1,1C484.46,123.18,484.68,120.81,484.61,118.68Z"/><path class="cls-13" d="M466.79,118.68a1.93,1.93,0,0,0-1.4-1,2,2,0,0,0-1.65.5,3.64,3.64,0,0,0-.8,2.72,5.94,5.94,0,0,0,.83,3.4,2.57,2.57,0,0,0,3.11,1C466.94,123.18,466.72,120.81,466.79,118.68Z"/><path class="cls-15" d="M470.4,107.49a13.41,13.41,0,0,0-2.8,1.15,4.64,4.64,0,0,0-2,2.21,7,7,0,0,0-.19,3.05l.93,10.43A68.2,68.2,0,0,1,470.4,107.49Z"/><path class="cls-9" d="M481,107.49a13.33,13.33,0,0,1,2.79,1.15,4.59,4.59,0,0,1,2,2.21,6.81,6.81,0,0,1,.19,3.05q-.47,5.2-.92,10.43A68.65,68.65,0,0,0,481,107.49Z"/><path class="cls-12" d="M485.32,131.21a8.28,8.28,0,0,1-6.09,5.62,25.35,25.35,0,0,1-5.69.24,8,8,0,0,1-1-.15,2.88,2.88,0,0,1-.4-.09,8.29,8.29,0,0,1-6.1-5.62,15,15,0,0,1-.19-5.05q.57-7.41,1.13-14.8l.46-.1.48-.1a53.7,53.7,0,0,1,7.74-1,54,54,0,0,1,8.68,1.19q.57,7.4,1.13,14.8A14.75,14.75,0,0,1,485.32,131.21Z"/><path class="cls-13" d="M485.32,131.21a8.28,8.28,0,0,1-6.09,5.62,25.35,25.35,0,0,1-5.69.24,10.53,10.53,0,0,0,3.95-.81,9.48,9.48,0,0,0-.59-17.69c-1.47-.51-3.09-.68-4.35-1.57a10.54,10.54,0,0,1-2.51-3.13,6.56,6.56,0,0,0-2.56-2.61l.48-.1a53.7,53.7,0,0,1,7.74-1,54,54,0,0,1,8.68,1.19q.57,7.4,1.13,14.8A14.75,14.75,0,0,1,485.32,131.21Z"/><path class="cls-15" d="M467,111.36a6,6,0,0,1,2.5-3.71,6.16,6.16,0,0,1,4.35-1.23,14.16,14.16,0,0,0,2.65.3c1.65-.15,2.91-1.49,3.9-2.82s2-2.78,3.5-3.4a4.73,4.73,0,0,1,5.32,1.63,6.73,6.73,0,0,1,1,5.69,11.82,11.82,0,0,1-3,5.09,13.57,13.57,0,0,1-5.19,3.58,8.72,8.72,0,0,1-6.22,0,18.84,18.84,0,0,1-4.2-2.87A9.09,9.09,0,0,0,467,111.36Z"/><path class="cls-2" d="M464.93,125.34s-.58-.21-1.22-.93a5,5,0,0,1-.86-1.45,5.12,5.12,0,0,1-.33-2,5,5,0,0,1,.51-2,2.6,2.6,0,0,1,1.21-1.22,1.66,1.66,0,0,1,1.16-.08c.26.08.37.21.35.23s-.15,0-.39-.07a1.81,1.81,0,0,0-1,.2,2.42,2.42,0,0,0-1,1.12,5.08,5.08,0,0,0-.17,3.73,5,5,0,0,0,.73,1.39C464.49,124.94,465,125.28,464.93,125.34Z"/><path class="cls-2" d="M488.49,101.55s-.28-.21-.82-.5a4.87,4.87,0,0,0-2.5-.53,4.36,4.36,0,0,0-1.7.41,4.44,4.44,0,0,0-1.56,1.24,17.8,17.8,0,0,0-1.29,1.89,8.7,8.7,0,0,1-1.59,2,4,4,0,0,1-1.13.7,4.33,4.33,0,0,1-1.26.28,11.67,11.67,0,0,1-2.35-.21,10.94,10.94,0,0,0-2.05-.22,3.76,3.76,0,0,0-1.69.4,3.86,3.86,0,0,0-1.76,1.8c-.27.55-.31.9-.35.89s0-.09,0-.26a2.62,2.62,0,0,1,.06-.3,1.85,1.85,0,0,1,.13-.4,3.64,3.64,0,0,1,.59-1,3.88,3.88,0,0,1,3-1.48,11.14,11.14,0,0,1,2.12.17,10.56,10.56,0,0,0,2.26.18,4,4,0,0,0,1.12-.25,3.48,3.48,0,0,0,1-.63,8.89,8.89,0,0,0,1.52-1.88,16,16,0,0,1,1.34-1.92,4.65,4.65,0,0,1,1.72-1.31,4.74,4.74,0,0,1,1.84-.4,4.69,4.69,0,0,1,2.59.7,4.16,4.16,0,0,1,.35.24l.23.21C488.44,101.47,488.5,101.53,488.49,101.55Z"/><path class="cls-21" d="M489.57,159.55l-1.18,10.08,7.37-7.76c5.36.63,10.78,1.73,16,.47s10.2-4.35,12.91-9,2.82-11-.4-15.27c-2.18-2.91-5.57-4.68-9-5.95-5.93-2.2-12.49-3.16-18.63-1.59s-11.73,5.95-13.72,12S484,156.54,489.57,159.55Z"/><path class="cls-2" d="M504.28,155.75c1.07-2,3.05-3.4,5-4.62s4-2.44,5.3-4.31,1.73-4.62.26-6.39a4.71,4.71,0,0,0-5.45-1,7.13,7.13,0,0,0-3.71,4.49,6.47,6.47,0,0,0-4-4.6,5.9,5.9,0,0,0-6.07.77A5.33,5.33,0,0,0,494,145.9c.87,2.25,3.19,3.52,5.29,4.71S503.81,153.38,504.28,155.75Z"/><path class="cls-2" d="M525.51,139.47c-.06.05-.28-.1-.63-.4-.17-.16-.38-.36-.64-.58s-.54-.49-.88-.76c-.66-.57-1.51-1.23-2.52-1.94a29.23,29.23,0,0,0-3.62-2.1,32.56,32.56,0,0,0-4.71-1.86,33.83,33.83,0,0,0-5.69-1.18c-1-.11-2.07-.18-3.14-.2a30.16,30.16,0,0,0-3.27.15,23.84,23.84,0,0,0-6.64,1.68,19.39,19.39,0,0,0-5.71,3.73,17.51,17.51,0,0,0-3.78,5.12,14.49,14.49,0,0,0-1,2.79l-.1.35-.07.35c0,.24-.09.47-.13.7-.05.47-.13.92-.14,1.38a14.29,14.29,0,0,0,2.53,8.78c.19.25.35.51.54.72l.54.64a13.8,13.8,0,0,0,1.06,1l.48.4.45.31.38.27.34.2a3.82,3.82,0,0,1,.6.38,3.25,3.25,0,0,1-.65-.29,2.34,2.34,0,0,1-.35-.18l-.41-.24-.47-.3-.51-.38a13.29,13.29,0,0,1-1.12-1l-.59-.63c-.2-.21-.38-.47-.58-.72a14.1,14.1,0,0,1-2.07-3.81,14.36,14.36,0,0,1-.88-5.2,12,12,0,0,1,.09-1.46c0-.25.07-.49.11-.74l.06-.38.09-.37a15,15,0,0,1,1-3,18.31,18.31,0,0,1,3.83-5.55,20,20,0,0,1,6-4.12,24,24,0,0,1,7-1.92,27,27,0,0,1,3.45-.2,32.17,32.17,0,0,1,3.3.19,31,31,0,0,1,6,1.28,29.23,29.23,0,0,1,4.9,2.07,25,25,0,0,1,3.66,2.4,22.19,22.19,0,0,1,2.42,2.25c.31.33.55.66.77.93a6.64,6.64,0,0,1,.51.71C525.46,139.19,525.57,139.42,525.51,139.47Z"/><path class="cls-15" d="M677.92,541.78c1.44-3.66,5-6.07,8.62-7.57s7.53-2.34,11.05-4.09,6.78-4.7,7.47-8.57c1.34-7.6-7.49-14.13-6.46-21.79.31-2.28,1.49-4.38,1.81-6.66a9,9,0,0,0-16.9-5.21c-5.91-2.19-12.94-2.69-18.56.15s-9.5,9.5-7.89,15.6c1.13,4.26,4.66,7.89,4.52,12.3-.08,2.71-1.57,5.15-2.8,7.57s-2.25,5.24-1.36,7.81c1,2.83,3.93,4.4,6.63,5.7C668.7,539.27,673.26,539.53,677.92,541.78Z"/><path class="cls-22" d="M688.36,554.3l15.92,28.38c2.45,4.37,4.93,8.78,8.33,12.45s7.87,6.59,12.85,7.16a59.77,59.77,0,0,1-14.34,5c-2.32.42-4.89.64-6.86-.67s-2.76-3.84-3.39-6.16C696.73,585.19,692.5,569.55,688.36,554.3Z"/><path class="cls-15" d="M887.81,653.55a12,12,0,0,0,8.49-5.29,24,24,0,0,0,3.61-9.59c.63-3.38.9-6.83,1.56-10.2a10,10,0,0,1,1.66-4.3,4,4,0,0,1,4.08-1.6,4.05,4.05,0,0,1,2.46,2.46,12.31,12.31,0,0,1,.65,3.52c.4,4.85.8,9.76-.07,14.54s-3.18,9.5-7.19,12.25a18.62,18.62,0,0,1-11,2.85,55.53,55.53,0,0,1-11.36-1.85C883,655.46,885.37,653.75,887.81,653.55Z"/><path class="cls-12" d="M837.83,645.68l-41.31-79.24a11.15,11.15,0,0,0-15.44-4.34l-71.93,41.27-1.15.78-2.69-7.37-17.93-49L682.6,537a18.12,18.12,0,0,1,.58-1.91c1.15-3.5,3.76-10.82,5-14.09a22.71,22.71,0,0,0-11.33-2.66c-.64,2-1.38,4-2.2,5.91q-.27.64-.57,1.29l-.06.12a76.94,76.94,0,0,1-8.59,14.45c-.22.31-.47.63-.7.94-11.81,15.36-15.66,35.92-18.58,55.07-2.23,14.58-1.75,29.86,2.66,43.85.48,1.52,1,3,1.58,4.52l0,.08a18.23,18.23,0,0,0,11.14,10.63,56.38,56.38,0,0,0,15.3,2.93c1,0,1.94.08,2.91.07L888.21,658l.47-5.49ZM730.3,630.78,785.45,593l39.13,50.72Z"/><path class="cls-14" d="M837.83,645.68l-15.27-29.3-26-49.94a11.15,11.15,0,0,0-15.44-4.34l-71.93,41.27-.95.65-.2.13-.06-.17-2.63-7.19c-1,2.25-2.19,4.46-3.45,6.6a75.46,75.46,0,0,1-53,36.54q.72,2.28,1.58,4.52l0,.08a18.18,18.18,0,0,0,11.15,10.62,56.25,56.25,0,0,0,15.29,2.94c1,0,1.94.07,2.91.07l43.86,0L888.21,658l.47-5.49ZM730.3,630.77,785.45,593l33,43.88,5.11,6.79Z"/><path class="cls-16" d="M695.61,651.56a178.51,178.51,0,0,0,28,6.57l-43.86,0c-1,0-1.94,0-2.91-.07a56.25,56.25,0,0,1-15.29-2.94,18.18,18.18,0,0,1-11.15-10.62l0-.08q-.85-2.24-1.58-4.52a75.46,75.46,0,0,0,53-36.54,60.1,60.1,0,0,1,6.08.59l.26,0c10.32,1.48,20.9,4.71,30.64,2.21a135.94,135.94,0,0,0-46.05,25.3,23.7,23.7,0,0,0-5.4,5.78,9.09,9.09,0,0,0-1,7.62C687.72,648.62,691.86,650.35,695.61,651.56Z"/><path class="cls-23" d="M709.15,603.37l0,.16c0,.38-.09.75-.14,1.11-3.55,23.42-33.63,34.24-58.56,39.81-.38-1-.75-2-1.09-3-4.86-14.39-5.46-30.24-3.15-45.35,2.92-19.14,6.77-39.7,18.58-55.06.23-.31.48-.62.7-.94,2,3.83,4.4,7.46,8.17,9.4a12.53,12.53,0,0,0,11,.14,11.85,11.85,0,0,0,2.75-1.85L708,604.15Z"/><path class="cls-16" d="M837.83,645.68l-14.27-2-5.11-6.79a20.22,20.22,0,0,0,4.11-20.46Z"/><path class="cls-22" d="M709,604.64c-3.55,23.42-33.63,34.24-58.56,39.81-.38-1-.75-2-1.09-3a69.37,69.37,0,0,0,18.31-4.13c4.22-1.59,8.56-3.84,10.68-7.82,2-3.74,1.62-8.38,0-12.29s-4.3-7.28-7-10.57c6,2.52,12.68,3.88,18.82,1.86,3.35-1.11,6.45-2.86,9.82-3.87A13.37,13.37,0,0,1,709,604.64Z"/><polygon class="cls-15" points="773.42 587.41 754.36 598.52 752.29 596.12 748.92 592.2 761.87 579.69 763.85 577.78 773.42 587.41"/><polygon class="cls-16" points="730.3 630.77 723.54 629.65 785.71 589.67 823.56 643.63 785.45 592.96 730.3 630.77"/><path class="cls-13" d="M688.21,521c-1.27,3.27-3.88,10.59-5,14.09a20.3,20.3,0,0,0-9.13-9.43l.06-.12q.3-.64.57-1.29c.82-1.94,1.56-3.91,2.2-5.91A22.71,22.71,0,0,1,688.21,521Z"/><path class="cls-12" d="M692.36,517.8h0A18.8,18.8,0,0,1,689.6,524h0a8.77,8.77,0,0,1-5.92,4c-5,.61-9.91-4.51-12.36-10.76l0-.08a17.1,17.1,0,0,1,2.15-2.84,36.37,36.37,0,0,1,4.66-4.1,40.58,40.58,0,0,0,7.27-6.5,14.24,14.24,0,0,0,2.21-3.91c2.65,1.85,4.61,5,5.23,9.38A22.7,22.7,0,0,1,692.36,517.8Z"/><path class="cls-2" d="M768.85,587.22s-12.94,7.22-16.56,8.9l-3.37-3.92,13-12.51Z"/><path class="cls-12" d="M742.32,599.05a15.91,15.91,0,0,1,11.42-11.49,8.94,8.94,0,0,0-2.17,3.36,2.74,2.74,0,0,0,.82,3.39c1.07.64,2.43.16,3.57-.32l6.29-2.67c1.32-.56,3-1.07,4-.11a2.5,2.5,0,0,1,.46,2.78,6.37,6.37,0,0,1-1.88,2.32,32,32,0,0,1-23.15,7.7A31.7,31.7,0,0,1,742.32,599.05Z"/><path class="cls-24" d="M676.26,561.15a181.05,181.05,0,0,1,16.57,35c16.48.45,32.83,1.2,49.3,1.66a11.33,11.33,0,0,1,1.3,7.05A169.5,169.5,0,0,1,687,617.41,12.57,12.57,0,0,1,676.87,613a83.25,83.25,0,0,1-19.27-47.06C662.68,562,669.83,560.9,676.26,561.15Z"/><path class="cls-22" d="M743.37,605a6.1,6.1,0,0,1-1.11.55c-.74.33-1.83.8-3.27,1.36s-3.18,1.23-5.24,2-4.42,1.52-7,2.31-5.53,1.62-8.67,2.41-6.51,1.54-10.09,2.22-7.35,1.29-11.28,1.78c-1,.14-2,.23-3,.34s-2,.22-3,.3a24.2,24.2,0,0,1-6.39-.24,14.24,14.24,0,0,1-3.14-1,16.22,16.22,0,0,1-2.79-1.67,25.72,25.72,0,0,1-4.42-4.36,75.58,75.58,0,0,1-6.47-9.52,74.68,74.68,0,0,1-4.56-9.34,77.84,77.84,0,0,1-2.93-8.56,70.64,70.64,0,0,1-1.62-7.29c-.09-.54-.18-1.06-.26-1.56s-.13-1-.19-1.46-.11-.91-.16-1.34-.07-.83-.1-1.22c-.06-.77-.11-1.45-.14-2s0-1.1,0-1.51c0-.81,0-1.24.11-1.24s.18.41.31,1.21c.07.4.14.9.22,1.48s.2,1.25.32,2c.06.37.11.77.19,1.19s.15.85.24,1.31.17.93.26,1.43.22,1,.33,1.53c.44,2.11,1.07,4.5,1.85,7.1a84.85,84.85,0,0,0,3,8.35,80.42,80.42,0,0,0,10.88,18.4,24.47,24.47,0,0,0,4.12,4.08,13,13,0,0,0,5.25,2.43,22.82,22.82,0,0,0,6,.28c1-.07,2-.16,3-.26s2-.18,3-.3c3.91-.43,7.66-1,11.23-1.59s6.93-1.29,10.06-2,6.05-1.45,8.68-2.19,5-1.44,7.08-2.09,3.86-1.25,5.31-1.75l3.34-1.15A4.81,4.81,0,0,1,743.37,605Z"/><path class="cls-2" d="M739,597.72c-1.9-.14-4.65-.3-8.05-.48-6.79-.36-16.18-.78-26.55-1.17l-10.82-.38a150.4,150.4,0,0,0-7.49-17c-1.09-2.09-2-3.72-2.66-4.82a7.67,7.67,0,0,0-1.11-1.65,8.92,8.92,0,0,0,.79,1.82c.55,1.16,1.37,2.83,2.36,5,2,4.23,4.66,10.26,7.22,17.45l.12.34.37,0,11.18.44c10.37.39,19.76.68,26.56.83,3.4.08,6.16.12,8.06.12a14.07,14.07,0,0,0,3-.11A14.94,14.94,0,0,0,739,597.72Z"/><path class="cls-18" d="M767.65,564.48l.3,13,7.95-11.14c6.9-.16,14,.27,20.37-2.26s12.13-7.34,14.73-13.72,1.63-14.36-3.23-19.26c-3.28-3.3-7.89-4.93-12.44-5.93-7.91-1.72-16.39-1.77-23.87,1.31s-13.79,9.63-15.24,17.59S760.07,561.66,767.65,564.48Z"/><path class="cls-2" d="M788.76,543.92c3.69-.24,6.26-.77,6.26-1.39s-2.46-1.13-6-1.38c.25-3.78,0-6.49-.58-6.57s-1.53,2.6-2.25,6.45l-1.62,0h-1.38c.24-3.72,0-6.37-.58-6.44s-1.55,2.65-2.27,6.55c-3.67.24-6.23.77-6.23,1.39s2.36,1.11,5.79,1.36l-.12.88c0,.42-.1.82-.15,1.23-3.68.23-6.26.76-6.26,1.38s2.47,1.14,6,1.38c-.26,3.79-.06,6.5.57,6.58s1.54-2.6,2.25-6.45l1.62,0,1.38,0c-.24,3.72,0,6.37.58,6.45s1.56-2.65,2.27-6.56c3.67-.23,6.23-.76,6.24-1.38s-2.36-1.11-5.79-1.36c0-.3.08-.59.11-.88S788.72,544.32,788.76,543.92Zm-4.94,1.94h-1.14c0-.24.07-.48.1-.72s.1-.76.14-1.13l1.64,0h1.14c0,.25-.07.49-.1.73s-.09.75-.13,1.12Z"/><path class="cls-13" d="M692.36,517.8h0A18.8,18.8,0,0,1,689.6,524,19.83,19.83,0,0,0,691,509.48a6.7,6.7,0,0,0-1.56-2.94,3,3,0,0,0-3.08-.78c-1,.42-1.55,1.47-2.25,2.31-2.63,3.17-7.66,3.39-10.61,6.17a36.37,36.37,0,0,1,4.66-4.1,40.58,40.58,0,0,0,7.27-6.5,14.24,14.24,0,0,0,2.21-3.91c2.65,1.85,4.61,5,5.23,9.38A22.7,22.7,0,0,1,692.36,517.8Z"/><path class="cls-2" d="M657.85,532.72s-.19-.16-.43-.57a4.9,4.9,0,0,1-.64-1.94A8.65,8.65,0,0,1,657,527a15.42,15.42,0,0,1,.64-1.92c.28-.66.61-1.33,1-2a27.76,27.76,0,0,0,2.07-4.59,11,11,0,0,0,.29-1.32c0-.22,0-.45,0-.68a5.39,5.39,0,0,0,0-.7,12.14,12.14,0,0,0-.45-2.87,46.35,46.35,0,0,0-2.45-5.93,26.58,26.58,0,0,1-1.26-3.24c-.08-.28-.18-.57-.25-.86s-.13-.59-.19-.89a13.84,13.84,0,0,1-.19-1.83,12.38,12.38,0,0,1,2-6.82,14.12,14.12,0,0,1,2.14-2.64,15,15,0,0,1,2.58-2,18.19,18.19,0,0,1,5.55-2.18,21.52,21.52,0,0,1,5.15-.49,30.2,30.2,0,0,1,7.35,1.14c.84.23,1.49.45,1.92.61s.66.25.65.28a21.76,21.76,0,0,1-2.65-.57,33.89,33.89,0,0,0-7.28-.85,21.33,21.33,0,0,0-5,.57,17.38,17.38,0,0,0-5.29,2.16,14.06,14.06,0,0,0-2.43,1.89,12.92,12.92,0,0,0-2,2.5,11.64,11.64,0,0,0-1.84,6.35,13.6,13.6,0,0,0,.18,1.7l.18.83c.06.28.15.55.23.82a29.73,29.73,0,0,0,1.21,3.15,43.37,43.37,0,0,1,2.44,6.06,12.14,12.14,0,0,1,.45,3.08,6.28,6.28,0,0,1,0,.75,6,6,0,0,1-.07.74,10.87,10.87,0,0,1-.33,1.42,26.28,26.28,0,0,1-2.22,4.66c-.37.69-.72,1.34-1,2a12.8,12.8,0,0,0-.67,1.83,8.62,8.62,0,0,0-.37,3.07,5.69,5.69,0,0,0,.46,1.9A3.51,3.51,0,0,1,657.85,532.72Z"/><path class="cls-2" d="M665.38,540a3.48,3.48,0,0,1-.56.92c-.39.59-1,1.4-1.73,2.52a72.66,72.66,0,0,0-5.51,9.76c-.25.54-.51,1.08-.77,1.65s-.49,1.15-.75,1.74c-.52,1.18-1,2.45-1.49,3.74-1,2.61-1.89,5.44-2.76,8.45a185.77,185.77,0,0,0-4.33,19.93c-.58,3.57-1.07,7.07-1.41,10.46-.19,1.7-.3,3.37-.43,5-.07.82-.09,1.63-.14,2.43s-.1,1.6-.1,2.38a112,112,0,0,0,.64,16.61,98.6,98.6,0,0,0,1.94,11,31,31,0,0,1,.91,4,3.59,3.59,0,0,1-.43-1c-.23-.66-.59-1.64-1-2.92a80.2,80.2,0,0,1-2.35-11.06,103.42,103.42,0,0,1-.92-16.76c0-.79,0-1.59.08-2.4s.06-1.63.12-2.45c.12-1.65.22-3.34.41-5.05.32-3.43.8-6.95,1.39-10.55a167.64,167.64,0,0,1,4.46-20.05c.9-3,1.88-5.87,2.89-8.5.55-1.3,1-2.57,1.58-3.75l.8-1.75q.42-.84.81-1.65a61.66,61.66,0,0,1,5.93-9.64c.78-1.09,1.47-1.86,1.93-2.4S665.34,540,665.38,540Z"/><path class="cls-2" d="M796.86,525.2a17.17,17.17,0,0,1-2.9-.35,56.06,56.06,0,0,0-7.86-.61,37.1,37.1,0,0,0-11.45,1.68,28,28,0,0,0-11.92,7.28,22.17,22.17,0,0,0-5.89,12.48,17.89,17.89,0,0,0,.31,6.07,18.08,18.08,0,0,0,2,4.94,17.68,17.68,0,0,0,2.66,3.52,15.64,15.64,0,0,0,2.57,2.16c1.53,1,2.51,1.41,2.46,1.52s-.27,0-.74-.18l-.4-.14-.46-.2-.54-.25-.59-.33a14.86,14.86,0,0,1-2.8-2.06,17.56,17.56,0,0,1-2.94-3.57,18.55,18.55,0,0,1-2.21-5.16,19,19,0,0,1-.46-6.45,22.91,22.91,0,0,1,6.14-13.22,26.44,26.44,0,0,1,6-4.73A28.79,28.79,0,0,1,771,526a29.22,29.22,0,0,1,3.26-1.19,36.39,36.39,0,0,1,11.82-1.46,44,44,0,0,1,7.94,1A10.72,10.72,0,0,1,796.86,525.2Z"/></g></g></svg>