<svg xmlns="http://www.w3.org/2000/svg" width="320" height="320" viewBox="0 0 320 320">
    <g fill="#1B1B1C" fill-rule="evenodd" transform="translate(1 1)">
        <circle cx="316.5" cy="316.5" r="1.5"/>
        <circle cx="281.5" cy="316.5" r="1.5"/>
        <circle cx="246.5" cy="316.5" r="1.5"/>
        <circle cx="211.5" cy="316.5" r="1.5"/>
        <circle cx="176.5" cy="316.5" r="1.5"/>
        <circle cx="141.5" cy="316.5" r="1.5"/>
        <circle cx="106.5" cy="316.5" r="1.5"/>
        <circle cx="71.5" cy="316.5" r="1.5"/>
        <circle cx="36.5" cy="316.5" r="1.5"/>
        <circle cx="1.5" cy="316.5" r="1.5"/>
        <circle cx="316.5" cy="281.5" r="1.5"/>
        <circle cx="281.5" cy="281.5" r="1.5"/>
        <circle cx="246.5" cy="281.5" r="1.5"/>
        <circle cx="211.5" cy="281.5" r="1.5"/>
        <circle cx="176.5" cy="281.5" r="1.5"/>
        <circle cx="141.5" cy="281.5" r="1.5"/>
        <circle cx="106.5" cy="281.5" r="1.5"/>
        <circle cx="71.5" cy="281.5" r="1.5"/>
        <circle cx="36.5" cy="281.5" r="1.5"/>
        <circle cx="1.5" cy="281.5" r="1.5"/>
        <circle cx="316.5" cy="246.5" r="1.5"/>
        <circle cx="281.5" cy="246.5" r="1.5"/>
        <circle cx="246.5" cy="246.5" r="1.5"/>
        <circle cx="211.5" cy="246.5" r="1.5"/>
        <circle cx="176.5" cy="246.5" r="1.5"/>
        <circle cx="141.5" cy="246.5" r="1.5"/>
        <circle cx="106.5" cy="246.5" r="1.5"/>
        <circle cx="71.5" cy="246.5" r="1.5"/>
        <circle cx="36.5" cy="246.5" r="1.5"/>
        <circle cx="1.5" cy="246.5" r="1.5"/>
        <circle cx="316.5" cy="211.5" r="1.5"/>
        <circle cx="281.5" cy="211.5" r="1.5"/>
        <circle cx="246.5" cy="211.5" r="1.5"/>
        <circle cx="211.5" cy="211.5" r="1.5"/>
        <circle cx="176.5" cy="211.5" r="1.5"/>
        <circle cx="141.5" cy="211.5" r="1.5"/>
        <circle cx="106.5" cy="211.5" r="1.5"/>
        <circle cx="71.5" cy="211.5" r="1.5"/>
        <circle cx="36.5" cy="211.5" r="1.5"/>
        <circle cx="1.5" cy="211.5" r="1.5"/>
        <circle cx="316.5" cy="176.5" r="1.5"/>
        <circle cx="281.5" cy="176.5" r="1.5"/>
        <circle cx="246.5" cy="176.5" r="1.5"/>
        <circle cx="211.5" cy="176.5" r="1.5"/>
        <circle cx="176.5" cy="176.5" r="1.5"/>
        <circle cx="141.5" cy="176.5" r="1.5"/>
        <circle cx="106.5" cy="176.5" r="1.5"/>
        <circle cx="71.5" cy="176.5" r="1.5"/>
        <circle cx="36.5" cy="176.5" r="1.5"/>
        <circle cx="1.5" cy="176.5" r="1.5"/>
        <circle cx="316.5" cy="141.5" r="1.5"/>
        <circle cx="281.5" cy="141.5" r="1.5"/>
        <circle cx="246.5" cy="141.5" r="1.5"/>
        <circle cx="211.5" cy="141.5" r="1.5"/>
        <circle cx="176.5" cy="141.5" r="1.5"/>
        <circle cx="141.5" cy="141.5" r="1.5"/>
        <circle cx="106.5" cy="141.5" r="1.5"/>
        <circle cx="71.5" cy="141.5" r="1.5"/>
        <circle cx="36.5" cy="141.5" r="1.5"/>
        <circle cx="1.5" cy="141.5" r="1.5"/>
        <circle cx="316.5" cy="106.5" r="1.5"/>
        <circle cx="281.5" cy="106.5" r="1.5"/>
        <circle cx="246.5" cy="106.5" r="1.5"/>
        <circle cx="211.5" cy="106.5" r="1.5"/>
        <circle cx="176.5" cy="106.5" r="1.5"/>
        <circle cx="141.5" cy="106.5" r="1.5"/>
        <circle cx="106.5" cy="106.5" r="1.5"/>
        <circle cx="71.5" cy="106.5" r="1.5"/>
        <circle cx="36.5" cy="106.5" r="1.5"/>
        <circle cx="1.5" cy="106.5" r="1.5"/>
        <circle cx="316.5" cy="71.5" r="1.5"/>
        <circle cx="281.5" cy="71.5" r="1.5"/>
        <circle cx="246.5" cy="71.5" r="1.5"/>
        <circle cx="211.5" cy="71.5" r="1.5"/>
        <circle cx="176.5" cy="71.5" r="1.5"/>
        <circle cx="141.5" cy="71.5" r="1.5"/>
        <circle cx="106.5" cy="71.5" r="1.5"/>
        <circle cx="71.5" cy="71.5" r="1.5"/>
        <circle cx="36.5" cy="71.5" r="1.5"/>
        <circle cx="1.5" cy="71.5" r="1.5"/>
        <circle cx="316.5" cy="36.5" r="1.5"/>
        <circle cx="281.5" cy="36.5" r="1.5"/>
        <circle cx="246.5" cy="36.5" r="1.5"/>
        <circle cx="211.5" cy="36.5" r="1.5"/>
        <circle cx="176.5" cy="36.5" r="1.5"/>
        <circle cx="141.5" cy="36.5" r="1.5"/>
        <circle cx="106.5" cy="36.5" r="1.5"/>
        <circle cx="71.5" cy="36.5" r="1.5"/>
        <circle cx="36.5" cy="36.5" r="1.5"/>
        <circle cx="1.5" cy="36.5" r="1.5"/>
        <circle cx="316.5" cy="1.5" r="1.5"/>
        <circle cx="281.5" cy="1.5" r="1.5"/>
        <circle cx="246.5" cy="1.5" r="1.5"/>
        <circle cx="211.5" cy="1.5" r="1.5"/>
        <circle cx="176.5" cy="1.5" r="1.5"/>
        <circle cx="141.5" cy="1.5" r="1.5"/>
        <circle cx="106.5" cy="1.5" r="1.5"/>
        <circle cx="71.5" cy="1.5" r="1.5"/>
        <circle cx="36.5" cy="1.5" r="1.5"/>
        <circle cx="1.5" cy="1.5" r="1.5"/>
    </g>
</svg>
