<?xml version="1.0" encoding="utf-8"?>
<!-- Generator: Adobe Illustrator 24.1.2, SVG Export Plug-In . SVG Version: 6.00 Build 0)  -->
<svg version="1.1" id="Layer_1" xmlns="http://www.w3.org/2000/svg" xmlns:xlink="http://www.w3.org/1999/xlink" x="0px" y="0px"
	 viewBox="0 0 200.8 87.7" style="enable-background:new 0 0 200.8 87.7;" xml:space="preserve">
<style type="text/css">
	.st0{fill:#FFFFFF;}
</style>
<path class="st0" d="M131.1,1.3c-0.3,0-0.5,0.1-0.8,0.3l-6.9,2.6c-0.8,0.3-1.2,0.5-1.6,0.6s-0.5,0.4-0.5,0.8c0,0.5,0.3,0.8,0.8,0.9
	s1.1,0.4,1.7,0.5c0.6,0.3,1.2,0.6,1.7,1.2s0.8,1.5,0.8,2.9v50.3c0,1.1-0.1,1.9-0.4,2.4s-0.6,0.9-1,1.2c-0.5,0.3-1,0.5-1.6,0.6
	s-1.2,0.3-1.9,0.5c-0.5,0.1-1,0.3-1.2,0.5c-0.4,0.1-0.5,0.5-0.5,1s0.4,0.8,1,0.9s1.1,0.1,1.5,0.1c0.9,0,2-0.1,3.4-0.3
	s2.6-0.3,3.9-0.3c1.1,0,2.2,0.1,3.4,0.3s2.2,0.3,3.4,0.3c0.5,0,1-0.1,1.5-0.3s0.8-0.4,0.8-0.8c0-0.5-0.3-0.8-0.9-0.9s-1.2-0.3-2-0.5
	c-0.5-0.1-1-0.4-1.5-0.9c-0.5-0.4-0.8-1.2-0.8-2.4V48.8c0-0.4,0.3-0.5,0.8-0.5c0.3,0,0.5,0.3,0.9,0.6l15.1,14.2
	c0.8,0.8,1.1,1.2,1.1,1.6s-0.1,0.6-0.5,0.9s-0.9,0.4-1.4,0.5c-0.9,0.1-1.6,0.3-2.1,0.5c-0.5,0.1-0.8,0.5-0.8,1s0.3,0.8,0.8,0.9
	c0.5,0.1,1.2,0.1,2.2,0.1c1.2,0,2.4-0.1,3.6-0.3s2.5-0.3,3.8-0.3c1.5,0,2.9,0.1,4.2,0.3c1.2,0.1,2.4,0.3,3.5,0.3
	c1.7,0,2.6-0.4,2.6-1c0-0.4-0.3-0.6-0.6-0.8c-0.4-0.3-1-0.5-1.8-0.8c-0.8-0.3-1.6-0.6-2.5-1.1c-1-0.5-2-1.1-3-2.1l-17.2-15.8
	c-0.1-0.1-0.3-0.4-0.5-0.5c-0.2-0.3-0.2-0.5-0.2-0.9c0-0.3,0.9-1,2.6-2.1s3.8-2.4,6-3.8s4.4-2.6,6.5-3.8s3.5-1.9,4.2-2.2
	c0.4-0.1,0.8-0.3,1.4-0.5c0.6-0.1,1.1-0.4,1.6-0.5c0.5-0.3,1-0.4,1.4-0.6c0.4-0.3,0.5-0.5,0.5-0.8c0-0.5-0.3-0.9-0.6-1
	s-0.9-0.3-1.2-0.3c-1,0-2.1,0-3.5,0.1s-2.6,0.1-4,0.1s-2.6,0-4-0.1s-2.6-0.1-3.6-0.1c-0.4,0-0.6,0.1-1,0.3c-0.3,0.3-0.5,0.4-0.5,0.8
	s0.3,0.8,0.6,1s0.9,0.5,1.2,0.8c0.5,0.3,0.9,0.5,1.2,0.9s0.6,0.9,0.6,1.5c0,0.4-0.4,0.9-1.1,1.5c-0.8,0.6-1.7,1.4-2.9,2.1
	c-1.1,0.8-2.4,1.6-3.8,2.5c-1.4,0.9-2.6,1.6-3.9,2.4s-2.2,1.2-3.1,1.7s-1.4,0.6-1.5,0.6c-0.6,0-0.9-0.5-0.9-1.6V3.6
	c0-0.8-0.1-1.2-0.4-1.5s-0.5-0.4-0.8-0.4L131.1,1.3z M30,6.1c-3.3,0-6,0.1-8.6,0.3c-2.5,0.3-5,0.3-7.5,0.3H4.8c-0.4,0-0.8,0-1.1,0
	S2.8,6.7,2.4,6.8s-0.8,0.3-1,0.5s-0.5,0.5-0.5,1s0.3,0.9,0.6,1s1.2,0.3,2.4,0.4C4.5,9.8,5.3,9.8,6,9.8s1.5,0.1,2.2,0.3
	s1.2,0.3,1.7,0.5s0.8,0.6,0.8,1v47c0,1.5-0.1,2.6-0.4,3.4s-0.6,1.4-1,1.9c-0.4,0.4-0.9,0.8-1.5,0.9c-0.5,0.1-1.1,0.3-1.6,0.4
	c-1.5,0.3-2.5,0.6-3,1s-0.8,0.8-0.8,1.2s0.3,0.8,0.8,0.9s0.9,0.1,1.1,0.1c1.2,0,2.6-0.1,4.2-0.3s3.3-0.3,4.7-0.3H37
	c4.2,0,8.3-0.8,12.1-2.1c3.8-1.4,7-3.4,9.9-5.9c2.8-2.5,5-5.4,6.6-8.8s2.5-6.9,2.5-10.6c0-6-1-11.2-3-15.5c-2-4.4-4.7-8-8.1-10.8
	c-3.5-2.8-7.5-4.9-12.1-6.2C40.1,6.8,35.3,6.1,30,6.1L30,6.1z M27.8,9.1c2.1,0,4.2,0.3,6.6,0.8s4.6,1.2,6.9,2.4s4.5,2.4,6.6,4
	s4,3.5,5.6,5.8s2.9,4.7,3.8,7.5c1,2.8,1.4,5.9,1.4,9.2s-0.5,6.4-1.4,9s-2.1,4.9-3.8,6.9c-1.5,2-3.3,3.6-5.3,5s-3.9,2.5-5.9,3.4
	s-3.9,1.5-5.6,1.9s-3.4,0.6-4.7,0.6c-1.6,0-3.1-0.3-4.7-0.6c-1.5-0.4-2.9-1-4.1-1.9s-2.1-1.9-2.9-3.1s-1.1-2.8-1.1-4.5V12.2
	c0-0.4,0-0.8,0.1-1.1s0.4-0.8,1-1c0.5-0.3,1.4-0.5,2.5-0.8C24.1,9.2,25.6,9.1,27.8,9.1L27.8,9.1z M184.4,28.3c-3.1,0-5.9,0.6-8.1,2
	s-4.1,3-5.6,5s-2.6,4.2-3.4,6.9c-0.8,2.5-1.1,4.9-1.1,7.2c0,6.2,1.5,11.2,4.5,14.9s7.2,5.5,12.9,5.5c2.6,0,4.9-0.4,6.6-1.1
	c1.9-0.8,3.4-1.6,4.5-2.6c1.2-1,2.1-1.9,2.6-2.8s0.8-1.4,0.8-1.5c0-0.5-0.3-0.8-0.9-0.8c-0.4,0-0.8,0.3-1.1,0.6s-0.8,0.9-1.4,1.4
	s-1.4,1-2.5,1.4c-1.1,0.4-2.6,0.6-4.5,0.6c-3.1,0-5.5-0.5-7.5-1.5c-1.9-1-3.4-2.2-4.4-3.8s-1.8-3.3-2.1-5.3s-0.5-4.1-0.5-6.2v-2.1
	c0-0.6,0.1-1.1,0.2-1.4h24.4c0.9,0,1.4-0.1,1.6-0.5c0.2-0.3,0.4-0.9,0.4-1.9c0-1.1-0.2-2.4-0.8-4s-1.4-3.1-2.6-4.6s-2.8-2.8-4.8-3.9
	S187.1,28.3,184.4,28.3L184.4,28.3z M73.1,30c-0.8,0-1.4,0-1.7,0.1c-0.5,0.1-0.8,0.4-0.8,0.8s0.3,0.6,0.6,0.8s1.2,0.4,2.4,0.8
	c0.6,0.1,1.2,0.3,1.9,0.5s1,0.6,1,1.4c0,1.5,0,3.1,0,5s0,3.8,0,5.6s0,3.8,0,5.6s0,3.6,0,5.1c0,2.1,0.1,4.1,0.5,5.8s1,3.3,1.9,4.5
	s2.1,2.2,3.8,2.9s3.5,1,5.9,1c2,0,3.8-0.4,5.4-0.9s2.9-1.4,4.1-2.1c1.1-0.8,2.1-1.5,2.9-2c0.8-0.6,1.2-0.9,1.7-0.9s0.8,0.4,0.8,1.2
	v2.2c0,0.5,0,0.9,0.1,1.1s0.3,0.5,0.6,0.5c0.5,0,1.7-0.3,3.8-0.6s4.7-0.9,8.4-1.4c0.8-0.1,1.2-0.3,1.5-0.4s0.5-0.4,0.5-0.8
	c0-0.5-0.4-0.9-1.1-0.9c-0.8-0.1-2.1-0.1-4-0.1c-0.5,0-1-0.1-1.6-0.4s-1-0.9-1-2c0-5.1,0.1-10.1,0.3-15.1s0.3-10.1,0.3-15.1
	c0-0.9-0.3-1.5-0.8-1.7s-1-0.4-1.2-0.4c-1,0-2,0-3,0.1s-2,0.1-3,0.1c-0.9,0-1.7,0-2.5-0.1c-0.9-0.1-1.6-0.1-2.5-0.1
	c-0.5,0-1,0-1.5,0.1s-0.8,0.4-0.8,0.6c0,0.4,0.4,0.8,1.1,1s1.4,0.5,1.7,0.6c1.2,0.4,2.1,0.6,2.8,0.8s1.1,0.4,1.5,0.5
	s0.6,0.3,0.8,0.5s0.1,0.4,0.1,0.8c0,3.6,0,7.1-0.1,10.8c-0.1,3.5-0.1,7.1-0.1,10.8c0,1-0.1,2-0.4,3.1s-0.8,2-1.5,2.9s-2,1.5-3.5,2
	c-1.6,0.5-3.8,0.8-6.5,0.8c-2.5,0-4.4-0.5-5.8-1.6s-2.1-2.6-2.1-4.7c0-4.5,0-8.9,0.1-13.4c0-4.4,0.1-8.9,0.1-13.4
	c0-0.8-0.1-1.2-0.3-1.5s-0.6-0.4-1.2-0.4c-0.8,0-1.5,0-2.2,0.1s-1.5,0.1-2.2,0.1s-1.5,0-2.1-0.1S73.9,30,73.1,30L73.1,30z
	 M185.8,30.7c2.1,0,3.9,0.6,5.3,1.7c1.4,1.1,2.1,2.6,2.1,4.4c0,0.9-0.1,1.7-0.4,2.2c-0.3,0.6-0.8,1.1-1.5,1.5
	c-0.8,0.4-1.7,0.6-3.1,0.9c-1.4,0.1-3.1,0.3-5.2,0.3c-2.1,0-3.8,0-5,0s-2-0.1-2.6-0.1c-0.6-0.1-0.9-0.1-1-0.3s-0.1-0.3-0.1-0.5
	c0-0.8,0.2-1.7,0.8-2.9s1.2-2.2,2.2-3.3c1-1.1,2.1-2,3.6-2.8C182.4,31.1,184,30.7,185.8,30.7z M134.5,75.8c-2,0-3.6,1.1-3.6,3
	c0,2,1.1,2.5,3.4,3.3c1.9,0.5,2.5,1,2.5,1.7c0,1-0.8,1.6-2.2,1.6c-1,0-2.1-0.5-2.9-1.2l-1.1,1.1c0.9,1.1,2.2,1.7,3.9,1.7
	c2.8,0,4-1.4,4-3.3c0-2-1.4-2.6-3.5-3.3c-1.9-0.5-2.4-0.9-2.4-1.7c0-0.8,0.5-1.4,1.9-1.4c1.1,0,1.9,0.4,2.5,1l1.1-1.1
	C137.1,76.3,136,75.8,134.5,75.8L134.5,75.8z M8,76v6.4c0,3,1.4,4.7,4.1,4.7s4.1-1.6,4.1-4.7V76h-1.6v6.4c0,2-0.8,3-2.5,3
	c-1.6,0-2.5-1.1-2.5-3.1V76H8z M52,76v10.9h1.6V76H52z M151.8,76v10.9h1.6V76H151.8z M186.8,76l3.9,6.6v4.2h1.6v-4.2l3.9-6.6h-1.9
	l-1.8,3c-0.4,0.8-0.9,1.7-1.1,2.1c-0.1-0.4-0.8-1.5-1.1-2.1l-1.8-3H186.8z M29.9,76v10.9h1.6v-5.6v-2.5c0.1,0.3,0.5,0.9,0.8,1.4
	l4.4,6.9h1.5V76.1h-1.6v5.6c0,0.6,0,2.1,0,2.6c-0.1-0.3-0.6-1.1-0.9-1.5l-4.1-6.6L29.9,76z M66.8,76l3.8,10.9h1.7L76,76h-1.7
	L72,82.8c-0.3,0.6-0.5,1.6-0.6,2c-0.1-0.4-0.4-1.4-0.6-2L68.5,76H66.8z M89,76v10.9h7.2v-1.6h-5.6v-3.4h3.1v-1.6h-3.1v-2.8H96v-1.6
	L89,76z M109.4,76v10.9h1.6v-4.2h2.5l2.1,4.2h1.9l-2.2-4.5c1.5-0.4,2.4-1.5,2.4-3.1c0-2.2-1.6-3.3-3.5-3.3H109.4z M166.5,76v1.6h3.1
	v9.2h1.6v-9.2h3.1V76H166.5z M111,77.5h3.1c1.1,0,1.9,0.6,1.9,1.7s-0.8,1.7-1.9,1.7H111V77.5z"/>
</svg>
