<?xml version="1.0" encoding="utf-8"?>
<!-- Generator: Adobe Illustrator 24.1.2, SVG Export Plug-In . SVG Version: 6.00 Build 0)  -->
<svg version="1.1" id="Layer_1" xmlns="http://www.w3.org/2000/svg" xmlns:xlink="http://www.w3.org/1999/xlink" x="0px" y="0px"
	 viewBox="0 0 212.7 172.7" style="enable-background:new 0 0 212.7 172.7;" xml:space="preserve">
<style type="text/css">
	.st0{fill:#FFFFFF;}
</style>
<path class="st0" d="M212.4,50.5c-0.2-4-0.6-8.1-1.3-12.1c-0.8-6.5-4.4-22.8-19.6-29.2c-0.4-0.2-0.7-0.3-1.1-0.4
	c-6.6-2.9-14-4.2-21.1-5.2c-15.6-2.1-31.1-3-46.7-3.4c-0.7,0-1.3,0-2,0s-1.4,0-2.1,0C112.8,0,108.4,0,106.4,0c-2.1,0-6.4,0-12.1,0.1
	c-0.7,0-1.4,0-2.1,0c-0.6,0-1.3,0-2,0C74.6,0.6,59.1,1.5,43.5,3.6C36.4,4.5,29,5.8,22.4,8.8c-0.4,0.1-0.7,0.3-1.1,0.4
	C6,15.6,2.5,31.9,1.6,38.4c-0.7,4-1,8.1-1.3,12.1c-0.6,9.8-0.4,19.6,0,29.4v1c0.2,4.7,0.5,9.5,0.8,14.4C2.2,108.6,3.8,122,7,134.9
	c1,4.2,2.4,8.4,4.2,12.3c1.3,3.3,2.8,5.9,4.4,7.8c2.9,3.5,6.6,6.2,10.9,8.4c0.8,0.4,1.5,0.8,2.3,1.1c12.1,5.5,26,6,39.1,6.8
	c12.8,0.8,25.7,1.3,38.6,1.3c12.9-0.1,25.8-0.5,38.6-1.3c13.1-0.8,27-1.3,39.1-6.8c0.8-0.4,1.5-0.7,2.3-1.1c4.3-2.2,8-4.9,10.9-8.4
	c1.6-1.9,3-4.6,4.4-7.8c1.8-3.9,3.1-8.1,4.2-12.3c3.2-12.8,4.8-26.1,5.7-39.3c0.4-5,0.7-10,0.9-14.8c0-0.4,0-0.8,0-1.2
	C212.8,69.9,212.9,60.2,212.4,50.5L212.4,50.5z M106.4,161.1H75.5c-0.2-0.1-0.3-0.3-0.3-0.6s0.1-0.6,0.1-0.7
	c0.2-0.6,0.3-1.3,0.5-1.9c1.6-5.2,5.7-18.3,5.7-18.3c0.1-0.2,0.1-0.4,0.2-0.6c0.5-1.5,1.1-3.2,1.9-5c1.5-3.6,4-6.3,6-7.6
	c1.1-0.7,2.4-1.3,3.7-1.7c0.7-0.2,1.4-0.3,2.2-0.5c1.3-0.3,2.8-0.5,4.2-0.7c1.9-0.1,4.1-0.2,6.6-0.2s4.7,0,6.6,0.2
	c1.5,0.2,2.9,0.4,4.2,0.7c0.8,0.2,1.5,0.3,2.2,0.5c1.4,0.4,2.6,1,3.7,1.7c2,1.3,4.6,4,6,7.6c0.7,1.8,1.3,3.4,1.9,4.9
	c0.1,0.2,0.1,0.4,0.2,0.6c0,0,4.1,13.3,5.7,18.5c0.2,0.6,0.3,1.2,0.5,1.8c0,0.1,0.1,0.5,0.1,0.7c0,0.3-0.1,0.4-0.3,0.6H106.4z
	 M146.2,11.1c1.9,0.3,3.4,0.4,4.4,0.5c0.6,0.1,1,0.2,1.3,0.3h0.1c0.5,0.2,0.7,0.5,0.7,0.9c-0.4,1.6-1.1,4.3-1.9,7.6
	c-3.8,14.3-7.9,31.2-11.8,45.2c-2.6,9.1-6.1,20.1-10.2,26.5c-3,4-6.9,7.1-12.2,8.4c-2.8,0.4-6,0.5-10.2,0.5c-4.1,0-7.4-0.1-10.2-0.5
	c-5.3-1.2-9.2-4.2-12.1-8.2L84,92.2c-4.1-6.4-7.7-17.6-10.3-26.7c-3.8-14-7.9-30.8-11.7-44.9c-0.9-3.4-1.6-6.1-2-7.7
	c0-0.5,0.2-0.8,0.7-0.9h0.1c0.3-0.1,0.7-0.2,1.3-0.3c1-0.1,2.4-0.2,4.3-0.5c0.5-0.1,0.9-0.1,1.4-0.2c1.8-0.1,4-0.3,6.7-0.4
	c1.1,0,2.2-0.1,3.4-0.1c16.4-0.5,27.8-0.6,28.4-0.7c0.6,0,12,0.1,28.4,0.7c1.2,0,2.4,0.1,3.4,0.1c2.7,0.1,4.9,0.3,6.7,0.4
	C145.3,11,145.8,11.1,146.2,11.1z M28.1,150.1c-1.1-1.2-2.3-2.6-3.5-4.4c-0.7-1.1-1.3-2.2-1.8-3.4c-3.5-7.5-4.7-16.7-5.7-24.7
	c0-0.4-0.1-0.8-0.1-1.1c-0.1-0.7-0.2-1.4-0.3-2c-2.3-16.5-3-33.3-2.8-49.9c0.1-12.1-0.7-27.3,5.9-38.2c0.4-0.7,0.9-1.4,1.4-2.1
	c0-0.1,0.1-0.1,0.1-0.2c0.3-0.3,0.5-0.7,0.8-1l0.1-0.1l0.2-0.2l0.2-0.2l0.6-0.6c0.9-0.9,1.9-1.6,2.9-2.3c1.9-1.3,4.1-2.2,6.3-3
	c2.4-0.9,4.8-1.6,7.2-2.3c0.9,0,1.5,0.4,1.8,1c0,0.9-0.1,4.5,0,10.9v0.3v0.9v0.6v0.8v1.5v0.5v1.2v0.5V34v0.4c0,1.3,0.1,2.6,0.1,4
	v0.3c0,0.6,0,1.2,0.1,1.8v0.4c0,0.7,0.1,1.3,0.1,2v0.2c0,0.8,0.1,1.6,0.1,2.4v0.2c0,0.7,0.1,1.4,0.1,2.1v0.6c0,0.6,0.1,1.2,0.1,1.8
	v0.7c0,0.7,0.1,1.4,0.1,2.1v0.5v0.3c0,0.8,0.1,1.5,0.1,2.3c0,0.3,0,0.7,0.1,1.1c0,0.6,0.1,1.1,0.1,1.7c0,0.4,0,0.8,0.1,1.2
	c0,0.5,0.1,1.1,0.1,1.7c0,0.4,0.1,0.8,0.1,1.2c0,0.6,0.1,1.1,0.1,1.7c0,0.4,0.1,0.9,0.1,1.3c0,0.6,0.1,1.1,0.1,1.7
	c0,0.4,0.1,0.9,0.1,1.3c0,0.6,0.1,1.3,0.1,2c0,0.4,0.1,0.8,0.1,1.1c0.1,1.1,0.2,2.1,0.2,3.2c0,0.2,0,0.5,0.1,0.7
	c0.2,2.4,0.4,4.9,0.6,7.5c0,0.6,0.1,1.1,0.1,1.7c0.1,0.9,0.2,1.8,0.2,2.6c0.1,0.9,0.2,1.9,0.3,2.8c0.1,0.6,0.1,1.1,0.2,1.7
	c0.1,1.1,0.2,2.3,0.3,3.4c0,0.2,0,0.4,0.1,0.6c0.1,0.6,0.1,1.3,0.2,1.9c0,0.4,0.1,0.7,0.1,1.1c1.4,17.8,3.1,35.6,5.3,53.3
	c0.2,1.8,0.3,3,0.4,3.8c0,1.8-1,2.7-2.6,2.9c-1.3-0.1-3.5-0.4-6.1-1.1C37.2,156.2,30.6,152.1,28.1,150.1L28.1,150.1z M163.8,159.2
	c-1.6-0.2-2.6-1.1-2.6-2.9c0.1-0.8,0.2-2,0.4-3.9c2.2-17.7,3.9-35.4,5.3-53.1c0-0.4,0.1-0.9,0.1-1.4c0.1-0.6,0.1-1.1,0.2-1.7
	c0-0.2,0-0.4,0.1-0.6c0.1-1.1,0.2-2.2,0.3-3.3c0.1-0.6,0.1-1.2,0.2-1.8c0.1-0.8,0.1-1.6,0.2-2.4c0.1-1.1,0.2-2.1,0.3-3.1
	c0-0.5,0.1-0.9,0.1-1.4c0.2-2.6,0.4-5.1,0.6-7.5c0-0.3,0-0.6,0.1-0.8c0.2-2.5,0.4-4.9,0.5-7.3c0-0.2,0-0.4,0-0.6
	c0.1-1.5,0.2-2.9,0.3-4.3c0-0.1,0-0.2,0-0.4c0.1-0.8,0.1-1.5,0.1-2.3c0,0,0,0,0-0.1c0.1-1.5,0.2-3,0.3-4.4c0-0.1,0-0.2,0-0.3
	c0-0.7,0.1-1.4,0.1-2.1v-0.1c0-0.1,0-0.2,0-0.3c0-0.6,0.1-1.2,0.1-1.8c0-0.2,0-0.4,0-0.6c0-0.5,0-1,0.1-1.5c0-0.3,0-0.6,0-0.8
	c0-0.4,0-0.8,0.1-1.2c0-0.3,0-0.7,0-1s0-0.7,0-1c0-0.4,0-0.8,0.1-1.2c0-0.2,0-0.5,0-0.7c0-0.5,0-0.9,0.1-1.4c0-0.1,0-0.3,0-0.4
	c0-0.5,0-1,0.1-1.5c0-0.1,0-0.1,0-0.2c0-0.6,0-1.1,0.1-1.7c0.5-13.6,0.3-21.4,0.3-22.6c0.4-0.6,0.9-1,1.8-1c2.4,0.7,4.8,1.4,7.2,2.3
	c2.2,0.8,4.4,1.8,6.3,3c1,0.7,2,1.4,2.9,2.3c0.2,0.2,0.4,0.4,0.6,0.6c0,0.1,0.1,0.1,0.1,0.2c0.1,0.1,0.2,0.2,0.2,0.2
	c0.3,0.3,0.6,0.7,0.9,1.1c0,0.1,0.1,0.1,0.1,0.2c8.1,11,7.2,27.4,7.3,40.3c0.2,16.6-0.6,33.5-2.8,49.9c-0.1,0.6-0.2,1.2-0.2,1.9
	c-0.1,0.4-0.1,0.9-0.2,1.4c-0.3,1.5-0.5,2.9-0.8,4.1c-0.3,1.6-1.9,10.2-2.1,11.1c-0.8,3.4-2.3,8.1-2.8,9.4c-0.6,1.2-1.2,2.4-1.9,3.5
	c-1.1,1.7-2.4,3.1-3.5,4.3c-2.4,2-9.1,6.1-14.7,8.1C167.3,158.8,165.1,159.2,163.8,159.2L163.8,159.2z"/>
</svg>
