<?xml version="1.0" encoding="utf-8"?>
<!-- Generator: Adobe Illustrator 24.1.2, SVG Export Plug-In . SVG Version: 6.00 Build 0)  -->
<svg version="1.1" id="Layer_1" xmlns="http://www.w3.org/2000/svg" xmlns:xlink="http://www.w3.org/1999/xlink" x="0px" y="0px"
	 viewBox="0 0 128.1 128.1" style="enable-background:new 0 0 128.1 128.1;" xml:space="preserve">
<style type="text/css">
	.st0{fill:#DCE0DF;}
	.st1{clip-path:url(#SVGID_2_);}
	.st2{fill:#6C6A68;}
</style>
<g>
	<circle class="st0" cx="64.1" cy="64.1" r="64.1"/>
	<g>
		<g>
			<defs>
				<circle id="SVGID_1_" cx="64.1" cy="64.1" r="56.3"/>
			</defs>
			<clipPath id="SVGID_2_">
				<use xlink:href="#SVGID_1_"  style="overflow:visible;"/>
			</clipPath>
			<g class="st1">
				<rect x="7.7" y="7.7" class="st0" width="56.3" height="112.6"/>
				<rect x="64.1" y="7.7" class="st2" width="56.3" height="56.3"/>
				<rect x="64.1" y="64.1" width="56.3" height="56.3"/>
				<path d="M34.1,29.2c1.5,2.4,3,4.8,4.5,7.2c1,1.6,2,3.2,3,4.9c0.3,0.5,0.8,1.8,1.4,2.2c0-4.4,0-8.8,0-13.2c0-0.2-0.1-0.7,0-0.8
					c0.1-0.2,0-0.1,0.4-0.1c0.6-0.1,1.2,0,1.8,0c0.5,0,1.4-0.2,1.9,0c0.4,0.1,0.3,0.2,0.3,0.8c0,0.9,0,1.7,0,2.6c0,5.3,0,10.6,0,16
					c0,0.4,0.2,1.4,0,1.8c-0.2,0.3-1.6,0.1-2,0.1c-0.7,0-1.3,0-2,0c-0.2,0-0.5,0.1-0.6,0c-0.4-0.2-0.7-1.2-1-1.5
					c-1.6-2.6-3.2-5.1-4.8-7.7c-0.7-1.2-1.4-2.3-2.2-3.5c-0.2-0.4-0.6-1.2-1-1.5c0,3.1,0,6.2,0,9.3c0,0.9,0,1.9,0,2.8
					c0,0.5,0.2,1.3,0,1.7c-0.1,0.4,0.1,0.3-0.5,0.3c-1,0-2,0-3,0c-0.3,0-0.7,0.1-0.9-0.1c-0.1-0.2,0-0.9,0-1.1c0-1.6,0-3.2,0-4.7
					c0-4,0-8.1,0-12.1c0-0.7,0-1.5,0-2.2c0-0.1-0.1-0.8,0-0.9c0.2-0.2,1.7,0,2,0C32.3,29.2,33.2,29.2,34.1,29.2z"/>
				<path d="M43,82.9c-1.6-2.6-5.4-3-7.6-1c-2.3,2-2.6,5.7-1.9,8.5c0.7,3,3,5,6.1,4.6c1.3-0.1,2.4-0.7,3.1-1.8
					c0.4-0.5,0.6-1.1,0.8-1.7c0.1-0.3,0.1-1.1,0.4-1.2c0.2-0.1,0.7,0,0.9,0c0.5,0,1,0,1.4,0c0.7,0,1.4,0,2.1,0
					c-0.4,4.2-3,7.7-7.3,8.4c-4,0.7-8.2-0.7-10.5-4.1c-2.2-3.3-2.5-8-1-11.7c1.6-3.8,5.2-6.1,9.3-6.2c4.6-0.1,8.8,2.8,9.3,7.6
					c-0.9,0-1.8,0-2.7,0c-0.4,0-1.1,0.1-1.5,0c-0.1,0-0.2,0-0.3,0C43.4,84.2,43.2,83.2,43,82.9C42.7,82.5,43.3,83.3,43,82.9z"/>
				<path d="M49,61.6c-2.2,0-4.4,0-6.7,0c-0.2,0-0.8,0.1-0.9,0c-0.1-0.1-0.2-0.4-0.2-0.6c-0.4-1.2-0.8-2.5-1.2-3.7c-0.3-1-0.7-2-1-3
					c-0.7,2.1-1.4,4.2-2.1,6.3c-0.1,0.2-0.1,0.8-0.3,0.9c-0.1,0.1-0.5,0-0.6,0c-1.3,0-2.6,0-3.9,0c-1.1,0-2.1,0-3.2,0
					c1.8,1.3,3.6,2.6,5.4,3.9c0.6,0.5,0.8,0.4,0.6,1.1c-0.4,1.2-0.8,2.5-1.2,3.7c-0.3,1-0.7,2-1,3c1.8-1.3,3.6-2.6,5.4-3.9
					c0.6-0.5,0.6-0.7,1.3-0.2c1,0.8,2.1,1.5,3.1,2.3c0.9,0.6,1.7,1.2,2.6,1.9c-0.7-2.1-1.4-4.2-2.1-6.3c-0.1-0.2-0.3-0.7-0.3-0.9
					c0-0.1,0.4-0.3,0.5-0.4c1-0.8,2.1-1.5,3.1-2.3C47.3,62.8,48.1,62.2,49,61.6z"/>
			</g>
		</g>
	</g>
</g>
</svg>
