<?xml version="1.0" encoding="utf-8"?>
<!-- Generator: Adobe Illustrator 24.1.2, SVG Export Plug-In . SVG Version: 6.00 Build 0)  -->
<svg version="1.1" id="Layer_1" xmlns="http://www.w3.org/2000/svg" xmlns:xlink="http://www.w3.org/1999/xlink" x="0px" y="0px"
	 viewBox="0 0 54 25.9" style="enable-background:new 0 0 54 25.9;" xml:space="preserve">
<style type="text/css">
	.st0{fill:#FFFFFF;}
	.st1{fill:#1B1B1C;}
</style>
<path class="st0" d="M0,0h54v25.9H0V0z"/>
<g>
	<path class="st1" d="M7.5,6.7L7.5,6.7l2.2,5.7h2.1V4.7h-1.5V10L8.2,4.7H6v7.7h1.5L7.5,6.7z"/>
	<path class="st1" d="M15.8,11.4c-0.9,0-1-0.9-1-2.8c0-2,0.1-2.8,1-2.8c0.5,0,0.7,0.4,0.7,1.4H18c0.1-1.7-0.6-2.6-2.3-2.6
		c-2.7,0-2.7,2-2.7,4s0,4,2.7,4c1.5,0,2.3-0.7,2.3-2.7h-1.6C16.5,10.4,16.5,11.4,15.8,11.4z"/>
	<path class="st1" d="M26.3,10.3C26.3,7.9,23,8,23,6.5c0-0.5,0.3-0.8,0.8-0.8c0.7,0,0.8,0.6,0.8,1.2h1.6c0.1-1.6-0.7-2.3-2.3-2.3
		c-2,0-2.6,1-2.6,2.2c0,2.3,3.3,2.4,3.3,3.8c0,0.5-0.3,0.9-0.8,0.9C23,11.4,23,10.8,23,10h-1.6c-0.1,1.3,0.3,2.5,2.3,2.5
		C24.9,12.5,26.3,12.3,26.3,10.3z"/>
	<path class="st1" d="M28.7,12.4h1.6V6h1.8V4.7h-5.2V6h1.8V12.4z"/>
	<path class="st1" d="M33.8,4.7l-2.1,7.7h1.6l0.4-1.7h2.2l0.4,1.7H38l-2.1-7.7H33.8z M34,9.5l0.7-3.3l0.8,3.3H34z"/>
	<path class="st1" d="M40.9,12.4V6h1.8V4.7h-5.2V6h1.8v6.4H40.9z"/>
	<path class="st1" d="M47.8,11.2h-2.7V9h2.4V7.8h-2.4V5.9h2.6V4.7h-4.2v7.7h4.3L47.8,11.2z"/>
	<path class="st1" d="M9.2,18.9c0,0.8,0,2-1.3,2s-1.3-1.2-1.3-2v-4H6v4.4c0,1.6,0.9,2.1,1.9,2.1s1.8-0.4,1.8-2.1v-4.4H9.2V18.9z"/>
	<path class="st1" d="M14.8,20.4l-2.5-5.5h-0.9v6.3H12v-5.6l2.6,5.6h0.8v-6.3h-0.6V20.4z"/>
	<path class="st1" d="M17.2,14.9h0.6v6.3h-0.6V14.9z"/>
	<path class="st1" d="M21,20.5l-1.5-5.6h-0.6l1.8,6.3h0.7l1.7-6.3h-0.5L21,20.5z"/>
	<path class="st1" d="M24.8,18.2H27v-0.5h-2.2v-2.3h2.3v-0.5h-2.8v6.3h2.9v-0.5h-2.4V18.2z"/>
	<path class="st1" d="M30.8,17.9c0.9-0.2,1-0.7,1-1.5c0-1.1-0.3-1.5-1.5-1.5h-1.7v6.3H29v-3.1h1.1c1.2,0,1,1.2,1,1.5s0,1.4,0.1,1.6
		h0.5c0-0.2-0.1-0.5-0.1-0.7C31.7,18.2,31.7,18.1,30.8,17.9z M30,17.7h-1v-2.3h1.1c0.7,0,1,0.2,1,1C31.2,17.5,30.8,17.7,30,17.7z"/>
	<path class="st1" d="M35,17.7c-0.7-0.5-1.2-0.5-1.2-1.5c0-0.7,0.4-1,1.1-1c0.9,0,1.1,0.5,1.1,1.3h0.6c0-0.9-0.3-1.7-1.6-1.7
		c-1,0-1.7,0.5-1.7,1.6c0,0.6,0.1,1,1.3,1.8c0.9,0.6,1.5,0.8,1.5,1.7c0,0.7-0.4,1.1-1.1,1.1c-1.1,0-1.2-0.7-1.2-1.4h-0.6
		c-0.1,1.2,0.5,1.9,1.7,1.9c1.1,0,1.7-0.6,1.7-1.7C36.6,18.4,35.8,18.3,35,17.7z"/>
	<path class="st1" d="M38.1,14.9h0.6v6.3h-0.6V14.9z"/>
	<path class="st1" d="M39.9,15.4h1.6v5.8H42v-5.8h1.6v-0.5h-3.7L39.9,15.4z"/>
	<path class="st1" d="M47.8,14.9L46.3,18l-1.5-3.1h-0.6l1.8,3.7v2.6h0.5v-2.6l1.9-3.7L47.8,14.9z"/>
</g>
</svg>
