<svg xmlns="http://www.w3.org/2000/svg" viewBox="0 0 128.1 128.1">
  <circle cx="64.1" cy="64.1" r="56.3" fill="none"/>
  <path d="M34.1 29.2l4.5 7.2c1 1.6 2 3.2 3 4.9.3.5.8 1.8 1.4 2.2V30.3c0-.2-.1-.7 0-.8.1-.2 0-.1.4-.1.6-.1 1.2 0 1.8 0 .5 0 1.4-.2 1.9 0 .4.1.3.2.3.8v18.6c0 .4.2 1.4 0 1.8-.2.3-1.6.1-2 .1h-2c-.2 0-.5.1-.6 0-.4-.2-.7-1.2-1-1.5-1.6-2.6-3.2-5.1-4.8-7.7-.7-1.2-1.4-2.3-2.2-3.5-.2-.4-.6-1.2-1-1.5v12.1c0 .5.2 1.3 0 1.7-.1.4.1.3-.5.3h-3c-.3 0-.7.1-.9-.1-.1-.2 0-.9 0-1.1v-19c0-.1-.1-.8 0-.9.2-.2 1.7 0 2 0 .9-.3 1.8-.3 2.7-.3zM43 82.9c-1.6-2.6-5.4-3-7.6-1-2.3 2-2.6 5.7-1.9 8.5.7 3 3 5 6.1 4.6 1.3-.1 2.4-.7 3.1-1.8.4-.5.6-1.1.8-1.7.1-.3.1-1.1.4-1.2.2-.1.7 0 .9 0h3.5c-.4 4.2-3 7.7-7.3 8.4-4 .7-8.2-.7-10.5-4.1-2.2-3.3-2.5-8-1-11.7 1.6-3.8 5.2-6.1 9.3-6.2 4.6-.1 8.8 2.8 9.3 7.6h-2.7c-.4 0-1.1.1-1.5 0h-.3c-.2-.1-.4-1.1-.6-1.4-.3-.4.3.4 0 0zM49 61.6h-6.7c-.2 0-.8.1-.9 0-.1-.1-.2-.4-.2-.6-.4-1.2-.8-2.5-1.2-3.7-.3-1-.7-2-1-3l-2.1 6.3c-.1.2-.1.8-.3.9-.1.1-.5 0-.6 0h-7.1l5.4 3.9c.6.5.8.4.6 1.1-.4 1.2-.8 2.5-1.2 3.7-.3 1-.7 2-1 3l5.4-3.9c.6-.5.6-.7 1.3-.2 1 .8 2.1 1.5 3.1 2.3.9.6 1.7 1.2 2.6 1.9L43 67c-.1-.2-.3-.7-.3-.9 0-.1.4-.3.5-.4 1-.8 2.1-1.5 3.1-2.3 1-.6 1.8-1.2 2.7-1.8z"/>
  <path d="M64.1 0C28.7 0 0 28.7 0 64.1c0 35.4 28.7 64.1 64.1 64.1 35.4 0 64.1-28.7 64.1-64.1C128.2 28.7 99.5 0 64.1 0zM64 120.5c-31.1 0-56.4-25.3-56.4-56.4S32.9 7.7 64 7.7s56.4 25.3 56.4 56.4H64.1l-.1 56.4 3.3-.1c-1.1.1-2.2.1-3.3.1z"/>
  <path d="M67.3 7.7h-3.2V64h56.3c0-30.1-23.5-54.6-53.1-56.3z" opacity=".5"/>
</svg>
