<svg enable-background="new 0 0 54 25.9" viewBox="0 0 54 25.9" xmlns="http://www.w3.org/2000/svg"><path d="m0 0h54v25.9h-54z"/><g fill="#fff"><path d="m7.5 6.7h.1l2.1 5.7h2.1v-7.7h-1.5v5.3l-2.1-5.3h-2.2v7.7h1.5z"/><path d="m15.8 11.4c-.9 0-1-.9-1-2.8 0-2 .1-2.8 1-2.8.5 0 .7.4.7 1.4h1.5c.1-1.7-.6-2.6-2.3-2.6-2.7 0-2.7 2-2.7 4s0 4 2.7 4c1.5 0 2.3-.7 2.3-2.7h-1.6c.1.5.1 1.5-.6 1.5z"/><path d="m26.3 10.3c0-2.4-3.3-2.3-3.3-3.8 0-.5.3-.8.8-.8.7 0 .8.6.8 1.2h1.6c.1-1.6-.7-2.3-2.3-2.3-2 0-2.6 1-2.6 2.2 0 2.3 3.3 2.4 3.3 3.8 0 .5-.3.9-.8.9-.8-.1-.8-.7-.8-1.5h-1.6c-.1 1.3.3 2.5 2.3 2.5 1.2 0 2.6-.2 2.6-2.2z"/><path d="m28.7 12.4h1.6v-6.4h1.8v-1.3h-5.2v1.3h1.8z"/><path d="m33.8 4.7-2.1 7.7h1.6l.4-1.7h2.2l.4 1.7h1.7l-2.1-7.7zm.2 4.8.7-3.3.8 3.3z"/><path d="m40.9 12.4v-6.4h1.8v-1.3h-5.2v1.3h1.8v6.4z"/><path d="m47.8 11.2h-2.7v-2.2h2.4v-1.2h-2.4v-1.9h2.6v-1.2h-4.2v7.7h4.3z"/><path d="m9.2 18.9c0 .8 0 2-1.3 2s-1.3-1.2-1.3-2v-4h-.6v4.4c0 1.6.9 2.1 1.9 2.1s1.8-.4 1.8-2.1v-4.4h-.5z"/><path d="m14.8 20.4-2.5-5.5h-.9v6.3h.6v-5.6l2.6 5.6h.8v-6.3h-.6z"/><path d="m17.2 14.9h.6v6.3h-.6z"/><path d="m21 20.5-1.5-5.6h-.6l1.8 6.3h.7l1.7-6.3h-.5z"/><path d="m24.8 18.2h2.2v-.5h-2.2v-2.3h2.3v-.5h-2.8v6.3h2.9v-.5h-2.4z"/><path d="m30.8 17.9c.9-.2 1-.7 1-1.5 0-1.1-.3-1.5-1.5-1.5h-1.7v6.3h.4v-3.1h1.1c1.2 0 1 1.2 1 1.5s0 1.4.1 1.6h.5c0-.2-.1-.5-.1-.7.1-2.3.1-2.4-.8-2.6zm-.8-.2h-1v-2.3h1.1c.7 0 1 .2 1 1 .1 1.1-.3 1.3-1.1 1.3z"/><path d="m35 17.7c-.7-.5-1.2-.5-1.2-1.5 0-.7.4-1 1.1-1 .9 0 1.1.5 1.1 1.3h.6c0-.9-.3-1.7-1.6-1.7-1 0-1.7.5-1.7 1.6 0 .6.1 1 1.3 1.8.9.6 1.5.8 1.5 1.7 0 .7-.4 1.1-1.1 1.1-1.1 0-1.2-.7-1.2-1.4h-.6c-.1 1.2.5 1.9 1.7 1.9 1.1 0 1.7-.6 1.7-1.7 0-1.4-.8-1.5-1.6-2.1z"/><path d="m38.1 14.9h.6v6.3h-.6z"/><path d="m39.9 15.4h1.6v5.8h.5v-5.8h1.6v-.5h-3.7z"/><path d="m47.8 14.9-1.5 3.1-1.5-3.1h-.6l1.8 3.7v2.6h.5v-2.6l1.9-3.7z"/></g></svg>