<svg version="1.1" xmlns="http://www.w3.org/2000/svg" x="0" y="0" viewBox="0 0 521.5 114.4" xml:space="preserve">
  <path fill="#1b1b1c" d="M518.7 68.2c-6.9 0-44.8.1-45.1.1-1 0-1.7-.7-1.7-1.6 0-.4.1-.6.4-.8.3-.1.9-.3 2-.5 1.7-.2 3-.7 3.8-1.5.9-.7 1.5-1.9 1.9-3.3.4-1.5.6-5.2.6-11.3.1-6 .1-13.2.1-21.6 0-3.3-.2-5.7-.7-7.2s-1.2-2.6-2.1-3.3-2.2-1.1-3.8-1.2c-1.2-.1-1.7-.5-1.7-1.3s.7-1.2 2-1.2l13.3.1h8.8c1.3 0 2.3-.1 2.7-.1 1.1 0 1.7.4 1.7 1.2 0 .4-.2.7-.6.9s-1.3.4-2.7.6c-1.8.2-3.1.7-3.8 1.4s-1.2 1.9-1.5 3.5c-.3 1.7-.4 5.4-.4 11.3V57c0 3.8.4 6 1 6.8.7.7 1.9 1.1 3.7 1.1 4.4 0 7.7-.3 9.9-1s4.2-1.9 6.2-3.7c2-1.8 4.1-4.8 6.3-9.1.4-.9.9-1.3 1.4-1.3.7 0 1.1.4 1.1 1.2 0 1.8-.9 7.4-2.8 17M324.3 17.2c-2.4-1.8-6.1-3-11.1-3.5-1.9-.2-29.2 0-29.2 0-1.7 0-2.6.3-2.6 1.2 0 .8.5 1.2 1.4 1.2 2.1 0 3.6.5 4.4 1.6.8 1 1.3 2.4 1.3 4.1v28.6c0 6-.2 9.7-.5 11.1s-.7 2.6-1.4 3.1c-.6.6-1.7.9-3.2 1.2-1.5.2-2.2.6-2.2 1.2 0 .8.4 1.1 1.3 1.1h23.1c1.6 0 2.3-.3 2.3-1 0-.5-.2-.8-.5-1s-1.1-.3-2.4-.3c-1.9-.1-3.3-.6-4.2-1.5-.9-1-1.4-3.3-1.4-6.5V42.4c2.6.1 4.9.2 6.8.2 8.1 0 13.9-1.4 17.4-4.1 3.6-2.7 5.3-6.3 5.3-10.8.4-4.5-1.3-8-4.6-10.5M313 35.8c-2.1 2.6-5.4 3.9-9.7 3.9-.8 0-2-.1-3.6-.2V17c2.7-.5 4.8-.7 6.3-.7 2.9 0 5.3.9 7.3 2.5 2 1.7 3 4.2 3 7.6-.1 3.7-1.1 6.8-3.3 9.4"/>
  <path fill="#1b1b1c" d="M369.9 43.9c-2.8-2.4-7-4.3-12.5-5.4 9.5-2.8 14.2-7.3 14.2-13.7 0-3.7-1.5-6.6-4.4-8.8-3-2.2-6.9-2.5-11.9-2.5-1.7 0-26.5.1-27.2.3-.6.1-1 .5-1 1.1 0 .4.2.8.5.9.3.2 1 .3 2.1.4 1.2.1 2.1.3 2.7.7s1.1 1.1 1.4 2.1.6 3.3.7 6.8.2 8.2.2 14.1l-.3 18.8c0 1.9-.2 3.3-.7 4.2s-1.1 1.5-1.9 1.8c-.8.4-2 .6-3.7.9-.8.1-1.2.7-1.2 1.3 0 .8.5 1.2 1.6 1.2.5 0 20.9-.1 22.2-.1 5.6 0 9.9-.4 12.9-1.3 3-.8 5.4-2.8 7.5-5.3 2-2.5 3.1-5.3 3.1-8.4-.2-3.6-1.6-6.6-4.3-9.1m-23.7-27.4c2.2-.8 4.1-.6 5.7-.6 2.2 0 4.1.3 5.8 2.1 1.6 1.7 2.5 4.4 2.5 7.9 0 8-4.6 12-13.9 12-.2-6-.3-10.3-.3-12.8-.1-3 0-5.9.2-8.6M359 61.9c-1.9 2.1-4.8 3.1-8.7 3.1-2.2 0-3.4-.4-3.8-1.1s-.6-3.6-.6-8.6c0-3.8.1-8.5.3-14.2 1.5-.1 2.8-.2 3.6-.2 4.1 0 7.1 1.2 9.1 3.5s3 5.3 3 8.9-.9 6.5-2.9 8.6"/>
  <path fill="#1b1b1c" d="M420.8 53.9c-.5 0-1 .5-1.5 1.4-3.2 6.5-10 9.8-20.3 9.8-2.8 0-4.9-.4-6-1.1-1.2-.7-1.9-1.7-2.1-2.8-.2-1.2-.3-4.8-.3-11 0-1.4.1-4.4.2-9 4.2 0 7.2.7 9.1 2s3.2 3.2 3.7 5.7c.3 1.4.8 2.2 1.4 2.2.9 0 1.3-.4 1.3-1.1 0-.2 0-.4-.1-.7-.2-.9-.3-2-.3-3.2 0-8.4.2-13.4.5-15.1.1-.2.1-.5.1-.6 0-.6-.4-1-1.1-1-.6 0-1 .4-1.3 1.3-.1.5-.7 1.6-1.7 3.3s-2.2 2.8-3.6 3.4c-1.4.5-3.1.8-5 .8h-3.1c-.1-2.3-.1-3.9-.1-4.9 0-5.7.2-10.9.7-15.7 2.3-.4 4.6-.6 7.1-.6 4.4 0 7.7.6 10 1.9s4.9 4 7.7 8c.5.8 1 1.1 1.4 1.1.8 0 1.1-.4 1.1-1.2-.8-4.2-1.7-9-2.6-13.2l-42.5-.1c-1 0-1.5.7-1.5 1.5 0 .6.4 1 1.3 1.1 2.1.3 3.5.7 4.3 1.3s1.2 1.7 1.4 3.3.3 6 .3 13.1l-.2 20.8c0 4.4-.5 7.3-1.4 8.7s-2.7 2.1-5.3 2.1c-1 0-1.5.4-1.5 1.1 0 .9.6 1.3 1.9 1.3.3 0 27.4.1 31.5.1H419l2.6-11.6c.2-.7.2-1.2.2-1.7.1-.4-.3-.7-1-.7M471.9 50.9c0-.8-.4-1.2-1.1-1.2-.5 0-1 .4-1.4 1.3-2.2 4.2-4.3 7.3-6.3 9.1s-4 3-6.2 3.7-5.5 1-9.9 1c-1.8 0-3-.4-3.7-1.1s-1-3-1-6.8V32.4c0-5.8.1-9.6.4-11.3s.8-2.8 1.5-3.5 2-1.1 3.8-1.4c1.5-.2 2.4-.4 2.7-.6.4-.2.6-.5.6-.9 0-.8-.6-1.2-1.7-1.2-.5 0-1.4.1-2.7.1h-8.8l-13.3-.1c-1.3 0-2 .4-2 1.2s.6 1.2 1.7 1.3c1.6.1 2.9.5 3.8 1.2s1.6 1.8 2.1 3.3.7 3.9.7 7.2c0 8.3 0 15.5-.1 21.6-.1 6-.3 9.8-.6 11.3-.4 1.5-1 2.6-1.9 3.3-.9.7-2.2 1.2-3.8 1.5-1 .2-1.7.3-2 .5-.3.1-.4.4-.4.8 0 .8.6 1.6 1.7 1.6.3 0 38.2-.1 45.1-.1v-.3c1.9-9.6 2.8-15.2 2.8-17M157.6 54.2c0-.9-.4-1.3-1.3-1.3-.5 0-1 .4-1.6 1.2-4.6 6.7-9.7 10-15.2 10-5.1 0-9.4-2.3-12.8-6.9s-5.2-10.8-5.2-18.6c0-4.5.6-8.5 1.8-11.7 1.2-3.3 2.9-5.8 5.2-7.7 2.2-1.9 4.9-2.8 8.2-2.8 4.4 0 8 1.7 10.9 5.2s4.9 6.7 6 9.5c.3.9.8 1.3 1.4 1.3.9 0 1.3-.5 1.3-1.6l-.1-1.6-.8-12.6c-.1-1.4-.2-2.2-.4-2.5s-.5-.4-1.1-.4c-.5 0-1.1.5-1.8 1.6-.6.9-1.2 1.6-1.8 2.4-5.5-3-10.9-4.5-16.3-4.5-7.6 0-13.8 2.8-18.8 8.4s-7.4 12.2-7.4 19.8 2.5 14.1 7.4 19.3 11.6 7.8 20.1 7.8c6.4 0 11.7-1.9 16-5.8 4.1-3.9 6.3-6.7 6.3-8.5M210.9 63.3c.2-.2.4-.5.5-.7v-.1c-.1.2-.3.5-.5.8zM216.3 24.5v-.1.1z"/>
  <path fill="#1b1b1c" d="M276.3 66c-2.4-.1-4.1-1.6-5.2-3.2s-1.6-4.4-1.6-8.5V34.5c0-8.1.5-13.2 1.4-15.3 1-2.1 3-3.1 6-3.1.9 0 1.3-.4 1.3-1.1 0-.9-.6-1.3-1.7-1.3h-19c-3.4 9.2-8.7 21.9-15.4 37-.2-.6-1.3-2.5-3.1-5.7-2.3-4.1-4.4-8.1-6.2-11.8s-3.7-7.4-5.6-11-3.4-6.8-4.1-8.4l-17.8.1c-1 0-1.5.4-1.5 1.1s.4 1.2 1.3 1.4c2.4.5 4.1 1.1 5.1 2.1 1 .9 1.7 2.2 2 3.9s.4 5.2.4 10.4l-.2 23.1c0 1.3-.1 2.4-.2 3.4-.2 1.4-.5 2.5-.9 3.3v.1c-.1.2-.3.5-.5.7h-.1c-1 1.1-2.5 1.7-4.1 1.7s-3.1-.7-4.1-1.7h-.1c-.1-.2-.3-.3-.4-.5-1.1-1.6-3.2-6.2-6.2-13.9-6.5-16.6-11-27.5-14.6-35.2l-4.2 1.1c-6.6 16.1-10.7 26.5-14.1 36-1.5 4.2-2.8 7.3-3.8 9.2-1.1 1.9-2.1 3.2-3 3.9s-2.2 1.4-3.8 1.9c-.7.2-1 .6-1 1.2 0 .8.5 1.2 1.5 1.2.3 0 15.4-.1 15.8-.1 1.1 0 1.7-.4 1.7-1.1s-.5-1.1-1.3-1.2c-1-.3-1.9-.8-2.8-1.4-1.2-.8-1.7-2-1.7-3.4 0-2 1.4-6.7 3.6-12.9h15.6c1.1 2.4 2.2 5 3.2 7.9s1.5 4.9 1.5 6c0 2.3-1.7 3.7-5 4-.9.1-1.3.4-1.3 1 0 .8.6 1.2 1.9 1.2.7 0 22.6.1 23.2.1H223c.8 0 1.3-.3 1.3-1 0-.5-.3-.8-.9-1-2.7-.4-4.3-1.5-4.9-3-.7-1.6-1-5.4-1-11.4 0-10.3.1-18.7.2-25.2 11.4 22.1 18.1 36.5 20 40.6.2.4.6 1.1.6 1.1s2.3 0 2.3-.1h.9s9.8-26.4 17-43.5v13.8l-.5 17.7c0 2.4-.2 4.2-.5 5.5-.3 1.2-.8 2.1-1.4 2.5-.6.5-1.6 1.1-3.1 1.3-1.4.2-2.1.6-2.1 1.3 0 .4.1 1.1.8 1.1h25.6c.5-.3.7-.6.7-1 .1-.7-.5-1.1-1.7-1.1M169.4 44.7l6.3-16.6c.8 2 1.9 4.6 3.2 7.8 1.6 3.7 2.8 6.6 3.5 8.7l-13 .1zm46.9-20.2v-.1c.1 0 .1.1 0 .1zM178.1 98c0 1.6-.3 3.1-.8 4.4-.6 1.3-1.3 2.4-2.3 3.3s-2.1 1.6-3.4 2.1-2.8.7-4.3.7-3-.2-4.3-.7-2.5-1.2-3.4-2.1c-1-.9-1.7-2-2.3-3.3-.5-1.3-.8-2.8-.8-4.4V81h4.8v16.9c0 .7.1 1.4.3 2.1s.5 1.4 1 2 1.1 1.1 1.9 1.5 1.7.6 2.9.6c1.1 0 2.1-.2 2.9-.6s1.4-.9 1.9-1.5.8-1.3 1-2 .3-1.4.3-2.1V81h4.8v17h-.2zM195.4 81h6.4l13 20h.1V81h4.8v27h-6.1l-13.3-20.7h-.1V108h-4.8V81zM237 81h4.8v27H237V81zM256 81h5.6l7.3 20.4 7.6-20.4h5.2l-10.9 27h-4.2L256 81zM296 81h17.9v4.3h-13.1V92h12.4v4.3h-12.4v7.3h13.8v4.4H296V81zM330.7 81h9.4c1.3 0 2.5.1 3.8.4 1.2.2 2.3.7 3.2 1.2.9.6 1.7 1.4 2.2 2.4.6 1 .8 2.2.8 3.8 0 2-.5 3.6-1.6 4.9s-2.6 2.1-4.6 2.4l7.2 11.9h-5.8L339 96.5h-3.5V108h-4.8V81zm8.6 11.4c.7 0 1.4 0 2.1-.1s1.3-.2 1.9-.5c.6-.2 1-.6 1.4-1.1s.5-1.2.5-2.1c0-.8-.2-1.4-.5-1.9s-.8-.8-1.3-1.1c-.5-.2-1.1-.4-1.8-.5s-1.3-.1-1.9-.1h-4.2v7.3l3.8.1zM379.4 86.8c-.5-.7-1.2-1.3-2-1.6-.9-.3-1.7-.5-2.7-.5-.6 0-1.1.1-1.6.2s-1 .3-1.4.6-.8.6-1 1.1c-.3.4-.4 1-.4 1.6 0 .9.3 1.6 1 2.1.6.5 1.4.9 2.4 1.3.9.4 2 .7 3.1 1s2.1.8 3.1 1.4c.9.6 1.7 1.4 2.4 2.3.6 1 1 2.2 1 3.8 0 1.4-.3 2.7-.8 3.8s-1.3 2-2.2 2.7-1.9 1.2-3.1 1.6-2.5.5-3.8.5c-1.7 0-3.3-.3-4.8-.8-1.5-.6-2.9-1.5-4-2.8l3.6-3.5c.6.9 1.4 1.6 2.3 2.1 1 .5 2 .7 3 .7.6 0 1.1-.1 1.7-.2.6-.2 1.1-.4 1.5-.7.5-.3.8-.7 1.1-1.2s.4-1 .4-1.6c0-1-.3-1.8-1-2.3-.6-.5-1.4-1-2.4-1.4-.9-.4-2-.7-3.1-1s-2.1-.8-3.1-1.4c-.9-.6-1.7-1.3-2.4-2.3-.6-1-1-2.2-1-3.8 0-1.4.3-2.6.9-3.6s1.3-1.9 2.2-2.5c.9-.7 2-1.2 3.2-1.5s2.4-.5 3.7-.5c1.4 0 2.8.2 4.1.6s2.5 1.1 3.6 2.1l-3.5 3.7zM399.3 81h4.8v27h-4.8V81zM427 85.3h-8.3V81h21.4v4.3h-8.3V108H427V85.3zM461.4 96.4L451.2 81h6.1l6.6 10.7 6.7-10.7h5.7l-10.1 15.4V108h-4.8V96.4zM51.3 19.6h10.2l3.6 8.8v12l-1.3-.3v-12l-2.6-6-2.5 4.1v12.7l-1.1-.3L49 22.8l2.3-3.2zM69.2 55.1c0-.8.7-1.5 1.5-1.5s1.5.7 1.5 1.5v12.4l-3.1.1.1-12.5zM50.3 51.3c1.2 0 2.2 1 2.3 2.2v14.7l-4.5.2V53.5c0-1.2 1-2.2 2.2-2.2M61.4 52.5c2.1 0 3.7 1.7 3.7 3.7v16.1l-7.5.6V56.2c.1-2 1.7-3.7 3.8-3.7"/>
  <path fill="#1b1b1c" d="M84.5 16.8c-.4-.1-4.1-1.2-9.5-2.4-4.1-1-10.4-2.2-17.3-3.1l2.6 4.8c.5.1 1 .2 1.6.2l.4.1c8.3 1.3 15.4 3.1 18.9 4l.6.2v52.9c0 5.3-2.3 10.3-6.1 13.3l-.1.1c-.7.6-1.5 1.2-2.2 1.7l-1 .7v-2.1c0-1.7-1.4-3.1-3.1-3.1s-3.1 1.4-3.2 3.1v6.4l-9.2 6.3v-8.1c0-2.4-1.9-4.3-4.3-4.3s-4.3 1.9-4.3 4.3v14l-5 3.4V84.1L76 78.2v-1.9l-32.8 4V44.4l33.5 5.3v-2.9L43.2 39l2.6-37.3V0L37 4.5V6l-7.3 13.6h-5l-3.6 8.8V35l-4 6.7-7.8 3.5v4.4l1.6.2v2.9l-2.5.3-.3.3v2l2.4 1.6.4 30.4c-.2-.2-.4-.4-.6-.5l-.1-.1c-3.8-3-6.1-8-6.1-13.3V20.6l.6-.2c3.9-1 14-3.5 25-4.8l2.4-4.7c-15.9 1.5-30.2 5.7-30.9 5.9l-1.2.5v56.2c0 6.6 2.9 12.9 7.7 16.7.8.7 1.7 1.4 2.6 2L43 114.4l1.8-1.2 30.9-21c.9-.6 1.8-1.3 2.6-2 4.8-3.9 7.7-10.1 7.7-16.7V17.3l-1.5-.5zM18.7 67.7l-3.1-.1V55.1c0-.9.7-1.6 1.6-1.6s1.6.7 1.6 1.6v12.6h-.1zM26.6 98l-3.7-2.5v-8c0-1 .8-1.9 1.9-1.9 1 0 1.9.8 1.9 1.9L26.6 98zm0-30l-3.7-.2V54.4c0-1 .8-1.9 1.9-1.9 1 0 1.9.8 1.9 1.9L26.6 68zm9.3 36.4l-4.3-2.9V89.6c0-1.2 1-2.2 2.2-2.2s2.2 1 2.2 2.2v14.8h-.1zm0-36.1l-4.3-.2V53.7c0-1.2 1-2.2 2.2-2.2s2.2 1 2.2 2.2v14.6h-.1zm-7.2-29.7V25.8L25.9 21H36l1.4 1.8-8.7 15.8z"/>
</svg>
