<svg version="1.1" id="Layer_1" xmlns="http://www.w3.org/2000/svg" xmlns:xlink="http://www.w3.org/1999/xlink" x="0" y="0" viewBox="0 0 128.1 128.1" xml:space="preserve">
  <circle class="st0" cx="64.1" cy="64.1" r="64.1"/>
  <defs>
    <circle id="SVGID_1_" cx="64.1" cy="64.1" r="56.3"/>
  </defs>
  <clipPath id="SVGID_2_">
    <use xlink:href="#SVGID_1_" overflow="visible"/>
  </clipPath>
  <g clip-path="url(#SVGID_2_)">
    <path class="st0" d="M7.7 7.7H64v112.6H7.7z"/>
    <path fill="#6c6a68" d="M64.1 7.7h56.3V64H64.1z"/>
    <path d="M64.1 64.1h56.3v56.3H64.1zM34.1 29.2l4.5 7.2c1 1.6 2 3.2 3 4.9.3.5.8 1.8 1.4 2.2V30.3c0-.2-.1-.7 0-.8.1-.2 0-.1.4-.1.6-.1 1.2 0 1.8 0 .5 0 1.4-.2 1.9 0 .4.1.3.2.3.8v18.6c0 .4.2 1.4 0 1.8-.2.3-1.6.1-2 .1h-2c-.2 0-.5.1-.6 0-.4-.2-.7-1.2-1-1.5-1.6-2.6-3.2-5.1-4.8-7.7-.7-1.2-1.4-2.3-2.2-3.5-.2-.4-.6-1.2-1-1.5V48.6c0 .5.2 1.3 0 1.7-.1.4.1.3-.5.3h-3c-.3 0-.7.1-.9-.1-.1-.2 0-.9 0-1.1v-4.7-12.1-2.2c0-.1-.1-.8 0-.9.2-.2 1.7 0 2 0 .9-.3 1.8-.3 2.7-.3zM43 82.9c-1.6-2.6-5.4-3-7.6-1-2.3 2-2.6 5.7-1.9 8.5.7 3 3 5 6.1 4.6 1.3-.1 2.4-.7 3.1-1.8.4-.5.6-1.1.8-1.7.1-.3.1-1.1.4-1.2.2-.1.7 0 .9 0h3.5c-.4 4.2-3 7.7-7.3 8.4-4 .7-8.2-.7-10.5-4.1-2.2-3.3-2.5-8-1-11.7 1.6-3.8 5.2-6.1 9.3-6.2 4.6-.1 8.8 2.8 9.3 7.6h-2.7c-.4 0-1.1.1-1.5 0h-.3c-.2-.1-.4-1.1-.6-1.4-.3-.4.3.4 0 0zM49 61.6h-6.7c-.2 0-.8.1-.9 0-.1-.1-.2-.4-.2-.6-.4-1.2-.8-2.5-1.2-3.7-.3-1-.7-2-1-3l-2.1 6.3c-.1.2-.1.8-.3.9-.1.1-.5 0-.6 0h-7.1l5.4 3.9c.6.5.8.4.6 1.1-.4 1.2-.8 2.5-1.2 3.7-.3 1-.7 2-1 3l5.4-3.9c.6-.5.6-.7 1.3-.2 1 .8 2.1 1.5 3.1 2.3.9.6 1.7 1.2 2.6 1.9L43 67c-.1-.2-.3-.7-.3-.9 0-.1.4-.3.5-.4 1-.8 2.1-1.5 3.1-2.3 1-.6 1.8-1.2 2.7-1.8z"/>
  </g>
</svg>
