<?xml version="1.0" encoding="utf-8"?>
<!-- Generator: Adobe Illustrator 24.1.2, SVG Export Plug-In . SVG Version: 6.00 Build 0)  -->
<svg version="1.1" id="Layer_1" xmlns="http://www.w3.org/2000/svg" xmlns:xlink="http://www.w3.org/1999/xlink" x="0px" y="0px"
	 viewBox="0 0 216 45.2" style="enable-background:new 0 0 216 45.2;" xml:space="preserve">
<style type="text/css">
	.st0{fill:#FFFFFF;}
</style>
<circle cx="20.3" cy="22.3" r="11.9"/>
<path d="M63.1,7.1c-5.1,0-12.9-2.4-12.9-2.4s-1.7,4.4-1.7,10.4s5,21.8,15.1,25.8c0,0,14.4-9.1,14.4-25c0-9.5-1.4-11.2-1.4-11.2
	S68.2,7.1,63.1,7.1z"/>
<g>
	<path class="st0" d="M92.8,19.4V2.2h6.5c3.1-0.2,6.2,1.1,6.2,4.5c0,1.9-1.3,3.2-3,3.8c2.2,0.5,3.8,2,3.8,4.5c0,3.4-4.3,4.7-6.9,4.5
		h-6.6V19.4z M99.4,9.1c1.6,0,2.4-0.6,2.4-2s-0.9-2-2.4-2h-2.9v4.1L99.4,9.1z M99.4,16.5c1.7,0,2.9-0.3,2.9-2.3s-1.2-2.3-2.9-2.3
		h-2.9v4.6H99.4z M112.2,2.2v17.2h-3.6V2.2L112.2,2.2z M123.1,17.9c-0.8,1.1-1.9,1.8-3.7,1.8c-1.2,0-3.5-0.9-3.9-2.6
		c-0.2-0.7-0.2-1.5-0.2-1.9V7.4h3.6v7.2c0,1.3,0.4,2.8,2.1,2.8c1.1,0,2.1-1,2.1-2.8V7.4h3.6v9.8c0,0.7,0.1,1.4,0.1,2.1h-3.6
		L123.1,17.9z M133,14.4c0,1.6,0.2,3,2.1,3c1.2,0,1.9-0.5,2.2-1.6h3.2c-0.3,3-2.6,3.9-5.4,3.9c-4.1,0-5.8-2.3-5.8-6.3
		c0-3.6,2.1-6.4,5.8-6.4c2.2,0,4.1,0.8,5.1,2.9c0.3,0.7,0.5,1.4,0.6,2.1s0.1,1.5,0.1,2.3H133L133,14.4z M137.2,12
		c0-1.3-0.4-2.5-2.1-2.5c-1.6,0-2,1.2-2.1,2.5H137.2z M153,7.7c0-1.8-1.1-3.3-3.3-3.3c-2.6,0-3.3,3.9-3.3,6.3s0.7,6.3,3.3,6.3
		c2.2,0,3.3-1.5,3.3-3.3h3.9c-0.2,4.3-3.3,5.9-7.2,5.9c-5,0-7.2-3.9-7.2-9c0-5,2.2-9,7.2-9c4,0,7.1,1.6,7.2,5.9H153V7.7z M162.1,7.4
		l0.1,2.2c0.8-1.9,2.3-2.4,4.1-2.3v3.2h-1.6c-0.6,0-1.4,0.4-1.7,0.9c-0.4,0.7-0.5,1.3-0.5,2.1v5.9h-3.6V9.8c0-0.5-0.1-1.5-0.1-2.4
		L162.1,7.4z M174.1,19.8c-3.9,0-6.3-2.6-6.3-6.4s2.3-6.4,6.3-6.4c3.9,0,6.3,2.6,6.3,6.4S178,19.8,174.1,19.8z M174.1,17.4
		c2.2,0,2.6-2.1,2.6-4s-0.4-4-2.6-4s-2.6,2.1-2.6,4C171.6,15.3,171.9,17.4,174.1,17.4z M189,10.6c0-0.8-0.8-1.2-1.6-1.2
		c-1,0-1.4,0.3-1.4,1.1c0,1.9,6.9,0.8,6.9,5.3c0,2.6-3.2,3.9-5.4,3.9c-2.8,0-5.2-1.1-5.3-3.8h3.3c0.1,0.9,0.9,1.5,2,1.5
		c1,0,1.7-0.4,1.7-1.3c0-1-1.7-1.4-2.4-1.5c-2.3-0.5-4.4-1.1-4.4-3.8c0-2.5,3-3.6,5.1-3.6c2.5,0,4.7,0.9,4.8,3.6H189L189,10.6z
		 M200.9,10.6c0-0.8-0.8-1.2-1.6-1.2c-1,0-1.4,0.3-1.4,1.1c0,1.9,6.9,0.8,6.9,5.3c0,2.6-3.2,3.9-5.4,3.9c-2.8,0-5.2-1.1-5.3-3.8h3.3
		c0.1,0.9,0.9,1.5,2,1.5c1,0,1.7-0.4,1.7-1.3c0-1-1.7-1.4-2.4-1.5c-2.3-0.5-4.4-1.1-4.4-3.8c0-2.5,3-3.6,5.1-3.6
		c2.5,0,4.7,0.9,4.8,3.6h-3.3L200.9,10.6z M92.8,42.8V25.6h6.5c3.1-0.2,6.2,1.1,6.2,4.5c0,1.9-1.3,3.2-3,3.8c2.2,0.5,3.8,2,3.8,4.5
		c0,3.4-4.3,4.7-6.9,4.5L92.8,42.8L92.8,42.8z M99.4,32.5c1.6,0,2.4-0.6,2.4-2s-0.9-2-2.4-2h-2.9v4.1L99.4,32.5z M99.4,39.9
		c1.7,0,2.9-0.3,2.9-2.3s-1.2-2.3-2.9-2.3h-2.9v4.6H99.4z M112.2,25.6v17.2h-3.6V25.6H112.2z M123.1,41.3c-0.8,1.1-1.9,1.8-3.7,1.8
		c-1.2,0-3.5-0.9-3.9-2.7c-0.2-0.7-0.2-1.5-0.2-1.9v-7.8h3.6V38c0,1.3,0.4,2.8,2.1,2.8c1.1,0,2.1-1,2.1-2.8v-7.2h3.6v9.8
		c0,0.7,0.1,1.4,0.1,2.1h-3.6L123.1,41.3z M133,37.8c0,1.6,0.2,3,2.1,3c1.2,0,1.9-0.5,2.2-1.6h3.2c-0.3,3-2.6,3.9-5.4,3.9
		c-4.1,0-5.8-2.3-5.8-6.3c0-3.6,2.1-6.4,5.8-6.4c2.2,0,4.1,0.8,5.1,2.9c0.3,0.7,0.5,1.4,0.6,2.1s0.1,1.5,0.1,2.3L133,37.8z
		 M137.2,35.4c0-1.3-0.4-2.5-2.1-2.5c-1.6,0-2,1.2-2.1,2.5H137.2z M152.5,30.5c-0.1-1.7-1.1-2.6-2.9-2.6c-1.4,0-2.7,0.7-2.7,2.2
		c0,1.9,1.7,2.1,3.2,2.4c2.6,0.7,6.5,1.4,6.5,4.9c0,4.3-3.7,5.8-7.4,5.8c-3.9,0-6.7-1.5-6.6-5.9h3.8c-0.1,1.9,1,3.2,2.9,3.2
		c1.5,0,3.4-0.5,3.4-2.3c0-2-2.5-2.2-3.9-2.6c-2.4-0.6-5.7-1.7-5.7-4.8c0-3.9,3.6-5.7,7.2-5.7c3.3,0,5.9,1.8,5.9,5.3L152.5,30.5z
		 M159.1,42.8V25.6h3.6v6.7c0.7-1.1,1.9-1.8,3.7-1.8c1.2,0,3.5,0.9,3.9,2.6c0.2,0.7,0.2,1.5,0.2,1.9v7.8H167v-7.2
		c0-1.3-0.4-2.7-2.1-2.7c-1.1,0-2.1,1-2.1,2.7v7.2H159.1z M177.4,25.6v3.1h-3.8v-3.1H177.4z M177.2,30.8v12h-3.6v-12H177.2z
		 M183.5,37.8c0,1.6,0.2,3,2.1,3c1.2,0,1.9-0.5,2.2-1.6h3.2c-0.3,3-2.6,3.9-5.4,3.9c-4.1,0-5.8-2.3-5.8-6.3c0-3.6,2.1-6.4,5.8-6.4
		c2.2,0,4.1,0.8,5.1,2.9c0.3,0.7,0.5,1.4,0.6,2.1s0.1,1.5,0.1,2.3L183.5,37.8z M187.6,35.4c0-1.3-0.4-2.5-2.1-2.5
		c-1.6,0-2,1.2-2.1,2.5H187.6z M197.1,25.6v17.2h-3.6V25.6H197.1z M208.5,25.6h3.6v14.9c0,0.8,0.1,1.6,0.1,2.4h-3.6
		c0-0.6-0.1-1.1-0.1-1.7c-0.8,1.4-2.1,2.1-3.7,2.1c-3.5,0-5.2-3.3-5.2-6.4c0-3.2,1.9-6.4,5.6-6.4c1.2,0,2.5,0.7,3.2,1.7L208.5,25.6z
		 M205.9,40.8c1.9,0,2.6-2.3,2.6-4c0-1.6-0.6-4-2.6-4c-2.3,0-2.6,2.1-2.6,4C203.3,38.6,203.6,40.8,205.9,40.8z M206.5,19.4
		c-0.6,0-1.1-0.5-1.1-1.1s0.5-1.1,1.1-1.1s1.1,0.5,1.1,1.1S207.2,19.4,206.5,19.4 M206.5,16.9c-0.7,0-1.3,0.6-1.3,1.3
		s0.6,1.3,1.3,1.3s1.3-0.6,1.3-1.3S207.2,16.9,206.5,16.9"/>
	<path class="st0" d="M206.5,18.2h-0.3v-0.5h0.4c0.2,0,0.4,0,0.4,0.2C207,18.2,206.7,18.2,206.5,18.2 M207.2,17.9
		c0-0.3-0.1-0.4-0.5-0.4H206V19h0.2v-0.7h0.3L207,19h0.2l-0.4-0.7C207,18.3,207.2,18.2,207.2,17.9 M214.2,42.7
		c-0.6,0-1.1-0.5-1.1-1.1s0.5-1.1,1.1-1.1s1.1,0.5,1.1,1.1S214.8,42.7,214.2,42.7 M214.2,40.2c-0.7,0-1.3,0.6-1.3,1.3
		s0.6,1.3,1.3,1.3s1.3-0.6,1.3-1.3S214.9,40.2,214.2,40.2"/>
	<path class="st0" d="M214.1,41.5h-0.3V41h0.4c0.2,0,0.4,0,0.4,0.2C214.6,41.5,214.4,41.5,214.1,41.5 M214.9,41.2
		c0-0.3-0.1-0.4-0.5-0.4h-0.7v1.5h0.2v-0.7h0.3l0.4,0.7h0.2l-0.4-0.7C214.7,41.6,214.9,41.5,214.9,41.2 M38.4,38.4
		c-1.3,0-2.3,1-2.3,2.3s1,2.3,2.3,2.3c1.2,0,2.3-1,2.3-2.3S39.7,38.4,38.4,38.4z M38.4,42.6c-1.1,0-1.9-0.8-1.9-1.9s0.8-1.9,1.9-1.9
		s1.9,0.8,1.9,1.9S39.6,42.6,38.4,42.6z"/>
	<path class="st0" d="M39.6,40.1c0-0.5-0.2-0.7-0.9-0.7h-1.1V42h0.3v-1.1h0.6l0.7,1.1h0.4l-0.8-1.1C39.3,40.8,39.6,40.6,39.6,40.1z
		 M38.4,40.5h-0.5v-0.8h0.7c0.3,0,0.6,0,0.6,0.4C39.3,40.6,38.7,40.5,38.4,40.5z M20.4,25.4c-0.1,0-0.1,0-0.2,0.1l-3.8,5.8
		c1.2,0.5,2.5,0.8,3.9,0.8s2.7-0.3,3.9-0.8l-3.8-5.8C20.5,25.4,20.4,25.4,20.4,25.4z M16.7,20.6L11,20.1c-0.2,0.7-0.3,1.5-0.3,2.3
		c0,2.4,0.9,4.6,2.3,6.3l4-7.6C17.2,20.9,17.1,20.7,16.7,20.6z"/>
	<path class="st0" d="M29.4,13.3V2H11.3v11.3H0v18.1h11.3v11.3h18.1V31.4h11.3V13.3L29.4,13.3z M20.4,11.2c4.5,0,8.4,2.6,10.1,6.5
		h-8c-1.1,0-1.6-0.7-1.7-1.2c0-0.6,0.1-0.8,0.6-1.5c0.6-0.8,0.2-2.2-1.1-2.3c-1.3,0-1.7,1.5-1.1,2.3c0.5,0.7,0.6,0.9,0.6,1.5
		c0,0.5-0.5,1.2-1.7,1.2h-8C12,13.9,15.9,11.2,20.4,11.2z M9.2,22.4c0-1.4,0.3-2.7,0.7-3.9l7.5,0.7c1.4,0.2,1.6,1.6,1.2,2.4
		l-5.1,9.7C10.9,29.2,9.2,26,9.2,22.4z M26.5,31.8c-1.8,1.2-3.9,1.8-6.2,1.8s-4.4-0.7-6.2-1.8l5.5-8.1c0.4-0.6,1-0.5,1.4,0
		L26.5,31.8z M27.3,31.2l-5.1-9.6c-0.4-0.8-0.2-2.2,1.2-2.4l7.5-0.7c0.5,1.2,0.7,2.6,0.7,3.9C31.6,26,29.9,29.2,27.3,31.2z"/>
	<path class="st0" d="M27.7,16.1c-1.2-1.4-2.8-2.5-4.6-3c0.6,0.9,0.1,2.2-0.4,2.8c-0.1,0.1,0,0.2,0,0.2H27.7z M24.1,20.6
		c-0.4,0-0.4,0.2-0.3,0.4l4,7.6c1.4-1.7,2.3-3.9,2.3-6.3c0-0.8-0.1-1.6-0.3-2.3L24.1,20.6z M17.7,13.2c-1.8,0.5-3.4,1.6-4.6,3h5
		c0.1,0,0.1-0.1,0-0.2C17.6,15.3,17.1,14.1,17.7,13.2z"/>
	<path class="st0" d="M77.1,2c-4.4,2.2-8.8,3.4-13.9,3.4S53.7,4.2,49.3,2c-2.9,5.7-3.3,14.9-0.8,22.6C50.9,32,55.6,38.8,63.2,43
		c7.7-4.2,12.3-11,14.7-18.4C80.5,16.9,80,7.7,77.1,2z M75.1,23.7c-2.2,6.3-5.5,11.9-11.8,15.8C57,35.6,53.6,30,51.5,23.7
		c-1.9-5.6-2.4-12.2-0.3-17.3c3.2,1.1,5,1.4,6.7,1.7c1.6,0.3,3,0.4,5.4,0.4c2.3,0,3.8-0.2,5.4-0.4c1.7-0.3,3.6-0.6,6.7-1.7
		C77.4,11.5,77,18.1,75.1,23.7z"/>
	<path class="st0" d="M68.7,9.5c-1.8,0.2-3.7,0.4-5.5,0.4s-3.6-0.2-5.5-0.4c-1.8-0.3-3.6-0.7-5.5-1.2c-1.3,3.8-1.1,8.6,0,12.8
		c1.9,8,6.8,14.1,11,16.8c4.3-2.7,9.1-8.8,11-16.8c1-4.3,1.3-9,0-12.8C72.3,8.8,70.6,9.3,68.7,9.5z M62.2,34.2
		c-0.1,0.4,0.1,0.6,0.1,0.8c-0.1,0.3-0.3,0.2-0.4,0c-0.2-0.3-0.3-0.5-0.3-1c-0.1-0.8,0.3-1.1,0.5-1.3s0.4-0.3,0.4-0.3l0.1,1.3
		C62.4,33.7,62.2,33.8,62.2,34.2z M63.9,35.5c0,0.2-0.1,0.4-0.5,0.4c-0.3,0-0.5-0.1-0.5-0.5c-0.1-1.6-0.1-4.5-0.1-4.5
		s0.4,0.1,0.7,0.3c0.1,0,0.3,0.2,0.5,0.4c0,0.1,0.1,0.1,0.1,0.2C64,32.9,63.9,35,63.9,35.5z M65.2,32.5c-0.4,0.3-0.8,0.4-0.8,0.4
		v-1.2c0,0,0.1-0.1,0.1-0.3c-0.1-0.2-0.9-0.8-1.3-1c-0.5-0.2-1.1-0.4-1.5-0.5c-1-0.4-1.4-1.3-1-2.3c0.1-0.4,0.6-0.6,0.8-0.7
		s0.6-0.2,0.6-0.2l0.1,1.4c0,0-0.1,0-0.2,0.2s0.1,0.4,0.2,0.4c0.7,0.3,1.6,0.7,2.3,1.1c0.9,0.5,1.2,0.9,1.2,1.6
		C65.8,31.9,65.5,32.3,65.2,32.5z M62.7,26c0.7,0.1,0.9,0.1,1.5,0.2L64.1,29l-0.6-0.3l-0.6-0.3L62.7,26z M66.7,26.6
		c-0.1,0.5-0.4,0.9-0.9,1.2s-1.1,0.3-1.1,0.3v-1.7c0,0,0.1,0,0.2-0.1S65,26.1,65,26s-0.1-0.2-0.2-0.3c-0.2-0.1-0.4-0.1-0.5-0.1
		l-2.4-0.3c-1.4-0.2-2.5-1.1-2.4-2.5c0.1-0.9,1-1.2,1.7-1.5l0.5,1c0.1,0.4,0.2,0.6,0.2,0.6s-0.3,0.1-0.3,0.3s0.3,0.3,0.4,0.3
		c1,0.1,2.4,0.3,3.1,0.6c0.5,0.2,0.9,0.4,1.2,0.8C66.7,25.6,66.8,26.1,66.7,26.6z M62.1,20.1c0,0,0.3,0,1.2,0.1
		c0.6,0,1.1,0.2,1.1,0.2l-0.1,3c-0.7-0.1-1.1-0.2-1.7-0.3c-0.2-1.1-0.5-1.5-0.9-2.3c-0.1-0.2,0-0.3,0-0.3c0.1-0.1,0.5-0.2,0.5-0.2
		L62.1,20.1z M64.8,23.1c0,0,0.1-1.4,0.1-2.1c0.4-0.1,0.5-0.5,0.3-0.8c-0.1-0.2-0.4-0.3-0.5-0.3c-0.8-0.2-1.5-0.2-2.3-0.3
		c-0.7-0.1-1.3-0.2-1.9-0.3c-1.3-0.3-2.5-1-3.1-2.2c-0.7-1.5-0.1-3.4,1.4-4.1c1.1-0.6,2.3-0.5,3.4,0c0.4,0.1,0.6,0.5,0.8,0.8
		c0.1,0.1,0.3,0.2,0.4,0.4c0.1,0.1-0.1,0.1-0.1,0.1c-0.2,0.1-1.1,0.1-1.3,0h-1.2c0.3,0.2,0.7,0.4,1.1,0.6c0.2,0.1,0.4,0.1,0.6,0.2
		c0.1,0,0.3,0.1,0.3,0.2s-0.2,0.1-0.4,0.2c-0.3,0.1-0.7,0.1-1.1,0c-0.6-0.1-0.9-0.5-1.3-0.3c-0.3,0.2-0.3,0.5-0.2,0.9
		c0.1,0.6,0.7,0.8,1.2,1c1.7,0.6,3.6,0.2,5.2,1.1c0.6,0.3,1.4,1,1.5,1.7C68.2,22.7,64.8,23.1,64.8,23.1z M67.8,13.8
		c-0.1,0.3-0.2,0.3-0.4,0.5c-0.4,0.4-1,0.8-1.6,1.3c-0.4,0.3-0.7,0.5-1,1c-0.1,0.1-0.2,0.3-0.2,0.3c-1-0.2-1.9-0.2-2.7-0.4v-0.8
		c0,0,0.9,0,1-0.6c0,0,0-0.2-0.1-0.3s-0.4-0.2-0.5-0.2c0.7,0.1,1.4,0.4,2.1,0.7c0-0.1-0.1-0.4-0.1-0.4c-0.1-0.1-0.2-0.2-0.5-0.3
		c-0.4-0.1-1.5-0.2-1.5-0.2h0.9c0.2,0,0.5-0.1,0.5-0.2c0.1-0.1,0-0.3-0.2-0.5l-0.3-0.3c-0.1-0.2-0.3-0.4-0.4-0.6
		c-0.2-0.3-1-0.6-1-0.6s-0.1-0.5,0.1-0.7c0.1-0.2,0.5-0.2,0.6-0.1c0.5,0.3,1.2,0.6,1.9,0.8c0.2,0.1,0.2,0.1,0.2,0.4
		c0.1,0.5-0.1,1.2,0,1.5c0,0.1,0.2,0.1,0.2,0.1c0.7-0.4,1.1-1,1.8-1.3C67.1,12.7,68,13.1,67.8,13.8z M77.3,38.5
		c-1.2,0-2.2,1-2.2,2.2s1,2.2,2.2,2.2s2.2-1,2.2-2.2S78.5,38.5,77.3,38.5z M77.3,42.6c-1.1,0-1.9-0.8-1.9-1.9s0.8-1.9,1.9-1.9
		s1.9,0.8,1.9,1.9S78.4,42.6,77.3,42.6z"/>
	<path class="st0" d="M78.5,40.1c0-0.5-0.2-0.7-0.9-0.7h-1.1V42h0.3v-1.1h0.5L78,42h0.4l-0.8-1.1C78.1,40.8,78.5,40.6,78.5,40.1z
		 M77.3,40.6h-0.5v-0.8h0.7c0.3,0,0.6,0,0.6,0.4S77.6,40.6,77.3,40.6z M61.1,13.1c0.2,0.2,0.2,0.4,0.5,0.4c0.2,0,0.3-0.1,0.4-0.2
		h0.2c-0.3-0.3-1-0.3-1.5-0.4C60.9,13.1,61,13,61.1,13.1z"/>
</g>
</svg>
