<svg xmlns="http://www.w3.org/2000/svg" viewBox="0 0 200.8 87.7">
  <path fill="#1b1b1c" d="M131.1 1.3c-.3 0-.5.1-.8.3l-6.9 2.6c-.8.3-1.2.5-1.6.6s-.5.4-.5.8c0 .5.3.8.8.9s1.1.4 1.7.5c.6.3 1.2.6 1.7 1.2s.8 1.5.8 2.9v50.3c0 1.1-.1 1.9-.4 2.4s-.6.9-1 1.2c-.5.3-1 .5-1.6.6s-1.2.3-1.9.5c-.5.1-1 .3-1.2.5-.4.1-.5.5-.5 1s.4.8 1 .9 1.1.1 1.5.1c.9 0 2-.1 3.4-.3s2.6-.3 3.9-.3c1.1 0 2.2.1 3.4.3s2.2.3 3.4.3c.5 0 1-.1 1.5-.3s.8-.4.8-.8c0-.5-.3-.8-.9-.9s-1.2-.3-2-.5c-.5-.1-1-.4-1.5-.9-.5-.4-.8-1.2-.8-2.4v-14c0-.4.3-.5.8-.5.3 0 .5.3.9.6l15.1 14.2c.8.8 1.1 1.2 1.1 1.6s-.1.6-.5.9-.9.4-1.4.5c-.9.1-1.6.3-2.1.5-.5.1-.8.5-.8 1s.3.8.8.9c.5.1 1.2.1 2.2.1 1.2 0 2.4-.1 3.6-.3s2.5-.3 3.8-.3c1.5 0 2.9.1 4.2.3 1.2.1 2.4.3 3.5.3 1.7 0 2.6-.4 2.6-1 0-.4-.3-.6-.6-.8-.4-.3-1-.5-1.8-.8-.8-.3-1.6-.6-2.5-1.1-1-.5-2-1.1-3-2.1L142.1 47c-.1-.1-.3-.4-.5-.5-.2-.3-.2-.5-.2-.9 0-.3.9-1 2.6-2.1s3.8-2.4 6-3.8 4.4-2.6 6.5-3.8 3.5-1.9 4.2-2.2c.4-.1.8-.3 1.4-.5.6-.1 1.1-.4 1.6-.5.5-.3 1-.4 1.4-.6.4-.3.5-.5.5-.8 0-.5-.3-.9-.6-1s-.9-.3-1.2-.3c-1 0-2.1 0-3.5.1s-2.6.1-4 .1-2.6 0-4-.1-2.6-.1-3.6-.1c-.4 0-.6.1-1 .3-.3.3-.5.4-.5.8s.3.8.6 1 .9.5 1.2.8c.5.3.9.5 1.2.9s.6.9.6 1.5c0 .4-.4.9-1.1 1.5-.8.6-1.7 1.4-2.9 2.1-1.1.8-2.4 1.6-3.8 2.5-1.4.9-2.6 1.6-3.9 2.4s-2.2 1.2-3.1 1.7-1.4.6-1.5.6c-.6 0-.9-.5-.9-1.6V3.6c0-.8-.1-1.2-.4-1.5s-.5-.4-.8-.4l-1.3-.4zM30 6.1c-3.3 0-6 .1-8.6.3-2.5.3-5 .3-7.5.3H3.7c-.3 0-.9 0-1.3.1s-.8.3-1 .5-.5.5-.5 1 .3.9.6 1 1.2.3 2.4.4c.6.1 1.4.1 2.1.1s1.5.1 2.2.3 1.2.3 1.7.5.8.6.8 1v47c0 1.5-.1 2.6-.4 3.4s-.6 1.4-1 1.9c-.4.4-.9.8-1.5.9-.5.1-1.1.3-1.6.4-1.5.3-2.5.6-3 1s-.8.8-.8 1.2.3.8.8.9.9.1 1.1.1c1.2 0 2.6-.1 4.2-.3s3.3-.3 4.7-.3H37c4.2 0 8.3-.8 12.1-2.1 3.8-1.4 7-3.4 9.9-5.9 2.8-2.5 5-5.4 6.6-8.8s2.5-6.9 2.5-10.6c0-6-1-11.2-3-15.5-2-4.4-4.7-8-8.1-10.8-3.5-2.8-7.5-4.9-12.1-6.2-4.8-1.1-9.6-1.8-14.9-1.8zm-2.2 3c2.1 0 4.2.3 6.6.8s4.6 1.2 6.9 2.4 4.5 2.4 6.6 4 4 3.5 5.6 5.8 2.9 4.7 3.8 7.5c1 2.8 1.4 5.9 1.4 9.2s-.5 6.4-1.4 9-2.1 4.9-3.8 6.9c-1.5 2-3.3 3.6-5.3 5s-3.9 2.5-5.9 3.4-3.9 1.5-5.6 1.9-3.4.6-4.7.6c-1.6 0-3.1-.3-4.7-.6-1.5-.4-2.9-1-4.1-1.9s-2.1-1.9-2.9-3.1-1.1-2.8-1.1-4.5V12.2c0-.4 0-.8.1-1.1s.4-.8 1-1c.5-.3 1.4-.5 2.5-.8 1.3-.1 2.8-.2 5-.2zm156.6 19.2c-3.1 0-5.9.6-8.1 2s-4.1 3-5.6 5-2.6 4.2-3.4 6.9c-.8 2.5-1.1 4.9-1.1 7.2 0 6.2 1.5 11.2 4.5 14.9s7.2 5.5 12.9 5.5c2.6 0 4.9-.4 6.6-1.1 1.9-.8 3.4-1.6 4.5-2.6 1.2-1 2.1-1.9 2.6-2.8s.8-1.4.8-1.5c0-.5-.3-.8-.9-.8-.4 0-.8.3-1.1.6s-.8.9-1.4 1.4-1.4 1-2.5 1.4c-1.1.4-2.6.6-4.5.6-3.1 0-5.5-.5-7.5-1.5-1.9-1-3.4-2.2-4.4-3.8s-1.8-3.3-2.1-5.3-.5-4.1-.5-6.2v-2.1c0-.6.1-1.1.2-1.4h24.4c.9 0 1.4-.1 1.6-.5.2-.3.4-.9.4-1.9 0-1.1-.2-2.4-.8-4s-1.4-3.1-2.6-4.6-2.8-2.8-4.8-3.9-4.5-1.5-7.2-1.5zM73.1 30c-.8 0-1.4 0-1.7.1-.5.1-.8.4-.8.8s.3.6.6.8 1.2.4 2.4.8c.6.1 1.2.3 1.9.5s1 .6 1 1.4V55.7c0 2.1.1 4.1.5 5.8s1 3.3 1.9 4.5 2.1 2.2 3.8 2.9 3.5 1 5.9 1c2 0 3.8-.4 5.4-.9s2.9-1.4 4.1-2.1c1.1-.8 2.1-1.5 2.9-2 .8-.6 1.2-.9 1.7-.9s.8.4.8 1.2v2.2c0 .5 0 .9.1 1.1s.3.5.6.5c.5 0 1.7-.3 3.8-.6s4.7-.9 8.4-1.4c.8-.1 1.2-.3 1.5-.4s.5-.4.5-.8c0-.5-.4-.9-1.1-.9-.8-.1-2.1-.1-4-.1-.5 0-1-.1-1.6-.4s-1-.9-1-2c0-5.1.1-10.1.3-15.1s.3-10.1.3-15.1c0-.9-.3-1.5-.8-1.7s-1-.4-1.2-.4c-1 0-2 0-3 .1s-2 .1-3 .1c-.9 0-1.7 0-2.5-.1-.9-.1-1.6-.1-2.5-.1-.5 0-1 0-1.5.1s-.8.4-.8.6c0 .4.4.8 1.1 1s1.4.5 1.7.6c1.2.4 2.1.6 2.8.8s1.1.4 1.5.5.6.3.8.5.1.4.1.8c0 3.6 0 7.1-.1 10.8-.1 3.5-.1 7.1-.1 10.8 0 1-.1 2-.4 3.1s-.8 2-1.5 2.9-2 1.5-3.5 2c-1.6.5-3.8.8-6.5.8-2.5 0-4.4-.5-5.8-1.6S84 61.2 84 59.1c0-4.5 0-8.9.1-13.4 0-4.4.1-8.9.1-13.4 0-.8-.1-1.2-.3-1.5s-.6-.4-1.2-.4c-.8 0-1.5 0-2.2.1s-1.5.1-2.2.1-1.5 0-2.1-.1-2.3-.5-3.1-.5zm112.7.7c2.1 0 3.9.6 5.3 1.7s2.1 2.6 2.1 4.4c0 .9-.1 1.7-.4 2.2-.3.6-.8 1.1-1.5 1.5-.8.4-1.7.6-3.1.9-1.4.1-3.1.3-5.2.3h-5c-1.2 0-2-.1-2.6-.1-.6-.1-.9-.1-1-.3s-.1-.3-.1-.5c0-.8.2-1.7.8-2.9s1.2-2.2 2.2-3.3c1-1.1 2.1-2 3.6-2.8 1.5-.7 3.1-1.1 4.9-1.1zm-51.3 45.1c-2 0-3.6 1.1-3.6 3 0 2 1.1 2.5 3.4 3.3 1.9.5 2.5 1 2.5 1.7 0 1-.8 1.6-2.2 1.6-1 0-2.1-.5-2.9-1.2l-1.1 1.1c.9 1.1 2.2 1.7 3.9 1.7 2.8 0 4-1.4 4-3.3 0-2-1.4-2.6-3.5-3.3-1.9-.5-2.4-.9-2.4-1.7 0-.8.5-1.4 1.9-1.4 1.1 0 1.9.4 2.5 1l1.1-1.1c-1-.9-2.1-1.4-3.6-1.4zM8 76v6.4c0 3 1.4 4.7 4.1 4.7s4.1-1.6 4.1-4.7V76h-1.6v6.4c0 2-.8 3-2.5 3-1.6 0-2.5-1.1-2.5-3.1V76H8zm44 0v10.9h1.6V76H52zm99.8 0v10.9h1.6V76h-1.6zm35 0l3.9 6.6v4.2h1.6v-4.2l3.9-6.6h-1.9l-1.8 3c-.4.8-.9 1.7-1.1 2.1-.1-.4-.8-1.5-1.1-2.1l-1.8-3h-1.7zM29.9 76v10.9h1.6v-8.1c.1.3.5.9.8 1.4l4.4 6.9h1.5v-11h-1.6v8.2c-.1-.3-.6-1.1-.9-1.5l-4.1-6.6-1.7-.2zm36.9 0l3.8 10.9h1.7L76 76h-1.7L72 82.8c-.3.6-.5 1.6-.6 2-.1-.4-.4-1.4-.6-2L68.5 76h-1.7zM89 76v10.9h7.2v-1.6h-5.6v-3.4h3.1v-1.6h-3.1v-2.8H96v-1.6l-7 .1zm20.4 0v10.9h1.6v-4.2h2.5l2.1 4.2h1.9l-2.2-4.5c1.5-.4 2.4-1.5 2.4-3.1 0-2.2-1.6-3.3-3.5-3.3h-4.8zm57.1 0v1.6h3.1v9.2h1.6v-9.2h3.1V76h-7.8zM111 77.5h3.1c1.1 0 1.9.6 1.9 1.7s-.8 1.7-1.9 1.7H111v-3.4z" />
</svg>
