<?xml version="1.0" encoding="utf-8"?>
<!-- Generator: Adobe Illustrator 24.1.2, SVG Export Plug-In . SVG Version: 6.00 Build 0)  -->
<svg version="1.1" id="Layer_1" xmlns="http://www.w3.org/2000/svg" xmlns:xlink="http://www.w3.org/1999/xlink" x="0px" y="0px"
	 viewBox="0 0 107.3 59.5" style="enable-background:new 0 0 107.3 59.5;" xml:space="preserve">
<style type="text/css">
	.st0{fill:#FFFFFF;}
</style>
<g transform="translate(-1007.3644 -241.20041)">
	<path class="st0" d="M1010.1,269.7c0-13.1,22.9-23.7,51.1-23.7s51.1,10.6,51.1,23.7c0,1.2-0.2,2.4-0.6,3.6c1.9-2.5,2.9-5.1,2.9-7.9
		c0-13.4-24-24.2-53.6-24.2s-53.6,10.8-53.6,24.2c0,3.1,1.3,6.1,3.7,8.9C1010.5,272.8,1010.1,271.3,1010.1,269.7"/>
	<path class="st0" d="M1028.3,257.3h-5.8v23.6c1.7,0.5,3.7,1.1,5.8,1.5V257.3z M1029.1,294.5c-0.5-0.6-0.8-1.3-0.8-2.1v-8.5
		c-2.1-0.5-4-1-5.8-1.5v11c0,0.8,0.1,1.6,0.4,2.4s0.7,1.6,1.3,2.3s1.3,1.2,2.2,1.7c0.9,0.4,1.9,0.7,3.1,0.7h11.1v-5h-9.5
		C1030.3,295.3,1029.6,295,1029.1,294.5 M1059,286.9v4.8l-0.1,0.6c0,0.5-0.1,2.4-0.1,2.9c-0.6,0.2-3.1,0.2-3.9,0.2h-0.6
		c-1,0-1.8-0.1-2.4-0.3s-1-0.5-1.3-0.8s-0.5-0.6-0.5-1l-0.1-1v-0.6v-5.1c-2-0.1-4-0.3-5.8-0.4v7.1l0.2,1.9c0.2,0.9,0.6,1.7,1.3,2.6
		c0.7,0.8,1.8,1.5,3.1,2.1c1.4,0.6,3.3,0.9,5.6,0.9h0.8h2.4c0.4-0.1,1.2-0.4,1.5-0.8c0.2-0.4,0.5,0.3,0.7,0.8c3.8-0.1,4.6-0.4,4.7-1
		c0.2-0.8,0.2-6.1,0.2-6.5V287c-0.1,0-0.1,0-0.2,0C1062.6,287,1060.8,286.9,1059,286.9 M1096.8,291.7l-0.1,0.6
		c0,0.5-0.1,2.4-0.1,2.9c-0.6,0.2-3.1,0.2-3.9,0.2h-0.6c-1,0-1.8-0.1-2.4-0.3s-1-0.5-1.3-0.8s-0.5-0.6-0.5-1l-0.1-1v-0.6v-6.5
		c-1.8,0.3-3.7,0.6-5.8,0.8v7.2l0.2,1.9c0.2,0.9,0.6,1.7,1.3,2.6c0.7,0.8,1.8,1.5,3.1,2.1c1.4,0.6,3.3,0.9,5.6,0.9h0.8h2.1
		c0.4-0.1,1.2-0.4,1.5-0.8c0.2-0.4,0.5,0.3,0.7,0.8c4-0.1,4.8-0.4,4.9-1c0.2-0.8,0.2-6.1,0.2-6.5v-12.1c-1.7,0.7-3.6,1.4-5.8,2.1
		L1096.8,291.7z M1071,300.3h5.8v-13.8c-1.8,0.1-3.8,0.2-5.8,0.3V300.3z M1096.8,269v12.8c2.2-0.7,4.1-1.4,5.8-2.2V269L1096.8,269z
		 M1087.7,269h-5.8v15.6c2.1-0.2,4-0.5,5.8-0.8V269z M1059,285.6h5.6h0.2V269h-5.8L1059,285.6z M1049.8,269h-5.8v15.8
		c1.9,0.2,3.8,0.3,5.8,0.4V269z M1071,285.5c2-0.1,3.9-0.2,5.8-0.3v-27.8h-5.8V285.5z"/>
</g>
</svg>
