<?xml version="1.0" encoding="utf-8"?>
<!-- Generator: Adobe Illustrator 24.1.2, SVG Export Plug-In . SVG Version: 6.00 Build 0)  -->
<svg version="1.1" id="Layer_1" xmlns="http://www.w3.org/2000/svg" xmlns:xlink="http://www.w3.org/1999/xlink" x="0px" y="0px"
	 viewBox="0 0 521.5 114.4" style="enable-background:new 0 0 521.5 114.4;" xml:space="preserve">
<style type="text/css">
	.st0{fill:#FFFFFF;}
</style>
<g>
	<path class="st0" d="M518.7,68.2c-6.9,0-44.8,0.1-45.1,0.1c-1,0-1.7-0.7-1.7-1.6c0-0.4,0.1-0.6,0.4-0.8c0.3-0.1,0.9-0.3,2-0.5
		c1.7-0.2,3-0.7,3.8-1.5c0.9-0.7,1.5-1.9,1.9-3.3c0.4-1.5,0.6-5.2,0.6-11.3c0.1-6,0.1-13.2,0.1-21.6c0-3.3-0.2-5.7-0.7-7.2
		s-1.2-2.6-2.1-3.3s-2.2-1.1-3.8-1.2c-1.2-0.1-1.7-0.5-1.7-1.3s0.7-1.2,2-1.2l13.3,0.1h8.8c1.3,0,2.3-0.1,2.7-0.1
		c1.1,0,1.7,0.4,1.7,1.2c0,0.4-0.2,0.7-0.6,0.9s-1.3,0.4-2.7,0.6c-1.8,0.2-3.1,0.7-3.8,1.4s-1.2,1.9-1.5,3.5
		c-0.3,1.7-0.4,5.4-0.4,11.3V57c0,3.8,0.4,6,1,6.8c0.7,0.7,1.9,1.1,3.7,1.1c4.4,0,7.7-0.3,9.9-1s4.2-1.9,6.2-3.7
		c2-1.8,4.1-4.8,6.3-9.1c0.4-0.9,0.9-1.3,1.4-1.3c0.7,0,1.1,0.4,1.1,1.2c0,1.8-0.9,7.4-2.8,17"/>
	<path class="st0" d="M324.3,17.2c-2.4-1.8-6.1-3-11.1-3.5c-1.9-0.2-29.2,0-29.2,0c-1.7,0-2.6,0.3-2.6,1.2c0,0.8,0.5,1.2,1.4,1.2
		c2.1,0,3.6,0.5,4.4,1.6c0.8,1,1.3,2.4,1.3,4.1v12.7v15.9c0,6-0.2,9.7-0.5,11.1s-0.7,2.6-1.4,3.1c-0.6,0.6-1.7,0.9-3.2,1.2
		c-1.5,0.2-2.2,0.6-2.2,1.2c0,0.8,0.4,1.1,1.3,1.1h23.1c1.6,0,2.3-0.3,2.3-1c0-0.5-0.2-0.8-0.5-1s-1.1-0.3-2.4-0.3
		c-1.9-0.1-3.3-0.6-4.2-1.5c-0.9-1-1.4-3.3-1.4-6.5V42.4c2.6,0.1,4.9,0.2,6.8,0.2c8.1,0,13.9-1.4,17.4-4.1c3.6-2.7,5.3-6.3,5.3-10.8
		C329.3,23.2,327.6,19.7,324.3,17.2 M313,35.8c-2.1,2.6-5.4,3.9-9.7,3.9c-0.8,0-2-0.1-3.6-0.2V17c2.7-0.5,4.8-0.7,6.3-0.7
		c2.9,0,5.3,0.9,7.3,2.5c2,1.7,3,4.2,3,7.6C316.2,30.1,315.2,33.2,313,35.8"/>
	<path class="st0" d="M369.9,43.9c-2.8-2.4-7-4.3-12.5-5.4c9.5-2.8,14.2-7.3,14.2-13.7c0-3.7-1.5-6.6-4.4-8.8
		c-3-2.2-6.9-2.5-11.9-2.5c-1.7,0-26.5,0.1-27.2,0.3c-0.6,0.1-1,0.5-1,1.1c0,0.4,0.2,0.8,0.5,0.9c0.3,0.2,1,0.3,2.1,0.4
		c1.2,0.1,2.1,0.3,2.7,0.7s1.1,1.1,1.4,2.1s0.6,3.3,0.7,6.8s0.2,8.2,0.2,14.1l-0.3,18.8c0,1.9-0.2,3.3-0.7,4.2s-1.1,1.5-1.9,1.8
		c-0.8,0.4-2,0.6-3.7,0.9c-0.8,0.1-1.2,0.7-1.2,1.3c0,0.8,0.5,1.2,1.6,1.2c0.5,0,20.9-0.1,22.2-0.1c5.6,0,9.9-0.4,12.9-1.3
		c3-0.8,5.4-2.8,7.5-5.3c2-2.5,3.1-5.3,3.1-8.4C374,49.4,372.6,46.4,369.9,43.9 M346.2,16.5c2.2-0.8,4.1-0.6,5.7-0.6
		c2.2,0,4.1,0.3,5.8,2.1c1.6,1.7,2.5,4.4,2.5,7.9c0,8-4.6,12-13.9,12c-0.2-6-0.3-10.3-0.3-12.8C345.9,22.1,346,19.2,346.2,16.5
		 M359,61.9c-1.9,2.1-4.8,3.1-8.7,3.1c-2.2,0-3.4-0.4-3.8-1.1s-0.6-3.6-0.6-8.6c0-3.8,0.1-8.5,0.3-14.2c1.5-0.1,2.8-0.2,3.6-0.2
		c4.1,0,7.1,1.2,9.1,3.5s3,5.3,3,8.9S361,59.8,359,61.9"/>
	<path class="st0" d="M420.8,53.9c-0.5,0-1,0.5-1.5,1.4c-3.2,6.5-10,9.8-20.3,9.8c-2.8,0-4.9-0.4-6-1.1c-1.2-0.7-1.9-1.7-2.1-2.8
		c-0.2-1.2-0.3-4.8-0.3-11c0-1.4,0.1-4.4,0.2-9c4.2,0,7.2,0.7,9.1,2s3.2,3.2,3.7,5.7c0.3,1.4,0.8,2.2,1.4,2.2c0.9,0,1.3-0.4,1.3-1.1
		c0-0.2,0-0.4-0.1-0.7c-0.2-0.9-0.3-2-0.3-3.2c0-8.4,0.2-13.4,0.5-15.1c0.1-0.2,0.1-0.5,0.1-0.6c0-0.6-0.4-1-1.1-1
		c-0.6,0-1,0.4-1.3,1.3c-0.1,0.5-0.7,1.6-1.7,3.3s-2.2,2.8-3.6,3.4c-1.4,0.5-3.1,0.8-5,0.8h-3.1c-0.1-2.3-0.1-3.9-0.1-4.9
		c0-5.7,0.2-10.9,0.7-15.7c2.3-0.4,4.6-0.6,7.1-0.6c4.4,0,7.7,0.6,10,1.9s4.9,4,7.7,8c0.5,0.8,1,1.1,1.4,1.1c0.8,0,1.1-0.4,1.1-1.2
		c-0.8-4.2-1.7-9-2.6-13.2l-42.5-0.1c-1,0-1.5,0.7-1.5,1.5c0,0.6,0.4,1,1.3,1.1c2.1,0.3,3.5,0.7,4.3,1.3s1.2,1.7,1.4,3.3
		s0.3,6,0.3,13.1l-0.2,20.8c0,4.4-0.5,7.3-1.4,8.7s-2.7,2.1-5.3,2.1c-1,0-1.5,0.4-1.5,1.1c0,0.9,0.6,1.3,1.9,1.3
		c0.3,0,27.4,0.1,31.5,0.1H419l2.6-11.6c0.2-0.7,0.2-1.2,0.2-1.7C421.9,54.2,421.5,53.9,420.8,53.9"/>
	<path class="st0" d="M471.9,50.9c0-0.8-0.4-1.2-1.1-1.2c-0.5,0-1,0.4-1.4,1.3c-2.2,4.2-4.3,7.3-6.3,9.1s-4,3-6.2,3.7s-5.5,1-9.9,1
		c-1.8,0-3-0.4-3.7-1.1s-1-3-1-6.8V32.4c0-5.8,0.1-9.6,0.4-11.3s0.8-2.8,1.5-3.5s2-1.1,3.8-1.4c1.5-0.2,2.4-0.4,2.7-0.6
		c0.4-0.2,0.6-0.5,0.6-0.9c0-0.8-0.6-1.2-1.7-1.2c-0.5,0-1.4,0.1-2.7,0.1c-3.8,0-6.7,0-8.8,0l-13.3-0.1c-1.3,0-2,0.4-2,1.2
		s0.6,1.2,1.7,1.3c1.6,0.1,2.9,0.5,3.8,1.2s1.6,1.8,2.1,3.3s0.7,3.9,0.7,7.2c0,8.3,0,15.5-0.1,21.6c-0.1,6-0.3,9.8-0.6,11.3
		c-0.4,1.5-1,2.6-1.9,3.3c-0.9,0.7-2.2,1.2-3.8,1.5c-1,0.2-1.7,0.3-2,0.5c-0.3,0.1-0.4,0.4-0.4,0.8c0,0.8,0.6,1.6,1.7,1.6
		c0.3,0,38.2-0.1,45.1-0.1v-0.3C471,58.3,471.9,52.7,471.9,50.9"/>
	<path class="st0" d="M157.6,54.2c0-0.9-0.4-1.3-1.3-1.3c-0.5,0-1,0.4-1.6,1.2c-4.6,6.7-9.7,10-15.2,10c-5.1,0-9.4-2.3-12.8-6.9
		s-5.2-10.8-5.2-18.6c0-4.5,0.6-8.5,1.8-11.7c1.2-3.3,2.9-5.8,5.2-7.7c2.2-1.9,4.9-2.8,8.2-2.8c4.4,0,8,1.7,10.9,5.2s4.9,6.7,6,9.5
		c0.3,0.9,0.8,1.3,1.4,1.3c0.9,0,1.3-0.5,1.3-1.6l-0.1-1.6l-0.8-12.6c-0.1-1.4-0.2-2.2-0.4-2.5s-0.5-0.4-1.1-0.4
		c-0.5,0-1.1,0.5-1.8,1.6c-0.6,0.9-1.2,1.6-1.8,2.4c-5.5-3-10.9-4.5-16.3-4.5c-7.6,0-13.8,2.8-18.8,8.4s-7.4,12.2-7.4,19.8
		s2.5,14.1,7.4,19.3s11.6,7.8,20.1,7.8c6.4,0,11.7-1.9,16-5.8C155.4,58.8,157.6,56,157.6,54.2"/>
	<path class="st0" d="M210.9,63.3c0.2-0.2,0.4-0.5,0.5-0.7v-0.1C211.3,62.7,211.1,63,210.9,63.3z"/>
	<path class="st0" d="M216.3,24.5v-0.1V24.5z"/>
	<path class="st0" d="M276.3,66c-2.4-0.1-4.1-1.6-5.2-3.2s-1.6-4.4-1.6-8.5V34.5c0-8.1,0.5-13.2,1.4-15.3c1-2.1,3-3.1,6-3.1
		c0.9,0,1.3-0.4,1.3-1.1c0-0.9-0.6-1.3-1.7-1.3c-0.2,0-0.6,0-1.1,0c-5.5,0-11.4,0-17.9,0c-3.4,9.2-8.7,21.9-15.4,37
		c-0.2-0.6-1.3-2.5-3.1-5.7c-2.3-4.1-4.4-8.1-6.2-11.8s-3.7-7.4-5.6-11s-3.4-6.8-4.1-8.4l-17.8,0.1c-1,0-1.5,0.4-1.5,1.1
		s0.4,1.2,1.3,1.4c2.4,0.5,4.1,1.1,5.1,2.1c1,0.9,1.7,2.2,2,3.9s0.4,5.2,0.4,10.4l-0.2,23.1c0,1.3-0.1,2.4-0.2,3.4
		c-0.2,1.4-0.5,2.5-0.9,3.3v0.1c-0.1,0.2-0.3,0.5-0.5,0.7h-0.1c-1,1.1-2.5,1.7-4.1,1.7s-3.1-0.7-4.1-1.7h-0.1
		c-0.1-0.2-0.3-0.3-0.4-0.5c-1.1-1.6-3.2-6.2-6.2-13.9c-6.5-16.6-11-27.5-14.6-35.2l-4.2,1.1c-6.6,16.1-10.7,26.5-14.1,36
		c-1.5,4.2-2.8,7.3-3.8,9.2c-1.1,1.9-2.1,3.2-3,3.9s-2.2,1.4-3.8,1.9c-0.7,0.2-1,0.6-1,1.2c0,0.8,0.5,1.2,1.5,1.2
		c0.3,0,15.4-0.1,15.8-0.1c1.1,0,1.7-0.4,1.7-1.1s-0.5-1.1-1.3-1.2c-1-0.3-1.9-0.8-2.8-1.4c-1.2-0.8-1.7-2-1.7-3.4
		c0-2,1.4-6.7,3.6-12.9h11.5h4.1c1.1,2.4,2.2,5,3.2,7.9s1.5,4.9,1.5,6c0,2.3-1.7,3.7-5,4c-0.9,0.1-1.3,0.4-1.3,1
		c0,0.8,0.6,1.2,1.9,1.2c0.7,0,22.6,0.1,23.2,0.1h0.4H223c0.8,0,1.3-0.3,1.3-1c0-0.5-0.3-0.8-0.9-1c-2.7-0.4-4.3-1.5-4.9-3
		c-0.7-1.6-1-5.4-1-11.4c0-10.3,0.1-18.7,0.2-25.2c11.4,22.1,18.1,36.5,20,40.6c0.2,0.4,0.6,1.1,0.6,1.1s2.3,0,2.3-0.1h0.9
		c0,0,9.8-26.4,17-43.5v13.8L258,56.4c0,2.4-0.2,4.2-0.5,5.5c-0.3,1.2-0.8,2.1-1.4,2.5c-0.6,0.5-1.6,1.1-3.1,1.3
		c-1.4,0.2-2.1,0.6-2.1,1.3c0,0.4,0.1,1.1,0.8,1.1h25.6c0.5-0.3,0.7-0.6,0.7-1C278.1,66.4,277.5,66,276.3,66 M169.4,44.7l6.3-16.6
		c0.8,2,1.9,4.6,3.2,7.8c1.6,3.7,2.8,6.6,3.5,8.7L169.4,44.7z M216.3,24.5v-0.1C216.4,24.4,216.4,24.5,216.3,24.5z"/>
	<path class="st0" d="M178.1,98c0,1.6-0.3,3.1-0.8,4.4c-0.6,1.3-1.3,2.4-2.3,3.3s-2.1,1.6-3.4,2.1s-2.8,0.7-4.3,0.7s-3-0.2-4.3-0.7
		s-2.5-1.2-3.4-2.1c-1-0.9-1.7-2-2.3-3.3c-0.5-1.3-0.8-2.8-0.8-4.4V81h4.8v16.9c0,0.7,0.1,1.4,0.3,2.1s0.5,1.4,1,2s1.1,1.1,1.9,1.5
		s1.7,0.6,2.9,0.6c1.1,0,2.1-0.2,2.9-0.6s1.4-0.9,1.9-1.5s0.8-1.3,1-2s0.3-1.4,0.3-2.1V81h4.8v17H178.1z"/>
	<path class="st0" d="M195.4,81h6.4l13,20h0.1V81h4.8v27h-6.1l-13.3-20.7h-0.1V108h-4.8L195.4,81z"/>
	<path class="st0" d="M237,81h4.8v27H237V81z"/>
	<path class="st0" d="M256,81h5.6l7.3,20.4l7.6-20.4h5.2l-10.9,27h-4.2L256,81z"/>
	<path class="st0" d="M296,81h17.9v4.3h-13.1V92h12.4v4.3h-12.4v7.3h13.8v4.4H296L296,81z"/>
	<path class="st0" d="M330.7,81h9.4c1.3,0,2.5,0.1,3.8,0.4c1.2,0.2,2.3,0.7,3.2,1.2c0.9,0.6,1.7,1.4,2.2,2.4c0.6,1,0.8,2.2,0.8,3.8
		c0,2-0.5,3.6-1.6,4.9s-2.6,2.1-4.6,2.4l7.2,11.9h-5.8L339,96.5h-3.5V108h-4.8L330.7,81z M339.3,92.4c0.7,0,1.4,0,2.1-0.1
		s1.3-0.2,1.9-0.5c0.6-0.2,1-0.6,1.4-1.1s0.5-1.2,0.5-2.1c0-0.8-0.2-1.4-0.5-1.9s-0.8-0.8-1.3-1.1c-0.5-0.2-1.1-0.4-1.8-0.5
		s-1.3-0.1-1.9-0.1h-4.2v7.3L339.3,92.4L339.3,92.4z"/>
	<path class="st0" d="M379.4,86.8c-0.5-0.7-1.2-1.3-2-1.6c-0.9-0.3-1.7-0.5-2.7-0.5c-0.6,0-1.1,0.1-1.6,0.2s-1,0.3-1.4,0.6
		s-0.8,0.6-1,1.1c-0.3,0.4-0.4,1-0.4,1.6c0,0.9,0.3,1.6,1,2.1c0.6,0.5,1.4,0.9,2.4,1.3c0.9,0.4,2,0.7,3.1,1s2.1,0.8,3.1,1.4
		c0.9,0.6,1.7,1.4,2.4,2.3c0.6,1,1,2.2,1,3.8c0,1.4-0.3,2.7-0.8,3.8s-1.3,2-2.2,2.7s-1.9,1.2-3.1,1.6s-2.5,0.5-3.8,0.5
		c-1.7,0-3.3-0.3-4.8-0.8c-1.5-0.6-2.9-1.5-4-2.8l3.6-3.5c0.6,0.9,1.4,1.6,2.3,2.1c1,0.5,2,0.7,3,0.7c0.6,0,1.1-0.1,1.7-0.2
		c0.6-0.2,1.1-0.4,1.5-0.7c0.5-0.3,0.8-0.7,1.1-1.2s0.4-1,0.4-1.6c0-1-0.3-1.8-1-2.3c-0.6-0.5-1.4-1-2.4-1.4c-0.9-0.4-2-0.7-3.1-1
		s-2.1-0.8-3.1-1.4c-0.9-0.6-1.7-1.3-2.4-2.3c-0.6-1-1-2.2-1-3.8c0-1.4,0.3-2.6,0.9-3.6s1.3-1.9,2.2-2.5c0.9-0.7,2-1.2,3.2-1.5
		s2.4-0.5,3.7-0.5c1.4,0,2.8,0.2,4.1,0.6s2.5,1.1,3.6,2.1L379.4,86.8z"/>
	<path class="st0" d="M399.3,81h4.8v27h-4.8V81z"/>
	<path class="st0" d="M427,85.3h-8.3V81h21.4v4.3h-8.3V108H427L427,85.3z"/>
	<path class="st0" d="M461.4,96.4L451.2,81h6.1l6.6,10.7l6.7-10.7h5.7l-10.1,15.4V108h-4.8L461.4,96.4z"/>
	<path class="st0" d="M51.3,19.6h10.2l3.6,8.8v12l-1.3-0.3v-12l-2.6-6l-2.5,4.1v12.7l-1.1-0.3L49,22.8L51.3,19.6z"/>
	<path class="st0" d="M69.2,55.1c0-0.8,0.7-1.5,1.5-1.5s1.5,0.7,1.5,1.5v12.4l-3.1,0.1L69.2,55.1z"/>
	<path class="st0" d="M50.3,51.3c1.2,0,2.2,1,2.3,2.2v14.7l-4.5,0.2V53.5C48.1,52.3,49.1,51.3,50.3,51.3"/>
	<path class="st0" d="M61.4,52.5c2.1,0,3.7,1.7,3.7,3.7v16.1l-7.5,0.6V56.2C57.7,54.2,59.3,52.5,61.4,52.5"/>
	<path class="st0" d="M84.5,16.8c-0.4-0.1-4.1-1.2-9.5-2.4c-4.1-1-10.4-2.2-17.3-3.1l2.6,4.8c0.5,0.1,1,0.2,1.6,0.2l0.4,0.1
		c8.3,1.3,15.4,3.1,18.9,4l0.6,0.2v52.9c0,5.3-2.3,10.3-6.1,13.3l-0.1,0.1c-0.7,0.6-1.5,1.2-2.2,1.7l-1,0.7v-2.1
		c0-1.7-1.4-3.1-3.1-3.1s-3.1,1.4-3.2,3.1v6.4l-9.2,6.3v-8.1c0-2.4-1.9-4.3-4.3-4.3s-4.3,1.9-4.3,4.3v14l-5,3.4c0-7,0-16.1,0-25.1
		L76,78.2v-1.9l-32.8,4c0-18.4,0-35.9,0-35.9l33.5,5.3v-2.9L43.2,39l2.6-37.3V1.6V0L37,4.5V6l-7.3,13.6h-5l-3.6,8.8V35l-4,6.7
		l-7.8,3.5v4.4l1.6,0.2v2.9L8.4,53l-0.3,0.3v2l2.4,1.6l0.4,30.4c-0.2-0.2-0.4-0.4-0.6-0.5l-0.1-0.1c-3.8-3-6.1-8-6.1-13.3V20.6
		l0.6-0.2c3.9-1,14-3.5,25-4.8l2.4-4.7c-15.9,1.5-30.2,5.7-30.9,5.9L0,17.3v56.2c0,6.6,2.9,12.9,7.7,16.7c0.8,0.7,1.7,1.4,2.6,2
		L43,114.4l1.8-1.2l30.9-21c0.9-0.6,1.8-1.3,2.6-2c4.8-3.9,7.7-10.1,7.7-16.7V17.3L84.5,16.8z M18.7,67.7l-3.1-0.1V55.1
		c0-0.9,0.7-1.6,1.6-1.6s1.6,0.7,1.6,1.6v12.6H18.7z M26.6,98l-3.7-2.5v-8c0-1,0.8-1.9,1.9-1.9c1,0,1.9,0.8,1.9,1.9L26.6,98L26.6,98
		z M26.6,68l-3.7-0.2V54.4c0-1,0.8-1.9,1.9-1.9c1,0,1.9,0.8,1.9,1.9L26.6,68L26.6,68z M35.9,104.4l-4.3-2.9V89.6
		c0-1.2,1-2.2,2.2-2.2s2.2,1,2.2,2.2v14.8H35.9z M35.9,68.3l-4.3-0.2V53.7c0-1.2,1-2.2,2.2-2.2s2.2,1,2.2,2.2v14.6H35.9z M28.7,38.6
		V25.8L25.9,21H36l1.4,1.8L28.7,38.6z"/>
</g>
</svg>
