<svg enable-background="new 0 0 107.3 59.5" viewBox="0 0 107.3 59.5" xmlns="http://www.w3.org/2000/svg"><g transform="translate(-1007.3644 -241.20041)"><path d="m1010.1 269.7c0-13.1 22.9-23.7 51.1-23.7s51.1 10.6 51.1 23.7c0 1.2-.2 2.4-.6 3.6 1.9-2.5 2.9-5.1 2.9-7.9 0-13.4-24-24.2-53.6-24.2s-53.6 10.8-53.6 24.2c0 3.1 1.3 6.1 3.7 8.9-.6-1.5-1-3-1-4.6"/><path d="m1028.3 257.3h-5.8v23.6c1.7.5 3.7 1.1 5.8 1.5zm.8 37.2c-.5-.6-.8-1.3-.8-2.1v-8.5c-2.1-.5-4-1-5.8-1.5v11c0 .8.1 1.6.4 2.4s.7 1.6 1.3 2.3 1.3 1.2 2.2 1.7c.9.4 1.9.7 3.1.7h11.1v-5h-9.5c-.8-.2-1.5-.5-2-1m29.9-7.6v4.8l-.1.6c0 .5-.1 2.4-.1 2.9-.6.2-3.1.2-3.9.2h-.6c-1 0-1.8-.1-2.4-.3s-1-.5-1.3-.8-.5-.6-.5-1l-.1-1v-.6-5.1c-2-.1-4-.3-5.8-.4v7.1l.2 1.9c.2.9.6 1.7 1.3 2.6.7.8 1.8 1.5 3.1 2.1 1.4.6 3.3.9 5.6.9h.8 2.4c.4-.1 1.2-.4 1.5-.8.2-.4.5.3.7.8 3.8-.1 4.6-.4 4.7-1 .2-.8.2-6.1.2-6.5v-6.3c-.1 0-.1 0-.2 0-1.9 0-3.7-.1-5.5-.1m37.8 4.8-.1.6c0 .5-.1 2.4-.1 2.9-.6.2-3.1.2-3.9.2h-.6c-1 0-1.8-.1-2.4-.3s-1-.5-1.3-.8-.5-.6-.5-1l-.1-1v-.6-6.5c-1.8.3-3.7.6-5.8.8v7.2l.2 1.9c.2.9.6 1.7 1.3 2.6.7.8 1.8 1.5 3.1 2.1 1.4.6 3.3.9 5.6.9h.8 2.1c.4-.1 1.2-.4 1.5-.8.2-.4.5.3.7.8 4-.1 4.8-.4 4.9-1 .2-.8.2-6.1.2-6.5v-12.1c-1.7.7-3.6 1.4-5.8 2.1zm-25.8 8.6h5.8v-13.8c-1.8.1-3.8.2-5.8.3zm25.8-31.3v12.8c2.2-.7 4.1-1.4 5.8-2.2v-10.6zm-9.1 0h-5.8v15.6c2.1-.2 4-.5 5.8-.8zm-28.7 16.6h5.6.2v-16.6h-5.8zm-9.2-16.6h-5.8v15.8c1.9.2 3.8.3 5.8.4zm21.2 16.5c2-.1 3.9-.2 5.8-.3v-27.8h-5.8z"/></g></svg>