<?xml version="1.0" encoding="utf-8"?>
<!-- Generator: Adobe Illustrator 24.1.2, SVG Export Plug-In . SVG Version: 6.00 Build 0)  -->
<svg version="1.1" id="Layer_1" xmlns="http://www.w3.org/2000/svg" xmlns:xlink="http://www.w3.org/1999/xlink" x="0px" y="0px"
	 viewBox="0 0 662.8 94.1" style="enable-background:new 0 0 662.8 94.1;" xml:space="preserve">
<style type="text/css">
	.st0{fill:#FFFFFF;}
</style>
<g transform="translate(-702.6538 -712.5837)">
	<path class="st0" d="M980.7,771.7h40.7l-21.5-34.6l-39.5,62.5h-18l48-75.1c2.1-3,5.6-4.9,9.4-4.9c3.7,0,7.2,1.8,9.2,4.7l48.2,75.2
		h-18l-8.5-14h-41.2L980.7,771.7z M1167.2,785.7v-65.2H1152v71.6c0,2,0.8,3.9,2.2,5.3c1.5,1.5,3.4,2.3,5.6,2.3h69.5l9-14
		L1167.2,785.7z M915.1,774c14.8,0,26.8-11.9,26.8-26.7s-12-26.8-26.8-26.8h-66.7v79.2h15.2v-65.2H914c7.1,0,12.8,5.8,12.8,12.8
		c0,7.1-5.7,12.8-12.8,12.8l-43-0.1l45.5,39.6h22.1L908.1,774H915.1z M754.7,799.6c-21.9,0-39.6-17.7-39.6-39.6s17.7-39.6,39.6-39.6
		h46c21.9,0,39.6,17.8,39.6,39.6c0,21.9-17.7,39.6-39.6,39.6H754.7z M799.7,785.7c14.2,0,25.6-11.4,25.6-25.6s-11.5-25.7-25.6-25.7
		h-44c-14.2,0-25.6,11.5-25.6,25.7s11.5,25.6,25.6,25.6H799.7z M1089,799.6c-21.9,0-39.6-17.7-39.6-39.6s17.8-39.6,39.6-39.6h54.7
		l-8.9,14H1090c-14.2,0-25.7,11.5-25.7,25.7s11.5,25.6,25.7,25.6h54.9l-9,14H1089L1089,799.6z M1275.3,785.7
		c-11.7,0-21.6-7.8-24.7-18.7h65.1l9-14h-74.1c3-10.7,13-18.7,24.7-18.7h44.7l9-14h-54.8c-21.9,0-39.6,17.8-39.6,39.6
		c0,21.9,17.8,39.6,39.6,39.6h47l9-14h-54.9"/>
	<path class="st0" d="M1337.2,728.8c0-3.9,3.1-7,7-7s7,3.1,7,7s-3.1,7-7,7C1340.3,735.9,1337.2,732.8,1337.2,728.8z M1344.2,737.8
		c4.9,0,8.9-4,8.9-8.9s-4-8.9-8.9-8.9s-8.9,4-8.9,8.9S1339.3,737.8,1344.2,737.8z M1343.4,723.6c1.4,0,2,0.1,2.6,0.3
		c1.8,0.6,2,2.1,2,2.8c0,0.1,0,0.4-0.1,0.8s-0.3,1.1-1.2,1.7c-0.1,0.1-0.2,0.1-0.4,0.3l2.3,4.1h-2.2l-2-3.8h-1.4v3.8h-2v-10
		L1343.4,723.6z M1344.1,728.1c0.6-0.1,1.3-0.1,1.6-0.6c0.2-0.3,0.3-0.5,0.3-0.9c0-0.5-0.3-0.9-0.8-1.2c-0.4-0.2-0.9-0.2-1.8-0.2
		h-0.6v2.9H1344.1z"/>
</g>
</svg>
