<svg xmlns="http://www.w3.org/2000/svg" viewBox="0 0 294.76 65.81"><g id="Layer_2" data-name="Layer 2"><g id="Logo"><polygon points="92.09 16.89 88.08 16.89 88.08 48.41 108.07 48.41 108.07 44.49 92.09 44.49 92.09 16.89"/><polygon points="261 28.2 258.33 25.88 250.66 34.7 243.06 25.95 242.99 25.88 240.32 28.2 248.31 37.4 240.38 46.52 240.32 46.6 242.99 48.92 250.66 40.1 258.26 48.85 258.33 48.92 261 46.6 253.01 37.4 260.94 28.28 261 28.2"/><polygon points="208.6 39.55 187.1 16.89 186.31 16.89 186.31 48.41 190.32 48.41 190.32 25.75 211.82 48.41 212.61 48.41 212.61 16.89 208.6 16.89 208.6 39.55"/><rect x="265.02" y="26.38" width="3.79" height="22.03"/><rect x="264.84" y="16.89" width="4.15" height="3.55"/><path d="M228.38,26A11.11,11.11,0,0,0,217.32,37.4a11.14,11.14,0,0,0,11.32,11.37,12.28,12.28,0,0,0,8.86-3.57l0,0-2.7-2.35a9.15,9.15,0,0,1-6.14,2.37,7.34,7.34,0,0,1-7.4-6.87h17.89C239,30.48,234.55,26,228.38,26Zm-7,9a6.89,6.89,0,0,1,6.74-5.51A6.29,6.29,0,0,1,234.85,35Z"/><path d="M282.75,35.86l-1.88-.66c-2.65-.93-3.34-2-3.34-3.35,0-1.54,1.51-2.43,3.25-2.43a4.76,4.76,0,0,1,3.71,1.72l2.57-2.23A7.86,7.86,0,0,0,280.78,26c-4.17,0-7.14,2.56-7.14,5.86,0,2.65,1.42,5.07,5.45,6.52l1.78.66c2.7.93,3.89,1.85,3.89,3.53s-1.83,2.77-4.07,2.77a6.76,6.76,0,0,1-5.41-2.77L272.58,45a10.23,10.23,0,0,0,8,3.82c5,0,8.1-2.78,8.1-6.3C288.7,39.21,286.64,37.22,282.75,35.86Z"/><polygon points="153.31 28.2 150.64 25.88 142.97 34.7 135.36 25.95 135.29 25.88 132.62 28.2 140.62 37.4 132.69 46.52 132.62 46.6 135.29 48.92 142.97 40.1 150.57 48.85 150.64 48.92 153.31 46.6 145.31 37.4 153.24 28.28 153.31 28.2"/><rect x="157.32" y="26.38" width="3.79" height="22.03"/><rect x="157.14" y="16.89" width="4.15" height="3.55"/><path d="M120.68,26A11.11,11.11,0,0,0,109.62,37.4,11.15,11.15,0,0,0,121,48.77a12.25,12.25,0,0,0,8.85-3.57l0,0-2.69-2.35A9.15,9.15,0,0,1,121,45.2a7.34,7.34,0,0,1-7.4-6.87h17.88C131.35,30.48,126.85,26,120.68,26Zm-7,9a6.9,6.9,0,0,1,6.74-5.51,6.3,6.3,0,0,1,6.7,5.51Z"/><path d="M175.05,35.86l-1.87-.66c-2.66-.93-3.35-2-3.35-3.35,0-1.54,1.52-2.43,3.26-2.43a4.77,4.77,0,0,1,3.71,1.72l2.57-2.23A7.87,7.87,0,0,0,173.09,26c-4.17,0-7.15,2.56-7.15,5.86,0,2.65,1.42,5.07,5.45,6.52l1.79.66c2.7.93,3.89,1.85,3.89,3.53s-1.83,2.77-4.08,2.77a6.73,6.73,0,0,1-5.4-2.77L164.88,45a10.25,10.25,0,0,0,8,3.82c5,0,8.11-2.78,8.11-6.3C181,39.21,179,37.22,175.05,35.86Z"/><path d="M291.84,20.43a2.94,2.94,0,0,0-2.93,2.94,2.93,2.93,0,1,0,2.93-2.94Zm0,5.42a2.48,2.48,0,0,1,0-5,2.48,2.48,0,0,1,0,5Z"/><path d="M293.07,22.62c0-.6-.43-.95-1.18-.95h-1.16V25h.54V23.6h.58l.76,1.38h.58l-.79-1.46A.83.83,0,0,0,293.07,22.62Zm-1.2.51h-.6v-1h.58c.48,0,.69.14.69.46S292.34,23.13,291.87,23.13Z"/><path d="M69,11a2.95,2.95,0,0,0,0,5.89A2.95,2.95,0,0,0,69,11Zm0,5.42a2.43,2.43,0,0,1-2.44-2.48,2.44,2.44,0,1,1,4.87,0A2.43,2.43,0,0,1,69,16.42Z"/><path d="M70.26,13.19c0-.6-.43-.95-1.18-.95H67.91v3.31h.55V14.17H69l.75,1.38h.59l-.79-1.46A.84.84,0,0,0,70.26,13.19Zm-1.21.51h-.59v-1H69c.47,0,.68.14.68.46S69.52,13.7,69.05,13.7Z"/><path d="M12.37,29.46a35.08,35.08,0,0,1,16-15.82c.79-.38,1.6-.73,2.41-1a.07.07,0,0,0,0-.13C6.64,16.53-3.71,46.51,12.4,59.34a.06.06,0,0,0,.09-.09C10.15,56,4.64,45,12.37,29.46Z"/><path d="M17.9,49.45a37.44,37.44,0,0,1,0-11.86A36.59,36.59,0,0,1,28.33,17.4a34.63,34.63,0,0,1,3.18-2.75.07.07,0,0,0-.07-.11c-12.61,5.63-19.88,19.7-19,32.51.52,5.85,2.82,16.63,14,18.76a.07.07,0,0,0,0-.12C22,62.52,18.72,55.09,17.9,49.45Z"/><path d="M2.32,20.57C8,12.61,19.53,7.23,30.83,8.63a.07.07,0,0,0,0-.13C22.23,6,13.26,7.67,7.78,12.1,5.42,14,3.6,17.28,2.21,20.5,2.18,20.57,2.28,20.63,2.32,20.57Z"/><path d="M29.87.14A33.57,33.57,0,0,0,11.72,7.6c-.06.05,0,.14.08.1,4.32-2.47,10.26-2.41,13.77-2A31.44,31.44,0,0,1,31,6.85,30.91,30.91,0,0,1,36.13,9c.85.45,1.67.94,2.47,1.46a35.17,35.17,0,0,1,9.29-2.65h0a.48.48,0,0,1,.53.3.48.48,0,0,1-.34.63,35,35,0,0,0-5,1.46.07.07,0,0,0,0,.13,33.84,33.84,0,0,1,6.83.73h0a.49.49,0,0,1,.39.4.48.48,0,0,1-.54.53,31.81,31.81,0,0,0-5.93-.35.07.07,0,0,0,0,.13c.93.29,1.84.61,2.74,1a33.39,33.39,0,0,1,4.84,2.47h0a.44.44,0,0,1,.22.43A.46.46,0,0,1,51,16a33.75,33.75,0,0,0-4.79-2.16c-.69-.24-1.4-.46-2.11-.66a.07.07,0,0,0,0,.13,29.16,29.16,0,0,1,3.31,2.41,32.39,32.39,0,0,1,3.85,3.83v0a.45.45,0,0,1,.08.47.47.47,0,0,1-.78.14,31.74,31.74,0,0,0-3.85-3.57c-.82-.63-1.68-1.22-2.56-1.77a.07.07,0,0,0-.08.11c.25.26.5.53.74.8A31.5,31.5,0,0,1,48,20.15a30.29,30.29,0,0,1,2.35,4.91h0a.47.47,0,0,1-.09.48.48.48,0,0,1-.79-.15A29,29,0,0,0,40,13.05c-.4-.29-1-.7-1.24-.86C11.31,27.47,20.82,67.6,40.59,65.51A33.21,33.21,0,0,0,29.87.14Z"/><path d="M6.48,25.5c6.32-10,17.33-14.33,24.08-15a.07.07,0,0,0,0-.13,28.48,28.48,0,0,0-8.75.65,30.34,30.34,0,0,0-9.65,4A29.67,29.67,0,0,0,4.5,22.19l-.07.08A22.82,22.82,0,0,0,.67,41.34c.19.76.7,2.32,1,3.32a.07.07,0,0,0,.13,0A29,29,0,0,1,6.48,25.5Z"/></g></g></svg>