<svg enable-background="new 0 0 128.1 128.1" viewBox="0 0 128.1 128.1" xmlns="http://www.w3.org/2000/svg" xmlns:xlink="http://www.w3.org/1999/xlink"><clipPath id="a"><circle cx="64.1" cy="64.1" r="56.3"/></clipPath><circle cx="64.1" cy="64.1" fill="#231f20" r="64.1"/><g clip-path="url(#a)"><path d="m7.7 7.7h56.3v112.6h-56.3z" fill="#231f20"/><path d="m64.1 7.7h56.3v56.3h-56.3z" fill="#939597"/><g fill="#fff"><path d="m64.1 64.1h56.3v56.3h-56.3z"/><path d="m34.1 29.2c1.5 2.4 3 4.8 4.5 7.2 1 1.6 2 3.2 3 4.9.3.5.8 1.8 1.4 2.2 0-4.4 0-8.8 0-13.2 0-.2-.1-.7 0-.8.1-.2 0-.1.4-.1.6-.1 1.2 0 1.8 0 .5 0 1.4-.2 1.9 0 .4.1.3.2.3.8v2.6 16c0 .4.2 1.4 0 1.8-.2.3-1.6.1-2 .1-.7 0-1.3 0-2 0-.2 0-.5.1-.6 0-.4-.2-.7-1.2-1-1.5-1.6-2.6-3.2-5.1-4.8-7.7-.7-1.2-1.4-2.3-2.2-3.5-.2-.4-.6-1.2-1-1.5v9.3 2.8c0 .5.2 1.3 0 1.7-.1.4.1.3-.5.3-1 0-2 0-3 0-.3 0-.7.1-.9-.1-.1-.2 0-.9 0-1.1 0-1.6 0-3.2 0-4.7 0-4 0-8.1 0-12.1 0-.7 0-1.5 0-2.2 0-.1-.1-.8 0-.9.2-.2 1.7 0 2 0 .9-.3 1.8-.3 2.7-.3z"/><path d="m43 82.9c-1.6-2.6-5.4-3-7.6-1-2.3 2-2.6 5.7-1.9 8.5.7 3 3 5 6.1 4.6 1.3-.1 2.4-.7 3.1-1.8.4-.5.6-1.1.8-1.7.1-.3.1-1.1.4-1.2.2-.1.7 0 .9 0h1.4 2.1c-.4 4.2-3 7.7-7.3 8.4-4 .7-8.2-.7-10.5-4.1-2.2-3.3-2.5-8-1-11.7 1.6-3.8 5.2-6.1 9.3-6.2 4.6-.1 8.8 2.8 9.3 7.6-.9 0-1.8 0-2.7 0-.4 0-1.1.1-1.5 0-.1 0-.2 0-.3 0-.2-.1-.4-1.1-.6-1.4-.3-.4.3.4 0 0z"/><path d="m49 61.6c-2.2 0-4.4 0-6.7 0-.2 0-.8.1-.9 0s-.2-.4-.2-.6c-.4-1.2-.8-2.5-1.2-3.7-.3-1-.7-2-1-3-.7 2.1-1.4 4.2-2.1 6.3-.1.2-.1.8-.3.9-.1.1-.5 0-.6 0-1.3 0-2.6 0-3.9 0-1.1 0-2.1 0-3.2 0 1.8 1.3 3.6 2.6 5.4 3.9.6.5.8.4.6 1.1-.4 1.2-.8 2.5-1.2 3.7-.3 1-.7 2-1 3 1.8-1.3 3.6-2.6 5.4-3.9.6-.5.6-.7 1.3-.2 1 .8 2.1 1.5 3.1 2.3.9.6 1.7 1.2 2.6 1.9-.7-2.1-1.4-4.2-2.1-6.3-.1-.2-.3-.7-.3-.9 0-.1.4-.3.5-.4 1-.8 2.1-1.5 3.1-2.3 1-.6 1.8-1.2 2.7-1.8z"/></g></g></svg>