<svg xmlns="http://www.w3.org/2000/svg" viewBox="0 0 24 22">
  <title>LinkedIn</title>
  <path fill="#1b1b1c" fill-rule="evenodd" d="M24 22h-5.3043v-7.7339c0-2.0243-.8298-3.4063-2.6543-3.4063-1.3956 0-2.1717.9326-2.533 1.8314-.1354.3226-.1142.772-.1142 1.2213V22h-5.255s.0678-13.6998 0-14.9451h5.255v2.3455c.3104-1.0256 1.9896-2.4892 4.6693-2.4892C21.3881 6.9112 24 9.0609 24 13.69V22zM2.825 5.1855h-.0338C1.0978 5.1855 0 4.043 0 2.5949 0 1.1185 1.1303 0 2.8575 0c1.7258 0 2.7869 1.1157 2.8208 2.5906 0 1.4482-1.095 2.5949-2.8533 2.5949zM.6054 7.0549h4.6778V22H.6054V7.0549z"/>
</svg>
