<svg viewBox="0 0 147.72 128" xmlns="http://www.w3.org/2000/svg">
  <linearGradient id="a" gradientUnits="userSpaceOnUse" x1="34.61" x2="133.57" y1="17.11" y2="116.07">
    <stop offset="0" stop-color="#ff007e"/>
    <stop offset="1" stop-color="#5708d3"/>
  </linearGradient>
  <path d="M103.2 39a19.48 19.48 0 1 0 0-39H51.72v19.21h51.49v19.2H51.72v16h51.49v19.2H51.72v16h51.49v19.2H51.72V128h51.48a44.52 44.52 0 0 0 0-89z" fill="url(#a)"/>
  <path d="m0 19.21 11.08 19.2h40.64v-19.2zm31.4 54.4h20.32v-19.2H20.31zm20.32 35.19V89.61H40.64z" fill="#1dcaff"/>
  <path d="M103.21 38.41H51.72v-19.2h51.49zm0 16H51.72v19.2h51.49zm0 54.4v-19.2H51.72v19.19h51.49z" fill="#1f0645"/>
</svg>