<svg viewBox="0 0 189.66 128" xmlns="http://www.w3.org/2000/svg" xmlns:xlink="http://www.w3.org/1999/xlink"><linearGradient id="a" gradientUnits="userSpaceOnUse" x1="76.38" x2="166.24" y1="-12.33" y2="77.53"><stop offset="0" stop-color="#ff007e"/><stop offset="1" stop-color="#5708d3"/></linearGradient><path d="m41.87.01.01.01v-.01z" fill="#36e5ea"/><path d="m105.92 0-32 55.47 9.85 17.06 41.85-72.53zm-41.87 0-11.05 19.22 9.85 17.06 20.9-36.28zm83.74 0-53 91.73 20.98 36.27 73.89-128z" fill="url(#a)"/><path d="m105.92 0h-22.17v.01h22.17z" fill="#ff5c92"/><path d="m41.88 72.54 11.08 19.2 20.93-36.26-11.08-19.2z" fill="#1dcaff"/><path d="m83.75.01-20.94 36.27 11.08 19.2 32.03-55.47z" fill="#36e5ea"/><path d="m0 0 11.09 19.2 11.08-19.2z" fill="#1dcaff"/><path d="m64.05 0h-22.17v.01h22.17z" fill="#ff5c92"/><path d="m20.94 36.27 11.09 19.2 20.93-36.25-11.08-19.2z" fill="#1dcaff"/><path d="m41.88.01v.01l11.08 19.2 11.09-19.21z" fill="#36e5ea"/><path d="m62.81 108.8 11.08 19.2 20.94-36.26-11.08-19.2z" fill="#1dcaff"/><path d="m125.62.01-41.87 72.53 11.08 19.2 52.96-91.73z" fill="#36e5ea"/><path d="m83.75 0-20.94 36.28 11.09 19.2 32.02-55.48zm-41.87 0 11.12 19.22 11.05-19.22zm83.74 0-41.87 72.54 11.08 19.2 52.96-91.74z" fill="#1f0645"/></svg>