<svg viewBox="0 0 96.52 128" xmlns="http://www.w3.org/2000/svg">
  <linearGradient id="a" gradientUnits="userSpaceOnUse" x1="-4.88" x2="75.11" y1="4.88" y2="84.88">
    <stop offset="0" stop-color="#ff007e"/>
    <stop offset="1" stop-color="#5708d3"/>
  </linearGradient>
  <path d="m0 34.13 32.12 55.63h19.71L0 0zM51.64 0H22.17l49.19 85.2A44.88 44.88 0 0 0 51.64 0zM0 89.76h10L0 72.53z" fill="url(#a)"/>
  <path d="M29.94 89.76H9.95L32.03 128H54.2L32.12 89.76z" fill="#1dcaff"/>
  <path d="m0 72.53 9.95 17.23H32.12L0 34.13z" fill="#36e5ea"/>
  <path d="M0 128h12.31L0 106.67zM73.91 128h22.17L71.36 85.2a44.73 44.73 0 0 1-19.53 4.56z" fill="#1dcaff"/>
  <path d="m0 0 51.83 89.76a44.73 44.73 0 0 0 19.53-4.56L22.17 0z" fill="#36e5ea"/>
  <path d="m0 72.53 10 17.23h22.12L0 34.13zM22.17 0H0l51.83 89.76a44.73 44.73 0 0 0 19.53-4.56z" fill="#1f0645"/>
</svg>