<svg viewBox="0 0 137.91 128" xmlns="http://www.w3.org/2000/svg">
  <linearGradient id="a" gradientUnits="userSpaceOnUse" x1="12.12" x2="126.32" y1="25.37" y2="139.58">
    <stop offset="0" stop-color="#ff007e"/>
    <stop offset="1" stop-color="#5708d3"/>
  </linearGradient>
  <path d="M106.5 73.6H20.24a44.83 44.83 0 0 1 0-19.2h75.17l-9.24-16H27.24a44.66 44.66 0 0 1 35.34-19.17h12.51L64 0a64 64 0 0 0 0 128h73.91z" fill="url(#a)"/>
  <path d="M86.17 108.8H64a44.72 44.72 0 0 1-36.76-19.2h70z" fill="#ff5c92"/>
  <path d="M64 108.8h22.17l11.08-19.2h-70A44.72 44.72 0 0 0 64 108.8z" fill="#ff5c92"/>
  <path d="m126.82 38.4 11.09-19.2H75.09l11.08 19.2z" fill="#1dcaff"/>
  <path d="M62.58 19.23A44.66 44.66 0 0 0 27.24 38.4h58.93L75.09 19.2H64c-.47 0-.95.01-1.42.03z" fill="#ff5c92"/>
  <path d="M117.58 54.4H95.41l11.09 19.2z" fill="#1dcaff"/>
  <path d="M19.2 64a44.75 44.75 0 0 0 1 9.6h86.3L95.41 54.4H20.24A44.75 44.75 0 0 0 19.2 64z" fill="#ff5c92"/>
  <path d="M27.24 89.6h70l-11.07 19.2H64a44.72 44.72 0 0 1-36.76-19.2zm35.34-70.37A44.66 44.66 0 0 0 27.24 38.4h58.93L75.09 19.2H64c-.47 0-.95.01-1.42.03zM19.2 64a44.75 44.75 0 0 0 1 9.6h86.3L95.41 54.4H20.24A44.75 44.75 0 0 0 19.2 64z" fill="#1f0645"/>
</svg>